<svg width="171" height="34" viewBox="0 0 171 34" fill="none" xmlns="http://www.w3.org/2000/svg">
<path d="M7.65 14.118C7.992 13.92 8.064 13.848 8.064 13.65C8.064 13.542 8.028 13.452 7.92 13.308C7.254 12.318 6.21 11.76 4.968 11.76C2.934 11.76 1.386 13.128 1.386 14.946C1.386 16.296 2.178 17.286 3.852 17.988C5.472 18.672 5.472 18.672 5.886 18.942C6.426 19.32 6.714 19.842 6.714 20.526C6.714 21.678 5.886 22.524 4.752 22.524C3.69 22.524 2.88 21.84 2.754 20.832C2.7 20.508 2.592 20.364 2.358 20.364C2.268 20.364 2.268 20.364 1.998 20.436L1.458 20.544C1.008 20.652 0.9 20.724 0.9 20.994C0.9 21.156 0.99 21.516 1.098 21.822C1.674 23.316 3.042 24.234 4.68 24.234C6.894 24.234 8.532 22.596 8.532 20.4C8.532 18.744 7.668 17.664 5.724 16.854C4.14 16.206 4.14 16.206 3.798 15.972C3.402 15.702 3.222 15.36 3.222 14.964C3.222 14.118 3.978 13.47 4.968 13.47C5.634 13.47 6.174 13.74 6.48 14.226C6.624 14.46 6.714 14.514 6.876 14.514C6.984 14.514 7.02 14.496 7.308 14.316L7.65 14.118ZM16.1702 23.334C16.1522 23.892 16.2602 24.018 16.8362 24H17.2502C17.8262 24.018 17.9342 23.91 17.9162 23.334V17.088C17.9342 16.512 17.8262 16.404 17.2502 16.422H16.8362C16.2602 16.404 16.1522 16.53 16.1702 17.088V17.304C15.4142 16.512 14.7662 16.224 13.7942 16.224C11.7602 16.224 10.2302 17.916 10.2302 20.202C10.2302 22.524 11.7602 24.234 13.8482 24.234C14.7662 24.234 15.3602 23.964 16.1702 23.208V23.334ZM14.1002 17.79C15.3962 17.79 16.2782 18.78 16.2782 20.238C16.2782 21.678 15.3962 22.668 14.1182 22.668C12.9122 22.668 12.0122 21.642 12.0122 20.274C12.0122 18.834 12.8762 17.79 14.1002 17.79ZM21.8991 18.87V11.526C21.9171 10.968 21.8091 10.842 21.2331 10.86H20.8191C20.2431 10.842 20.1351 10.968 20.1531 11.526V23.334C20.1351 23.91 20.2431 24.018 20.8191 24H21.2331C21.8091 24.018 21.9171 23.91 21.8991 23.334V21.084L22.1691 20.814L24.4011 23.64C24.6531 23.982 24.6711 24 24.9231 24H25.1391H25.8591C26.3451 24 26.5251 23.892 26.5251 23.622C26.5251 23.496 26.4891 23.424 26.2551 23.154L23.4111 19.608L25.8051 17.286C26.0751 17.034 26.1291 16.962 26.1291 16.836C26.1291 16.548 25.9491 16.422 25.5351 16.422H24.7791C24.3651 16.422 24.3651 16.422 24.1851 16.602L24.0591 16.728L21.8991 18.87ZM33.344 23.334C33.326 23.892 33.434 24.018 34.01 24H34.424C35 24.018 35.108 23.91 35.09 23.334V17.088C35.108 16.512 35 16.404 34.424 16.422H34.01C33.434 16.404 33.326 16.53 33.344 17.088V17.304C32.588 16.512 31.94 16.224 30.968 16.224C28.934 16.224 27.404 17.916 27.404 20.202C27.404 22.524 28.934 24.234 31.022 24.234C31.94 24.234 32.534 23.964 33.344 23.208V23.334ZM31.274 17.79C32.57 17.79 33.452 18.78 33.452 20.238C33.452 21.678 32.57 22.668 31.292 22.668C30.086 22.668 29.186 21.642 29.186 20.274C29.186 18.834 30.05 17.79 31.274 17.79ZM39.3379 18.06H40.0399C40.5979 18.078 40.7059 17.97 40.6879 17.394V17.088C40.7059 16.512 40.5979 16.404 40.0399 16.422H39.3379V14.316C39.3559 13.74 39.2479 13.632 38.6719 13.65H38.2579C37.6819 13.632 37.5739 13.74 37.5919 14.316V16.422H37.5019C36.9439 16.404 36.8359 16.512 36.8539 17.088V17.394C36.8359 17.97 36.9439 18.078 37.5019 18.06H37.5919V23.334C37.5739 23.91 37.6819 24.018 38.2579 24H38.6719C39.2479 24.018 39.3559 23.91 39.3379 23.334V18.06ZM47.4768 23.334C47.4588 23.892 47.5668 24.018 48.1428 24H48.5568C49.1328 24.018 49.2408 23.91 49.2228 23.334V17.088C49.2408 16.512 49.1328 16.404 48.5568 16.422H48.1428C47.5668 16.404 47.4588 16.53 47.4768 17.088V17.304C46.7208 16.512 46.0728 16.224 45.1008 16.224C43.0668 16.224 41.5368 17.916 41.5368 20.202C41.5368 22.524 43.0668 24.234 45.1548 24.234C46.0728 24.234 46.6668 23.964 47.4768 23.208V23.334ZM45.4068 17.79C46.7028 17.79 47.5848 18.78 47.5848 20.238C47.5848 21.678 46.7028 22.668 45.4248 22.668C44.2188 22.668 43.3188 21.642 43.3188 20.274C43.3188 18.834 44.1828 17.79 45.4068 17.79ZM60.3698 18.888C61.9718 18.546 63.0338 17.214 63.0338 15.522C63.0338 14.37 62.4758 13.29 61.5938 12.696C60.8378 12.192 59.9738 11.994 58.4258 11.994H56.9678C56.3918 11.976 56.2838 12.084 56.3018 12.66V23.334C56.2838 23.91 56.3918 24.018 56.9678 24H57.4538C58.0298 24.018 58.1378 23.91 58.1198 23.334V19.086H58.4438L61.5938 23.622C61.8098 23.91 61.8098 23.91 61.8998 23.964C61.9898 24 62.0078 24 62.3498 24H63.0518C63.5198 24 63.6998 23.892 63.6998 23.622C63.6998 23.514 63.6458 23.388 63.4658 23.154L60.3698 18.888ZM58.1198 17.502V13.704H58.7678C59.6138 13.704 60.1357 13.83 60.5678 14.118C60.9998 14.424 61.2698 14.964 61.2698 15.54C61.2698 16.17 60.9818 16.746 60.5138 17.088C60.0998 17.376 59.5058 17.502 58.6958 17.502H58.1198ZM67.7752 22.578L65.2552 27.312C65.1292 27.546 65.0932 27.654 65.0932 27.744C65.0932 28.032 65.2552 28.122 65.7412 28.122H66.3172C66.8032 28.14 66.8212 28.122 67.0552 27.672L72.4192 17.232C72.5812 16.944 72.5992 16.908 72.5992 16.782C72.5992 16.512 72.4192 16.422 71.9332 16.422H71.3752C70.8892 16.404 70.8532 16.422 70.6552 16.872L68.7112 20.778L66.6412 16.872C66.4072 16.422 66.3892 16.422 65.9032 16.422H65.3092C64.8052 16.422 64.6432 16.512 64.6432 16.8C64.6432 16.908 64.6612 16.962 64.8232 17.232L67.7752 22.578ZM75.7936 17.088C75.8116 16.512 75.7036 16.404 75.1276 16.422H74.7136C74.1376 16.404 74.0296 16.512 74.0476 17.088V20.814C74.0476 22.002 74.2636 22.65 74.8396 23.28C75.4516 23.91 76.2796 24.234 77.2696 24.234C78.2776 24.234 79.1056 23.91 79.7176 23.28C80.2936 22.65 80.5096 22.002 80.5096 20.814V17.088C80.5276 16.512 80.4196 16.404 79.8436 16.422H79.4296C78.8536 16.404 78.7456 16.512 78.7636 17.088V20.778C78.7636 22.074 78.2956 22.668 77.2876 22.668C76.2616 22.668 75.7936 22.074 75.7936 20.778V17.088ZM84.4772 17.088C84.4952 16.512 84.3872 16.404 83.8112 16.422H83.3972C82.8212 16.404 82.7132 16.512 82.7312 17.088V23.334C82.7132 23.91 82.8212 24.018 83.3972 24H83.8112C84.3872 24.018 84.4952 23.91 84.4772 23.334V17.088ZM83.5952 12.138C82.9832 12.138 82.4612 12.66 82.4612 13.272C82.4612 13.902 82.9652 14.424 83.6132 14.424C84.2432 14.424 84.7472 13.902 84.7472 13.272C84.7472 12.642 84.2432 12.138 83.5952 12.138ZM92.5543 17.25C92.5543 16.854 92.5363 16.818 92.4283 16.71C92.1583 16.458 91.1863 16.224 90.4303 16.224C88.1083 16.224 86.2903 17.988 86.2903 20.256C86.2903 22.506 88.0723 24.234 90.4303 24.234C91.1503 24.234 92.1403 23.982 92.4283 23.712C92.5543 23.604 92.5543 23.568 92.5543 23.154V22.506C92.5543 22.092 92.4823 21.912 92.2663 21.912C92.1943 21.912 92.1223 21.948 91.9963 22.074C91.5643 22.47 91.0423 22.668 90.3943 22.668C89.0263 22.668 88.0723 21.678 88.0723 20.22C88.0723 18.798 89.0443 17.79 90.4123 17.79C90.9343 17.79 91.2943 17.898 91.7083 18.204C92.1583 18.51 92.1583 18.51 92.2483 18.51C92.4643 18.51 92.5543 18.348 92.5543 17.916V17.25ZM96.114 11.526C96.132 10.968 96.024 10.842 95.448 10.86H95.034C94.458 10.842 94.35 10.968 94.368 11.526V23.334C94.35 23.91 94.458 24.018 95.034 24H95.448C96.024 24.018 96.132 23.91 96.114 23.334V20.346C96.114 19.428 96.222 18.726 96.42 18.42C96.672 18.024 97.176 17.79 97.77 17.79C98.724 17.79 99.138 18.312 99.138 19.518V23.334C99.12 23.91 99.228 24.018 99.804 24H100.218C100.794 24.018 100.902 23.91 100.884 23.334V19.356C100.884 18.312 100.758 17.754 100.38 17.25C99.93 16.62 99.084 16.224 98.184 16.224C97.356 16.224 96.798 16.458 96.114 17.052V11.526ZM104.85 17.088C104.868 16.512 104.76 16.404 104.184 16.422H103.77C103.194 16.404 103.086 16.512 103.104 17.088V23.334C103.086 23.91 103.194 24.018 103.77 24H104.184C104.76 24.018 104.868 23.91 104.85 23.334V17.088ZM103.968 12.138C103.356 12.138 102.834 12.66 102.834 13.272C102.834 13.902 103.338 14.424 103.986 14.424C104.616 14.424 105.12 13.902 105.12 13.272C105.12 12.642 104.616 12.138 103.968 12.138Z" fill="#2B2B2B"/>
<path d="M113.127 24.5176C112.599 24.5176 112.197 24.3736 111.921 24.0856C111.657 23.7976 111.525 23.4196 111.525 22.9516C111.525 22.4116 111.675 21.9796 111.975 21.6556C112.287 21.3316 112.719 21.1696 113.271 21.1696C113.799 21.1696 114.195 21.3016 114.459 21.5656C114.735 21.8176 114.873 22.1956 114.873 22.6996C114.873 23.2516 114.717 23.6956 114.405 24.0316C114.093 24.3556 113.667 24.5176 113.127 24.5176ZM121.188 24.5176C120.492 24.5176 119.706 24.4576 118.83 24.3376C118.35 24.2776 118.02 24.1516 117.84 23.9596C117.66 23.7676 117.582 23.4556 117.606 23.0236C117.69 21.8356 117.888 20.3716 118.2 18.6316C118.512 16.8796 118.89 15.1936 119.334 13.5736C119.418 13.2736 119.586 13.0636 119.838 12.9436C120.09 12.8236 120.42 12.7636 120.828 12.7636C121.56 12.7636 121.926 12.9676 121.926 13.3756C121.926 13.5436 121.89 13.7356 121.818 13.9516C121.506 14.9116 121.194 16.2016 120.882 17.8216C120.57 19.4296 120.348 20.9656 120.216 22.4296C120.576 22.4656 120.984 22.4836 121.44 22.4836C123.54 22.4836 125.106 21.8476 126.138 20.5756C127.182 19.3036 127.704 17.6056 127.704 15.4816C127.704 14.0536 127.296 12.9496 126.48 12.1696C125.664 11.3896 124.512 10.9996 123.024 10.9996C122.064 10.9996 121.11 11.1496 120.162 11.4496C119.226 11.7496 118.38 12.1456 117.624 12.6376C117.468 12.7456 117.3 12.7996 117.12 12.7996C116.916 12.7996 116.754 12.7156 116.634 12.5476C116.514 12.3676 116.454 12.1516 116.454 11.8996C116.454 11.6116 116.502 11.3776 116.598 11.1976C116.694 11.0056 116.856 10.8316 117.084 10.6756C117.912 10.1116 118.884 9.68558 120 9.39758C121.116 9.09758 122.19 8.94758 123.222 8.94758C124.686 8.94758 125.952 9.20558 127.02 9.72158C128.088 10.2256 128.91 10.9696 129.486 11.9536C130.062 12.9376 130.35 14.1256 130.35 15.5176C130.35 17.3296 129.99 18.9136 129.27 20.2696C128.55 21.6136 127.5 22.6576 126.12 23.4016C124.74 24.1456 123.096 24.5176 121.188 24.5176ZM139.583 20.4136C139.739 20.4136 139.859 20.4856 139.943 20.6296C140.039 20.7736 140.087 20.9716 140.087 21.2236C140.087 21.7036 139.973 22.0756 139.745 22.3396C139.301 22.8796 138.671 23.3776 137.855 23.8336C137.051 24.2896 136.187 24.5176 135.263 24.5176C134.003 24.5176 133.025 24.1756 132.329 23.4916C131.633 22.8076 131.285 21.8716 131.285 20.6836C131.285 19.8556 131.459 19.0876 131.807 18.3796C132.155 17.6596 132.635 17.0896 133.247 16.6696C133.871 16.2496 134.573 16.0396 135.353 16.0396C136.049 16.0396 136.607 16.2496 137.027 16.6696C137.447 17.0776 137.657 17.6356 137.657 18.3436C137.657 19.1716 137.357 19.8856 136.757 20.4856C136.169 21.0736 135.167 21.5416 133.751 21.8896C134.051 22.4416 134.621 22.7176 135.461 22.7176C136.001 22.7176 136.613 22.5316 137.297 22.1596C137.993 21.7756 138.593 21.2776 139.097 20.6656C139.241 20.4976 139.403 20.4136 139.583 20.4136ZM135.047 17.8036C134.603 17.8036 134.225 18.0616 133.913 18.5776C133.613 19.0936 133.463 19.7176 133.463 20.4496V20.4856C134.171 20.3176 134.729 20.0656 135.137 19.7296C135.545 19.3936 135.749 19.0036 135.749 18.5596C135.749 18.3316 135.683 18.1516 135.551 18.0196C135.431 17.8756 135.263 17.8036 135.047 17.8036ZM141.969 24.9136C141.345 24.9136 140.865 24.7696 140.529 24.4816C140.205 24.1936 140.043 23.8696 140.043 23.5096C140.043 23.1976 140.157 22.9276 140.385 22.6996C140.613 22.4716 140.949 22.3576 141.393 22.3576C141.549 22.3576 141.729 22.3756 141.933 22.4116C142.149 22.4356 142.311 22.4536 142.419 22.4656C142.407 22.1536 142.335 21.8596 142.203 21.5836C142.083 21.3076 141.927 21.0436 141.735 20.7916C141.543 20.5276 141.363 20.2996 141.195 20.1076C140.823 20.8156 140.451 21.4036 140.079 21.8716C139.719 22.3396 139.323 22.7836 138.891 23.2036C138.675 23.4196 138.447 23.5276 138.207 23.5276C138.015 23.5276 137.859 23.4616 137.739 23.3296C137.619 23.1856 137.559 23.0116 137.559 22.8076C137.559 22.5676 137.643 22.3456 137.811 22.1416L138.045 21.8536C138.705 21.0376 139.203 20.3656 139.539 19.8376C139.743 19.4896 139.983 19.0276 140.259 18.4516C140.535 17.8636 140.805 17.2576 141.069 16.6336C141.297 16.1056 141.771 15.8416 142.491 15.8416C142.827 15.8416 143.061 15.8716 143.193 15.9316C143.325 15.9916 143.391 16.0876 143.391 16.2196C143.391 16.2916 143.367 16.4056 143.319 16.5616C143.271 16.7176 143.205 16.8736 143.121 17.0296C142.905 17.4616 142.797 17.8276 142.797 18.1276C142.797 18.3076 142.857 18.5056 142.977 18.7216C143.109 18.9376 143.307 19.2076 143.571 19.5316C143.955 20.0356 144.243 20.4676 144.435 20.8276C144.639 21.1756 144.741 21.5596 144.741 21.9796C144.741 22.0996 144.729 22.2676 144.705 22.4836C145.293 22.2556 145.983 21.6496 146.775 20.6656C146.919 20.4976 147.081 20.4136 147.261 20.4136C147.417 20.4136 147.537 20.4856 147.621 20.6296C147.717 20.7736 147.765 20.9716 147.765 21.2236C147.765 21.6796 147.651 22.0516 147.423 22.3396C146.823 23.0836 146.247 23.5936 145.695 23.8696C145.155 24.1336 144.483 24.2776 143.679 24.3016C143.199 24.7096 142.629 24.9136 141.969 24.9136ZM148.661 14.8516C148.157 14.8516 147.779 14.7376 147.527 14.5096C147.275 14.2696 147.149 13.9396 147.149 13.5196C147.149 13.0996 147.311 12.7516 147.635 12.4756C147.971 12.1876 148.385 12.0436 148.877 12.0436C149.321 12.0436 149.681 12.1516 149.957 12.3676C150.233 12.5836 150.371 12.8896 150.371 13.2856C150.371 13.7656 150.215 14.1496 149.903 14.4376C149.591 14.7136 149.177 14.8516 148.661 14.8516ZM148.517 24.5176C147.737 24.5176 147.167 24.2416 146.807 23.6896C146.459 23.1376 146.285 22.4056 146.285 21.4936C146.285 20.9536 146.351 20.2636 146.483 19.4236C146.627 18.5716 146.807 17.7796 147.023 17.0476C147.131 16.6636 147.275 16.3996 147.455 16.2556C147.635 16.1116 147.923 16.0396 148.319 16.0396C148.931 16.0396 149.237 16.2436 149.237 16.6516C149.237 16.9516 149.123 17.6476 148.895 18.7396C148.607 20.0596 148.463 20.9536 148.463 21.4216C148.463 21.7816 148.511 22.0576 148.607 22.2496C148.703 22.4416 148.865 22.5376 149.093 22.5376C149.309 22.5376 149.579 22.3876 149.903 22.0876C150.227 21.7876 150.659 21.3136 151.199 20.6656C151.343 20.4976 151.505 20.4136 151.685 20.4136C151.841 20.4136 151.961 20.4856 152.045 20.6296C152.141 20.7736 152.189 20.9716 152.189 21.2236C152.189 21.7036 152.075 22.0756 151.847 22.3396C150.659 23.7916 149.549 24.5176 148.517 24.5176ZM159.948 20.4496C160.104 20.4496 160.224 20.5276 160.308 20.6836C160.404 20.8276 160.452 21.0136 160.452 21.2416C160.452 21.5176 160.41 21.7336 160.326 21.8896C160.242 22.0456 160.11 22.1836 159.93 22.3036C158.898 22.9996 158.142 23.5156 157.662 23.8516L156.51 24.6256C156.054 27.1096 155.454 29.0596 154.71 30.4756C153.978 31.9036 153.042 32.6176 151.902 32.6176C151.29 32.6176 150.792 32.4256 150.408 32.0416C150.024 31.6696 149.832 31.1776 149.832 30.5656C149.832 29.7136 150.168 28.7956 150.84 27.8116C151.512 26.8396 152.772 25.6396 154.62 24.2116L154.728 23.5096C154.524 23.8336 154.254 24.0856 153.918 24.2656C153.594 24.4336 153.27 24.5176 152.946 24.5176C152.202 24.5176 151.608 24.2476 151.164 23.7076C150.72 23.1676 150.498 22.4596 150.498 21.5836C150.498 20.6236 150.72 19.7176 151.164 18.8656C151.608 18.0016 152.196 17.3116 152.928 16.7956C153.672 16.2676 154.458 16.0036 155.286 16.0036C155.55 16.0036 155.724 16.0576 155.808 16.1656C155.904 16.2616 155.982 16.4416 156.042 16.7056C156.27 16.6576 156.534 16.6336 156.834 16.6336C157.134 16.6336 157.344 16.6816 157.464 16.7776C157.596 16.8616 157.662 17.0356 157.662 17.2996C157.662 17.4436 157.656 17.5576 157.644 17.6416C157.596 18.0136 157.446 18.9556 157.194 20.4676C157.146 20.7556 157.092 21.0736 157.032 21.4216C156.984 21.7576 156.93 22.1176 156.87 22.5016C157.794 21.7816 158.682 21.1456 159.534 20.5936C159.69 20.4976 159.828 20.4496 159.948 20.4496ZM153.594 22.6996C153.87 22.6996 154.134 22.5316 154.386 22.1956C154.638 21.8596 154.818 21.3796 154.926 20.7556L155.502 17.6776C155.01 17.6896 154.554 17.8816 154.134 18.2536C153.714 18.6136 153.378 19.0936 153.126 19.6936C152.874 20.2936 152.748 20.9296 152.748 21.6016C152.748 21.9736 152.82 22.2496 152.964 22.4296C153.12 22.6096 153.33 22.6996 153.594 22.6996ZM152.1 30.8716C152.4 30.8716 152.736 30.5116 153.108 29.7916C153.492 29.0716 153.858 27.9256 154.206 26.3536C153.282 27.1456 152.616 27.8596 152.208 28.4956C151.8 29.1316 151.596 29.6896 151.596 30.1696C151.596 30.3736 151.632 30.5416 151.704 30.6736C151.788 30.8056 151.92 30.8716 152.1 30.8716ZM160.43 24.5176C159.974 24.5176 159.65 24.2776 159.458 23.7976C159.278 23.3176 159.188 22.5496 159.188 21.4936C159.188 19.9336 159.41 18.4516 159.854 17.0476C159.962 16.6996 160.136 16.4476 160.376 16.2916C160.628 16.1236 160.976 16.0396 161.42 16.0396C161.66 16.0396 161.828 16.0696 161.924 16.1296C162.02 16.1896 162.068 16.3036 162.068 16.4716C162.068 16.6636 161.978 17.0956 161.798 17.7676C161.678 18.2476 161.582 18.6676 161.51 19.0276C161.438 19.3876 161.378 19.8316 161.33 20.3596C161.726 19.3276 162.17 18.4876 162.662 17.8396C163.154 17.1916 163.634 16.7296 164.102 16.4536C164.582 16.1776 165.02 16.0396 165.416 16.0396C165.8 16.0396 166.088 16.1416 166.28 16.3456C166.484 16.5376 166.586 16.8256 166.586 17.2096C166.586 17.5216 166.52 18.1096 166.388 18.9736C166.268 19.7056 166.172 20.4016 166.1 21.0616C166.028 21.7096 165.992 22.4356 165.992 23.2396C165.992 23.6956 165.896 24.0256 165.704 24.2296C165.524 24.4216 165.224 24.5176 164.804 24.5176C164.408 24.5176 164.12 24.4156 163.94 24.2116C163.76 24.0076 163.67 23.7016 163.67 23.2936C163.67 22.8136 163.754 22.0216 163.922 20.9176C164.066 19.9576 164.138 19.3456 164.138 19.0816C164.138 18.8896 164.072 18.7936 163.94 18.7936C163.784 18.7936 163.562 18.9976 163.274 19.4056C162.998 19.8016 162.71 20.3296 162.41 20.9896C162.122 21.6496 161.888 22.3456 161.708 23.0776C161.576 23.6416 161.42 24.0256 161.24 24.2296C161.072 24.4216 160.802 24.5176 160.43 24.5176Z" fill="#2B2B2B"/>
</svg>
