<svg xmlns="http://www.w3.org/2000/svg" viewBox="0 0 431.95 512"><title>icon-out-door</title><g id="レイヤー_2" data-name="レイヤー 2"><g id="レイヤー_1-2" data-name="レイヤー 1"><path d="M197.74,0h21c-.1,9.16-.26,18.32-.29,27.48,0,8.65.18,8.83,9.06,8.83q50.51,0,101,0c6.3,0,6.9.61,6.91,6.86q0,71.25-.08,142.48c0,2.69-1.1,5.44-2,8.06-2,6-4.4,12-1.28,18.34.95,1.92,1.52,4,2.39,6,2.79,6.26.75,9.58-6,9.63-7,0-14,0-21,0-8.2,0-8.36-.17-8.36-8.43q0-68.24,0-136.48c0-7.58-.47-8.06-7.83-8.07q-32.5,0-65,0c-7.33,0-7.79.49-7.79,8.1q0,173.23,0,346.46c0,7.66.41,8,8.35,8.05q31.76,0,63.51,0c8.5,0,8.77-.26,8.77-8.64q0-68.24,0-136.48c0-1.83-.51-3.93.21-5.43.84-1.73,2.72-4.12,4.23-4.19,9.15-.38,18.33-.2,27.49-.19,3.17,0,4.67,1.78,4.32,4.77a19.33,19.33,0,0,1-1.71,6.11c-3.71,7.68-4.09,15.22-.31,23.05a20.23,20.23,0,0,1,2.05,8.52q.19,72.24.09,144.48c0,.83-.05,1.66,0,2.5.07,3.34-1.58,4.9-4.89,4.84-1.84,0-3.67,0-5.5,0q-49.75,0-99.52,0c-3.75,0-7.14.18-7,5.34.16,10,.2,20,.28,30h-21c-1.23-1-2.34-2.66-3.71-2.94-8.13-1.61-16.31-2.9-24.48-4.31-12.74-2.19-25.49-4.29-38.21-6.61s-25.36-5-38.08-7.29c-12.88-2.31-25.84-4.24-38.73-6.48-14.52-2.53-29.14-4.66-43.47-8-12-2.83-11,.1-11-12.63Q0,256,0,48.35c0-2,.06-4,0-6,0-2.89,1-4.69,4.11-5.23,7.84-1.37,15.64-2.9,23.45-4.39,12.85-2.43,25.69-5,38.56-7.3,9.29-1.67,18.67-2.89,28-4.59,16.45-3,32.84-6.37,49.3-9.33S176.42,6,192.89,3C194.63,2.71,196.13,1,197.74,0ZM180.31,271.77c2.11-.74,4.06-1,5.43-2a17.09,17.09,0,0,0-.16-27.66c-3.57-2.49-7.56-2.11-10.92,1.09-6.62,6.31-6.62,19.55.18,25.62C176.34,270.18,178.47,270.81,180.31,271.77Z"/><path d="M363.91,274.28c-3.81-.27-6-.57-8.28-.57-35.66,0-71.33,0-107-.06-9.5,0-15.59-3.69-17.72-11.62-3.86-14.41,3.21-25.81,18.06-25.75,35.84.14,71.67.05,107.5,0a16.14,16.14,0,0,0,7.42-1.64Q357,228.21,350,221.75c-2.31-2.16-4.88-4.11-6.81-6.57-4.12-5.23-5.21-11.13-2.29-17.33,3-6.46,8.06-10.24,15.24-11.53,9.69-1.74,15.6,4.32,21.76,9.88q22.79,20.57,45.39,41.33c8.16,7.47,11.05,16.79,6.45,25-2.78,4.93-7.39,8.92-11.56,12.93-7.44,7.15-15.21,13.94-22.74,21-7.77,7.28-15.36,14.77-23.15,22a19.6,19.6,0,0,1-32.14-8c-2.11-6.25-1-11.89,3.72-16.55,5.1-5,10.39-9.84,15.56-14.78C360.62,278,361.65,276.75,363.91,274.28Z"/></g></g></svg>