<svg xmlns="http://www.w3.org/2000/svg" viewBox="0 0 156.05 160.06"><title>icon-settings</title><g id="レイヤー_2" data-name="レイヤー 2"><g id="レイヤー_1-2" data-name="レイヤー 1"><path d="M156.05,56.29a22.91,22.91,0,0,1-2.55,3.26c-1.72,1.56-3.64,2.91-5.48,4.34-10.8,8.4-10.87,8.41-10.25,22a6.42,6.42,0,0,0,2.32,3.92q6.09,5.16,12.54,9.9c3.1,2.27,3.8,4.55,1.71,8-4.9,8.12-9.6,16.36-14.23,24.63-1.78,3.18-3.92,4.15-7.36,2.64a154.32,154.32,0,0,0-14.82-5.89c-1.85-.6-4.18.22-6.28.48-.44.06-.8.65-1.26.77-9.51,2.59-10.71,10.07-11.52,18.35-1.25,13-1.12,11.21-12.4,11.28-7.66,0-15.32-.06-23,0-3.39,0-5.37-1.23-5.67-4.79-.17-2-.63-3.94-.87-5.92-1.64-14-1.6-14-13.91-20.48a6.35,6.35,0,0,0-4.56,0c-5.31,1.92-10.56,4-15.75,6.26-3.05,1.32-5.07.52-6.65-2.24-4.88-8.51-9.75-17-14.74-25.48-1.77-3-1.36-5.22,1.4-7.3,4.26-3.21,8.57-6.38,12.5-9.95,1.46-1.31,2.32-3.64,2.77-5.66,2.27-10-2.77-16-10.77-21.38-9.77-6.53-8.44-5.92-3.15-15.22C8,41.12,12,34.42,15.79,27.59c1.79-3.22,4-4.07,7.38-2.56A153.29,153.29,0,0,0,38,30.92c1.85.59,4.17-.28,6.27-.53.3,0,.54-.42.84-.51C54.65,27,56.42,19.48,57.05,10.75,57.83,0,58.19,0,69,0,76.77,0,84.6.09,92.43,0c3.4,0,5.35,1.26,5.66,4.79.18,2,.63,4,.86,5.93,1.65,14,1.62,14.06,14,20.47a6.38,6.38,0,0,0,4.55-.05c5.31-1.92,10.44-4.39,15.82-6.06,1.71-.53,5.08.09,5.85,1.33,5.64,9,10.8,18.34,16.1,27.57A16.44,16.44,0,0,1,156.05,56.29ZM105.93,80.43A28,28,0,1,0,77.65,108,28,28,0,0,0,105.93,80.43Z"/></g></g></svg>