<svg width="25" height="22" viewBox="0 0 25 22" fill="none" xmlns="http://www.w3.org/2000/svg">
<g clip-path="url(#clip0)">
<path d="M7.77815 18.5052C7.72315 18.3601 7.64066 18.2216 7.54167 18.0963C7.44268 17.971 7.33269 17.8589 7.2172 17.7468C7.10172 17.6347 6.96973 17.549 6.84874 17.4632C6.72775 17.3775 6.60127 17.3115 6.48578 17.2588C6.48028 17.5028 6.52977 17.8721 6.62876 18.2414C6.67826 18.4195 6.73325 18.6041 6.79375 18.769C6.85424 18.9339 6.92023 19.0922 6.98073 19.2043C7.10722 19.4351 7.2612 19.6395 7.43168 19.778C7.59667 19.9165 7.77265 20.0154 7.92663 20.0616C8.02012 19.5142 7.95963 18.9339 7.77815 18.5052ZM6.62326 20.1605C6.50778 20.1737 6.37029 20.1935 6.2273 20.2199C6.07882 20.2463 5.92483 20.2858 5.77085 20.332C5.46288 20.4177 5.16591 20.5167 4.98443 20.642C5.09992 20.7673 5.2374 20.886 5.38589 20.9981C5.53437 21.1102 5.69386 21.1959 5.85334 21.2751C6.01283 21.3542 6.17781 21.407 6.33729 21.4333C6.49678 21.4597 6.64526 21.4597 6.77725 21.4268C7.18971 21.3146 7.56367 20.9717 7.78915 20.4969C7.65166 20.3848 7.47568 20.2924 7.2777 20.2331C7.07422 20.1737 6.85424 20.1342 6.62326 20.1605ZM4.87994 17.2324C4.91843 17.4105 4.95693 17.5753 5.00093 17.7072C5.04492 17.8391 5.09992 17.9578 5.16591 18.07C5.2264 18.1821 5.2924 18.2876 5.36939 18.3733C5.44088 18.4591 5.51787 18.5382 5.59487 18.5975C5.67186 18.6635 5.74885 18.7163 5.82034 18.7492C5.97433 18.2282 5.97983 17.6347 5.85884 17.1797C5.82034 17.028 5.76535 16.8763 5.68836 16.7312C5.64986 16.6587 5.60587 16.5927 5.56187 16.5202C5.51787 16.4476 5.47388 16.3817 5.42438 16.3157C5.37489 16.2498 5.32539 16.1904 5.2759 16.1311C5.2209 16.0717 5.17691 16.0124 5.12191 15.9596C5.07242 15.9068 5.01742 15.8541 4.96793 15.8079C4.91293 15.7618 4.86344 15.7222 4.81394 15.676C4.75895 15.92 4.75895 16.2827 4.79195 16.6653C4.80844 16.8697 4.84694 17.0543 4.87994 17.2324ZM5.63886 19.1515C5.57287 19.0856 5.50688 19.0196 5.42438 18.9537C5.34739 18.8877 5.2594 18.835 5.16041 18.7822C5.06692 18.736 4.96793 18.6833 4.86344 18.6437C4.75895 18.6041 4.64896 18.5778 4.53347 18.5646C4.41798 18.5514 4.286 18.5316 4.13201 18.525C3.98353 18.5184 3.81854 18.5184 3.66456 18.5184C3.35109 18.5118 3.03212 18.5382 2.83964 18.5975C2.86164 18.6371 2.88914 18.6833 2.91663 18.7229C2.94413 18.7624 2.97163 18.802 3.00462 18.8416C3.06512 18.9207 3.12561 18.9998 3.19161 19.079C3.2576 19.1515 3.32909 19.2373 3.40058 19.3032C3.47208 19.3692 3.54907 19.4351 3.62606 19.4945C3.70306 19.5538 3.78005 19.6066 3.85704 19.6593C3.93403 19.7055 4.01652 19.7451 4.09352 19.778C4.2475 19.844 4.39599 19.8835 4.53347 19.877C4.96243 19.8572 5.36939 19.5934 5.63886 19.1515ZM3.43358 16.1113C3.47758 16.2366 3.52707 16.3553 3.57657 16.4674C3.60406 16.5202 3.63156 16.5729 3.65906 16.6257C3.68656 16.6718 3.71955 16.718 3.75255 16.7576C3.81854 16.8433 3.88454 16.9093 3.95053 16.9686C4.06602 16.7312 4.14851 16.4674 4.19801 16.2036C4.2255 16.0717 4.2365 15.9464 4.2475 15.8145C4.2585 15.6826 4.264 15.5573 4.2585 15.4386C4.253 15.2803 4.22 15.1286 4.18151 14.9638C4.15951 14.8846 4.13751 14.8055 4.11001 14.7264C4.09902 14.6868 4.08252 14.6472 4.06602 14.6142L4.02202 14.4955C3.90104 14.1922 3.75255 13.9152 3.60406 13.6976C3.57657 13.7503 3.55457 13.8097 3.52707 13.8756C3.50507 13.9416 3.48308 14.0141 3.46108 14.0932C3.42258 14.2515 3.38409 14.4362 3.35659 14.6274C3.33459 14.8121 3.32359 15.0099 3.31809 15.1946C3.31259 15.3792 3.32359 15.5507 3.34009 15.6958C3.36759 15.8409 3.39509 15.9794 3.43358 16.1113ZM3.71405 17.3181C3.66456 17.2324 3.60407 17.1467 3.53807 17.0609C3.50507 17.0214 3.46658 16.9818 3.42808 16.9356C3.38959 16.8895 3.35109 16.8499 3.31259 16.8103C3.2301 16.7312 3.14211 16.6521 3.04312 16.5861C2.94963 16.5136 2.85064 16.4476 2.74065 16.3883C2.63616 16.3355 2.49868 16.2762 2.36119 16.2102C2.2237 16.1443 2.06422 16.0849 1.91023 16.0255C1.76175 15.9596 1.60776 15.9002 1.47028 15.8541C1.39878 15.8277 1.33279 15.8079 1.2723 15.7947C1.2118 15.7749 1.15681 15.7683 1.10731 15.7618C1.2283 16.1706 1.43728 16.6191 1.69026 16.9818C1.94873 17.3379 2.2457 17.6083 2.51517 17.694C2.61966 17.727 2.72415 17.7468 2.82864 17.7468C2.93313 17.7468 3.04312 17.727 3.14211 17.694C3.35659 17.6215 3.54907 17.4962 3.71405 17.3181ZM2.2732 13.9745C2.31719 14.2317 2.41618 14.4494 2.50967 14.6076C2.66916 14.423 2.80664 14.1988 2.91113 13.9745C2.96613 13.8558 3.00462 13.7437 3.04862 13.625C3.08712 13.5063 3.12011 13.3876 3.14761 13.2755C3.16411 13.2029 3.17511 13.1238 3.18061 13.0447C3.19161 12.9655 3.19711 12.8798 3.19711 12.8007C3.19711 12.7149 3.19711 12.6358 3.18611 12.55C3.18061 12.4643 3.17511 12.3786 3.16961 12.2994C3.15861 12.2137 3.14761 12.1346 3.13111 12.0488C3.12011 11.9631 3.10911 11.884 3.09262 11.8048C3.07612 11.7257 3.05962 11.6466 3.03762 11.574C3.02112 11.5015 3.00462 11.4289 2.98263 11.3564C2.91113 11.4289 2.82864 11.541 2.74615 11.6795C2.66916 11.8114 2.59217 11.9697 2.52067 12.1346C2.48768 12.2203 2.44918 12.306 2.42168 12.3918C2.39419 12.4775 2.36669 12.5698 2.34469 12.6556C2.2952 12.827 2.2567 12.9985 2.2402 13.1436C2.2237 13.2887 2.2182 13.4272 2.2182 13.5723C2.2237 13.7107 2.2457 13.8426 2.2732 13.9745ZM1.59676 14.9836C1.80574 15.0033 2.01472 14.9638 2.2072 14.8583C2.15221 14.6472 2.05322 14.4296 1.94323 14.1988C1.88824 14.0867 1.81674 13.9745 1.74525 13.8624C1.67376 13.7503 1.59676 13.6448 1.50877 13.5393C1.42078 13.4404 1.31629 13.3216 1.2008 13.1963C1.14031 13.137 1.07982 13.071 1.01932 13.0051C0.953329 12.9391 0.898335 12.8732 0.832341 12.8072C0.705854 12.6754 0.579366 12.55 0.463878 12.4379C0.348389 12.3258 0.2439 12.2335 0.155909 12.1807C0.155909 12.2928 0.161408 12.4116 0.172407 12.5303C0.183406 12.649 0.199904 12.7743 0.221902 12.893C0.2439 13.0183 0.265898 13.1436 0.293395 13.2623C0.326392 13.381 0.359388 13.5063 0.397884 13.625C0.436381 13.7437 0.474877 13.8558 0.518872 13.9614C0.568367 14.0669 0.617863 14.1658 0.667358 14.2581C0.716853 14.3504 0.771847 14.4362 0.826842 14.5087C0.887336 14.5813 0.94233 14.6406 1.00282 14.6934C1.09631 14.7725 1.18981 14.8385 1.2888 14.8846C1.38229 14.944 1.49228 14.9704 1.59676 14.9836ZM2.65816 10.7299C2.69116 10.6639 2.71865 10.5914 2.74615 10.5188C2.77365 10.4463 2.79565 10.3671 2.81764 10.2814C2.85614 10.1231 2.88914 9.94507 2.91113 9.76701C2.92763 9.58895 2.94963 9.41089 2.95513 9.23283C2.96063 9.14709 2.95513 9.06136 2.95513 8.97563C2.95513 8.88989 2.95513 8.81075 2.94963 8.73162C2.86164 8.77778 2.76265 8.85692 2.65816 8.96244C2.55367 9.06795 2.44918 9.19326 2.34469 9.33175C2.2952 9.40429 2.2402 9.47684 2.19071 9.54938C2.14121 9.62192 2.09721 9.70106 2.05322 9.77361C1.97073 9.92529 1.89374 10.0704 1.83874 10.2023C1.63526 10.7233 1.61876 11.3432 1.72875 11.7323C1.92123 11.6268 2.10271 11.4751 2.2567 11.3036C2.42168 11.1256 2.55917 10.9277 2.65816 10.7299ZM0.315393 11.1453C0.447379 11.3762 0.612363 11.5542 0.793845 11.6729C0.980826 11.7916 1.18981 11.8378 1.39329 11.8246C1.39329 11.7125 1.38229 11.5938 1.36579 11.4685C1.35479 11.3432 1.33829 11.2113 1.31079 11.0794C1.29979 11.0134 1.2833 10.9475 1.2668 10.8749C1.2503 10.809 1.2338 10.7365 1.2173 10.6705C1.17881 10.532 1.12931 10.3935 1.07432 10.2616C1.02482 10.1297 0.953329 9.97145 0.870837 9.80658C0.832341 9.72085 0.788346 9.63511 0.74435 9.54938C0.700354 9.46365 0.661858 9.37791 0.617862 9.28558C0.529871 9.11412 0.436381 8.94265 0.353889 8.79756C0.271397 8.65248 0.188905 8.52717 0.117412 8.44144C0.0954146 8.54696 0.0789163 8.65248 0.0569184 8.77118C0.0404201 8.8833 0.0294212 9.0086 0.0239217 9.12731C0.00742338 9.37132 -0.00357552 9.62852 0.0184223 9.87912C0.0349206 10.1297 0.0624179 10.3737 0.117412 10.5914C0.14491 10.7035 0.172407 10.8024 0.205404 10.8947C0.232901 10.9805 0.271397 11.0662 0.315393 11.1453ZM3.43908 5.96177C3.2576 6.01453 3.00462 6.18599 2.75165 6.41022C2.62516 6.52233 2.50967 6.64104 2.39968 6.76634C2.2897 6.89164 2.19071 7.01695 2.11921 7.12906C1.97623 7.35329 1.85524 7.61708 1.79475 7.87428C1.76175 8.00618 1.73425 8.13148 1.71775 8.25678C1.70125 8.38209 1.70125 8.4942 1.70125 8.60631C1.90473 8.57993 2.10821 8.50079 2.2897 8.38868C2.47668 8.27657 2.64716 8.13148 2.77915 7.96001C2.86714 7.8479 2.94963 7.70941 3.02112 7.55773C3.05962 7.47859 3.09262 7.39945 3.12011 7.31372C3.14761 7.22798 3.18611 7.14225 3.2081 7.04992C3.32359 6.68061 3.41158 6.29151 3.43908 5.96177ZM0.474877 7.51156C0.557369 7.77536 0.672857 7.99958 0.826842 8.18424C0.980826 8.3623 1.16231 8.4942 1.36029 8.56015C1.38229 8.45463 1.39878 8.33592 1.40978 8.20403C1.42628 8.07872 1.43178 7.94023 1.43728 7.80174C1.43728 7.51816 1.42628 7.22139 1.36579 6.92462C1.33279 6.77294 1.29979 6.60147 1.2503 6.41681C1.2063 6.23216 1.14581 6.03431 1.09082 5.83646C0.980826 5.45396 0.848839 5.08465 0.733351 4.88021C0.595865 5.25612 0.469377 5.73095 0.419882 6.21237C0.408883 6.33108 0.392385 6.44979 0.392385 6.5685C0.386886 6.6872 0.386886 6.79932 0.392385 6.91143C0.397884 7.14225 0.419882 7.3401 0.474877 7.51156ZM3.40058 5.11103C3.61506 4.92637 3.79105 4.60982 3.95053 4.26688C4.09902 3.91736 4.2365 3.53485 4.3025 3.19851C4.11551 3.22489 3.84604 3.3502 3.57657 3.52826C3.30709 3.70632 3.04312 3.93055 2.86714 4.1218C2.69666 4.31964 2.55367 4.55046 2.44918 4.79447C2.35019 5.03848 2.2842 5.2825 2.2567 5.49353C2.65816 5.55289 3.08162 5.39461 3.40058 5.11103ZM1.46478 4.84723C1.58577 5.06486 1.74525 5.23633 1.92123 5.35504C1.99822 5.15719 2.06422 4.90659 2.10271 4.6296C2.14671 4.35921 2.16871 4.05585 2.14671 3.75248C2.13021 3.44912 2.06972 3.02705 2.00372 2.62476C1.93223 2.22247 1.84424 1.83997 1.74525 1.62234C1.57477 1.95868 1.40428 2.39394 1.30529 2.84899C1.1953 3.29744 1.15681 3.75908 1.2118 4.10861C1.2503 4.379 1.34379 4.6362 1.46478 4.84723ZM3.68656 2.08398C4.06052 1.18708 4.08252 0.712247 4.264 0C3.88454 0.0395693 3.2466 0.369313 2.81214 1.31898C2.39419 2.24226 2.75165 3.2117 2.75165 3.2117C2.75165 3.2117 3.30709 2.98748 3.68656 2.08398Z" fill="#FBCF00"/>
<path d="M17.4552 19.2043C17.5157 19.0856 17.5817 18.9339 17.6422 18.769C17.7027 18.6041 17.7577 18.4195 17.8072 18.2414C17.9007 17.8721 17.9557 17.5028 17.9502 17.2588C17.8347 17.305 17.7082 17.3775 17.5872 17.4632C17.4607 17.5424 17.3343 17.6347 17.2188 17.7468C17.1033 17.8589 16.9878 17.971 16.8943 18.0963C16.7953 18.2216 16.7183 18.3601 16.6578 18.5052C16.4763 18.9339 16.4158 19.5142 16.5148 20.0616C16.6688 20.0154 16.8448 19.9231 17.0098 19.778C17.1748 19.6395 17.3342 19.4417 17.4552 19.2043ZM18.2087 20.2199C18.0602 20.1935 17.9282 20.1737 17.8127 20.1605C17.5817 20.1342 17.3672 20.1737 17.1638 20.2331C16.9658 20.2924 16.7898 20.3848 16.6523 20.4969C16.8778 20.9783 17.2518 21.3146 17.6642 21.4268C17.7962 21.4597 17.9447 21.4597 18.1042 21.4333C18.2637 21.407 18.4286 21.3608 18.5881 21.2751C18.7476 21.1959 18.9126 21.1036 19.0556 20.9981C19.2041 20.886 19.336 20.7607 19.457 20.642C19.2811 20.5167 18.9786 20.4177 18.6706 20.332C18.5111 20.2858 18.3516 20.2463 18.2087 20.2199ZM18.8356 18.5975C18.9126 18.5316 18.9896 18.4591 19.0611 18.3733C19.1381 18.2876 19.2041 18.1821 19.2646 18.07C19.3251 17.9578 19.38 17.8391 19.4295 17.7072C19.4735 17.5753 19.512 17.4105 19.5505 17.2324C19.5835 17.0543 19.622 16.8697 19.633 16.6718C19.666 16.2827 19.666 15.9266 19.611 15.6826C19.5615 15.7222 19.512 15.7683 19.457 15.8145C19.402 15.8607 19.3525 15.9134 19.3031 15.9662C19.2481 16.019 19.2041 16.0783 19.1491 16.1377C19.0996 16.197 19.0446 16.2564 19.0006 16.3223C18.9511 16.3883 18.9071 16.4542 18.8631 16.5268C18.8191 16.5927 18.7751 16.6653 18.7366 16.7378C18.6596 16.8829 18.6046 17.0346 18.5661 17.1862C18.4451 17.6413 18.4561 18.2414 18.6046 18.7558C18.6871 18.7097 18.7641 18.6569 18.8356 18.5975ZM20.7659 18.525C20.6119 18.5316 20.4469 18.525 20.2985 18.5316C20.15 18.5382 20.0125 18.558 19.897 18.5712C19.7815 18.5844 19.6715 18.6107 19.567 18.6503C19.4625 18.6899 19.3635 18.736 19.2701 18.7888C19.1766 18.8416 19.0886 18.8943 19.0061 18.9603C18.9291 19.0262 18.8576 19.0922 18.7916 19.1581C19.0666 19.6 19.4735 19.8572 19.897 19.877C20.0345 19.8835 20.183 19.844 20.3369 19.778C20.4139 19.7451 20.4909 19.7055 20.5734 19.6593C20.6504 19.6066 20.7274 19.5538 20.8044 19.4945C20.8814 19.4351 20.9584 19.3692 21.0299 19.3032C21.1014 19.2373 21.1729 19.1581 21.2389 19.079C21.3049 18.9998 21.3708 18.9207 21.4258 18.8416C21.4533 18.802 21.4863 18.7624 21.5138 18.7229C21.5413 18.6833 21.5633 18.6371 21.5908 18.5975C21.3983 18.5448 21.0794 18.5184 20.7659 18.525ZM20.9694 14.1064C20.9474 14.0273 20.9254 13.9548 20.9034 13.8888C20.8759 13.8229 20.8539 13.7569 20.8264 13.7107C20.6779 13.9218 20.5294 14.2054 20.4084 14.5087L20.3644 14.6274C20.3479 14.667 20.337 14.7 20.3205 14.7395C20.293 14.8187 20.271 14.8978 20.249 14.977C20.2105 15.1418 20.1775 15.2935 20.172 15.4518C20.1665 15.5705 20.172 15.6958 20.183 15.8277C20.194 15.953 20.2105 16.0849 20.2325 16.2168C20.282 16.4806 20.3644 16.7378 20.4799 16.9818C20.5459 16.9225 20.6119 16.8565 20.6779 16.7708C20.7109 16.7312 20.7439 16.685 20.7714 16.6389C20.7989 16.5861 20.8264 16.5399 20.8539 16.4806C20.9089 16.3685 20.9584 16.2498 20.9969 16.1245C21.0354 15.9926 21.0629 15.8541 21.0794 15.7156C21.0959 15.5705 21.1069 15.4056 21.1014 15.2144C21.0959 15.0297 21.0849 14.8385 21.0629 14.6472C21.0464 14.4428 21.0079 14.2647 20.9694 14.1064ZM22.9602 15.8541C22.8227 15.9002 22.6687 15.9596 22.5202 16.0255C22.3662 16.0849 22.2123 16.1509 22.0693 16.2102C21.9318 16.2762 21.7998 16.3289 21.6898 16.3883C21.5798 16.441 21.4863 16.5136 21.3873 16.5861C21.2884 16.6521 21.2004 16.7312 21.1179 16.8103C21.0794 16.8499 21.0409 16.8961 21.0024 16.9356C20.9639 16.9752 20.9254 17.0148 20.8924 17.0609C20.8264 17.1467 20.7659 17.2324 20.7164 17.3181C20.8814 17.4962 21.0739 17.6215 21.2774 17.6875C21.3818 17.7204 21.4863 17.7402 21.5908 17.7402C21.6953 17.7402 21.7998 17.7204 21.9043 17.6875C22.1793 17.6083 22.4762 17.3379 22.7292 16.9752C22.9877 16.6191 23.1967 16.164 23.3122 15.7552C23.2627 15.7618 23.2077 15.7749 23.1472 15.7881C23.0977 15.8079 23.0262 15.8277 22.9602 15.8541ZM21.2884 13.2689C21.3104 13.381 21.3433 13.4997 21.3873 13.6184C21.4313 13.7371 21.4698 13.8492 21.5248 13.9679C21.6293 14.1988 21.7668 14.4164 21.9263 14.6011C22.0198 14.4362 22.1188 14.2251 22.1628 13.9679C22.1848 13.8426 22.2123 13.7107 22.2123 13.5657C22.2178 13.4272 22.2123 13.2821 22.1903 13.137C22.1738 12.9985 22.1353 12.827 22.0858 12.649C22.0638 12.5632 22.0363 12.4709 22.0088 12.3852C21.9813 12.2994 21.9428 12.2071 21.9098 12.128C21.8383 11.9565 21.7613 11.8048 21.6843 11.6729C21.6018 11.541 21.5193 11.4289 21.4478 11.3498C21.4258 11.4157 21.4093 11.4883 21.3928 11.5674C21.3708 11.64 21.3543 11.7191 21.3379 11.7982C21.3214 11.8774 21.3104 11.9565 21.2994 12.0422C21.2829 12.1214 21.2719 12.2071 21.2609 12.2928C21.2499 12.3786 21.2499 12.4643 21.2444 12.5435C21.2389 12.6292 21.2334 12.7083 21.2334 12.7941C21.2334 12.8732 21.2389 12.9589 21.2499 13.0381C21.2609 13.1172 21.2719 13.1963 21.2884 13.2689ZM23.5981 12.8138C23.5376 12.8798 23.4771 12.9457 23.4111 13.0117C23.3451 13.0776 23.2847 13.137 23.2297 13.2029C23.1142 13.3282 23.0097 13.447 22.9217 13.5459C22.8337 13.6448 22.7567 13.7569 22.6852 13.869C22.6137 13.9811 22.5422 14.0867 22.4872 14.2054C22.3772 14.4362 22.2783 14.6538 22.2233 14.8648C22.4157 14.9704 22.6247 15.0165 22.8337 14.9902C22.9382 14.977 23.0482 14.9506 23.1417 14.9044C23.2407 14.8583 23.3342 14.7923 23.4276 14.7132C23.4881 14.6604 23.5486 14.6011 23.6036 14.5285C23.6586 14.456 23.7136 14.3702 23.7631 14.2779C23.8126 14.1856 23.8621 14.0867 23.9116 13.9811C23.9611 13.8756 23.9941 13.7569 24.0326 13.6448C24.0711 13.5261 24.1041 13.4074 24.1371 13.2821C24.1646 13.1568 24.1866 13.0315 24.2086 12.9128C24.2306 12.7875 24.2471 12.6688 24.2581 12.55C24.2691 12.4313 24.2691 12.3126 24.2746 12.2005C24.1866 12.2533 24.0766 12.3456 23.9666 12.4577C23.8511 12.5566 23.7246 12.6819 23.5981 12.8138ZM22.5862 10.1891C22.5312 10.0572 22.4597 9.9055 22.3717 9.76042C22.3278 9.68787 22.2893 9.60873 22.2343 9.53619C22.1848 9.46365 22.1353 9.3911 22.0803 9.31856C21.9758 9.18007 21.8713 9.05476 21.7668 8.94925C21.6623 8.84373 21.5633 8.76459 21.4753 8.71842C21.4698 8.79756 21.4698 8.8833 21.4698 8.96244C21.4698 9.04817 21.4698 9.1339 21.4698 9.21964C21.4753 9.3977 21.4973 9.58235 21.5138 9.75382C21.5358 9.93188 21.5743 10.1099 21.6073 10.2682C21.6293 10.3474 21.6513 10.4265 21.6788 10.5056C21.7063 10.5782 21.7393 10.6507 21.7668 10.7167C21.8658 10.9145 22.0033 11.1124 22.1573 11.2838C22.3113 11.4553 22.4927 11.607 22.6852 11.7125C22.8062 11.33 22.7897 10.7167 22.5862 10.1891ZM24.412 9.12071C24.401 8.99541 24.3955 8.8767 24.379 8.76459C24.3625 8.65248 24.3406 8.54036 24.3186 8.43485C24.2471 8.52058 24.1646 8.64588 24.0821 8.79097C23.9996 8.93606 23.9061 9.10752 23.8181 9.27899C23.7741 9.36472 23.7301 9.45046 23.6916 9.54278C23.6476 9.62852 23.6036 9.71425 23.5651 9.79998C23.4826 9.96486 23.4166 10.1231 23.3616 10.255C23.3012 10.3869 23.2572 10.5254 23.2187 10.6639C23.1967 10.7299 23.1802 10.8024 23.1692 10.8684C23.1527 10.9343 23.1362 11.0068 23.1252 11.0728C23.0977 11.2047 23.0812 11.3366 23.0702 11.4619C23.0592 11.5872 23.0482 11.7059 23.0427 11.818C23.2517 11.8312 23.4551 11.7784 23.6421 11.6663C23.8291 11.5476 23.9886 11.3696 24.1206 11.1387C24.1646 11.0662 24.2031 10.9805 24.2361 10.8815C24.2691 10.7892 24.2966 10.6837 24.3241 10.5782C24.379 10.3605 24.4065 10.1165 24.423 9.86593C24.4395 9.62192 24.4285 9.37132 24.412 9.12071ZM21.3049 7.30053C21.3324 7.38626 21.3653 7.4654 21.4038 7.54454C21.4753 7.70281 21.5633 7.84131 21.6458 7.94683C21.7833 8.11829 21.9538 8.26338 22.1353 8.37549C22.3168 8.48761 22.5202 8.56674 22.7237 8.59312C22.7237 8.48761 22.7237 8.3689 22.7072 8.24359C22.6907 8.11829 22.6632 7.99299 22.6302 7.86109C22.5697 7.60389 22.4487 7.3401 22.3058 7.11587C22.2343 7.00376 22.1353 6.87846 22.0253 6.75315C21.9153 6.62785 21.7943 6.50914 21.6733 6.39703C21.4203 6.1794 21.1674 6.00793 20.9859 5.94858C21.0134 6.28492 21.1014 6.66742 21.2059 7.03014C21.2389 7.12906 21.2719 7.21479 21.3049 7.30053ZM23.0647 6.93121C23.0042 7.22798 22.9932 7.52475 22.9932 7.80833C22.9932 7.94683 23.0042 8.08532 23.0207 8.21062C23.0317 8.33592 23.0482 8.45463 23.0702 8.56674C23.2682 8.50079 23.4496 8.3689 23.6036 8.19083C23.7521 8.01277 23.8731 7.78195 23.9556 7.51816C24.0106 7.34669 24.0326 7.14225 24.0436 6.92462C24.0491 6.81251 24.0491 6.70039 24.0436 6.58169C24.0381 6.46298 24.0271 6.34427 24.0161 6.22556C23.9666 5.74414 23.8401 5.26931 23.7026 4.8934C23.5816 5.09784 23.4551 5.46715 23.3451 5.84965C23.2902 6.04091 23.2297 6.23875 23.1857 6.43C23.1362 6.60807 23.0977 6.77953 23.0647 6.93121ZM21.0354 5.11103C21.3543 5.39461 21.7778 5.55289 22.1848 5.48694C22.1518 5.2759 22.0913 5.03189 21.9923 4.78788C21.8878 4.55046 21.7448 4.31305 21.5743 4.1152C21.3928 3.92395 21.1344 3.69973 20.8649 3.52166C20.5899 3.3436 20.3205 3.2183 20.139 3.19192C20.205 3.53485 20.337 3.91736 20.4909 4.26029C20.6394 4.61641 20.8209 4.92637 21.0354 5.11103ZM22.5092 5.36163C22.6907 5.24293 22.8447 5.06486 22.9657 4.85383C23.0867 4.64279 23.1802 4.38559 23.2187 4.1152C23.2682 3.76567 23.2352 3.30403 23.1252 2.85558C23.0262 2.40053 22.8502 1.96527 22.6852 1.62893C22.5862 1.84657 22.4982 2.23566 22.4267 2.63136C22.3552 3.03364 22.2948 3.45571 22.2838 3.75908C22.2618 4.06244 22.2783 4.36581 22.3278 4.6362C22.3662 4.91318 22.4322 5.16379 22.5092 5.36163ZM21.6843 3.2117C21.6843 3.2117 22.0418 2.24226 21.6183 1.31898C21.1839 0.369313 20.5459 0.0461641 20.1665 0C20.3534 0.712247 20.3699 1.18708 20.7439 2.08398C21.1234 2.98748 21.6843 3.2117 21.6843 3.2117Z" fill="#FBCF00"/>
<path d="M17.5103 5.44735L14.3921 8.65905L12.2143 3.69312L10.042 8.65905L6.92382 5.44735L6.71484 14.3966H12.2143H17.7192L17.5103 5.44735Z" fill="#FBCF00"/>
<path d="M7.7072 5.56307C7.80913 5.04179 7.53938 4.52012 7.10469 4.39789C6.67 4.27565 6.23498 4.59914 6.13305 5.12042C6.03112 5.64169 6.30087 6.16336 6.73556 6.28559C7.17025 6.40783 7.60527 6.08434 7.7072 5.56307Z" fill="#FBCF00"/>
<path d="M18.0803 6.02755C18.3961 5.64882 18.3961 5.03478 18.0803 4.65605C17.7645 4.27732 17.2524 4.27732 16.9366 4.65605C16.6208 5.03478 16.6208 5.64882 16.9366 6.02755C17.2524 6.40627 17.7645 6.40627 18.0803 6.02755Z" fill="#FBCF00"/>
<path d="M12.2142 4.66314C12.6607 4.66314 13.0226 4.2291 13.0226 3.69369C13.0226 3.15828 12.6607 2.72424 12.2142 2.72424C11.7677 2.72424 11.4058 3.15828 11.4058 3.69369C11.4058 4.2291 11.7677 4.66314 12.2142 4.66314Z" fill="#FBCF00"/>
</g>
<defs>
<clipPath id="clip0">
<rect width="24.4286" height="21.4531" fill="white"/>
</clipPath>
</defs>
</svg>
