<svg width="600" height="400" viewBox="0 0 600 400" fill="none" xmlns="http://www.w3.org/2000/svg">
<path d="M600 246.2H0V277H600V246.2Z" fill="#E70029"/>
<path d="M600 276.9H0V307.7H600V276.9Z" fill="white"/>
<path d="M600 215.4H0V246.2H600V215.4Z" fill="white"/>
<path d="M600 307.7H0V338.5H600V307.7Z" fill="#E70029"/>
<path d="M600 369.2H0V400H600V369.2Z" fill="#E70029"/>
<path d="M600 338.5H0V369.3H600V338.5Z" fill="white"/>
<path d="M600 153.8H0V184.6H600V153.8Z" fill="white"/>
<path d="M600 30.8H0V61.6H600V30.8Z" fill="white"/>
<path d="M600 0H0V30.8H600V0Z" fill="#E70029"/>
<path d="M600 61.5H0V92.3H600V61.5Z" fill="#E70029"/>
<path d="M600 92.3H0V123.1H600V92.3Z" fill="white"/>
<path d="M600 184.6H0V215.4H600V184.6Z" fill="#E70029"/>
<path d="M600 123.1H0V153.9H600V123.1Z" fill="#E70029"/>
<path d="M268.8 0H0V215.4H268.8V0Z" fill="#003366"/>
<path d="M22.2 52.6001L25 61.1001H33.9L26.7 66.4001L29.4 74.9001L22.2 69.6001L14.9 74.9001L17.7 66.4001L10.5 61.1001H19.4L22.2 52.6001Z" fill="white"/>
<path d="M67.4001 52.6001L70.1001 61.1001H79.1001L71.8001 66.4001L74.6001 74.9001L67.4001 69.6001L60.1001 74.9001L62.9001 66.4001L55.6001 61.1001H64.6001L67.4001 52.6001Z" fill="white"/>
<path d="M112.5 52.6001L115.3 61.1001H124.2L117 66.4001L119.8 74.9001L112.5 69.6001L105.3 74.9001L108 66.4001L100.8 61.1001H109.8L112.5 52.6001Z" fill="white"/>
<path d="M157.7 52.6001L160.5 61.1001H169.4L162.2 66.4001L164.9 74.9001L157.7 69.6001L150.4 74.9001L153.2 66.4001L146 61.1001H154.9L157.7 52.6001Z" fill="white"/>
<path d="M202.9 52.6001L205.6 61.1001H214.6L207.3 66.4001L210.1 74.9001L202.9 69.6001L195.6 74.9001L198.4 66.4001L191.1 61.1001H200.1L202.9 52.6001Z" fill="white"/>
<path d="M248 52.6001L250.8 61.1001H259.8L252.5 66.4001L255.3 74.9001L248 69.6001L240.8 74.9001L243.6 66.4001L236.3 61.1001H245.3L248 52.6001Z" fill="white"/>
<path d="M248 8.8999L250.8 17.4999H259.8L252.5 22.6999L255.3 31.1999L248 25.9999L240.8 31.1999L243.6 22.6999L236.3 17.4999H245.3L248 8.8999Z" fill="white"/>
<path d="M22.2 8.8999L25 17.4999H33.9L26.7 22.6999L29.4 31.1999L22.2 25.9999L14.9 31.1999L17.7 22.6999L10.5 17.4999H19.4L22.2 8.8999Z" fill="white"/>
<path d="M67.4001 8.8999L70.1001 17.4999H79.1001L71.8001 22.6999L74.6001 31.1999L67.4001 25.9999L60.1001 31.1999L62.9001 22.6999L55.6001 17.4999H64.6001L67.4001 8.8999Z" fill="white"/>
<path d="M112.5 8.8999L115.3 17.4999H124.2L117 22.6999L119.8 31.1999L112.5 25.9999L105.3 31.1999L108 22.6999L100.8 17.4999H109.8L112.5 8.8999Z" fill="white"/>
<path d="M157.7 8.8999L160.5 17.4999H169.4L162.2 22.6999L164.9 31.1999L157.7 25.9999L150.4 31.1999L153.2 22.6999L146 17.4999H154.9L157.7 8.8999Z" fill="white"/>
<path d="M202.9 8.8999L205.6 17.4999H214.6L207.3 22.6999L210.1 31.1999L202.9 25.9999L195.6 31.1999L198.4 22.6999L191.1 17.4999H200.1L202.9 8.8999Z" fill="white"/>
<path d="M44.8 31.2L47.5 39.7999H56.5L49.2 45L52 53.5L44.8 48.2999L37.5 53.5L40.3 45L33 39.7999H42L44.8 31.2Z" fill="white"/>
<path d="M89.9 31.2L92.7 39.7999H101.7L94.4 45L97.2 53.5L89.9 48.2999L82.7 53.5L85.5 45L78.2 39.7999H87.2L89.9 31.2Z" fill="white"/>
<path d="M135.1 31.2L137.9 39.7999H146.8L139.6 45L142.4 53.5L135.1 48.2999L127.9 53.5L130.6 45L123.4 39.7999H132.3L135.1 31.2Z" fill="white"/>
<path d="M180.3 31.2L183 39.7999H192L184.8 45L187.5 53.5L180.3 48.2999L173 53.5L175.8 45L168.6 39.7999H177.5L180.3 31.2Z" fill="white"/>
<path d="M225.4 31.2L228.2 39.7999H237.2L229.9 45L232.7 53.5L225.4 48.2999L218.2 53.5L221 45L213.7 39.7999H222.7L225.4 31.2Z" fill="white"/>
<path d="M44.8 74.2L47.5 82.7H56.5L49.2 87.9L52 96.5L44.8 91.2L37.5 96.5L40.3 87.9L33 82.7H42L44.8 74.2Z" fill="white"/>
<path d="M89.9 74.2L92.7 82.7H101.7L94.4 87.9L97.2 96.5L89.9 91.2L82.7 96.5L85.5 87.9L78.2 82.7H87.2L89.9 74.2Z" fill="white"/>
<path d="M135.1 74.2L137.9 82.7H146.8L139.6 87.9L142.4 96.5L135.1 91.2L127.9 96.5L130.6 87.9L123.4 82.7H132.3L135.1 74.2Z" fill="white"/>
<path d="M180.3 74.2L183 82.7H192L184.8 87.9L187.5 96.5L180.3 91.2L173 96.5L175.8 87.9L168.6 82.7H177.5L180.3 74.2Z" fill="white"/>
<path d="M225.4 74.2L228.2 82.7H237.2L229.9 87.9L232.7 96.5L225.4 91.2L218.2 96.5L221 87.9L213.7 82.7H222.7L225.4 74.2Z" fill="white"/>
<path d="M44.8 117.1L47.5 125.6H56.5L49.2 130.9L52 139.4L44.8 134.1L37.5 139.4L40.3 130.9L33 125.6H42L44.8 117.1Z" fill="white"/>
<path d="M89.9 117.1L92.7 125.6H101.7L94.4 130.9L97.2 139.4L89.9 134.1L82.7 139.4L85.5 130.9L78.2 125.6H87.2L89.9 117.1Z" fill="white"/>
<path d="M135.1 117.1L137.9 125.6H146.8L139.6 130.9L142.4 139.4L135.1 134.1L127.9 139.4L130.6 130.9L123.4 125.6H132.3L135.1 117.1Z" fill="white"/>
<path d="M180.3 117.1L183 125.6H192L184.8 130.9L187.5 139.4L180.3 134.1L173 139.4L175.8 130.9L168.6 125.6H177.5L180.3 117.1Z" fill="white"/>
<path d="M225.4 117.1L228.2 125.6H237.2L229.9 130.9L232.7 139.4L225.4 134.1L218.2 139.4L221 130.9L213.7 125.6H222.7L225.4 117.1Z" fill="white"/>
<path d="M44.8 160L47.5 168.5H56.5L49.2 173.8L52 182.3L44.8 177L37.5 182.3L40.3 173.8L33 168.5H42L44.8 160Z" fill="white"/>
<path d="M89.9 160L92.7 168.5H101.7L94.4 173.8L97.2 182.3L89.9 177L82.7 182.3L85.5 173.8L78.2 168.5H87.2L89.9 160Z" fill="white"/>
<path d="M135.1 160L137.9 168.5H146.8L139.6 173.8L142.4 182.3L135.1 177L127.9 182.3L130.6 173.8L123.4 168.5H132.3L135.1 160Z" fill="white"/>
<path d="M180.3 160L183 168.5H192L184.8 173.8L187.5 182.3L180.3 177L173 182.3L175.8 173.8L168.6 168.5H177.5L180.3 160Z" fill="white"/>
<path d="M225.4 160L228.2 168.5H237.2L229.9 173.8L232.7 182.3L225.4 177L218.2 182.3L221 173.8L213.7 168.5H222.7L225.4 160Z" fill="white"/>
<path d="M22.2 96.3L25 104.8H33.9L26.7 110.1L29.4 118.6L22.2 113.3L14.9 118.6L17.7 110.1L10.5 104.8H19.4L22.2 96.3Z" fill="white"/>
<path d="M67.4001 96.3L70.1001 104.8H79.1001L71.8001 110.1L74.6001 118.6L67.4001 113.3L60.1001 118.6L62.9001 110.1L55.6001 104.8H64.6001L67.4001 96.3Z" fill="white"/>
<path d="M112.5 96.3L115.3 104.8H124.2L117 110.1L119.8 118.6L112.5 113.3L105.3 118.6L108 110.1L100.8 104.8H109.8L112.5 96.3Z" fill="white"/>
<path d="M157.7 96.3L160.5 104.8H169.4L162.2 110.1L164.9 118.6L157.7 113.3L150.4 118.6L153.2 110.1L146 104.8H154.9L157.7 96.3Z" fill="white"/>
<path d="M202.9 96.3L205.6 104.8H214.6L207.3 110.1L210.1 118.6L202.9 113.3L195.6 118.6L198.4 110.1L191.1 104.8H200.1L202.9 96.3Z" fill="white"/>
<path d="M248 96.3L250.8 104.8H259.8L252.5 110.1L255.3 118.6L248 113.3L240.8 118.6L243.6 110.1L236.3 104.8H245.3L248 96.3Z" fill="white"/>
<path d="M22.2 139.9L25 148.5H33.9L26.7 153.7L29.4 162.2L22.2 157L14.9 162.2L17.7 153.7L10.5 148.5H19.4L22.2 139.9Z" fill="white"/>
<path d="M67.4001 139.9L70.1001 148.5H79.1001L71.8001 153.7L74.6001 162.2L67.4001 157L60.1001 162.2L62.9001 153.7L55.6001 148.5H64.6001L67.4001 139.9Z" fill="white"/>
<path d="M112.5 139.9L115.3 148.5H124.2L117 153.7L119.8 162.2L112.5 157L105.3 162.2L108 153.7L100.8 148.5H109.8L112.5 139.9Z" fill="white"/>
<path d="M157.7 139.9L160.5 148.5H169.4L162.2 153.7L164.9 162.2L157.7 157L150.4 162.2L153.2 153.7L146 148.5H154.9L157.7 139.9Z" fill="white"/>
<path d="M202.9 139.9L205.6 148.5H214.6L207.3 153.7L210.1 162.2L202.9 157L195.6 162.2L198.4 153.7L191.1 148.5H200.1L202.9 139.9Z" fill="white"/>
<path d="M248 139.9L250.8 148.5H259.8L252.5 153.7L255.3 162.2L248 157L240.8 162.2L243.6 153.7L236.3 148.5H245.3L248 139.9Z" fill="white"/>
<path d="M22.2 183.6L25 192.1H33.9L26.7 197.4L29.4 205.9L22.2 200.6L14.9 205.9L17.7 197.4L10.5 192.1H19.4L22.2 183.6Z" fill="white"/>
<path d="M67.4001 183.6L70.1001 192.1H79.1001L71.8001 197.4L74.6001 205.9L67.4001 200.6L60.1001 205.9L62.9001 197.4L55.6001 192.1H64.6001L67.4001 183.6Z" fill="white"/>
<path d="M112.5 183.6L115.3 192.1H124.2L117 197.4L119.8 205.9L112.5 200.6L105.3 205.9L108 197.4L100.8 192.1H109.8L112.5 183.6Z" fill="white"/>
<path d="M157.7 183.6L160.5 192.1H169.4L162.2 197.4L164.9 205.9L157.7 200.6L150.4 205.9L153.2 197.4L146 192.1H154.9L157.7 183.6Z" fill="white"/>
<path d="M202.9 183.6L205.6 192.1H214.6L207.3 197.4L210.1 205.9L202.9 200.6L195.6 205.9L198.4 197.4L191.1 192.1H200.1L202.9 183.6Z" fill="white"/>
<path d="M248 183.6L250.8 192.1H259.8L252.5 197.4L255.3 205.9L248 200.6L240.8 205.9L243.6 197.4L236.3 192.1H245.3L248 183.6Z" fill="white"/>
</svg>
