<svg width="319" height="138" viewBox="0 0 319 138" fill="none" xmlns="http://www.w3.org/2000/svg">
<path d="M1.42292 33C1.77532 27 4.43058 17.5 6.09213 14.5C7.75368 11.5 13.8456 6.58614 21.5991 5.08614C29.3525 3.58614 43.5132 4.08617 52.3743 2.08617C61.2354 0.0861714 69.3015 0.00140196 76.7423 0.439561C84.1831 0.877721 105.031 4.47272 110.525 5.08614C116.02 5.69957 126.831 4.42223 133.232 3.68194C139.633 2.94165 150.4 0.086133 156.492 0.0861714C162.584 0.0862098 163.054 -0.261449 170.892 0.439582C178.73 1.14061 204.851 6.13563 204.851 6.13563C205.908 6.3109 206.966 6.3109 208.023 6.3109C208.023 6.3109 243.539 5.27771 249.534 3.68194C255.529 2.08617 270.033 0.195062 278.887 0.439561C287.74 0.684061 292.638 1.4222 297.716 3.68194C302.795 5.94168 308.793 11.0862 310.925 14.2854C313.057 17.4846 312.116 25.5862 311.013 31.5862C309.91 37.5862 313.392 42.5905 315.682 52.1424C316.123 54.1579 316.563 55.9106 316.828 56.6116C317.004 56.9621 317.092 57.4003 317.18 57.7508C319.294 64.7614 318.678 94.5562 318.678 94.5562C318.766 99.376 315.242 116.699 311.013 124.586C305.374 135.014 285.525 136.641 273.902 137.586C262.28 138.532 224.851 134.692 210.451 134.692C196.052 134.692 163.627 138.725 141.778 137.586C118.167 136.359 84.6871 132.03 74.7656 131.186C64.844 130.343 25.4479 137.307 13.1405 131.186C0.833039 125.065 0.457002 114.051 1.4229 108C2.3888 101.949 2.76916 96.5 3.32298 91.5C3.8768 86.5 2.74121 79.5 1.42292 73C0.10463 66.5 0.10463 58.0862 0.104614 50.5C0.104598 42.9138 1.07051 39 1.42292 33Z" fill="#E58060"/>
</svg>
