<svg width="731" height="426" viewBox="0 0 731 426" fill="none" xmlns="http://www.w3.org/2000/svg">
<g clip-path="url(#clip0)">
<path d="M139.7 269C136.1 269 132.8 266.9 131.3 263.6L62.3 144H61.2V259.7C61.2 264.8 57 269 51.9 269H9.3C4.2 269 0 264.8 0 259.7V9.3C0 4.2 4.2 0 9.3 0H51.9C57 0 61.2 4.2 61.2 9.3V112.1H62.3L129.2 5.2C130.8 2 134 0 137.6 0H184C191.1 0 195.6 7.6 192.1 13.8L119.1 118.8C117.6 121.5 117.5 124.8 118.9 127.5L197.3 255.5C200.4 261.7 195.9 269 189 269H139.7Z" fill="#F44336"/>
<path d="M0 304.5H16.1V343.5H16.5L54.3 304.5H76L33.8 346.2L78.8 394.8H56.2L16.5 349.5H16.1V394.8H0V304.5Z" fill="#F44336"/>
<path d="M99.5 312.8C99.5 310.3 100.4 308.2 102.2 306.4C104 304.6 106.3 303.7 109.2 303.7C112.1 303.7 114.4 304.6 116.3 306.3C118.2 308 119.2 310.2 119.2 312.9C119.2 315.5 118.2 317.7 116.3 319.5C114.4 321.2 112 322.1 109.2 322.1C106.4 322.1 104.1 321.2 102.2 319.4C100.4 317.4 99.5 315.3 99.5 312.8ZM101.7 333.6H117V394.8H101.7V333.6Z" fill="#F44336"/>
<path d="M218.3 394.8H203.8V385.6H203.5C201.4 389.2 198.4 391.9 194.6 393.8C190.8 395.7 186.8 396.6 182.4 396.6C177.7 396.6 173.5 395.7 169.8 394C166.1 392.3 163 389.9 160.4 387C157.8 384.1 155.8 380.6 154.4 376.7C153 372.7 152.3 368.5 152.3 364C152.3 359.5 153 355.3 154.5 351.4C155.9 347.5 158 344.1 160.6 341.2C163.2 338.3 166.4 336 170 334.4C173.7 332.7 177.7 331.9 182 331.9C184.8 331.9 187.3 332.2 189.5 332.9C191.7 333.5 193.6 334.3 195.3 335.3C197 336.2 198.4 337.3 199.6 338.4C200.8 339.5 201.8 340.6 202.5 341.6H202.9V298.6H218.2V394.8H218.3ZM167.9 364C167.9 366.4 168.3 368.8 169 371.1C169.7 373.5 170.8 375.6 172.3 377.5C173.7 379.4 175.6 380.9 177.8 382.1C180 383.3 182.6 383.9 185.6 383.9C188.4 383.9 190.9 383.3 193.1 382.2C195.3 381.1 197.2 379.5 198.8 377.7C200.4 375.8 201.6 373.7 202.4 371.4C203.2 369.1 203.6 366.7 203.6 364.3C203.6 361.9 203.2 359.5 202.4 357.2C201.6 354.8 200.4 352.7 198.8 350.8C197.2 348.9 195.3 347.4 193.1 346.2C190.9 345 188.4 344.4 185.6 344.4C182.6 344.4 180 345 177.8 346.1C175.6 347.2 173.8 348.8 172.3 350.6C170.9 352.5 169.8 354.6 169 356.9C168.2 359.2 167.9 361.6 167.9 364Z" fill="#F44336"/>
<path d="M291.8 349.9C290.4 348.1 288.6 346.6 286.2 345.2C283.8 343.9 281.2 343.2 278.4 343.2C275.9 343.2 273.7 343.7 271.6 344.7C269.6 345.7 268.5 347.4 268.5 349.8C268.5 352.2 269.6 353.9 271.9 354.8C274.2 355.8 277.4 356.8 281.8 357.8C284.1 358.3 286.4 359 288.8 359.8C291.1 360.7 293.3 361.8 295.2 363.2C297.1 364.6 298.7 366.3 299.9 368.4C301.1 370.5 301.7 373 301.7 376C301.7 379.7 301 382.9 299.6 385.5C298.2 388.1 296.3 390.2 294 391.8C291.7 393.4 288.9 394.6 285.8 395.3C282.7 396 279.5 396.4 276.2 396.4C271.4 396.4 266.8 395.5 262.3 393.8C257.8 392.1 254.1 389.6 251.1 386.3L261.2 376.9C262.9 379.1 265.1 380.9 267.8 382.4C270.5 383.8 273.5 384.6 276.9 384.6C278 384.6 279.1 384.5 280.3 384.2C281.4 383.9 282.5 383.5 283.5 383C284.5 382.4 285.3 381.7 285.9 380.8C286.5 379.9 286.8 378.7 286.8 377.4C286.8 374.8 285.6 373 283.3 371.9C281 370.8 277.5 369.7 272.8 368.6C270.5 368.1 268.3 367.4 266.1 366.6C263.9 365.8 262 364.7 260.3 363.4C258.6 362.1 257.2 360.4 256.2 358.5C255.2 356.5 254.7 354.1 254.7 351.2C254.7 347.8 255.4 344.9 256.8 342.4C258.2 339.9 260.1 337.9 262.3 336.3C264.6 334.7 267.2 333.6 270.1 332.8C273 332 276 331.7 279 331.7C283.4 331.7 287.7 332.5 291.9 334C296.1 335.5 299.4 337.9 301.9 341L291.8 349.9Z" fill="#F44336"/>
<path d="M337.8 304.5H369.8C375.7 304.5 381.6 305.3 387.5 306.8C393.5 308.3 398.8 310.9 403.6 314.4C408.4 317.9 412.2 322.6 415.2 328.3C418.2 334 419.7 341.2 419.7 349.7C419.7 357.6 418.2 364.4 415.2 370.1C412.2 375.8 408.4 380.5 403.6 384.1C398.8 387.8 393.5 390.5 387.5 392.2C381.5 393.9 375.6 394.8 369.8 394.8H337.8V304.5ZM367.2 380.8C371.4 380.8 375.5 380.3 379.7 379.3C383.9 378.3 387.6 376.7 391 374.3C394.4 372 397.1 368.8 399.2 364.8C401.3 360.8 402.4 355.7 402.4 349.6C402.4 343.1 401.3 337.9 399.2 333.8C397.1 329.7 394.3 326.5 391 324.2C387.6 321.9 383.9 320.3 379.7 319.5C375.5 318.7 371.4 318.2 367.2 318.2H353.8V380.7H367.2V380.8Z" fill="#F44336"/>
<path d="M453.2 312.8C453.2 310.3 454.1 308.2 455.9 306.4C457.7 304.6 460 303.7 462.9 303.7C465.8 303.7 468.1 304.6 470 306.3C471.9 308 472.9 310.2 472.9 312.9C472.9 315.5 471.9 317.7 470 319.5C468.1 321.2 465.7 322.1 462.9 322.1C460.1 322.1 457.8 321.2 455.9 319.4C454.1 317.4 453.2 315.3 453.2 312.8ZM455.4 333.6H470.7V394.8H455.4V333.6Z" fill="#F44336"/>
<path d="M547.7 387.1H547.3C545.8 389.8 543.3 392.1 539.9 393.8C536.5 395.5 532.6 396.4 528.3 396.4C525.8 396.4 523.3 396.1 520.6 395.4C517.9 394.8 515.5 393.7 513.2 392.2C510.9 390.7 509.1 388.8 507.6 386.3C506.1 383.9 505.4 380.9 505.4 377.3C505.4 372.7 506.7 369.1 509.3 366.3C511.9 363.6 515.2 361.5 519.3 360C523.4 358.6 527.9 357.6 532.9 357.1C537.9 356.6 542.7 356.4 547.5 356.4V355C547.5 351.2 546.1 348.3 543.4 346.5C540.6 344.7 537.3 343.8 533.5 343.8C530.3 343.8 527.2 344.5 524.2 345.8C521.2 347.2 518.8 348.8 516.8 350.8L508.9 341.5C512.4 338.3 516.4 335.8 521 334.2C525.5 332.6 530.2 331.8 534.8 331.8C540.2 331.8 544.7 332.6 548.3 334.1C551.8 335.6 554.6 337.6 556.7 340.1C558.7 342.6 560.2 345.3 561 348.4C561.8 351.5 562.2 354.5 562.2 357.6V394.8H547.9V387.1H547.7ZM547.5 366.9H544C541.5 366.9 538.9 367 536.2 367.2C533.5 367.4 531 367.9 528.7 368.6C526.4 369.3 524.5 370.3 523 371.7C521.5 373 520.7 374.8 520.7 377.1C520.7 378.5 521 379.8 521.7 380.7C522.3 381.7 523.2 382.5 524.2 383.1C525.2 383.7 526.4 384.1 527.6 384.4C528.9 384.7 530.2 384.8 531.4 384.8C536.7 384.8 540.7 383.4 543.4 380.6C546.1 377.8 547.5 374 547.5 369.1V366.9Z" fill="#F44336"/>
<path d="M600.7 333.6H615.4V343.8H615.7C617.4 340.2 619.8 337.3 622.8 335.1C625.9 332.9 629.4 331.8 633.5 331.8C634.1 331.8 634.7 331.8 635.4 331.9C636.1 331.9 636.7 332 637.2 332.2V346.2C636.2 345.9 635.3 345.8 634.6 345.7C633.9 345.6 633.2 345.6 632.5 345.6C629 345.6 626.2 346.2 624.1 347.5C622 348.8 620.3 350.3 619.1 352.1C617.9 353.9 617.1 355.7 616.7 357.6C616.3 359.5 616.1 361 616.1 362.1V394.9H600.8V333.6H600.7Z" fill="#F44336"/>
<path d="M664.2 333.6H681.2L698.3 378.1H698.6L713.8 333.6H729.7L700.7 408C699.6 410.8 698.4 413.3 697.1 415.5C695.8 417.7 694.3 419.5 692.5 421C690.7 422.5 688.6 423.6 686.2 424.4C683.8 425.2 680.9 425.5 677.5 425.5C676.2 425.5 674.9 425.4 673.6 425.3C672.3 425.2 670.9 424.9 669.6 424.6L670.9 411.3C671.9 411.6 672.9 411.9 673.9 412C674.9 412.1 675.8 412.2 676.6 412.2C678.2 412.2 679.6 412 680.7 411.6C681.8 411.2 682.7 410.6 683.5 409.8C684.3 409 684.9 408 685.5 406.8C686.1 405.6 686.7 404.2 687.4 402.6L690.5 394.8L664.2 333.6Z" fill="#F44336"/>
<path d="M509.2 268.6C505 268.6 501.6 265.2 501.6 261V244H500.8C494.7 253.6 486.1 261 474.9 266.1C463.7 271.3 451.8 273.9 439.2 273.9C425.1 273.9 412.5 271.1 401.4 265.6C390.3 260.1 380.9 252.7 373.2 243.5C365.5 234.3 359.6 223.6 355.6 211.5C351.6 199.4 349.5 186.8 349.5 173.7C349.5 160.6 351.6 148 355.7 136.1C359.9 124.1 365.8 113.6 373.5 104.5C381.2 95.4 390.5 88.2 401.5 82.9C412.5 77.6 424.8 75 438.4 75C452.3 75 464 77.6 473.6 82.9C483.2 88.2 490.6 94 495.9 100.3H496.7V7.6C496.7 3.4 500.1 0 504.3 0H551.2C555.4 0 558.8 3.4 558.8 7.6V261C558.8 265.2 555.4 268.6 551.2 268.6H509.2ZM499.3 174.1C499.3 168 498.2 162.1 496.1 156.3C494 150.5 490.9 145.3 487 140.8C483.1 136.3 478.4 132.6 472.8 129.8C467.3 127 460.9 125.6 453.9 125.6C446.6 125.6 440.2 127 434.6 129.8C429.1 132.6 424.4 136.2 420.6 140.6C416.8 145 414 150.1 412.1 155.9C410.2 161.7 409.3 167.6 409.3 173.7C409.3 179.8 410.2 185.7 412.1 191.7C414 197.6 416.8 202.9 420.6 207.4C424.4 211.9 429 215.6 434.6 218.4C440.1 221.2 446.6 222.6 453.9 222.6C461 222.6 467.3 221.2 472.8 218.4C478.3 215.6 483.1 212 487 207.4C490.9 202.9 493.9 197.7 496.1 191.9C498.2 186 499.3 180.1 499.3 174.1Z" fill="#F44336"/>
<path d="M704 130.8C701.3 133.5 697 133.9 694 131.6C690.2 128.7 685.9 126.1 681.3 123.8C674.5 120.5 667.3 118.9 659.7 118.9C653.9 118.9 648.5 120 643.6 122.3C638.7 124.6 636.2 128.5 636.2 134C636.2 139.3 638.9 143.1 644.3 145.3C649.7 147.6 658.5 150.1 670.6 152.9C677.7 154.4 684.8 156.6 692 159.3C699.2 162.1 705.7 165.7 711.5 170.3C717.3 174.8 722 180.4 725.5 186.9C729 193.5 730.8 201.3 730.8 210.4C730.8 222.3 728.4 232.3 723.6 240.5C718.8 248.7 712.6 255.3 704.9 260.4C697.2 265.4 688.6 269.1 679 271.4C669.4 273.7 659.8 274.8 650.3 274.8C634.9 274.8 619.9 272.3 605.1 267.4C593.3 263.5 583.1 258.1 574.4 251.1C570.9 248.3 570.5 243.2 573.6 239.9L597.7 214.5C600.5 211.6 605.1 211.3 608.2 214C612.6 217.9 617.7 221.2 623.4 224.1C631.5 228.1 640 230.2 649.1 230.2C654.1 230.2 659.1 229 664 226.6C668.9 224.2 671.4 220 671.4 213.9C671.4 208.1 668.4 203.8 662.3 201C656.2 198.2 646.8 195.3 633.9 192.3C627.3 190.8 620.8 188.8 614.2 186.2C607.6 183.7 601.8 180.3 596.6 176C591.4 171.7 587.2 166.4 583.9 160.1C580.6 153.8 579 146.2 579 137.4C579 126.1 581.4 116.4 586.2 108.5C591 100.6 597.2 94.1 604.7 89C612.3 84 620.6 80.2 629.9 77.8C639.1 75.4 648.2 74.2 657.3 74.2C671.4 74.2 685.2 76.4 698.7 80.8C709.2 84.2 718.5 89 726.5 95.2C730.1 98 730.5 103.2 727.3 106.5L704 130.8Z" fill="#F44336"/>
<path d="M349.4 88.3999C344.7 84.4999 337.8 85.0999 333.9 89.7999L287.2 145.4H233.3L186.6 89.7999C182.7 85.0999 175.8 84.4999 171.1 88.3999C166.4 92.2999 165.8 99.1999 169.7 103.9L230.1 175.9V260.8C230.1 265.3 233.8 269 238.3 269H281.9C286.4 269 290.1 265.3 290.1 260.8V175.9L350.5 103.9C354.7 99.1999 354.1 92.2999 349.4 88.3999Z" fill="#F44336"/>
<path d="M260.3 129.6C278.36 129.6 293 114.96 293 96.9C293 78.8402 278.36 64.2 260.3 64.2C242.24 64.2 227.6 78.8402 227.6 96.9C227.6 114.96 242.24 129.6 260.3 129.6Z" fill="#F44336"/>
</g>
<defs>
<clipPath id="clip0">
<rect width="730.8" height="425.5" fill="white"/>
</clipPath>
</defs>
</svg>
