<svg width="399" height="926" viewBox="0 0 399 926" fill="none" xmlns="http://www.w3.org/2000/svg">
<g opacity="0.5" filter="url(#filter0_dd)">
<path d="M129.031 412.291C167.128 221.726 363.05 111.856 456.249 80.7418C477.938 72.7726 521.316 80.7418 544.89 123.777C568.465 166.811 550.548 224.999 649.091 334.101C747.634 443.203 649.091 592.31 649.091 645.649C649.091 698.987 456.249 724.445 434.56 795.361C412.871 866.277 290.282 792.936 174.294 711.716C58.3061 630.495 81.4095 650.497 129.031 412.291Z" fill="url(#paint0_linear)"/>
</g>
<path d="M158.143 412.291C196.24 221.726 392.162 111.856 485.362 80.7418C507.05 72.7726 550.428 80.7418 574.003 123.777C597.578 166.811 579.661 224.999 678.203 334.101C776.746 443.203 678.203 592.31 678.203 645.649C678.203 698.987 485.362 724.445 463.673 795.361C441.984 866.277 319.395 792.936 203.407 711.716C87.4184 630.495 110.522 650.497 158.143 412.291Z" fill="url(#paint1_linear)"/>
<defs>
<filter id="filter0_dd" x="0.0229492" y="0" width="782.865" height="926" filterUnits="userSpaceOnUse" color-interpolation-filters="sRGB">
<feFlood flood-opacity="0" result="BackgroundImageFix"/>
<feColorMatrix in="SourceAlpha" type="matrix" values="0 0 0 0 0 0 0 0 0 0 0 0 0 0 0 0 0 0 127 0"/>
<feOffset dy="12"/>
<feGaussianBlur stdDeviation="45"/>
<feColorMatrix type="matrix" values="0 0 0 0 0.0552905 0 0 0 0 0.177421 0 0 0 0 0.491471 0 0 0 0.22 0"/>
<feBlend mode="normal" in2="BackgroundImageFix" result="effect1_dropShadow"/>
<feColorMatrix in="SourceAlpha" type="matrix" values="0 0 0 0 0 0 0 0 0 0 0 0 0 0 0 0 0 0 127 0"/>
<feOffset dy="9"/>
<feGaussianBlur stdDeviation="23"/>
<feColorMatrix type="matrix" values="0 0 0 0 0.080625 0 0 0 0 0.126313 0 0 0 0 0.5375 0 0 0 0.25 0"/>
<feBlend mode="normal" in2="effect1_dropShadow" result="effect2_dropShadow"/>
<feBlend mode="normal" in="SourceGraphic" in2="effect2_dropShadow" result="shape"/>
</filter>
<linearGradient id="paint0_linear" x1="182.572" y1="78" x2="770.434" y2="243.462" gradientUnits="userSpaceOnUse">
<stop stop-color="#236BD7"/>
<stop offset="1" stop-color="#280B7A"/>
</linearGradient>
<linearGradient id="paint1_linear" x1="211.684" y1="78" x2="799.546" y2="243.462" gradientUnits="userSpaceOnUse">
<stop stop-color="#236BD7"/>
<stop offset="1" stop-color="#280B7A"/>
</linearGradient>
</defs>
</svg>
