<svg width="363" height="1078" viewBox="0 0 363 1078" fill="none" xmlns="http://www.w3.org/2000/svg">
<g opacity="0.5" filter="url(#filter0_dd)">
<path d="M-405.227 480.783C-359.402 251.564 -123.74 119.409 -11.637 81.9837C14.4511 72.3981 66.6271 81.9837 94.9837 133.747C123.34 185.511 101.789 255.501 220.32 386.733C338.851 517.965 220.32 697.315 220.32 761.473C220.32 825.631 -11.637 856.251 -37.7252 941.552C-63.8134 1026.85 -211.268 938.636 -350.782 840.941C-490.297 743.246 -462.507 767.305 -405.227 480.783Z" fill="url(#paint0_linear)"/>
</g>
<path d="M-446.08 480.783C-400.256 251.564 -164.594 119.409 -52.4905 81.9837C-26.4024 72.3981 25.7736 81.9837 54.1302 133.747C82.4868 185.511 60.9358 255.501 179.466 386.733C297.997 517.965 179.466 697.315 179.466 761.473C179.466 825.631 -52.4905 856.251 -78.5787 941.552C-104.667 1026.85 -252.121 938.636 -391.636 840.941C-531.15 743.246 -503.361 767.305 -446.08 480.783Z" fill="url(#paint1_linear)"/>
<defs>
<filter id="filter0_dd" x="-542.146" y="0.685791" width="905.147" height="1077.31" filterUnits="userSpaceOnUse" color-interpolation-filters="sRGB">
<feFlood flood-opacity="0" result="BackgroundImageFix"/>
<feColorMatrix in="SourceAlpha" type="matrix" values="0 0 0 0 0 0 0 0 0 0 0 0 0 0 0 0 0 0 127 0"/>
<feOffset dy="12"/>
<feGaussianBlur stdDeviation="45"/>
<feColorMatrix type="matrix" values="0 0 0 0 0.0552905 0 0 0 0 0.177421 0 0 0 0 0.491471 0 0 0 0.22 0"/>
<feBlend mode="normal" in2="BackgroundImageFix" result="effect1_dropShadow"/>
<feColorMatrix in="SourceAlpha" type="matrix" values="0 0 0 0 0 0 0 0 0 0 0 0 0 0 0 0 0 0 127 0"/>
<feOffset dy="9"/>
<feGaussianBlur stdDeviation="23"/>
<feColorMatrix type="matrix" values="0 0 0 0 0.080625 0 0 0 0 0.126313 0 0 0 0 0.5375 0 0 0 0.25 0"/>
<feBlend mode="normal" in2="effect1_dropShadow" result="effect2_dropShadow"/>
<feBlend mode="normal" in="SourceGraphic" in2="effect2_dropShadow" result="shape"/>
</filter>
<linearGradient id="paint0_linear" x1="-340.825" y1="78.6858" x2="366.275" y2="277.709" gradientUnits="userSpaceOnUse">
<stop stop-color="#236BD7"/>
<stop offset="1" stop-color="#280B7A"/>
</linearGradient>
<linearGradient id="paint1_linear" x1="-381.679" y1="78.6858" x2="325.422" y2="277.709" gradientUnits="userSpaceOnUse">
<stop stop-color="#236BD7"/>
<stop offset="1" stop-color="#280B7A"/>
</linearGradient>
</defs>
</svg>
