<svg id="レイヤー_1" data-name="レイヤー 1" xmlns="http://www.w3.org/2000/svg" viewBox="0 0 550 65"><title>biztex-mikke-black</title><path d="M319.94,27.18A4.68,4.68,0,0,0,318,25a6.16,6.16,0,0,0-3.14-.75,5.93,5.93,0,0,0-2.75.66,7.93,7.93,0,0,0-2.39,2,5.2,5.2,0,0,0-1.95-2,5.72,5.72,0,0,0-2.81-.66,6.33,6.33,0,0,0-4.42,1.8h0l-.21.21-.07.08-.54.53V24.08a.52.52,0,0,0-.52-.52H296a.52.52,0,0,0-.51.52V31l-1.88,1.85a.5.5,0,0,0-.15.37v2.13a.1.1,0,0,0,.17.07l1.86-1.69v7.19a.51.51,0,0,0,.51.51h3.56a.51.51,0,0,0,.52-.51V33.26a8.43,8.43,0,0,1,.35-3,3.05,3.05,0,0,1,1.19-1.6,3.23,3.23,0,0,1,1.85-.56,2.38,2.38,0,0,1,1.36.35,2.06,2.06,0,0,1,.74,1.06,8.6,8.6,0,0,1,.23,2.66v8.72a.51.51,0,0,0,.52.51h3.42a.51.51,0,0,0,.52-.51V33.35a8.11,8.11,0,0,1,.37-3,3.18,3.18,0,0,1,1.18-1.68,3.06,3.06,0,0,1,1.77-.57,2.12,2.12,0,0,1,1.9.95c.31.49.46,1.05.46,2.72v9.12a.51.51,0,0,0,.51.51h3.43a.51.51,0,0,0,.52-.51V30.67A9.74,9.74,0,0,0,319.94,27.18Z"/><path d="M320.56,54.12a.54.54,0,0,1,0-.77l.73-.71-1.93-2a22,22,0,1,1,5.15-4.83l1.83,1.86.57-.56a.54.54,0,0,1,.77,0l6.38,6.51s0-.1,0-.16a330.67,330.67,0,0,0,0-42,6.47,6.47,0,0,0-5.83-5.83,330.67,330.67,0,0,0-42,0,6.47,6.47,0,0,0-5.83,5.83,330.67,330.67,0,0,0,0,42,6.47,6.47,0,0,0,5.83,5.84,332.23,332.23,0,0,0,39.54.13Z"/><path d="M398.1,27.31A11.89,11.89,0,0,0,392,25.85a11.39,11.39,0,0,0-5.32,1.29A15.24,15.24,0,0,0,382,31.05a10,10,0,0,0-3.78-3.91,11,11,0,0,0-5.45-1.29,12.2,12.2,0,0,0-8.57,3.51v0l-.4.4-.16.15-1,1V25.59a1,1,0,0,0-1-1h-6.22a1,1,0,0,0-1,1V39l-3.64,3.58a1,1,0,0,0-.3.72v4.13a.2.2,0,0,0,.33.15l3.61-3.29V58.26a1,1,0,0,0,1,1h6.9a1,1,0,0,0,1-1V43.39a15.93,15.93,0,0,1,.69-5.74,5.91,5.91,0,0,1,2.29-3.11,6.29,6.29,0,0,1,3.6-1.07,4.53,4.53,0,0,1,2.63.67A3.92,3.92,0,0,1,374,36.2c.31.93.46,2,.46,5.16v16.9a1,1,0,0,0,1,1h6.65a1,1,0,0,0,1-1V43.57a16.19,16.19,0,0,1,.7-5.75,6.17,6.17,0,0,1,2.31-3.25,5.94,5.94,0,0,1,3.42-1.1,4.09,4.09,0,0,1,3.69,1.84c.59.95.89,2,.89,5.28V58.26a1,1,0,0,0,1,1h6.64a1,1,0,0,0,1-1V38.37a18.57,18.57,0,0,0-.89-6.77A9,9,0,0,0,398.1,27.31Z"/><path d="M422.88,26.59H416a1,1,0,0,0-1,1V58.26a1,1,0,0,0,1,1h6.91a1,1,0,0,0,1-1V27.59A1,1,0,0,0,422.88,26.59Z"/><path d="M420.25,13.52H418.6a4.16,4.16,0,0,0-4,4.32,4.16,4.16,0,0,0,4,4.32h1.65a4.17,4.17,0,0,0,4-4.32A4.17,4.17,0,0,0,420.25,13.52Z"/><path d="M455.17,38.72a.3.3,0,0,1,0-.36L465,28.27a1,1,0,0,0-.76-1.68h-8.2a1,1,0,0,0-.78.34L445.62,37.5a.32.32,0,0,1-.55-.2V16.16a1,1,0,0,0-1-1h-6.91a1,1,0,0,0-1,1v42.1a1,1,0,0,0,1,1H444a1,1,0,0,0,1-1V48.92a.29.29,0,0,1,.09-.21L449,44.88a.32.32,0,0,1,.5.06l8,13.81a1,1,0,0,0,.9.51h7.29a1,1,0,0,0,.9-1.5Z"/><path d="M493.51,38.72a.3.3,0,0,1,0-.36l9.82-10.09a1,1,0,0,0-.76-1.68h-8.2a1,1,0,0,0-.78.34L484,37.5a.32.32,0,0,1-.55-.2V16.16a1,1,0,0,0-1-1h-6.91a1,1,0,0,0-1,1v42.1a1,1,0,0,0,1,1h6.91a1,1,0,0,0,1-1V48.92a.29.29,0,0,1,.09-.21l3.81-3.83a.32.32,0,0,1,.5.06l8,13.81a1,1,0,0,0,.9.51H504a1,1,0,0,0,.9-1.5Z"/><path d="M518.25,45.42h21a1,1,0,0,0,1-1q0-9.18-4.16-13.74-4.33-4.82-11.85-4.82a14.6,14.6,0,0,0-11.06,4.6q-4.36,4.61-4.37,12.72a18.3,18.3,0,0,0,3.33,11.26q4.22,5.57,13,5.57a16.22,16.22,0,0,0,9.23-2.48,13.8,13.8,0,0,0,4.93-6,1,1,0,0,0-.78-1.41L531.76,49a1,1,0,0,0-1.13.63,6.17,6.17,0,0,1-1.9,2.8,5.55,5.55,0,0,1-3.52,1.11,6.81,6.81,0,0,1-5.13-2.14,8.39,8.39,0,0,1-2.14-5.66A.31.31,0,0,1,518.25,45.42ZM520,34.53a6.57,6.57,0,0,1,9.45-.11,8,8,0,0,1,2,5.38.32.32,0,0,1-.31.33H518.4a.31.31,0,0,1-.31-.32A7.64,7.64,0,0,1,520,34.53Z"/><path d="M42.8,29.89v-5.3c0-5.17-3.22-9.92-10-9.92h-23V60H32c7.47,0,10.83-5.76,10.83-10V43.76A9,9,0,0,0,39.64,37a8.66,8.66,0,0,0,3.16-7.1M35.12,48.27a4.37,4.37,0,0,1-4,3.95H17.43V40.94H31.3a3.75,3.75,0,0,1,3.82,3.15Zm0-18.15c0,2.18-2.05,3.15-3.72,3.15h-14V22.33H31.3l.67.12a5.54,5.54,0,0,1,1.66.6,3.39,3.39,0,0,1,1.5,2.78Z"/><path d="M107.1,29.28c-.65-2.07-1.94-2.77-4.76-2.77H78.21v6.76H97.6L78.32,51.09a4.91,4.91,0,0,0-1.11,4.65c.3,1.55,1.46,4.26,4.38,4.26H107V53.23H86.66L106,34.54c1.4-1.41,1.8-2.86,1.06-5.26"/><polygon points="127.71 14.67 120.83 14.67 120.83 60 127.71 60 127.71 33.39 133.46 33.39 133.46 26.51 127.71 26.51 127.71 14.67"/><path d="M156.58,53.23c-2.31,0-3.27-1.32-3.27-2.25V50l21.65-10V35.64c0-4.21-2.19-9.13-9.36-9.13h-8.12c-7.22,0-10.94,3.38-10.94,10.26V51.54c0,3.63,2.92,8.46,9.7,8.46h19.17V53.23Zm-3.16-16.46c0-2.48.9-3.5,3-3.5h9c2.36,0,2.7,1.13,2.7,2.15v.11l-14.77,6.88Z"/><polygon points="212.51 36.32 228.18 14.67 218.6 14.67 207.77 29.66 197.06 14.67 187.59 14.67 203.15 36.32 186.17 60 195.59 60 207.77 42.97 220.29 60 229.76 60 212.51 36.32"/><rect x="55.99" y="26.39" width="6.88" height="33.6"/><path d="M59.51,23.6A4.47,4.47,0,1,0,55,19.13a4.47,4.47,0,0,0,4.47,4.47"/></svg>