<svg width="1280" height="348" viewBox="0 0 1280 348" fill="none" xmlns="http://www.w3.org/2000/svg">
<g opacity="0.5" filter="url(#filter0_dd)">
<path d="M0 87.4016C350.5 55.1591 797 118.763 1280 87.4016V348H0V87.4016Z" fill="url(#paint0_linear)"/>
<path d="M466.396 214.3C466.396 214.86 466.34 215.7 466.256 216.26H468.44C468.384 215.686 468.314 214.706 468.314 214.3V210.338C469.826 210.856 471.926 211.668 473.368 212.424L474.166 210.492C472.878 209.862 470.19 208.868 468.314 208.322V206.25C468.314 205.676 468.384 205.06 468.44 204.57H466.256C466.354 205.06 466.396 205.76 466.396 206.25V214.3ZM483.07 207.328L481.404 207.874C481.754 208.602 482.37 210.296 482.538 210.982L484.218 210.394C484.022 209.75 483.336 207.93 483.07 207.328ZM488.236 208.35L486.276 207.72C486.108 209.47 485.436 211.332 484.484 212.522C483.322 213.978 481.376 215.042 479.836 215.448L481.306 216.946C482.944 216.33 484.694 215.154 485.996 213.474C486.948 212.242 487.536 210.786 487.9 209.372C487.984 209.092 488.068 208.798 488.236 208.35ZM479.822 208.07L478.142 208.672C478.478 209.288 479.178 211.15 479.416 211.906L481.124 211.262C480.844 210.478 480.172 208.784 479.822 208.07ZM501.256 205.382C501.256 204.934 501.62 204.57 502.068 204.57C502.502 204.57 502.866 204.934 502.866 205.382C502.866 205.816 502.502 206.18 502.068 206.18C501.62 206.18 501.256 205.816 501.256 205.382ZM500.388 205.382C500.388 205.48 500.402 205.564 500.416 205.648C500.122 205.69 499.814 205.704 499.618 205.704H493.136C492.674 205.704 491.876 205.648 491.47 205.592V207.566C491.82 207.538 492.492 207.51 493.136 207.51H499.646C499.464 208.714 498.932 210.296 498.008 211.458C496.874 212.886 495.292 214.104 492.52 214.748L494.046 216.428C496.538 215.616 498.414 214.23 499.674 212.55C500.85 210.996 501.452 208.826 501.774 207.454C501.816 207.328 501.844 207.188 501.886 207.034C501.942 207.048 502.012 207.048 502.068 207.048C502.978 207.048 503.734 206.292 503.734 205.382C503.734 204.458 502.978 203.702 502.068 203.702C501.144 203.702 500.388 204.458 500.388 205.382Z" fill="white"/>
<path d="M537.304 207.318V209.54H539.778C540.22 209.54 540.578 209.458 540.852 209.293C541.13 209.125 541.269 208.829 541.269 208.405C541.269 207.935 541.086 207.625 540.722 207.475C540.407 207.37 540.006 207.318 539.519 207.318H537.304ZM537.304 211.208V213.894H539.778C540.22 213.894 540.564 213.835 540.811 213.716C541.257 213.498 541.48 213.078 541.48 212.458C541.48 211.934 541.264 211.574 540.831 211.378C540.59 211.269 540.25 211.212 539.812 211.208H537.304ZM540.188 205.568C541.424 205.586 542.299 205.944 542.813 206.641C543.123 207.069 543.278 207.582 543.278 208.179C543.278 208.794 543.123 209.289 542.813 209.663C542.64 209.872 542.385 210.064 542.048 210.237C542.563 210.424 542.95 210.72 543.21 211.125C543.474 211.531 543.606 212.023 543.606 212.602C543.606 213.199 543.456 213.735 543.155 214.208C542.964 214.523 542.725 214.787 542.438 215.001C542.114 215.248 541.731 215.416 541.289 215.507C540.852 215.598 540.375 215.644 539.86 215.644H535.294V205.568H540.188ZM547.223 207.304H545.247V205.506H547.223V207.304ZM545.247 208.193H547.223V215.644H545.247V208.193ZM548.692 209.779V208.193H554.735V209.813L550.955 214.044H554.865V215.644H548.433V214.126L552.254 209.779H548.692ZM555.351 209.649V208.261H556.39V206.183H558.317V208.261H559.527V209.649H558.317V213.586C558.317 213.892 558.356 214.083 558.434 214.161C558.511 214.234 558.748 214.27 559.145 214.27C559.204 214.27 559.265 214.27 559.329 214.27C559.397 214.265 559.464 214.261 559.527 214.256V215.712L558.604 215.747C557.684 215.778 557.055 215.619 556.718 215.268C556.499 215.045 556.39 214.701 556.39 214.236V209.649H555.351ZM563.718 209.601C563.267 209.601 562.916 209.742 562.665 210.025C562.419 210.307 562.264 210.69 562.2 211.173H565.229C565.197 210.658 565.039 210.269 564.757 210.004C564.479 209.736 564.132 209.601 563.718 209.601ZM563.718 207.995C564.338 207.995 564.896 208.111 565.393 208.343C565.889 208.576 566.299 208.943 566.623 209.444C566.915 209.886 567.104 210.399 567.19 210.982C567.241 211.324 567.261 211.816 567.252 212.458H562.152C562.18 213.206 562.414 213.73 562.856 214.031C563.125 214.218 563.449 214.311 563.827 214.311C564.228 214.311 564.554 214.197 564.805 213.969C564.941 213.846 565.062 213.675 565.167 213.457H567.156C567.106 213.899 566.876 214.347 566.466 214.803C565.828 215.528 564.935 215.89 563.786 215.89C562.838 215.89 562.002 215.585 561.277 214.974C560.553 214.363 560.19 213.37 560.19 211.994C560.19 210.704 560.516 209.715 561.168 209.027C561.824 208.339 562.674 207.995 563.718 207.995ZM570.335 215.644H567.888L571.128 210.51L568.045 205.568H570.561L572.358 208.842L574.204 205.568H576.638L573.555 210.428L576.829 215.644H574.272L572.358 212.212L570.335 215.644ZM582.698 210.87C582.474 210.464 581.452 208.854 581.046 208.336V207.93H582.642V206.39H581.046V203.786H579.422V206.39H577.602V207.93H579.324C578.918 209.61 578.162 211.584 577.322 212.662C577.588 213.11 577.952 213.866 578.106 214.342C578.596 213.614 579.044 212.578 579.422 211.416V216.848H581.046V210.408C581.326 210.996 581.592 211.598 581.746 211.99L582.698 210.87ZM590.426 211.122V209.624H587.458V207.706H590.076V206.208H587.458V203.8H585.82V206.208H584.952C585.064 205.732 585.148 205.242 585.232 204.738L583.706 204.472C583.496 206.04 583.09 207.594 582.39 208.574C582.754 208.756 583.412 209.162 583.692 209.4C584 208.938 584.28 208.35 584.518 207.706H585.82V209.624H582.754V211.122H585.064C584.336 212.676 583.132 214.146 581.83 214.944C582.18 215.252 582.698 215.84 582.95 216.218C584.07 215.406 585.05 214.146 585.82 212.704V216.848H587.458V212.578C588.046 213.978 588.802 215.28 589.614 216.12C589.88 215.714 590.44 215.126 590.818 214.818C589.824 213.978 588.844 212.55 588.228 211.122H590.426ZM596.054 210.996H598.294V209.386H592.288V210.996H594.402V214.37C593.394 214.538 592.47 214.678 591.756 214.79L592.218 216.47C594.024 216.078 596.488 215.574 598.784 215.07L598.658 213.586C597.804 213.754 596.908 213.922 596.054 214.076V210.996ZM604.272 207.79V206.166H602.956L603.908 205.34C603.53 204.878 602.704 204.22 602.074 203.786L600.968 204.696C601.528 205.116 602.228 205.69 602.606 206.166H600.394C600.366 205.41 600.366 204.626 600.38 203.856H598.588C598.588 204.626 598.602 205.41 598.63 206.166H591.756V207.79H598.714C599.05 212.718 600.1 216.862 602.494 216.862C603.824 216.862 604.384 216.218 604.636 213.572C604.174 213.39 603.558 212.984 603.18 212.592C603.11 214.37 602.942 215.112 602.648 215.112C601.626 215.112 600.772 211.878 600.478 207.79H604.272ZM609.424 207.986C610.488 207.16 611.384 206.25 611.986 205.396C612.63 206.264 613.596 207.174 614.674 207.986H609.424ZM608.738 209.512H615.276V208.406C616.046 208.938 616.858 209.4 617.628 209.764C617.922 209.274 618.286 208.672 618.706 208.238C616.494 207.454 614.268 205.858 612.784 203.8H611.048C609.998 205.452 607.772 207.44 605.392 208.49C605.742 208.854 606.176 209.484 606.372 209.89C607.184 209.498 607.996 209.022 608.738 208.49V209.512ZM606.26 212.214H609.508C609.214 213.04 608.822 213.964 608.444 214.748L606.33 214.818L606.554 216.442C608.934 216.33 612.392 216.19 615.682 216.008C615.906 216.316 616.102 216.61 616.242 216.876L617.796 215.938C617.138 214.888 615.836 213.432 614.59 212.34L613.12 213.11C613.582 213.53 614.058 214.034 614.492 214.538C613.064 214.594 611.622 214.65 610.278 214.692C610.698 213.908 611.16 213.04 611.566 212.214H617.838V210.674H606.26V212.214ZM625.65 211.696C625.356 211.416 624.278 210.45 623.606 209.904C624.278 208.98 624.838 207.972 625.258 206.908L624.32 206.306L624.026 206.376H623.396V203.8H621.744V206.376H619.756V207.888H623.13C622.22 209.498 620.75 210.968 619.224 211.794C619.476 212.116 619.868 212.928 620.008 213.376C620.596 213.012 621.184 212.55 621.744 212.032V216.862H623.396V211.584C623.872 212.102 624.348 212.662 624.642 213.054L625.65 211.696ZM629.682 214.832V209.708H632.328V208.098H629.682V203.912H627.974V208.098H625.314V209.708H627.974V214.832H624.74V216.456H632.664V214.832H629.682Z" fill="white"/>
<path d="M681.529 205.382C681.529 204.934 681.893 204.57 682.341 204.57C682.775 204.57 683.139 204.934 683.139 205.382C683.139 205.816 682.775 206.18 682.341 206.18C681.893 206.18 681.529 205.816 681.529 205.382ZM680.661 205.382C680.661 205.48 680.675 205.564 680.689 205.648C680.395 205.69 680.087 205.704 679.891 205.704H673.409C672.947 205.704 672.149 205.648 671.743 205.592V207.566C672.093 207.538 672.765 207.51 673.409 207.51H679.919C679.737 208.714 679.205 210.296 678.281 211.458C677.147 212.886 675.565 214.104 672.793 214.748L674.319 216.428C676.811 215.616 678.687 214.23 679.947 212.55C681.123 210.996 681.725 208.826 682.047 207.454C682.089 207.328 682.117 207.188 682.159 207.034C682.215 207.048 682.285 207.048 682.341 207.048C683.251 207.048 684.007 206.292 684.007 205.382C684.007 204.458 683.251 203.702 682.341 203.702C681.417 203.702 680.661 204.458 680.661 205.382ZM687.395 204.906V206.712C687.801 206.684 688.403 206.67 688.851 206.67H694.213C694.717 206.67 695.375 206.684 695.753 206.712V204.906C695.361 204.962 694.675 204.976 694.241 204.976H688.851C688.375 204.976 687.787 204.962 687.395 204.906ZM696.929 208.966L695.683 208.196C695.487 208.28 695.109 208.336 694.661 208.336H687.731C687.297 208.336 686.695 208.294 686.107 208.252V210.072C686.695 210.016 687.395 210.002 687.731 210.002H694.493C694.241 210.786 693.807 211.654 693.051 212.424C691.987 213.516 690.307 214.44 688.207 214.874L689.593 216.456C691.385 215.952 693.177 215 694.591 213.432C695.641 212.27 696.243 210.912 696.663 209.554C696.719 209.4 696.831 209.148 696.929 208.966ZM699.141 210.198L700.023 211.962C701.745 211.458 703.523 210.702 704.965 209.946V214.426C704.965 215.042 704.923 215.924 704.867 216.26H707.079C706.981 215.91 706.953 215.042 706.953 214.426V208.77C708.311 207.874 709.655 206.782 710.719 205.732L709.207 204.29C708.297 205.396 706.701 206.796 705.259 207.692C703.705 208.644 701.647 209.554 699.141 210.198ZM722.92 204.472L721.814 204.934C722.192 205.466 722.612 206.306 722.906 206.88L724.026 206.39C723.76 205.872 723.27 204.99 722.92 204.472ZM724.572 203.842L723.466 204.304C723.844 204.822 724.306 205.648 724.586 206.222L725.706 205.746C725.454 205.256 724.936 204.374 724.572 203.842ZM714.688 211.29C714.212 212.522 713.386 214.034 712.504 215.182L714.464 216.008C715.206 214.958 716.032 213.362 716.536 212.004C717.026 210.702 717.53 208.77 717.726 207.79C717.782 207.482 717.936 206.796 718.062 206.39L716.018 205.97C715.85 207.748 715.318 209.722 714.688 211.29ZM721.604 210.996C722.164 212.508 722.668 214.272 723.06 215.938L725.132 215.266C724.74 213.88 723.998 211.64 723.508 210.38C722.976 209.022 722.01 206.866 721.436 205.788L719.574 206.39C720.162 207.454 721.072 209.526 721.604 210.996ZM730.326 204.556L729.304 206.096C730.228 206.614 731.684 207.566 732.468 208.112L733.518 206.558C732.79 206.054 731.25 205.06 730.326 204.556ZM727.722 214.496L728.772 216.344C730.018 216.12 732.02 215.42 733.448 214.608C735.744 213.292 737.718 211.514 739.02 209.582L737.942 207.678C736.822 209.68 734.876 211.598 732.496 212.928C730.97 213.768 729.29 214.23 727.722 214.496ZM728.17 207.748L727.148 209.302C728.086 209.792 729.542 210.744 730.34 211.29L731.362 209.722C730.648 209.218 729.108 208.252 728.17 207.748ZM741.288 209.162V211.36C741.806 211.318 742.744 211.29 743.542 211.29H751.06C751.648 211.29 752.362 211.346 752.698 211.36V209.162C752.334 209.19 751.718 209.246 751.06 209.246H743.542C742.814 209.246 741.792 209.204 741.288 209.162ZM764.85 205.144C764.85 204.724 765.2 204.388 765.62 204.388C766.04 204.388 766.376 204.724 766.376 205.144C766.376 205.564 766.04 205.9 765.62 205.9C765.2 205.9 764.85 205.564 764.85 205.144ZM763.996 205.144C763.996 206.04 764.724 206.768 765.62 206.768C766.516 206.768 767.23 206.04 767.23 205.144C767.23 204.248 766.516 203.52 765.62 203.52C764.724 203.52 763.996 204.248 763.996 205.144ZM762.064 204.598H759.992C760.048 204.836 760.118 205.452 760.118 205.816V206.936H756.562C756.114 206.936 755.624 206.88 755.204 206.824V208.686C755.596 208.644 756.142 208.63 756.562 208.63H760.118V208.644C760.118 209.302 760.118 213.74 760.104 214.258C760.09 214.622 759.95 214.762 759.586 214.762C759.25 214.762 758.634 214.706 758.032 214.594L758.2 216.33C758.914 216.414 759.726 216.456 760.482 216.456C761.476 216.456 761.938 215.952 761.938 215.14V208.63H765.214C765.592 208.63 766.138 208.644 766.586 208.672V206.838C766.208 206.894 765.592 206.936 765.2 206.936H761.938V205.816C761.938 205.466 762.036 204.794 762.064 204.598ZM758.774 210.618L757.192 209.876C756.618 211.052 755.498 212.592 754.56 213.488L756.072 214.524C756.842 213.698 758.13 211.864 758.774 210.618ZM764.794 209.834L763.268 210.66C763.94 211.514 764.934 213.208 765.536 214.412L767.188 213.516C766.628 212.494 765.508 210.73 764.794 209.834ZM779.242 204.78H777.128C777.184 205.172 777.212 205.62 777.212 206.18V208.84C777.212 211.024 777.03 212.074 776.064 213.124C775.224 214.034 774.09 214.566 772.704 214.888L774.16 216.428C775.182 216.106 776.638 215.42 777.562 214.412C778.598 213.264 779.186 211.962 779.186 208.952V206.18C779.186 205.62 779.214 205.172 779.242 204.78ZM772.746 204.892H770.73C770.772 205.214 770.786 205.704 770.786 205.97V210.688C770.786 211.108 770.73 211.654 770.716 211.92H772.746C772.718 211.598 772.704 211.052 772.704 210.702V205.97C772.704 205.522 772.718 205.214 772.746 204.892ZM786.326 204.556L785.304 206.096C786.228 206.614 787.684 207.566 788.468 208.112L789.518 206.558C788.79 206.054 787.25 205.06 786.326 204.556ZM783.722 214.496L784.772 216.344C786.018 216.12 788.02 215.42 789.448 214.608C791.744 213.292 793.718 211.514 795.02 209.582L793.942 207.678C792.822 209.68 790.876 211.598 788.496 212.928C786.97 213.768 785.29 214.23 783.722 214.496ZM784.17 207.748L783.148 209.302C784.086 209.792 785.542 210.744 786.34 211.29L787.362 209.722C786.648 209.218 785.108 208.252 784.17 207.748ZM797.288 209.162V211.36C797.806 211.318 798.744 211.29 799.542 211.29H807.06C807.648 211.29 808.362 211.346 808.698 211.36V209.162C808.334 209.19 807.718 209.246 807.06 209.246H799.542C798.814 209.246 797.792 209.204 797.288 209.162Z" fill="white"/>
<path d="M628.656 279.866C628.62 279.588 628.526 279.337 628.376 279.114C628.157 278.813 627.818 278.663 627.357 278.663C626.701 278.663 626.252 278.988 626.011 279.64C625.883 279.986 625.819 280.447 625.819 281.021C625.819 281.568 625.883 282.008 626.011 282.34C626.243 282.96 626.681 283.27 627.323 283.27C627.779 283.27 628.103 283.147 628.294 282.901C628.485 282.655 628.602 282.336 628.643 281.944H630.632C630.586 282.536 630.372 283.097 629.989 283.625C629.379 284.478 628.474 284.904 627.275 284.904C626.077 284.904 625.195 284.548 624.63 283.837C624.065 283.126 623.782 282.204 623.782 281.069C623.782 279.788 624.094 278.792 624.719 278.082C625.343 277.371 626.204 277.015 627.303 277.015C628.237 277.015 629 277.225 629.593 277.644C630.19 278.063 630.543 278.804 630.652 279.866H628.656ZM635.342 283.27C635.911 283.27 636.349 283.067 636.654 282.662C636.96 282.256 637.112 281.68 637.112 280.932C637.112 280.185 636.96 279.611 636.654 279.209C636.349 278.804 635.911 278.601 635.342 278.601C634.772 278.601 634.332 278.804 634.022 279.209C633.717 279.611 633.564 280.185 633.564 280.932C633.564 281.68 633.717 282.256 634.022 282.662C634.332 283.067 634.772 283.27 635.342 283.27ZM639.156 280.932C639.156 282.026 638.842 282.962 638.213 283.742C637.584 284.516 636.629 284.904 635.349 284.904C634.068 284.904 633.113 284.516 632.484 283.742C631.855 282.962 631.541 282.026 631.541 280.932C631.541 279.857 631.855 278.925 632.484 278.136C633.113 277.348 634.068 276.954 635.349 276.954C636.629 276.954 637.584 277.348 638.213 278.136C638.842 278.925 639.156 279.857 639.156 280.932ZM645.691 280.918C645.691 280.344 645.559 279.836 645.295 279.394C645.035 278.952 644.611 278.731 644.023 278.731C643.317 278.731 642.832 279.066 642.567 279.736C642.431 280.091 642.362 280.542 642.362 281.089C642.362 281.955 642.592 282.564 643.053 282.915C643.326 283.12 643.65 283.222 644.023 283.222C644.566 283.222 644.978 283.013 645.261 282.593C645.548 282.174 645.691 281.616 645.691 280.918ZM644.584 277.029C645.454 277.029 646.19 277.35 646.792 277.993C647.398 278.635 647.701 279.579 647.701 280.823C647.701 282.135 647.405 283.136 646.812 283.824C646.225 284.512 645.466 284.856 644.536 284.856C643.944 284.856 643.451 284.708 643.06 284.412C642.845 284.248 642.636 284.008 642.431 283.694V287.577H640.503V277.193H642.369V278.293C642.579 277.97 642.802 277.715 643.039 277.528C643.472 277.195 643.987 277.029 644.584 277.029ZM649.417 286.073L649.663 286.086C649.854 286.096 650.037 286.089 650.21 286.066C650.383 286.043 650.529 285.991 650.647 285.909C650.761 285.831 650.866 285.669 650.962 285.423C651.062 285.177 651.103 285.027 651.085 284.972L648.351 277.193H650.518L652.145 282.689L653.683 277.193H655.754L653.197 284.521C652.705 285.934 652.315 286.809 652.028 287.146C651.741 287.488 651.167 287.659 650.306 287.659C650.132 287.659 649.993 287.656 649.889 287.652C649.784 287.652 649.627 287.645 649.417 287.631V286.073Z" fill="white"/>
</g>
<path d="M0 110.083C350.5 80.6466 1280 110.083 1280 110.083V348H0V110.083Z" fill="url(#paint1_linear)"/>
<defs>
<filter id="filter0_dd" x="-90" y="0" width="1460" height="450" filterUnits="userSpaceOnUse" color-interpolation-filters="sRGB">
<feFlood flood-opacity="0" result="BackgroundImageFix"/>
<feColorMatrix in="SourceAlpha" type="matrix" values="0 0 0 0 0 0 0 0 0 0 0 0 0 0 0 0 0 0 127 0"/>
<feOffset dy="12"/>
<feGaussianBlur stdDeviation="45"/>
<feColorMatrix type="matrix" values="0 0 0 0 0.0552905 0 0 0 0 0.177421 0 0 0 0 0.491471 0 0 0 0.22 0"/>
<feBlend mode="normal" in2="BackgroundImageFix" result="effect1_dropShadow"/>
<feColorMatrix in="SourceAlpha" type="matrix" values="0 0 0 0 0 0 0 0 0 0 0 0 0 0 0 0 0 0 127 0"/>
<feOffset dy="9"/>
<feGaussianBlur stdDeviation="23"/>
<feColorMatrix type="matrix" values="0 0 0 0 0.080625 0 0 0 0 0.126313 0 0 0 0 0.5375 0 0 0 0.25 0"/>
<feBlend mode="normal" in2="effect1_dropShadow" result="effect2_dropShadow"/>
<feBlend mode="normal" in="SourceGraphic" in2="effect2_dropShadow" result="shape"/>
</filter>
<linearGradient id="paint0_linear" x1="196.5" y1="78" x2="557.992" y2="674.877" gradientUnits="userSpaceOnUse">
<stop stop-color="#236BD7"/>
<stop offset="1" stop-color="#280B7A"/>
</linearGradient>
<linearGradient id="paint1_linear" x1="196.5" y1="97" x2="520.72" y2="672.859" gradientUnits="userSpaceOnUse">
<stop stop-color="#236BD7"/>
<stop offset="1" stop-color="#280B7A"/>
</linearGradient>
</defs>
</svg>
