<svg width="1280" height="835" viewBox="0 0 1280 835" fill="none" xmlns="http://www.w3.org/2000/svg">
<g opacity="0.5" filter="url(#filter0_dd)">
<path d="M0 0.303223H1280V731.433C1139.52 738.438 1065.91 692.643 902 692.13C728 691.586 507 704.513 403 704.513C299 704.513 161.5 692.13 0 659.289V0.303223Z" fill="url(#paint0_linear)"/>
</g>
<path d="M0 0H1280V694.984C1139.52 701.643 1065.91 658.112 902 657.625C728 657.108 507 669.396 403 669.396C299 669.396 161.5 657.625 0 626.407V0Z" fill="url(#paint1_linear)"/>
<path d="M1272.36 90.9036C1274.93 92.3261 1277.46 93.8722 1280 95.3565C1280 95.0472 1280 94.7071 1280 94.3979C1279.1 93.9031 1278.21 93.3774 1277.28 92.8827C1251.63 78.6582 1225.99 64.4648 1200.34 50.2403C1199.42 49.7146 1198.49 49.2199 1197.53 48.6942C1205.91 44.0558 1214.3 39.4174 1222.65 34.779C1238.73 25.8733 1254.79 16.9676 1270.84 8.03092C1270.19 8.03092 1269.58 8.03092 1268.93 8.03092C1268.09 8.61845 1267.29 9.23691 1266.39 9.73167C1243.22 22.5955 1220.02 35.4284 1196.82 48.2922C1173.59 35.4284 1150.35 22.5646 1127.15 9.66982C1126.35 9.23691 1125.67 8.55661 1124.96 8C1124.31 8 1123.69 8 1123.04 8C1123.72 8.43292 1124.37 8.86583 1125.05 9.26783C1138.26 16.5965 1151.44 23.8942 1164.65 31.2229C1175.13 37.0364 1185.65 42.8498 1196.14 48.6942C1182.09 56.4867 1168.08 64.2483 1154.04 72.0408C1137.36 81.2867 1120.69 90.5016 1104.05 99.7475C1097.8 96.2842 1091.52 92.8208 1085.27 89.3266C1061.51 76.1535 1037.75 63.0114 1014.03 49.8383C1013.32 49.4363 1012.63 49.0653 1011.92 48.6633C1013.22 47.9521 1014.52 47.2408 1015.82 46.4987C1038.68 33.8513 1061.51 21.173 1084.37 8.49476C1084.65 8.34015 1084.9 8.15461 1085.18 8C1084.53 8 1083.91 8 1083.26 8C1082.58 8.49476 1081.93 9.11322 1081.19 9.51521C1057.89 22.4409 1034.57 35.3665 1011.24 48.2922C987.918 35.3665 964.625 22.4718 941.331 9.51521C940.589 9.11322 939.939 8.49476 939.259 8C938.609 8 937.99 8 937.341 8C940.682 9.88628 944.022 11.7726 947.363 13.6279C968.43 25.3167 989.496 36.9745 1010.59 48.6633C1009.88 49.0653 1009.17 49.4673 1008.46 49.8383C984.639 63.0423 960.789 76.2463 936.969 89.4503C930.814 92.8827 924.627 96.2842 918.471 99.7166C901.797 90.4707 885.124 81.2558 868.45 72.0099C854.406 64.2174 840.392 56.4558 826.348 48.6633C850.044 35.5212 873.74 22.41 897.435 9.26783C898.116 8.89676 898.766 8.43292 899.446 8C898.796 8 898.178 8 897.528 8C896.786 8.55661 896.136 9.20598 895.332 9.66982C872.1 22.5646 848.868 35.4284 825.668 48.2922C802.467 35.4284 779.297 22.5955 756.096 9.73167C755.199 9.23691 754.395 8.58753 753.56 8.03092C752.91 8.03092 752.292 8.03092 751.642 8.03092C776.08 21.575 800.549 35.1192 824.987 48.6633C824.121 49.158 823.255 49.6219 822.389 50.1166C792.537 66.6603 762.716 83.2039 732.865 99.7475C726.864 96.4078 720.862 93.0991 714.861 89.7595C690.144 76.0607 665.459 62.362 640.742 48.6633C664.407 35.5521 688.072 22.4409 711.768 9.32967C712.448 8.9586 713.098 8.46384 713.747 8.03092C713.252 8.03092 712.788 8.03092 712.293 8.03092C711.427 8.58753 710.592 9.20598 709.695 9.70075C686.494 22.5646 663.263 35.4284 640.062 48.2922C616.861 35.4284 593.629 22.5646 570.429 9.70075C569.532 9.20598 568.696 8.58753 567.83 8.03092C567.335 8.03092 566.871 8.03092 566.376 8.03092C567.026 8.46384 567.676 8.9586 568.356 9.32967C592.021 22.4409 615.686 35.5521 639.381 48.6633C614.665 62.362 589.979 76.0607 565.263 89.7595C559.261 93.0991 553.26 96.4078 547.259 99.7475C517.407 83.2039 487.587 66.6603 457.735 50.1166C456.869 49.6219 456.003 49.158 455.137 48.6633C479.575 35.1192 504.044 21.575 528.482 8.03092C527.832 8.03092 527.213 8.03092 526.564 8.03092C525.729 8.61845 524.924 9.23691 524.027 9.73167C500.857 22.5955 477.657 35.4284 454.456 48.2922C431.224 35.4284 407.993 22.5646 384.792 9.66982C383.988 9.23691 383.307 8.55661 382.596 8C381.946 8 381.327 8 380.678 8C381.358 8.43292 382.008 8.86583 382.688 9.26783C406.384 22.41 430.08 35.5212 453.775 48.6633C439.731 56.4558 425.718 64.2174 411.674 72.0099C395 81.2558 378.327 90.4707 361.653 99.7166C355.497 96.2842 349.31 92.8827 343.154 89.4503C319.335 76.2463 295.485 63.0423 271.665 49.8383C270.954 49.4363 270.242 49.0344 269.531 48.6633C290.597 36.9745 311.663 25.3167 332.76 13.6279C336.101 11.7726 339.442 9.88628 342.783 8C342.134 8 341.515 8 340.865 8C340.185 8.49476 339.535 9.11322 338.793 9.51521C315.499 22.4409 292.175 35.3665 268.881 48.2922C245.495 35.3975 222.17 22.4718 198.877 9.54613C198.134 9.14414 197.485 8.52568 196.804 8.03092C196.154 8.03092 195.536 8.03092 194.886 8.03092C195.165 8.21646 195.412 8.40199 195.69 8.52568C218.551 21.204 241.38 33.8513 264.241 46.5296C265.54 47.2408 266.839 47.9521 268.139 48.6942C267.427 49.0962 266.747 49.4673 266.035 49.8693C242.278 63.0423 218.52 76.1844 194.793 89.3575C188.545 92.8208 182.265 96.2842 176.016 99.7784C159.343 90.5325 142.669 81.3176 126.026 72.0717C111.982 64.2792 97.969 56.5176 83.9248 48.7251C94.4115 42.9117 104.929 37.0982 115.416 31.2538C128.625 23.9561 141.803 16.6274 155.012 9.29875C155.631 8.89676 156.311 8.46384 156.961 8.03092C156.311 8.03092 155.692 8.03092 155.043 8.03092C154.3 8.58753 153.651 9.23691 152.846 9.70075C129.646 22.5646 106.414 35.4284 83.1824 48.2922C59.9816 35.4593 36.8118 22.5955 13.6111 9.73167C12.714 9.23691 11.9097 8.61845 11.0745 8.03092C10.4249 8.03092 9.77524 8.03092 9.15656 8.03092C25.2115 16.9366 41.2973 25.8733 57.3522 34.779C65.7354 39.4174 74.1186 44.0558 82.4709 48.6942C81.5428 49.2199 80.6148 49.7146 79.6559 50.2403C54.0113 64.4338 28.3668 78.6582 2.72222 92.8827C1.82512 93.3774 0.928029 93.8722 0.0309343 94.3979C0.0309343 94.7071 0.0309343 95.0472 0.0309343 95.3565C2.56755 93.8722 5.10416 92.357 7.67171 90.9036C32.8213 76.9575 58.0018 63.0114 83.1514 49.0653C113.869 66.0727 144.587 83.0802 175.274 100.088C147.804 115.302 120.334 130.516 92.8957 145.76C89.6476 147.554 86.4305 149.347 83.1824 151.141C56.3314 136.267 29.4804 121.393 2.62942 106.52C1.82512 106.087 0.897095 105.777 0.0309343 105.406C0.0309343 105.716 0.0309343 106.056 0.0309343 106.365C0.897095 106.674 1.85606 106.86 2.66035 107.293C29.2948 122.012 55.8983 136.762 82.5018 151.512C55.6508 166.417 28.7998 181.291 1.9798 196.164C1.36111 196.504 0.680555 196.752 0.0309343 197.061C0.0309343 197.37 0.0309343 197.71 0.0309343 198.02C18.7462 187.63 37.4615 177.24 56.2076 166.881C65.2095 161.902 74.1805 156.923 83.1824 151.945C96.1129 159.119 109.013 166.262 121.943 173.405C139.73 183.27 157.518 193.134 175.305 202.998C168.623 206.709 161.91 210.42 155.228 214.13C131.223 227.427 107.187 240.755 83.1824 254.051C59.827 241.095 36.4406 228.138 13.0852 215.213C8.75441 212.77 4.39267 210.451 0.0309343 208.1C0.0309343 208.41 0.0309343 208.75 0.0309343 209.059C0.835226 209.399 1.67045 209.647 2.44381 210.049C7.91918 213.048 13.3636 216.079 18.8081 219.109C40.0599 230.89 61.2809 242.641 82.5327 254.423C64.065 264.658 45.6281 274.862 27.1603 285.098C18.9009 289.674 10.6723 294.251 2.41288 298.797C1.67045 299.168 0.835226 299.384 0.0309343 299.724C0.0309343 300.033 0.0309343 300.374 0.0309343 300.683C4.11426 298.487 8.19759 296.323 12.25 294.065C35.9147 280.954 59.5485 267.874 83.2133 254.763C98.3711 263.143 113.529 271.554 128.656 279.934C144.216 288.561 159.776 297.189 175.305 305.785C144.587 322.793 113.869 339.8 83.1514 356.838C70.7468 349.974 58.3112 343.078 45.9065 336.213C30.625 327.74 15.3125 319.236 0.0309343 310.764C0.0309343 311.258 0.0309343 311.722 0.0309343 312.217C0.989898 312.526 2.01073 312.681 2.84596 313.145C29.3876 327.833 55.9292 342.552 82.4709 357.24C64.065 367.414 45.69 377.618 27.2841 387.792C18.1894 392.832 9.12562 397.842 0.0309343 402.851C0.0309343 403.161 0.0309343 403.501 0.0309343 403.81C5.3207 400.841 10.5795 397.811 15.9002 394.873C38.3276 382.442 60.755 370.011 83.1824 357.581C96.9481 365.187 110.683 372.825 124.449 380.432C141.401 389.833 158.353 399.233 175.305 408.603C153.744 420.57 132.151 432.537 110.59 444.473C101.465 449.544 92.3389 454.585 83.1824 459.656C57.3213 445.308 31.4293 430.991 5.56818 416.643C3.77399 415.653 1.88699 414.787 0.0309343 413.86C0.0309343 414.169 0.0309343 414.509 0.0309343 414.818C0.835226 415.097 1.70139 415.282 2.44381 415.684C29.1401 430.465 55.8055 445.246 82.5018 460.027C56.4861 474.437 30.5012 488.847 4.48548 503.226C3.03156 504.03 1.51578 504.741 0.0309343 505.484C0.0309343 505.793 0.0309343 506.133 0.0309343 506.442C18.4059 496.269 36.8118 486.126 55.1868 475.921C64.529 470.757 73.8402 465.562 83.1824 460.398C92.1842 465.377 101.186 470.355 110.188 475.365C131.904 487.394 153.589 499.423 175.305 511.452C169.706 514.544 164.107 517.667 158.507 520.759C133.42 534.674 108.301 548.59 83.2133 562.474C62.3326 550.909 41.4829 539.344 20.6023 527.81C13.7658 524.006 6.89835 520.265 0.0309343 516.523C0.0309343 516.832 0.0309343 517.172 0.0309343 517.482C0.897095 517.884 1.79419 518.193 2.62942 518.657C11.0126 523.295 19.3958 527.964 27.779 532.603C45.9993 542.714 64.2506 552.795 82.4709 562.907C74.8301 567.143 67.1893 571.38 59.5176 575.616C40.5858 586.099 21.6231 596.582 2.69129 607.064C1.79419 607.559 0.897095 608.116 0 608.641C0 608.951 0 609.291 0 609.6C0.649621 609.136 1.26831 608.641 1.9798 608.239C29.0473 593.242 56.0839 578.245 83.1514 563.278C105.022 575.4 126.893 587.49 148.732 599.612C157.579 604.498 166.427 609.415 175.274 614.331C162.189 621.598 149.072 628.834 135.987 636.101C118.355 645.872 100.753 655.613 83.1205 665.385C82.4709 665.013 81.7903 664.642 81.1407 664.271C55.0321 649.8 28.9545 635.328 2.84596 620.856C1.94886 620.361 0.958964 620.052 0 619.681C0 619.99 0 620.33 0 620.639C1.51578 620.361 2.53661 621.474 3.65025 622.093C27.1294 635.049 50.5776 648.068 74.0258 661.055C76.8408 662.601 79.6249 664.179 82.4399 665.725C72.2007 671.414 61.9305 677.073 51.6912 682.763C51.0726 683.103 50.4848 683.567 49.897 683.969C50.5467 683.969 51.1654 683.969 51.815 683.969C52.4955 683.443 53.1142 682.794 53.8257 682.392C63.6009 676.981 73.3453 671.569 83.1205 666.127C92.772 671.476 102.454 676.826 112.106 682.206C112.879 682.639 113.498 683.351 114.209 683.969C114.859 683.969 115.478 683.969 116.127 683.969C115.478 683.505 114.89 682.979 114.209 682.608C104.094 676.98 93.9475 671.384 83.832 665.756C99.9797 656.819 116.096 647.851 132.244 638.915C146.814 630.844 161.384 622.773 175.954 614.702C194.484 624.969 213.014 635.235 231.543 645.501C243.701 652.242 255.889 659.014 268.046 665.756C263.065 668.508 258.085 671.26 253.105 674.043C247.784 676.981 242.463 679.918 237.173 682.887C236.617 683.196 236.153 683.629 235.627 684C236.276 684 236.895 684 237.545 684C238.194 683.443 238.782 682.794 239.493 682.392C249.238 676.981 258.982 671.569 268.726 666.189C278.471 671.6 288.215 676.981 297.959 682.392C298.702 682.794 299.259 683.474 299.908 684C300.558 684 301.176 684 301.826 684C300.898 683.412 300.001 682.763 299.011 682.206C289.143 676.733 279.275 671.26 269.376 665.787C281.533 659.045 293.721 652.273 305.878 645.532C324.408 635.266 342.938 625 361.467 614.733C376.099 622.835 390.762 630.968 405.394 639.069C421.449 647.975 437.504 656.881 453.559 665.787C443.443 671.384 433.297 677.011 423.181 682.639C422.501 683.01 421.913 683.536 421.263 684C421.913 684 422.532 684 423.181 684C423.8 683.443 424.357 682.763 425.068 682.361C434.782 676.95 444.526 671.569 454.239 666.158C463.922 671.538 473.635 676.919 483.318 682.299C484.122 682.763 484.803 683.412 485.545 684C486.195 684 486.813 684 487.463 684C486.782 683.567 486.164 683.072 485.452 682.701C475.275 677.073 465.097 671.414 454.92 665.787C457.89 664.148 460.859 662.509 463.798 660.839C489.938 646.367 516.077 631.864 542.217 617.393C543.825 616.496 545.434 615.599 547.042 614.733C558.705 621.196 570.367 627.659 582.029 634.122C601.085 644.666 620.109 655.242 639.165 665.787C638.299 666.281 637.401 666.776 636.535 667.24C627.162 672.435 617.789 677.599 608.447 682.794C607.921 683.103 607.488 683.567 606.993 683.969C607.488 683.969 607.952 683.969 608.447 683.969C609.128 683.443 609.777 682.825 610.52 682.423C620.295 676.981 630.101 671.569 639.876 666.158C649.651 671.569 659.458 677.011 669.233 682.423C669.975 682.825 670.625 683.443 671.305 683.969C671.8 683.969 672.264 683.969 672.759 683.969C672.295 683.567 671.862 683.072 671.305 682.794C661.963 677.599 652.59 672.435 643.217 667.24C642.351 666.745 641.454 666.25 640.588 665.787C659.643 655.242 678.668 644.666 697.723 634.122C709.386 627.659 721.048 621.196 732.71 614.733C734.319 615.63 735.927 616.527 737.536 617.393C763.675 631.864 789.815 646.367 815.954 660.839C818.924 662.478 821.894 664.117 824.833 665.787C814.655 671.414 804.478 677.073 794.3 682.701C793.62 683.072 792.97 683.567 792.29 684C792.939 684 793.558 684 794.208 684C794.95 683.443 795.631 682.763 796.435 682.299C806.117 676.919 815.831 671.538 825.513 666.158C835.257 671.538 844.971 676.95 854.684 682.361C855.396 682.763 855.952 683.443 856.571 684C857.221 684 857.839 684 858.489 684C857.839 683.536 857.252 683.01 856.571 682.639C846.456 677.011 836.309 671.414 826.194 665.787C842.249 656.881 858.304 647.975 874.358 639.069C888.99 630.968 903.653 622.835 918.285 614.733C936.815 625 955.344 635.266 973.874 645.532C986.062 652.273 998.219 659.045 1010.38 665.787C1000.51 671.26 990.64 676.733 980.741 682.206C979.783 682.732 978.854 683.382 977.926 684C978.576 684 979.195 684 979.844 684C980.494 683.443 981.082 682.794 981.793 682.392C991.538 676.981 1001.28 671.569 1011.03 666.189C1020.77 671.6 1030.51 676.981 1040.26 682.392C1041 682.794 1041.56 683.474 1042.21 684C1042.86 684 1043.48 684 1044.13 684C1043.6 683.629 1043.14 683.196 1042.58 682.887C1037.29 679.918 1031.97 677.011 1026.65 674.043C1021.67 671.291 1016.69 668.539 1011.71 665.756C1023.86 659.014 1036.05 652.242 1048.21 645.501C1066.74 635.235 1085.27 624.969 1103.8 614.702C1118.37 622.773 1132.94 630.844 1147.51 638.915C1163.66 647.851 1179.77 656.819 1195.92 665.756C1185.81 671.384 1175.66 676.98 1165.54 682.608C1164.86 682.979 1164.27 683.505 1163.63 683.969C1164.27 683.969 1164.89 683.969 1165.54 683.969C1166.22 683.381 1166.84 682.639 1167.65 682.206C1177.3 676.826 1186.95 671.476 1196.63 666.127C1206.41 671.538 1216.18 676.95 1225.93 682.392C1226.67 682.794 1227.29 683.443 1227.94 683.969C1228.59 683.969 1229.21 683.969 1229.86 683.969C1229.27 683.567 1228.68 683.134 1228.06 682.763C1217.82 677.073 1207.55 671.414 1197.31 665.725C1200.13 664.179 1202.91 662.601 1205.73 661.055C1229.17 648.068 1252.62 635.049 1276.1 622.093C1277.25 621.474 1278.24 620.33 1279.75 620.639C1279.75 620.33 1279.75 619.99 1279.75 619.681C1278.79 620.083 1277.8 620.361 1276.91 620.856C1250.8 635.297 1224.69 649.8 1198.61 664.271C1197.96 664.642 1197.28 665.013 1196.63 665.385C1179 655.613 1161.4 645.872 1143.77 636.101C1130.68 628.834 1117.56 621.598 1104.48 614.331C1113.33 609.415 1122.17 604.529 1131.02 599.612C1152.89 587.49 1174.76 575.4 1196.6 563.278C1223.67 578.275 1250.74 593.242 1277.77 608.239C1278.45 608.611 1279.07 609.136 1279.75 609.6C1279.75 609.291 1279.75 608.951 1279.75 608.641C1278.86 608.116 1277.96 607.59 1277.06 607.064C1258.13 596.582 1239.17 586.099 1220.23 575.616C1212.59 571.38 1204.95 567.143 1197.28 562.907C1215.5 552.795 1233.75 542.714 1251.97 532.603C1260.36 527.964 1268.74 523.295 1277.12 518.657C1277.96 518.193 1278.86 517.884 1279.72 517.482C1279.72 517.172 1279.72 516.832 1279.72 516.523C1272.85 520.295 1265.99 524.037 1259.15 527.81C1238.27 539.375 1217.42 550.94 1196.54 562.474C1171.45 548.559 1146.33 534.644 1121.25 520.759C1115.65 517.667 1110.05 514.544 1104.45 511.452C1126.16 499.423 1147.85 487.394 1169.56 475.365C1178.57 470.386 1187.57 465.408 1196.57 460.398C1205.91 465.562 1215.22 470.757 1224.57 475.921C1242.94 486.095 1261.35 496.269 1279.72 506.442C1279.72 506.133 1279.72 505.793 1279.72 505.484C1278.24 504.741 1276.72 504.03 1275.27 503.226C1249.25 488.816 1223.27 474.437 1197.25 460.027C1223.95 445.246 1250.61 430.465 1277.31 415.684C1278.05 415.282 1278.92 415.097 1279.72 414.818C1279.72 414.509 1279.72 414.169 1279.72 413.86C1277.87 414.787 1275.98 415.653 1274.18 416.643C1248.32 430.96 1222.43 445.308 1196.57 459.656C1187.44 454.585 1178.32 449.544 1169.16 444.473C1147.6 432.506 1126.01 420.57 1104.45 408.603C1121.4 399.202 1138.35 389.802 1155.3 380.432C1169.07 372.825 1182.8 365.187 1196.57 357.581C1219 370.011 1241.42 382.442 1263.85 394.873C1269.17 397.811 1274.43 400.81 1279.72 403.81C1279.72 403.501 1279.72 403.161 1279.72 402.851C1270.63 397.842 1261.56 392.801 1252.47 387.792C1234.06 377.618 1215.69 367.414 1197.28 357.24C1223.82 342.521 1250.36 327.833 1276.91 313.145C1277.77 312.681 1278.79 312.526 1279.72 312.217C1279.72 311.722 1279.72 311.258 1279.72 310.764C1264.44 319.267 1249.13 327.74 1233.85 336.244C1221.44 343.109 1209.01 350.004 1196.6 356.869C1165.88 339.862 1135.17 322.854 1104.45 305.816C1120.01 297.189 1135.57 288.561 1151.1 279.965C1166.25 271.554 1181.41 263.174 1196.54 254.794C1220.2 267.905 1243.84 281.016 1267.5 294.096C1271.55 296.323 1275.64 298.487 1279.72 300.714C1279.72 300.405 1279.72 300.064 1279.72 299.755C1278.92 299.446 1278.08 299.199 1277.34 298.797C1269.08 294.251 1260.82 289.674 1252.59 285.098C1234.12 274.862 1215.69 264.658 1197.22 254.423C1218.47 242.641 1239.69 230.89 1260.94 219.109C1266.39 216.079 1271.83 213.048 1277.31 210.049C1278.05 209.647 1278.92 209.399 1279.72 209.059C1279.72 208.75 1279.72 208.41 1279.72 208.1C1275.36 210.451 1271 212.77 1266.67 215.182C1243.31 228.138 1219.93 241.095 1196.57 254.021C1172.57 240.724 1148.53 227.396 1124.52 214.099C1117.84 210.389 1111.13 206.678 1104.45 202.967C1122.23 193.103 1140.02 183.239 1157.81 173.374C1170.74 166.2 1183.64 159.057 1196.57 151.914C1205.57 156.893 1214.54 161.871 1223.54 166.85C1242.26 177.24 1260.98 187.63 1279.72 197.989C1279.72 197.68 1279.72 197.339 1279.72 197.03C1279.07 196.721 1278.39 196.474 1277.77 196.133C1250.92 181.26 1224.07 166.386 1197.25 151.512C1223.85 136.762 1250.49 122.012 1277.09 107.293C1277.9 106.86 1278.82 106.674 1279.72 106.365C1279.72 106.056 1279.72 105.716 1279.72 105.406C1278.86 105.777 1277.93 106.056 1277.09 106.52C1250.24 121.393 1223.39 136.267 1196.54 151.141C1193.29 149.347 1190.07 147.554 1186.83 145.76C1159.36 130.546 1131.89 115.333 1104.45 100.088C1135.17 83.0802 1165.88 66.0727 1196.57 49.0653C1222.03 63.0114 1247.21 76.9575 1272.36 90.9036ZM1011.27 49.0653C1020.31 54.0747 1029.31 59.0533 1038.34 64.0628C1060.03 76.0917 1081.71 88.0897 1103.4 100.119C1077.53 114.467 1051.64 128.784 1025.78 143.132C1020.96 145.822 1016.1 148.482 1011.27 151.172C1006.42 148.482 1001.59 145.791 996.735 143.132C970.873 128.784 944.981 114.467 919.12 100.119C949.807 83.1111 980.556 66.0727 1011.27 49.0653ZM409.972 332.966C424.573 341.037 439.143 349.139 453.744 357.209C428.78 371.032 403.817 384.854 378.853 398.677C373.099 401.862 367.345 405.047 361.591 408.232C345.134 399.11 328.708 389.987 312.251 380.896C297.99 372.98 283.73 365.095 269.469 357.209C300.187 340.202 330.904 323.195 361.622 306.156C377.739 315.124 393.856 324.029 409.972 332.966ZM362.272 305.816C371.552 300.683 380.863 295.519 390.144 290.386C411.581 278.511 432.988 266.637 454.425 254.763C455.26 255.227 456.126 255.69 456.962 256.154C486.813 272.698 516.665 289.241 546.516 305.785C526.966 316.639 507.415 327.462 487.865 338.285C476.698 344.469 465.561 350.654 454.394 356.838C423.707 339.862 392.99 322.823 362.272 305.816ZM434.256 368.744C440.969 365.033 447.681 361.322 454.394 357.581C484.493 374.279 514.623 390.946 544.722 407.644C545.31 407.984 545.898 408.294 546.516 408.634C515.799 425.641 485.112 442.68 454.394 459.687C445.238 454.616 436.081 449.544 426.924 444.473C405.363 432.537 383.833 420.601 362.272 408.634C386.277 395.368 410.282 382.04 434.256 368.744ZM485.081 373.877C475.058 368.342 465.066 362.776 455.044 357.24C485.761 340.233 516.479 323.225 547.166 306.187C553.848 309.898 560.53 313.578 567.181 317.288C591.217 330.616 615.253 343.913 639.288 357.24C616.923 369.609 594.588 382.009 572.223 394.378C563.871 399.017 555.487 403.655 547.135 408.294C526.502 396.821 505.807 385.349 485.081 373.877ZM547.909 305.816C552.116 303.497 556.292 301.178 560.499 298.858C587.009 284.17 613.52 269.482 640.031 254.794C666.542 269.482 693.052 284.17 719.563 298.858C723.77 301.178 727.946 303.497 732.153 305.816C723.461 310.64 714.768 315.464 706.045 320.288C684.05 332.471 662.025 344.686 640 356.869C617.975 344.686 595.98 332.471 573.955 320.288C565.294 315.464 556.601 310.64 547.909 305.816ZM619.924 368.744C626.605 365.033 633.318 361.322 640.031 357.611C646.744 361.322 653.425 365.033 660.138 368.744C684.143 382.04 708.148 395.368 732.153 408.665C715.356 417.972 698.528 427.28 681.73 436.588C667.841 444.288 653.92 451.987 640.031 459.687C626.141 451.987 612.252 444.288 598.331 436.588C581.534 427.28 564.706 417.972 547.909 408.665C571.914 395.337 595.919 382.04 619.924 368.744ZM707.746 394.378C685.412 382.009 663.046 369.609 640.681 357.24C664.717 343.913 688.752 330.616 712.788 317.288C719.47 313.578 726.152 309.898 732.803 306.187C763.521 323.195 794.239 340.202 824.925 357.24C814.903 362.776 804.911 368.342 794.888 373.877C774.193 385.349 753.467 396.821 732.772 408.294C724.482 403.655 716.098 399.017 707.746 394.378ZM733.514 305.816C763.366 289.272 793.218 272.729 823.069 256.185C823.904 255.721 824.771 255.257 825.606 254.794C847.043 266.668 868.45 278.542 889.887 290.417C899.168 295.55 908.479 300.714 917.759 305.847C887.041 322.854 856.355 339.862 825.637 356.9C814.47 350.716 803.333 344.531 792.166 338.347C772.615 327.493 753.065 316.639 733.514 305.816ZM735.309 407.675C765.408 390.977 795.538 374.31 825.637 357.611C832.35 361.322 839.062 365.033 845.775 368.775C869.78 382.071 893.754 395.368 917.759 408.665C896.198 420.601 874.668 432.568 853.106 444.504C843.95 449.575 834.793 454.647 825.637 459.718C794.919 442.711 764.232 425.672 733.514 408.665C734.102 408.325 734.721 407.984 735.309 407.675ZM901.209 398.708C876.245 384.885 851.281 371.063 826.317 357.24C840.918 349.17 855.488 341.068 870.089 332.997C886.206 324.06 902.323 315.155 918.44 306.218C949.158 323.225 979.875 340.233 1010.59 357.271C996.332 365.157 982.072 373.073 967.811 380.958C951.354 390.08 934.928 399.171 918.471 408.294C912.686 405.078 906.963 401.893 901.209 398.708ZM854.56 270.039C845.156 264.813 835.721 259.618 826.317 254.392C857.035 237.384 887.722 220.377 918.44 203.338C949.158 220.346 979.875 237.384 1010.56 254.392C981.391 270.564 952.22 286.737 923.049 302.878C921.502 303.744 919.987 304.579 918.44 305.445C897.157 293.632 875.843 281.851 854.56 270.039ZM897.868 213.976C873.802 227.303 849.704 240.662 825.637 253.99C801.323 240.507 777.008 227.025 752.694 213.543C746.321 210.018 739.918 206.462 733.545 202.936C759.87 188.372 786.165 173.776 812.49 159.181C816.882 156.738 821.275 154.326 825.668 151.883C856.386 168.891 887.103 185.929 917.79 202.936C911.139 206.647 904.519 210.296 897.868 213.976ZM764.542 220.933C784.68 232.096 804.818 243.259 824.925 254.392C811.438 261.875 797.951 269.327 784.432 276.811C767.233 286.335 750.002 295.89 732.803 305.414C718.202 297.312 703.601 289.241 689 281.14C672.883 272.203 656.797 263.297 640.681 254.361C657.416 245.084 674.121 235.838 690.856 226.561C704.838 218.8 718.821 211.069 732.803 203.307C743.382 209.214 753.962 215.058 764.542 220.933ZM712.819 213.667C688.567 227.118 664.283 240.569 640.031 253.99C615.747 240.538 591.495 227.118 567.242 213.667C560.808 210.11 554.374 206.523 547.939 202.967C578.657 185.96 609.344 168.952 640.062 151.945C670.78 168.952 701.466 185.96 732.184 202.998C725.688 206.523 719.254 210.11 712.819 213.667ZM589.175 226.592C605.91 235.869 622.615 245.115 639.35 254.392C623.234 263.328 607.117 272.234 591.031 281.171C576.43 289.272 561.829 297.343 547.228 305.445C530.028 295.921 512.798 286.366 495.599 276.841C482.111 269.358 468.624 261.875 455.106 254.423C475.244 243.26 495.351 232.096 515.489 220.964C526.069 215.089 536.648 209.245 547.228 203.4C561.21 211.1 575.193 218.831 589.175 226.592ZM527.368 213.574C503.054 227.056 478.739 240.538 454.425 254.021C430.327 240.693 406.26 227.334 382.193 214.007C375.573 210.327 368.954 206.678 362.303 202.998C393.02 185.991 423.738 168.952 454.425 151.945C458.818 154.388 463.21 156.8 467.603 159.243C493.928 173.838 520.222 188.403 546.547 202.998C540.144 206.492 533.741 210.018 527.368 213.574ZM453.714 254.392C444.31 259.618 434.875 264.813 425.471 270.039C404.188 281.851 382.874 293.632 361.591 305.445C360.044 304.579 358.529 303.744 356.982 302.878C327.811 286.706 298.64 270.533 269.469 254.392C300.187 237.384 330.904 220.346 361.591 203.338C392.309 220.346 423.027 237.353 453.714 254.392ZM308.848 231.818C295.485 239.209 282.152 246.599 268.788 254.021C255.425 246.599 242.03 239.209 228.666 231.787C211.343 222.17 194.02 212.584 176.666 202.967C194.515 193.072 212.333 183.177 230.182 173.312C243.051 166.2 255.92 159.057 268.788 151.945C283.791 160.263 298.764 168.55 313.767 176.869C329.481 185.589 345.196 194.278 360.942 202.998C343.556 212.584 326.202 222.201 308.848 231.818ZM360.911 305.816C352.094 310.702 343.278 315.588 334.462 320.473C312.56 332.595 290.659 344.748 268.757 356.869C246.825 344.717 224.923 332.595 202.991 320.442C194.206 315.588 185.42 310.702 176.635 305.816C197.949 294.004 219.293 282.191 240.607 270.379C249.98 265.184 259.384 259.989 268.757 254.794C299.506 271.77 330.224 288.809 360.911 305.816ZM321.5 386.833C334.616 394.1 347.764 401.398 360.88 408.665C330.193 425.672 299.475 442.711 268.788 459.718C264.086 457.121 259.384 454.523 254.713 451.895C228.697 437.485 202.682 423.075 176.666 408.665C200.578 395.399 224.521 382.133 248.433 368.898C255.208 365.126 262.014 361.384 268.788 357.611C286.359 367.352 303.93 377.093 321.5 386.833ZM327.533 492.991C338.669 499.144 349.774 505.329 360.911 511.513C356.673 513.864 352.404 516.214 348.166 518.564C321.686 533.221 295.237 547.909 268.788 562.567C266.035 561.021 263.251 559.505 260.498 557.959C232.564 542.467 204.63 527.006 176.697 511.513C207.415 494.506 238.101 477.468 268.819 460.46C288.37 471.314 307.951 482.137 327.533 492.991ZM269.469 460.089C279.677 454.43 289.885 448.771 300.094 443.113C320.603 431.764 341.082 420.384 361.591 409.036C375.821 416.921 390.082 424.806 404.311 432.723C420.769 441.845 437.256 450.967 453.714 460.089C422.996 477.097 392.309 494.104 361.591 511.142C330.904 494.104 300.187 477.097 269.469 460.089ZM415.726 481.89C428.626 474.746 441.495 467.603 454.394 460.46C474.099 471.376 493.835 482.292 513.541 493.238C524.522 499.33 535.535 505.422 546.516 511.513C516.881 527.933 487.215 544.353 457.58 560.804C456.529 561.392 455.477 561.979 454.394 562.567C426.12 546.889 397.846 531.242 369.572 515.564C367.128 514.204 364.685 512.874 362.272 511.513C380.09 501.618 397.908 491.754 415.726 481.89ZM527.77 500.35C503.549 486.93 479.296 473.51 455.075 460.089C478.585 447.071 502.064 434.052 525.574 421.034C532.782 417.045 539.989 413.056 547.197 409.036C577.915 426.043 608.602 443.051 639.319 460.089C613.953 474.159 588.618 488.198 563.252 502.268C557.9 505.236 552.549 508.205 547.228 511.142C540.732 507.524 534.267 503.937 527.77 500.35ZM592.145 486.992C608.107 478.148 624.069 469.304 640.031 460.46C655.993 469.304 671.955 478.148 687.917 486.992C702.673 495.155 717.398 503.319 732.153 511.513C704.281 526.975 676.379 542.436 648.507 557.866C645.692 559.444 642.846 560.99 640.031 562.567C637.216 560.99 634.37 559.444 631.555 557.866C603.683 542.405 575.78 526.975 547.909 511.513C562.633 503.35 577.389 495.155 592.145 486.992ZM716.779 502.237C691.413 488.198 666.047 474.128 640.711 460.058C671.429 443.051 702.116 426.043 732.834 409.005C740.042 412.994 747.249 416.983 754.457 421.003C777.967 434.021 801.446 447.04 824.956 460.058C800.735 473.479 776.482 486.899 752.261 500.319C745.795 503.906 739.299 507.493 732.834 511.08C727.482 508.174 722.131 505.205 716.779 502.237ZM766.49 493.238C786.196 482.322 805.932 471.407 825.637 460.46C838.536 467.603 851.405 474.746 864.305 481.89C882.123 491.754 899.941 501.649 917.759 511.513C915.315 512.874 912.872 514.204 910.459 515.564C882.185 531.242 853.911 546.889 825.637 562.567C824.585 561.979 823.533 561.392 822.451 560.804C792.815 544.384 763.149 527.964 733.514 511.513C744.496 505.422 755.509 499.33 766.49 493.238ZM826.317 460.089C842.774 450.967 859.262 441.845 875.719 432.723C889.949 424.837 904.21 416.952 918.44 409.036C938.949 420.384 959.428 431.764 979.937 443.113C990.145 448.771 1000.35 454.43 1010.56 460.089C979.844 477.097 949.158 494.135 918.44 511.142C887.722 494.104 857.035 477.097 826.317 460.089ZM952.498 492.991C972.08 482.137 991.661 471.314 1011.24 460.46C1041.96 477.468 1072.65 494.506 1103.37 511.513C1075.43 527.006 1047.5 542.467 1019.56 557.959C1016.81 559.505 1014.03 561.021 1011.27 562.567C984.825 547.909 958.345 533.221 931.896 518.564C927.658 516.214 923.389 513.864 919.151 511.513C930.257 505.329 941.362 499.175 952.498 492.991ZM1011.24 459.687C980.556 442.68 949.838 425.641 919.151 408.634C932.267 401.367 945.415 394.069 958.531 386.802C976.101 377.062 993.672 367.321 1011.24 357.581C1018.02 361.353 1024.82 365.095 1031.6 368.867C1055.51 382.133 1079.45 395.368 1103.37 408.634C1077.35 423.044 1051.33 437.454 1025.32 451.864C1020.62 454.492 1015.94 457.09 1011.24 459.687ZM1011.24 356.838C989.341 344.717 967.44 332.595 945.538 320.442C936.722 315.557 927.906 310.671 919.089 305.785C949.807 288.778 980.525 271.77 1011.24 254.732C1020.62 259.927 1030.02 265.122 1039.39 270.317C1060.71 282.129 1082.05 293.942 1103.37 305.754C1094.58 310.64 1085.79 315.495 1077.01 320.381C1055.11 332.564 1033.18 344.717 1011.24 356.838ZM1011.24 254.021C997.879 246.63 984.546 239.24 971.183 231.818C953.829 222.201 936.474 212.584 919.089 202.967C934.804 194.247 950.519 185.558 966.264 176.838C981.267 168.519 996.24 160.232 1011.24 151.914C1024.11 159.026 1036.98 166.169 1049.85 173.282C1067.7 183.177 1085.52 193.072 1103.37 202.936C1086.04 212.553 1068.72 222.17 1051.36 231.756C1038 239.209 1024.61 246.599 1011.24 254.021ZM928.493 106.056C955.87 121.208 983.216 136.36 1010.59 151.543C979.875 168.55 949.158 185.589 918.471 202.596C893.352 188.681 868.264 174.766 843.146 160.851C837.546 157.758 831.947 154.635 826.348 151.543C849.209 138.865 872.038 126.217 894.899 113.539C902.756 109.179 910.613 104.819 918.471 100.49C921.781 102.345 925.122 104.2 928.493 106.056ZM773.512 77.947C790.898 68.3301 808.252 58.6822 825.637 49.0653C832.319 52.776 839 56.4867 845.713 60.1974C869.718 73.4942 893.754 86.8218 917.759 100.149C887.041 117.157 856.324 134.164 825.637 151.203C794.919 134.195 764.232 117.188 733.514 100.149C746.847 92.7281 760.18 85.3375 773.512 77.947ZM732.834 100.49C749.569 109.766 766.274 119.043 783.009 128.289C796.992 136.02 810.974 143.781 824.956 151.512C818.893 154.883 812.83 158.222 806.767 161.593C782.143 175.23 757.488 188.897 732.865 202.565C712.015 191 691.165 179.466 670.316 167.901C660.448 162.428 650.61 156.985 640.742 151.512C646.929 148.08 653.116 144.647 659.303 141.215C683.803 127.671 708.334 114.065 732.834 100.49ZM588.216 77.7615C605.477 68.2064 622.739 58.6204 640 49.0653C657.261 58.6204 674.523 68.2064 691.784 77.7615C705.24 85.2138 718.666 92.6662 732.122 100.119C727.73 102.561 723.337 104.973 718.975 107.416C692.65 122.012 666.325 136.576 640 151.172C613.675 136.576 587.35 122.012 561.025 107.416C556.632 104.973 552.239 102.561 547.878 100.119C561.334 92.6662 574.79 85.2138 588.216 77.7615ZM620.759 141.246C626.946 144.678 633.133 148.111 639.319 151.543C629.451 157.016 619.614 162.459 609.746 167.932C588.897 179.497 568.047 191.031 547.197 202.596C522.573 188.928 497.919 175.292 473.295 161.624C467.232 158.253 461.169 154.913 455.106 151.543C469.088 143.812 483.07 136.051 497.053 128.32C513.788 119.043 530.493 109.766 547.228 100.521C571.728 114.065 596.228 127.671 620.759 141.246ZM434.349 60.1665C441.03 56.4558 447.712 52.7451 454.425 49.0344C471.81 58.6513 489.164 68.2682 506.549 77.9161C519.882 85.3066 533.246 92.6971 546.578 100.088C515.861 117.095 485.174 134.103 454.456 151.141C423.738 134.133 393.02 117.126 362.334 100.088C386.308 86.7909 410.313 73.4942 434.349 60.1665ZM361.622 100.49C369.479 104.85 377.337 109.179 385.194 113.539C408.055 126.186 430.884 138.865 453.744 151.543C448.145 154.635 442.546 157.758 436.947 160.851C411.829 174.766 386.741 188.681 361.622 202.596C330.904 185.589 300.187 168.55 269.5 151.543C296.877 136.391 324.223 121.239 351.599 106.056C354.909 104.2 358.281 102.345 361.622 100.49ZM241.721 64.0628C250.754 59.0533 259.755 54.0747 268.788 49.0653C299.506 66.0727 330.224 83.0802 360.942 100.119C335.08 114.467 309.188 128.784 283.327 143.132C278.471 145.822 273.645 148.513 268.788 151.172C263.962 148.482 259.106 145.822 254.28 143.132C228.419 128.784 202.527 114.467 176.666 100.119C198.351 88.0897 220.036 76.0917 241.721 64.0628ZM125.748 174.704C111.797 166.973 97.8452 159.243 83.8939 151.512C102.331 141.308 120.798 131.072 139.235 120.868C151.485 114.065 163.766 107.293 176.016 100.49C183.935 104.881 191.824 109.241 199.743 113.632C222.541 126.279 245.34 138.896 268.139 151.543C237.421 168.55 206.734 185.558 176.016 202.596C159.25 193.288 142.483 184.012 125.748 174.704ZM112.044 270.008C102.671 264.813 93.267 259.618 83.8939 254.392C98.0927 246.537 112.292 238.652 126.49 230.798C143.009 221.645 159.497 212.491 176.016 203.338C202.96 218.305 229.935 233.241 256.94 248.207C260.683 250.279 264.396 252.351 268.139 254.392C239.029 270.533 209.889 286.675 180.78 302.786C179.202 303.651 177.594 304.548 176.016 305.414C154.672 293.632 133.358 281.82 112.044 270.008ZM144.649 390.915C124.387 379.69 104.125 368.465 83.832 357.24C98.2164 349.262 112.601 341.284 126.985 333.306C143.319 324.246 159.621 315.216 175.954 306.187C190.432 314.227 204.909 322.236 219.386 330.276C235.627 339.274 251.836 348.273 268.077 357.24C253.785 365.157 239.524 373.073 225.233 380.958C208.807 390.049 192.38 399.171 175.954 408.263C165.529 402.48 155.105 396.698 144.649 390.915ZM145.824 494.413C125.191 482.972 104.527 471.53 83.8939 460.089C104.218 448.802 124.572 437.546 144.896 426.26C155.259 420.508 165.622 414.787 175.985 409.036C196.526 420.415 217.066 431.795 237.606 443.174C247.784 448.802 257.93 454.43 268.108 460.058C266.778 460.8 265.478 461.512 264.148 462.254C234.76 478.55 205.373 494.815 175.985 511.111C165.932 505.545 155.878 499.979 145.824 494.413ZM152.228 600.787C129.46 588.171 106.662 575.554 83.8939 562.938C108.177 549.486 132.461 536.035 156.713 522.584C163.148 519.028 169.551 515.472 175.985 511.915C188.483 518.842 201.011 525.8 213.509 532.726C231.698 542.807 249.887 552.888 268.108 562.969C260.776 567.051 253.445 571.101 246.082 575.183C222.727 588.14 199.372 601.065 175.985 614.022C168.066 609.569 160.147 605.178 152.228 600.787ZM268.788 665.415C238.101 648.377 207.384 631.37 176.697 614.362C191.886 605.951 207.043 597.54 222.232 589.129C237.761 580.533 253.259 571.936 268.788 563.34C284.379 571.998 300.001 580.626 315.592 589.284C330.688 597.664 345.815 606.013 360.911 614.393C330.193 631.37 299.506 648.377 268.788 665.415ZM269.469 562.938C287.906 552.733 306.312 542.529 324.748 532.293C337.029 525.49 349.31 518.687 361.591 511.885C378.11 521.038 394.629 530.191 411.148 539.344C425.347 547.198 439.515 555.053 453.714 562.907C424.666 578.987 395.619 595.097 366.572 611.208C364.901 612.136 363.231 613.063 361.591 613.96C330.873 596.953 300.187 579.945 269.469 562.938ZM539.68 618.135C511.994 633.472 484.339 648.81 456.652 664.148C455.91 664.55 455.137 664.983 454.394 665.385C432.462 653.232 410.498 641.079 388.566 628.927C379.811 624.072 371.026 619.217 362.272 614.362C371.119 609.476 379.966 604.56 388.782 599.674C410.653 587.552 432.524 575.431 454.394 563.34C469.892 571.905 485.359 580.502 500.857 589.067C516.077 597.509 531.297 605.92 546.516 614.362C544.227 615.599 541.969 616.867 539.68 618.135ZM541.474 610.806C515.397 596.365 489.35 581.924 463.272 567.483C460.55 565.968 457.797 564.453 455.075 562.938C469.521 554.929 483.967 546.951 498.414 538.942C514.685 529.943 530.926 520.914 547.197 511.915C574.141 526.851 601.054 541.756 627.997 556.691C631.771 558.794 635.545 560.866 639.319 562.969C608.602 579.976 577.915 596.984 547.197 613.991C545.31 612.909 543.392 611.857 541.474 610.806ZM640.031 665.415C609.313 648.408 578.626 631.37 547.909 614.362C578.626 597.355 609.313 580.347 640.031 563.34C670.749 580.347 701.436 597.355 732.153 614.362C701.436 631.37 670.718 648.377 640.031 665.415ZM732.834 613.96C702.116 596.953 671.429 579.945 640.711 562.938C644.485 560.835 648.259 558.763 652.033 556.66C678.977 541.725 705.89 526.82 732.834 511.885C749.105 520.883 765.346 529.912 781.617 538.911C796.064 546.92 810.51 554.929 824.956 562.907C822.234 564.422 819.481 565.937 816.759 567.453C790.681 581.893 764.634 596.334 738.557 610.775C736.639 611.857 734.752 612.909 732.834 613.96ZM891.465 628.927C869.533 641.079 847.569 653.232 825.637 665.385C824.894 664.983 824.121 664.55 823.379 664.148C795.692 648.81 768.037 633.472 740.351 618.135C738.062 616.867 735.773 615.599 733.514 614.331C748.734 605.889 763.954 597.478 779.173 589.037C794.672 580.471 810.139 571.874 825.637 563.309C847.507 575.431 869.378 587.521 891.249 599.643C900.096 604.529 908.943 609.445 917.759 614.331C909.005 619.217 900.25 624.072 891.465 628.927ZM918.44 613.991C916.769 613.063 915.099 612.136 913.459 611.239C884.412 595.159 855.365 579.048 826.317 562.938C840.516 555.083 854.684 547.229 868.883 539.375C885.402 530.222 901.921 521.069 918.44 511.915C930.721 518.718 943.002 525.521 955.282 532.324C973.719 542.529 992.125 552.733 1010.56 562.969C979.875 579.945 949.158 596.953 918.44 613.991ZM1011.27 665.415C980.556 648.408 949.838 631.401 919.12 614.362C934.216 605.982 949.343 597.633 964.439 589.253C980.03 580.595 995.652 571.967 1011.24 563.309C1026.77 571.905 1042.27 580.502 1057.8 589.098C1072.99 597.509 1088.15 605.92 1103.33 614.331C1072.65 631.37 1041.96 648.377 1011.27 665.415ZM1123.32 522.553C1147.6 536.004 1171.85 549.456 1196.14 562.907C1173.37 575.523 1150.57 588.14 1127.8 600.756C1119.88 605.147 1111.93 609.538 1104.01 613.929C1080.66 601.004 1057.3 588.047 1033.92 575.09C1026.59 571.009 1019.25 566.958 1011.89 562.876C1030.08 552.795 1048.27 542.714 1066.49 532.634C1078.99 525.707 1091.52 518.78 1104.01 511.823C1110.48 515.441 1116.91 518.997 1123.32 522.553ZM1135.13 426.26C1155.46 437.546 1175.81 448.802 1196.14 460.089C1175.5 471.53 1154.84 482.972 1134.21 494.413C1124.15 499.979 1114.1 505.576 1104.05 511.142C1074.66 494.846 1045.27 478.581 1015.88 462.285C1014.55 461.542 1013.25 460.831 1011.92 460.089C1022.1 454.461 1032.25 448.833 1042.42 443.205C1062.96 431.826 1083.51 420.446 1104.05 409.067C1114.41 414.787 1124.77 420.508 1135.13 426.26ZM1153.05 333.306C1167.43 341.284 1181.81 349.262 1196.2 357.24C1175.94 368.465 1155.67 379.69 1135.38 390.915C1124.93 396.698 1114.5 402.48 1104.05 408.263C1087.62 399.171 1071.19 390.049 1054.77 380.958C1040.48 373.042 1026.21 365.126 1011.92 357.24C1028.16 348.242 1044.37 339.274 1060.61 330.276C1075.09 322.267 1089.57 314.227 1104.05 306.187C1120.38 315.216 1136.71 324.277 1153.05 333.306ZM1153.57 230.798C1167.77 238.652 1181.97 246.537 1196.17 254.392C1186.79 259.587 1177.39 264.813 1168.02 270.008C1146.7 281.82 1125.39 293.632 1104.08 305.445C1102.5 304.579 1100.89 303.682 1099.31 302.817C1070.2 286.675 1041.06 270.564 1011.95 254.423C1015.7 252.351 1019.41 250.279 1023.15 248.238C1050.13 233.302 1077.1 218.336 1104.08 203.369C1120.56 212.491 1137.05 221.645 1153.57 230.798ZM1140.83 120.868C1159.26 131.072 1177.73 141.308 1196.17 151.512C1182.22 159.243 1168.27 166.973 1154.31 174.704C1137.55 183.981 1120.81 193.288 1104.05 202.565C1073.33 185.558 1042.64 168.55 1011.92 151.512C1034.72 138.865 1057.52 126.248 1080.32 113.601C1088.24 109.21 1096.13 104.85 1104.05 100.459C1116.3 107.293 1128.58 114.065 1140.83 120.868Z" fill="url(#paint2_linear)" fill-opacity="0.33" style="mix-blend-mode:hard-light"/>
<defs>
<filter id="filter0_dd" x="-90" y="-77.6968" width="1460" height="911.858" filterUnits="userSpaceOnUse" color-interpolation-filters="sRGB">
<feFlood flood-opacity="0" result="BackgroundImageFix"/>
<feColorMatrix in="SourceAlpha" type="matrix" values="0 0 0 0 0 0 0 0 0 0 0 0 0 0 0 0 0 0 127 0"/>
<feOffset dy="12"/>
<feGaussianBlur stdDeviation="45"/>
<feColorMatrix type="matrix" values="0 0 0 0 0.0552905 0 0 0 0 0.177421 0 0 0 0 0.491471 0 0 0 0.22 0"/>
<feBlend mode="normal" in2="BackgroundImageFix" result="effect1_dropShadow"/>
<feColorMatrix in="SourceAlpha" type="matrix" values="0 0 0 0 0 0 0 0 0 0 0 0 0 0 0 0 0 0 127 0"/>
<feOffset dy="9"/>
<feGaussianBlur stdDeviation="23"/>
<feColorMatrix type="matrix" values="0 0 0 0 0.080625 0 0 0 0 0.126313 0 0 0 0 0.5375 0 0 0 0.25 0"/>
<feBlend mode="normal" in2="effect1_dropShadow" result="effect2_dropShadow"/>
<feBlend mode="normal" in="SourceGraphic" in2="effect2_dropShadow" result="shape"/>
</filter>
<linearGradient id="paint0_linear" x1="196.5" y1="0.303246" x2="1178.97" y2="598.773" gradientUnits="userSpaceOnUse">
<stop stop-color="#236BD7"/>
<stop offset="1" stop-color="#280B7A"/>
</linearGradient>
<linearGradient id="paint1_linear" x1="196.5" y1="2.21566e-05" x2="1151.39" y2="611.921" gradientUnits="userSpaceOnUse">
<stop stop-color="#236BD7"/>
<stop offset="1" stop-color="#280B7A"/>
</linearGradient>
<linearGradient id="paint2_linear" x1="1245.28" y1="684" x2="47.0337" y2="-4.40881" gradientUnits="userSpaceOnUse">
<stop stop-color="#949494"/>
<stop offset="1" stop-color="#D2D2D2" stop-opacity="0"/>
</linearGradient>
</defs>
</svg>
