<svg width="1280" height="676" viewBox="0 0 1280 676" fill="none" xmlns="http://www.w3.org/2000/svg">
<path d="M1272.36 82.9036C1274.93 84.3261 1277.46 85.8722 1280 87.3565C1280 87.0472 1280 86.7071 1280 86.3979C1279.1 85.9031 1278.21 85.3774 1277.28 84.8827C1251.63 70.6582 1225.99 56.4648 1200.34 42.2403C1199.42 41.7146 1198.49 41.2199 1197.53 40.6942C1205.91 36.0558 1214.3 31.4174 1222.65 26.779C1238.73 17.8733 1254.79 8.96757 1270.84 0.0309226C1270.19 0.0309226 1269.58 0.0309226 1268.93 0.0309226C1268.09 0.618453 1267.29 1.23691 1266.39 1.73167C1243.22 14.5955 1220.02 27.4284 1196.82 40.2922C1173.59 27.4284 1150.35 14.5646 1127.15 1.66982C1126.35 1.23691 1125.67 0.556608 1124.96 0C1124.31 0 1123.69 0 1123.04 0C1123.72 0.432917 1124.37 0.865834 1125.05 1.26783C1138.26 8.5965 1151.44 15.8942 1164.65 23.2229C1175.13 29.0364 1185.65 34.8498 1196.14 40.6942C1182.09 48.4867 1168.08 56.2483 1154.04 64.0408C1137.36 73.2867 1120.69 82.5016 1104.05 91.7475C1097.8 88.2842 1091.52 84.8208 1085.27 81.3266C1061.51 68.1535 1037.75 55.0114 1014.03 41.8383C1013.32 41.4363 1012.63 41.0653 1011.92 40.6633C1013.22 39.9521 1014.52 39.2408 1015.82 38.4987C1038.68 25.8513 1061.51 13.173 1084.37 0.494762C1084.65 0.340149 1084.9 0.154613 1085.18 0C1084.53 0 1083.91 0 1083.26 0C1082.58 0.494762 1081.93 1.11322 1081.19 1.51521C1057.89 14.4409 1034.57 27.3665 1011.24 40.2922C987.918 27.3665 964.625 14.4718 941.331 1.51521C940.589 1.11322 939.939 0.494762 939.259 0C938.609 0 937.99 0 937.341 0C940.682 1.88628 944.022 3.77256 947.363 5.62792C968.43 17.3167 989.496 28.9745 1010.59 40.6633C1009.88 41.0653 1009.17 41.4673 1008.46 41.8383C984.639 55.0423 960.789 68.2463 936.969 81.4503C930.814 84.8827 924.627 88.2842 918.471 91.7166C901.797 82.4707 885.124 73.2558 868.45 64.0099C854.406 56.2174 840.392 48.4558 826.348 40.6633C850.044 27.5212 873.74 14.41 897.435 1.26783C898.116 0.896757 898.766 0.432917 899.446 0C898.796 0 898.178 0 897.528 0C896.786 0.556608 896.136 1.20598 895.332 1.66982C872.1 14.5646 848.868 27.4284 825.668 40.2922C802.467 27.4284 779.297 14.5955 756.096 1.73167C755.199 1.23691 754.395 0.58753 753.56 0.0309226C752.91 0.0309226 752.292 0.0309226 751.642 0.0309226C776.08 13.575 800.549 27.1192 824.987 40.6633C824.121 41.158 823.255 41.6219 822.389 42.1166C792.537 58.6603 762.716 75.2039 732.865 91.7475C726.864 88.4078 720.862 85.0991 714.861 81.7595C690.144 68.0607 665.459 54.362 640.742 40.6633C664.407 27.5521 688.072 14.4409 711.768 1.32967C712.448 0.958602 713.098 0.46384 713.747 0.0309226C713.252 0.0309226 712.788 0.0309226 712.293 0.0309226C711.427 0.58753 710.592 1.20598 709.695 1.70075C686.494 14.5646 663.263 27.4284 640.062 40.2922C616.861 27.4284 593.629 14.5646 570.429 1.70075C569.532 1.20598 568.696 0.58753 567.83 0.0309226C567.335 0.0309226 566.871 0.0309226 566.376 0.0309226C567.026 0.46384 567.676 0.958602 568.356 1.32967C592.021 14.4409 615.686 27.5521 639.381 40.6633C614.665 54.362 589.979 68.0607 565.263 81.7595C559.261 85.0991 553.26 88.4078 547.259 91.7475C517.407 75.2039 487.587 58.6603 457.735 42.1166C456.869 41.6219 456.003 41.158 455.137 40.6633C479.575 27.1192 504.044 13.575 528.482 0.0309226C527.832 0.0309226 527.213 0.0309226 526.564 0.0309226C525.729 0.618453 524.924 1.23691 524.027 1.73167C500.857 14.5955 477.657 27.4284 454.456 40.2922C431.224 27.4284 407.993 14.5646 384.792 1.66982C383.988 1.23691 383.307 0.556608 382.596 0C381.946 0 381.327 0 380.678 0C381.358 0.432917 382.008 0.865834 382.688 1.26783C406.384 14.41 430.08 27.5212 453.775 40.6633C439.731 48.4558 425.718 56.2174 411.674 64.0099C395 73.2558 378.327 82.4707 361.653 91.7166C355.497 88.2842 349.31 84.8827 343.154 81.4503C319.335 68.2463 295.485 55.0423 271.665 41.8383C270.954 41.4363 270.242 41.0344 269.531 40.6633C290.597 28.9745 311.663 17.3167 332.76 5.62792C336.101 3.77256 339.442 1.88628 342.783 0C342.134 0 341.515 0 340.865 0C340.185 0.494762 339.535 1.11322 338.793 1.51521C315.499 14.4409 292.175 27.3665 268.881 40.2922C245.495 27.3975 222.17 14.4718 198.877 1.54613C198.134 1.14414 197.485 0.525685 196.804 0.0309226C196.154 0.0309226 195.536 0.0309226 194.886 0.0309226C195.165 0.216459 195.412 0.401994 195.69 0.525685C218.551 13.204 241.38 25.8513 264.241 38.5296C265.54 39.2408 266.839 39.9521 268.139 40.6942C267.427 41.0962 266.747 41.4673 266.035 41.8693C242.278 55.0423 218.52 68.1844 194.793 81.3575C188.545 84.8208 182.265 88.2842 176.016 91.7784C159.343 82.5325 142.669 73.3176 126.026 64.0717C111.982 56.2792 97.969 48.5176 83.9248 40.7251C94.4115 34.9117 104.929 29.0982 115.416 23.2538C128.625 15.9561 141.803 8.62742 155.012 1.29875C155.631 0.896757 156.311 0.46384 156.961 0.0309226C156.311 0.0309226 155.692 0.0309226 155.043 0.0309226C154.3 0.58753 153.651 1.23691 152.846 1.70075C129.646 14.5646 106.414 27.4284 83.1824 40.2922C59.9816 27.4593 36.8118 14.5955 13.6111 1.73167C12.714 1.23691 11.9097 0.618453 11.0745 0.0309226C10.4249 0.0309226 9.77524 0.0309226 9.15656 0.0309226C25.2115 8.93665 41.2973 17.8733 57.3522 26.779C65.7354 31.4174 74.1186 36.0558 82.4709 40.6942C81.5428 41.2199 80.6148 41.7146 79.6559 42.2403C54.0113 56.4338 28.3668 70.6582 2.72222 84.8827C1.82512 85.3774 0.928029 85.8722 0.0309343 86.3979C0.0309343 86.7071 0.0309343 87.0472 0.0309343 87.3565C2.56755 85.8722 5.10416 84.357 7.67171 82.9036C32.8213 68.9575 58.0018 55.0114 83.1514 41.0653C113.869 58.0727 144.587 75.0802 175.274 92.0876C147.804 107.302 120.334 122.516 92.8957 137.76C89.6476 139.554 86.4305 141.347 83.1824 143.141C56.3314 128.267 29.4804 113.393 2.62942 98.5196C1.82512 98.0866 0.897095 97.7774 0.0309343 97.4063C0.0309343 97.7156 0.0309343 98.0557 0.0309343 98.3649C0.897095 98.6742 1.85606 98.8597 2.66035 99.2926C29.2948 114.012 55.8983 128.762 82.5018 143.512C55.6508 158.417 28.7998 173.291 1.9798 188.164C1.36111 188.504 0.680555 188.752 0.0309343 189.061C0.0309343 189.37 0.0309343 189.71 0.0309343 190.02C18.7462 179.63 37.4615 169.24 56.2076 158.881C65.2095 153.902 74.1805 148.923 83.1824 143.945C96.1129 151.119 109.013 158.262 121.943 165.405C139.73 175.27 157.518 185.134 175.305 194.998C168.623 198.709 161.91 202.42 155.228 206.13C131.223 219.427 107.187 232.755 83.1824 246.051C59.827 233.095 36.4406 220.138 13.0852 207.213C8.75441 204.77 4.39267 202.451 0.0309343 200.1C0.0309343 200.41 0.0309343 200.75 0.0309343 201.059C0.835226 201.399 1.67045 201.647 2.44381 202.049C7.91918 205.048 13.3636 208.079 18.8081 211.109C40.0599 222.89 61.2809 234.641 82.5327 246.423C64.065 256.658 45.6281 266.862 27.1603 277.098C18.9009 281.674 10.6723 286.251 2.41288 290.797C1.67045 291.168 0.835226 291.384 0.0309343 291.724C0.0309343 292.033 0.0309343 292.374 0.0309343 292.683C4.11426 290.487 8.19759 288.323 12.25 286.065C35.9147 272.954 59.5485 259.874 83.2133 246.763C98.3711 255.143 113.529 263.554 128.656 271.934C144.216 280.561 159.776 289.189 175.305 297.785C144.587 314.793 113.869 331.8 83.1514 348.838C70.7468 341.974 58.3112 335.078 45.9065 328.213C30.625 319.74 15.3125 311.236 0.0309343 302.764C0.0309343 303.258 0.0309343 303.722 0.0309343 304.217C0.989898 304.526 2.01073 304.681 2.84596 305.145C29.3876 319.833 55.9292 334.552 82.4709 349.24C64.065 359.414 45.69 369.618 27.2841 379.792C18.1894 384.832 9.12562 389.842 0.0309343 394.851C0.0309343 395.161 0.0309343 395.501 0.0309343 395.81C5.3207 392.841 10.5795 389.811 15.9002 386.873C38.3276 374.442 60.755 362.011 83.1824 349.581C96.9481 357.187 110.683 364.825 124.449 372.432C141.401 381.833 158.353 391.233 175.305 400.603C153.744 412.57 132.151 424.537 110.59 436.473C101.465 441.544 92.3389 446.585 83.1824 451.656C57.3213 437.308 31.4293 422.991 5.56818 408.643C3.77399 407.653 1.88699 406.787 0.0309343 405.86C0.0309343 406.169 0.0309343 406.509 0.0309343 406.818C0.835226 407.097 1.70139 407.282 2.44381 407.684C29.1401 422.465 55.8055 437.246 82.5018 452.027C56.4861 466.437 30.5012 480.847 4.48548 495.226C3.03156 496.03 1.51578 496.741 0.0309343 497.484C0.0309343 497.793 0.0309343 498.133 0.0309343 498.442C18.4059 488.269 36.8118 478.126 55.1868 467.921C64.529 462.757 73.8402 457.562 83.1824 452.398C92.1842 457.377 101.186 462.355 110.188 467.365C131.904 479.394 153.589 491.423 175.305 503.452C169.706 506.544 164.107 509.667 158.507 512.759C133.42 526.674 108.301 540.59 83.2133 554.474C62.3326 542.909 41.4829 531.344 20.6023 519.81C13.7658 516.006 6.89835 512.265 0.0309343 508.523C0.0309343 508.832 0.0309343 509.172 0.0309343 509.482C0.897095 509.884 1.79419 510.193 2.62942 510.657C11.0126 515.295 19.3958 519.964 27.779 524.603C45.9993 534.714 64.2506 544.795 82.4709 554.907C74.8301 559.143 67.1893 563.38 59.5176 567.616C40.5858 578.099 21.6231 588.582 2.69129 599.064C1.79419 599.559 0.897095 600.116 0 600.641C0 600.951 0 601.291 0 601.6C0.649621 601.136 1.26831 600.641 1.9798 600.239C29.0473 585.242 56.0839 570.245 83.1514 555.278C105.022 567.4 126.893 579.49 148.732 591.612C157.579 596.498 166.427 601.415 175.274 606.331C162.189 613.598 149.072 620.834 135.987 628.101C118.355 637.872 100.753 647.613 83.1205 657.385C82.4709 657.013 81.7903 656.642 81.1407 656.271C55.0321 641.8 28.9545 627.328 2.84596 612.856C1.94886 612.361 0.958964 612.052 0 611.681C0 611.99 0 612.33 0 612.639C1.51578 612.361 2.53661 613.474 3.65025 614.093C27.1294 627.049 50.5776 640.068 74.0258 653.055C76.8408 654.601 79.6249 656.179 82.4399 657.725C72.2007 663.414 61.9305 669.073 51.6912 674.763C51.0726 675.103 50.4848 675.567 49.897 675.969C50.5467 675.969 51.1654 675.969 51.815 675.969C52.4955 675.443 53.1142 674.794 53.8257 674.392C63.6009 668.981 73.3453 663.569 83.1205 658.127C92.772 663.476 102.454 668.826 112.106 674.206C112.879 674.639 113.498 675.351 114.209 675.969C114.859 675.969 115.478 675.969 116.127 675.969C115.478 675.505 114.89 674.979 114.209 674.608C104.094 668.98 93.9475 663.384 83.832 657.756C99.9797 648.819 116.096 639.851 132.244 630.915C146.814 622.844 161.384 614.773 175.954 606.702C194.484 616.969 213.014 627.235 231.543 637.501C243.701 644.242 255.889 651.014 268.046 657.756C263.065 660.508 258.085 663.26 253.105 666.043C247.784 668.981 242.463 671.918 237.173 674.887C236.617 675.196 236.153 675.629 235.627 676C236.276 676 236.895 676 237.545 676C238.194 675.443 238.782 674.794 239.493 674.392C249.238 668.981 258.982 663.569 268.726 658.189C278.471 663.6 288.215 668.981 297.959 674.392C298.702 674.794 299.259 675.474 299.908 676C300.558 676 301.176 676 301.826 676C300.898 675.412 300.001 674.763 299.011 674.206C289.143 668.733 279.275 663.26 269.376 657.787C281.533 651.045 293.721 644.273 305.878 637.532C324.408 627.266 342.938 617 361.467 606.733C376.099 614.835 390.762 622.968 405.394 631.069C421.449 639.975 437.504 648.881 453.559 657.787C443.443 663.384 433.297 669.011 423.181 674.639C422.501 675.01 421.913 675.536 421.263 676C421.913 676 422.532 676 423.181 676C423.8 675.443 424.357 674.763 425.068 674.361C434.782 668.95 444.526 663.569 454.239 658.158C463.922 663.538 473.635 668.919 483.318 674.299C484.122 674.763 484.803 675.412 485.545 676C486.195 676 486.813 676 487.463 676C486.782 675.567 486.164 675.072 485.452 674.701C475.275 669.073 465.097 663.414 454.92 657.787C457.89 656.148 460.859 654.509 463.798 652.839C489.938 638.367 516.077 623.864 542.217 609.393C543.825 608.496 545.434 607.599 547.042 606.733C558.705 613.196 570.367 619.659 582.029 626.122C601.085 636.666 620.109 647.242 639.165 657.787C638.299 658.281 637.401 658.776 636.535 659.24C627.162 664.435 617.789 669.599 608.447 674.794C607.921 675.103 607.488 675.567 606.993 675.969C607.488 675.969 607.952 675.969 608.447 675.969C609.128 675.443 609.777 674.825 610.52 674.423C620.295 668.981 630.101 663.569 639.876 658.158C649.651 663.569 659.458 669.011 669.233 674.423C669.975 674.825 670.625 675.443 671.305 675.969C671.8 675.969 672.264 675.969 672.759 675.969C672.295 675.567 671.862 675.072 671.305 674.794C661.963 669.599 652.59 664.435 643.217 659.24C642.351 658.745 641.454 658.25 640.588 657.787C659.643 647.242 678.668 636.666 697.723 626.122C709.386 619.659 721.048 613.196 732.71 606.733C734.319 607.63 735.927 608.527 737.536 609.393C763.675 623.864 789.815 638.367 815.954 652.839C818.924 654.478 821.894 656.117 824.833 657.787C814.655 663.414 804.478 669.073 794.3 674.701C793.62 675.072 792.97 675.567 792.29 676C792.939 676 793.558 676 794.208 676C794.95 675.443 795.631 674.763 796.435 674.299C806.117 668.919 815.831 663.538 825.513 658.158C835.257 663.538 844.971 668.95 854.684 674.361C855.396 674.763 855.952 675.443 856.571 676C857.221 676 857.839 676 858.489 676C857.839 675.536 857.252 675.01 856.571 674.639C846.456 669.011 836.309 663.414 826.194 657.787C842.249 648.881 858.304 639.975 874.358 631.069C888.99 622.968 903.653 614.835 918.285 606.733C936.815 617 955.344 627.266 973.874 637.532C986.062 644.273 998.219 651.045 1010.38 657.787C1000.51 663.26 990.64 668.733 980.741 674.206C979.783 674.732 978.854 675.382 977.926 676C978.576 676 979.195 676 979.844 676C980.494 675.443 981.082 674.794 981.793 674.392C991.538 668.981 1001.28 663.569 1011.03 658.189C1020.77 663.6 1030.51 668.981 1040.26 674.392C1041 674.794 1041.56 675.474 1042.21 676C1042.86 676 1043.48 676 1044.13 676C1043.6 675.629 1043.14 675.196 1042.58 674.887C1037.29 671.918 1031.97 669.011 1026.65 666.043C1021.67 663.291 1016.69 660.539 1011.71 657.756C1023.86 651.014 1036.05 644.242 1048.21 637.501C1066.74 627.235 1085.27 616.969 1103.8 606.702C1118.37 614.773 1132.94 622.844 1147.51 630.915C1163.66 639.851 1179.77 648.819 1195.92 657.756C1185.81 663.384 1175.66 668.98 1165.54 674.608C1164.86 674.979 1164.27 675.505 1163.63 675.969C1164.27 675.969 1164.89 675.969 1165.54 675.969C1166.22 675.381 1166.84 674.639 1167.65 674.206C1177.3 668.826 1186.95 663.476 1196.63 658.127C1206.41 663.538 1216.18 668.95 1225.93 674.392C1226.67 674.794 1227.29 675.443 1227.94 675.969C1228.59 675.969 1229.21 675.969 1229.86 675.969C1229.27 675.567 1228.68 675.134 1228.06 674.763C1217.82 669.073 1207.55 663.414 1197.31 657.725C1200.13 656.179 1202.91 654.601 1205.73 653.055C1229.17 640.068 1252.62 627.049 1276.1 614.093C1277.25 613.474 1278.24 612.33 1279.75 612.639C1279.75 612.33 1279.75 611.99 1279.75 611.681C1278.79 612.083 1277.8 612.361 1276.91 612.856C1250.8 627.297 1224.69 641.8 1198.61 656.271C1197.96 656.642 1197.28 657.013 1196.63 657.385C1179 647.613 1161.4 637.872 1143.77 628.101C1130.68 620.834 1117.56 613.598 1104.48 606.331C1113.33 601.415 1122.17 596.529 1131.02 591.612C1152.89 579.49 1174.76 567.4 1196.6 555.278C1223.67 570.275 1250.74 585.242 1277.77 600.239C1278.45 600.611 1279.07 601.136 1279.75 601.6C1279.75 601.291 1279.75 600.951 1279.75 600.641C1278.86 600.116 1277.96 599.59 1277.06 599.064C1258.13 588.582 1239.17 578.099 1220.23 567.616C1212.59 563.38 1204.95 559.143 1197.28 554.907C1215.5 544.795 1233.75 534.714 1251.97 524.603C1260.36 519.964 1268.74 515.295 1277.12 510.657C1277.96 510.193 1278.86 509.884 1279.72 509.482C1279.72 509.172 1279.72 508.832 1279.72 508.523C1272.85 512.295 1265.99 516.037 1259.15 519.81C1238.27 531.375 1217.42 542.94 1196.54 554.474C1171.45 540.559 1146.33 526.644 1121.25 512.759C1115.65 509.667 1110.05 506.544 1104.45 503.452C1126.16 491.423 1147.85 479.394 1169.56 467.365C1178.57 462.386 1187.57 457.408 1196.57 452.398C1205.91 457.562 1215.22 462.757 1224.57 467.921C1242.94 478.095 1261.35 488.269 1279.72 498.442C1279.72 498.133 1279.72 497.793 1279.72 497.484C1278.24 496.741 1276.72 496.03 1275.27 495.226C1249.25 480.816 1223.27 466.437 1197.25 452.027C1223.95 437.246 1250.61 422.465 1277.31 407.684C1278.05 407.282 1278.92 407.097 1279.72 406.818C1279.72 406.509 1279.72 406.169 1279.72 405.86C1277.87 406.787 1275.98 407.653 1274.18 408.643C1248.32 422.96 1222.43 437.308 1196.57 451.656C1187.44 446.585 1178.32 441.544 1169.16 436.473C1147.6 424.506 1126.01 412.57 1104.45 400.603C1121.4 391.202 1138.35 381.802 1155.3 372.432C1169.07 364.825 1182.8 357.187 1196.57 349.581C1219 362.011 1241.42 374.442 1263.85 386.873C1269.17 389.811 1274.43 392.81 1279.72 395.81C1279.72 395.501 1279.72 395.161 1279.72 394.851C1270.63 389.842 1261.56 384.801 1252.47 379.792C1234.06 369.618 1215.69 359.414 1197.28 349.24C1223.82 334.521 1250.36 319.833 1276.91 305.145C1277.77 304.681 1278.79 304.526 1279.72 304.217C1279.72 303.722 1279.72 303.258 1279.72 302.764C1264.44 311.267 1249.13 319.74 1233.85 328.244C1221.44 335.109 1209.01 342.004 1196.6 348.869C1165.88 331.862 1135.17 314.854 1104.45 297.816C1120.01 289.189 1135.57 280.561 1151.1 271.965C1166.25 263.554 1181.41 255.174 1196.54 246.794C1220.2 259.905 1243.84 273.016 1267.5 286.096C1271.55 288.323 1275.64 290.487 1279.72 292.714C1279.72 292.405 1279.72 292.064 1279.72 291.755C1278.92 291.446 1278.08 291.199 1277.34 290.797C1269.08 286.251 1260.82 281.674 1252.59 277.098C1234.12 266.862 1215.69 256.658 1197.22 246.423C1218.47 234.641 1239.69 222.89 1260.94 211.109C1266.39 208.079 1271.83 205.048 1277.31 202.049C1278.05 201.647 1278.92 201.399 1279.72 201.059C1279.72 200.75 1279.72 200.41 1279.72 200.1C1275.36 202.451 1271 204.77 1266.67 207.182C1243.31 220.138 1219.93 233.095 1196.57 246.021C1172.57 232.724 1148.53 219.396 1124.52 206.099C1117.84 202.389 1111.13 198.678 1104.45 194.967C1122.23 185.103 1140.02 175.239 1157.81 165.374C1170.74 158.2 1183.64 151.057 1196.57 143.914C1205.57 148.893 1214.54 153.871 1223.54 158.85C1242.26 169.24 1260.98 179.63 1279.72 189.989C1279.72 189.68 1279.72 189.339 1279.72 189.03C1279.07 188.721 1278.39 188.474 1277.77 188.133C1250.92 173.26 1224.07 158.386 1197.25 143.512C1223.85 128.762 1250.49 114.012 1277.09 99.2926C1277.9 98.8597 1278.82 98.6742 1279.72 98.3649C1279.72 98.0557 1279.72 97.7156 1279.72 97.4063C1278.86 97.7774 1277.93 98.0557 1277.09 98.5196C1250.24 113.393 1223.39 128.267 1196.54 143.141C1193.29 141.347 1190.07 139.554 1186.83 137.76C1159.36 122.546 1131.89 107.333 1104.45 92.0876C1135.17 75.0802 1165.88 58.0727 1196.57 41.0653C1222.03 55.0114 1247.21 68.9575 1272.36 82.9036ZM1011.27 41.0653C1020.31 46.0747 1029.31 51.0533 1038.34 56.0628C1060.03 68.0917 1081.71 80.0897 1103.4 92.1186C1077.53 106.467 1051.64 120.784 1025.78 135.132C1020.96 137.822 1016.1 140.482 1011.27 143.172C1006.42 140.482 1001.59 137.791 996.735 135.132C970.873 120.784 944.981 106.467 919.12 92.1186C949.807 75.1111 980.556 58.0727 1011.27 41.0653ZM409.972 324.966C424.573 333.037 439.143 341.139 453.744 349.209C428.78 363.032 403.817 376.854 378.853 390.677C373.099 393.862 367.345 397.047 361.591 400.232C345.134 391.11 328.708 381.987 312.251 372.896C297.99 364.98 283.73 357.095 269.469 349.209C300.187 332.202 330.904 315.195 361.622 298.156C377.739 307.124 393.856 316.029 409.972 324.966ZM362.272 297.816C371.552 292.683 380.863 287.519 390.144 282.386C411.581 270.511 432.988 258.637 454.425 246.763C455.26 247.227 456.126 247.69 456.962 248.154C486.813 264.698 516.665 281.241 546.516 297.785C526.966 308.639 507.415 319.462 487.865 330.285C476.698 336.469 465.561 342.654 454.394 348.838C423.707 331.862 392.99 314.823 362.272 297.816ZM434.256 360.744C440.969 357.033 447.681 353.322 454.394 349.581C484.493 366.279 514.623 382.946 544.722 399.644C545.31 399.984 545.898 400.294 546.516 400.634C515.799 417.641 485.112 434.68 454.394 451.687C445.238 446.616 436.081 441.544 426.924 436.473C405.363 424.537 383.833 412.601 362.272 400.634C386.277 387.368 410.282 374.04 434.256 360.744ZM485.081 365.877C475.058 360.342 465.066 354.776 455.044 349.24C485.761 332.233 516.479 315.225 547.166 298.187C553.848 301.898 560.53 305.578 567.181 309.288C591.217 322.616 615.253 335.913 639.288 349.24C616.923 361.609 594.588 374.009 572.223 386.378C563.871 391.017 555.487 395.655 547.135 400.294C526.502 388.821 505.807 377.349 485.081 365.877ZM547.909 297.816C552.116 295.497 556.292 293.178 560.499 290.858C587.009 276.17 613.52 261.482 640.031 246.794C666.542 261.482 693.052 276.17 719.563 290.858C723.77 293.178 727.946 295.497 732.153 297.816C723.461 302.64 714.768 307.464 706.045 312.288C684.05 324.471 662.025 336.686 640 348.869C617.975 336.686 595.98 324.471 573.955 312.288C565.294 307.464 556.601 302.64 547.909 297.816ZM619.924 360.744C626.605 357.033 633.318 353.322 640.031 349.611C646.744 353.322 653.425 357.033 660.138 360.744C684.143 374.04 708.148 387.368 732.153 400.665C715.356 409.972 698.528 419.28 681.73 428.588C667.841 436.288 653.92 443.987 640.031 451.687C626.141 443.987 612.252 436.288 598.331 428.588C581.534 419.28 564.706 409.972 547.909 400.665C571.914 387.337 595.919 374.04 619.924 360.744ZM707.746 386.378C685.412 374.009 663.046 361.609 640.681 349.24C664.717 335.913 688.752 322.616 712.788 309.288C719.47 305.578 726.152 301.898 732.803 298.187C763.521 315.195 794.239 332.202 824.925 349.24C814.903 354.776 804.911 360.342 794.888 365.877C774.193 377.349 753.467 388.821 732.772 400.294C724.482 395.655 716.098 391.017 707.746 386.378ZM733.514 297.816C763.366 281.272 793.218 264.729 823.069 248.185C823.904 247.721 824.771 247.257 825.606 246.794C847.043 258.668 868.45 270.542 889.887 282.417C899.168 287.55 908.479 292.714 917.759 297.847C887.041 314.854 856.355 331.862 825.637 348.9C814.47 342.716 803.333 336.531 792.166 330.347C772.615 319.493 753.065 308.639 733.514 297.816ZM735.309 399.675C765.408 382.977 795.538 366.31 825.637 349.611C832.35 353.322 839.062 357.033 845.775 360.775C869.78 374.071 893.754 387.368 917.759 400.665C896.198 412.601 874.668 424.568 853.106 436.504C843.95 441.575 834.793 446.647 825.637 451.718C794.919 434.711 764.232 417.672 733.514 400.665C734.102 400.325 734.721 399.984 735.309 399.675ZM901.209 390.708C876.245 376.885 851.281 363.063 826.317 349.24C840.918 341.17 855.488 333.068 870.089 324.997C886.206 316.06 902.323 307.155 918.44 298.218C949.158 315.225 979.875 332.233 1010.59 349.271C996.332 357.157 982.072 365.073 967.811 372.958C951.354 382.08 934.928 391.171 918.471 400.294C912.686 397.078 906.963 393.893 901.209 390.708ZM854.56 262.039C845.156 256.813 835.721 251.618 826.317 246.392C857.035 229.384 887.722 212.377 918.44 195.338C949.158 212.346 979.875 229.384 1010.56 246.392C981.391 262.564 952.22 278.737 923.049 294.878C921.502 295.744 919.987 296.579 918.44 297.445C897.157 285.632 875.843 273.851 854.56 262.039ZM897.868 205.976C873.802 219.303 849.704 232.662 825.637 245.99C801.323 232.507 777.008 219.025 752.694 205.543C746.321 202.018 739.918 198.462 733.545 194.936C759.87 180.372 786.165 165.776 812.49 151.181C816.882 148.738 821.275 146.326 825.668 143.883C856.386 160.891 887.103 177.929 917.79 194.936C911.139 198.647 904.519 202.296 897.868 205.976ZM764.542 212.933C784.68 224.096 804.818 235.259 824.925 246.392C811.438 253.875 797.951 261.327 784.432 268.811C767.233 278.335 750.002 287.89 732.803 297.414C718.202 289.312 703.601 281.241 689 273.14C672.883 264.203 656.797 255.297 640.681 246.361C657.416 237.084 674.121 227.838 690.856 218.561C704.838 210.8 718.821 203.069 732.803 195.307C743.382 201.214 753.962 207.058 764.542 212.933ZM712.819 205.667C688.567 219.118 664.283 232.569 640.031 245.99C615.747 232.538 591.495 219.118 567.242 205.667C560.808 202.11 554.374 198.523 547.939 194.967C578.657 177.96 609.344 160.952 640.062 143.945C670.78 160.952 701.466 177.96 732.184 194.998C725.688 198.523 719.254 202.11 712.819 205.667ZM589.175 218.592C605.91 227.869 622.615 237.115 639.35 246.392C623.234 255.328 607.117 264.234 591.031 273.171C576.43 281.272 561.829 289.343 547.228 297.445C530.028 287.921 512.798 278.366 495.599 268.841C482.111 261.358 468.624 253.875 455.106 246.423C475.244 235.26 495.351 224.096 515.489 212.964C526.069 207.089 536.648 201.245 547.228 195.4C561.21 203.1 575.193 210.831 589.175 218.592ZM527.368 205.574C503.054 219.056 478.739 232.538 454.425 246.021C430.327 232.693 406.26 219.334 382.193 206.007C375.573 202.327 368.954 198.678 362.303 194.998C393.02 177.991 423.738 160.952 454.425 143.945C458.818 146.388 463.21 148.8 467.603 151.243C493.928 165.838 520.222 180.403 546.547 194.998C540.144 198.492 533.741 202.018 527.368 205.574ZM453.714 246.392C444.31 251.618 434.875 256.813 425.471 262.039C404.188 273.851 382.874 285.632 361.591 297.445C360.044 296.579 358.529 295.744 356.982 294.878C327.811 278.706 298.64 262.533 269.469 246.392C300.187 229.384 330.904 212.346 361.591 195.338C392.309 212.346 423.027 229.353 453.714 246.392ZM308.848 223.818C295.485 231.209 282.152 238.599 268.788 246.021C255.425 238.599 242.03 231.209 228.666 223.787C211.343 214.17 194.02 204.584 176.666 194.967C194.515 185.072 212.333 175.177 230.182 165.312C243.051 158.2 255.92 151.057 268.788 143.945C283.791 152.263 298.764 160.55 313.767 168.869C329.481 177.589 345.196 186.278 360.942 194.998C343.556 204.584 326.202 214.201 308.848 223.818ZM360.911 297.816C352.094 302.702 343.278 307.588 334.462 312.473C312.56 324.595 290.659 336.748 268.757 348.869C246.825 336.717 224.923 324.595 202.991 312.442C194.206 307.588 185.42 302.702 176.635 297.816C197.949 286.004 219.293 274.191 240.607 262.379C249.98 257.184 259.384 251.989 268.757 246.794C299.506 263.77 330.224 280.809 360.911 297.816ZM321.5 378.833C334.616 386.1 347.764 393.398 360.88 400.665C330.193 417.672 299.475 434.711 268.788 451.718C264.086 449.121 259.384 446.523 254.713 443.895C228.697 429.485 202.682 415.075 176.666 400.665C200.578 387.399 224.521 374.133 248.433 360.898C255.208 357.126 262.014 353.384 268.788 349.611C286.359 359.352 303.93 369.093 321.5 378.833ZM327.533 484.991C338.669 491.144 349.774 497.329 360.911 503.513C356.673 505.864 352.404 508.214 348.166 510.564C321.686 525.221 295.237 539.909 268.788 554.567C266.035 553.021 263.251 551.505 260.498 549.959C232.564 534.467 204.63 519.006 176.697 503.513C207.415 486.506 238.101 469.468 268.819 452.46C288.37 463.314 307.951 474.137 327.533 484.991ZM269.469 452.089C279.677 446.43 289.885 440.771 300.094 435.113C320.603 423.764 341.082 412.384 361.591 401.036C375.821 408.921 390.082 416.806 404.311 424.723C420.769 433.845 437.256 442.967 453.714 452.089C422.996 469.097 392.309 486.104 361.591 503.142C330.904 486.104 300.187 469.097 269.469 452.089ZM415.726 473.89C428.626 466.746 441.495 459.603 454.394 452.46C474.099 463.376 493.835 474.292 513.541 485.238C524.522 491.33 535.535 497.422 546.516 503.513C516.881 519.933 487.215 536.353 457.58 552.804C456.529 553.392 455.477 553.979 454.394 554.567C426.12 538.889 397.846 523.242 369.572 507.564C367.128 506.204 364.685 504.874 362.272 503.513C380.09 493.618 397.908 483.754 415.726 473.89ZM527.77 492.35C503.549 478.93 479.296 465.51 455.075 452.089C478.585 439.071 502.064 426.052 525.574 413.034C532.782 409.045 539.989 405.056 547.197 401.036C577.915 418.043 608.602 435.051 639.319 452.089C613.953 466.159 588.618 480.198 563.252 494.268C557.9 497.236 552.549 500.205 547.228 503.142C540.732 499.524 534.267 495.937 527.77 492.35ZM592.145 478.992C608.107 470.148 624.069 461.304 640.031 452.46C655.993 461.304 671.955 470.148 687.917 478.992C702.673 487.155 717.398 495.319 732.153 503.513C704.281 518.975 676.379 534.436 648.507 549.866C645.692 551.444 642.846 552.99 640.031 554.567C637.216 552.99 634.37 551.444 631.555 549.866C603.683 534.405 575.78 518.975 547.909 503.513C562.633 495.35 577.389 487.155 592.145 478.992ZM716.779 494.237C691.413 480.198 666.047 466.128 640.711 452.058C671.429 435.051 702.116 418.043 732.834 401.005C740.042 404.994 747.249 408.983 754.457 413.003C777.967 426.021 801.446 439.04 824.956 452.058C800.735 465.479 776.482 478.899 752.261 492.319C745.795 495.906 739.299 499.493 732.834 503.08C727.482 500.174 722.131 497.205 716.779 494.237ZM766.49 485.238C786.196 474.322 805.932 463.407 825.637 452.46C838.536 459.603 851.405 466.746 864.305 473.89C882.123 483.754 899.941 493.649 917.759 503.513C915.315 504.874 912.872 506.204 910.459 507.564C882.185 523.242 853.911 538.889 825.637 554.567C824.585 553.979 823.533 553.392 822.451 552.804C792.815 536.384 763.149 519.964 733.514 503.513C744.496 497.422 755.509 491.33 766.49 485.238ZM826.317 452.089C842.774 442.967 859.262 433.845 875.719 424.723C889.949 416.837 904.21 408.952 918.44 401.036C938.949 412.384 959.428 423.764 979.937 435.113C990.145 440.771 1000.35 446.43 1010.56 452.089C979.844 469.097 949.158 486.135 918.44 503.142C887.722 486.104 857.035 469.097 826.317 452.089ZM952.498 484.991C972.08 474.137 991.661 463.314 1011.24 452.46C1041.96 469.468 1072.65 486.506 1103.37 503.513C1075.43 519.006 1047.5 534.467 1019.56 549.959C1016.81 551.505 1014.03 553.021 1011.27 554.567C984.825 539.909 958.345 525.221 931.896 510.564C927.658 508.214 923.389 505.864 919.151 503.513C930.257 497.329 941.362 491.175 952.498 484.991ZM1011.24 451.687C980.556 434.68 949.838 417.641 919.151 400.634C932.267 393.367 945.415 386.069 958.531 378.802C976.101 369.062 993.672 359.321 1011.24 349.581C1018.02 353.353 1024.82 357.095 1031.6 360.867C1055.51 374.133 1079.45 387.368 1103.37 400.634C1077.35 415.044 1051.33 429.454 1025.32 443.864C1020.62 446.492 1015.94 449.09 1011.24 451.687ZM1011.24 348.838C989.341 336.717 967.44 324.595 945.538 312.442C936.722 307.557 927.906 302.671 919.089 297.785C949.807 280.778 980.525 263.77 1011.24 246.732C1020.62 251.927 1030.02 257.122 1039.39 262.317C1060.71 274.129 1082.05 285.942 1103.37 297.754C1094.58 302.64 1085.79 307.495 1077.01 312.381C1055.11 324.564 1033.18 336.717 1011.24 348.838ZM1011.24 246.021C997.879 238.63 984.546 231.24 971.183 223.818C953.829 214.201 936.474 204.584 919.089 194.967C934.804 186.247 950.519 177.558 966.264 168.838C981.267 160.519 996.24 152.232 1011.24 143.914C1024.11 151.026 1036.98 158.169 1049.85 165.282C1067.7 175.177 1085.52 185.072 1103.37 194.936C1086.04 204.553 1068.72 214.17 1051.36 223.756C1038 231.209 1024.61 238.599 1011.24 246.021ZM928.493 98.0557C955.87 113.208 983.216 128.36 1010.59 143.543C979.875 160.55 949.158 177.589 918.471 194.596C893.352 180.681 868.264 166.766 843.146 152.851C837.546 149.758 831.947 146.635 826.348 143.543C849.209 130.865 872.038 118.217 894.899 105.539C902.756 101.179 910.613 96.8188 918.471 92.4896C921.781 94.345 925.122 96.2004 928.493 98.0557ZM773.512 69.947C790.898 60.3301 808.252 50.6822 825.637 41.0653C832.319 44.776 839 48.4867 845.713 52.1974C869.718 65.4942 893.754 78.8218 917.759 92.1495C887.041 109.157 856.324 126.164 825.637 143.203C794.919 126.195 764.232 109.188 733.514 92.1495C746.847 84.7281 760.18 77.3375 773.512 69.947ZM732.834 92.4896C749.569 101.766 766.274 111.043 783.009 120.289C796.992 128.02 810.974 135.781 824.956 143.512C818.893 146.883 812.83 150.222 806.767 153.593C782.143 167.23 757.488 180.897 732.865 194.565C712.015 183 691.165 171.466 670.316 159.901C660.448 154.428 650.61 148.985 640.742 143.512C646.929 140.08 653.116 136.647 659.303 133.215C683.803 119.671 708.334 106.065 732.834 92.4896ZM588.216 69.7615C605.477 60.2064 622.739 50.6204 640 41.0653C657.261 50.6204 674.523 60.2064 691.784 69.7615C705.24 77.2138 718.666 84.6662 732.122 92.1186C727.73 94.5615 723.337 96.9734 718.975 99.4163C692.65 114.012 666.325 128.576 640 143.172C613.675 128.576 587.35 114.012 561.025 99.4163C556.632 96.9734 552.239 94.5615 547.878 92.1186C561.334 84.6662 574.79 77.2138 588.216 69.7615ZM620.759 133.246C626.946 136.678 633.133 140.111 639.319 143.543C629.451 149.016 619.614 154.459 609.746 159.932C588.897 171.497 568.047 183.031 547.197 194.596C522.573 180.928 497.919 167.292 473.295 153.624C467.232 150.253 461.169 146.913 455.106 143.543C469.088 135.812 483.07 128.051 497.053 120.32C513.788 111.043 530.493 101.766 547.228 92.5206C571.728 106.065 596.228 119.671 620.759 133.246ZM434.349 52.1665C441.03 48.4558 447.712 44.7451 454.425 41.0344C471.81 50.6513 489.164 60.2682 506.549 69.9161C519.882 77.3066 533.246 84.6971 546.578 92.0876C515.861 109.095 485.174 126.103 454.456 143.141C423.738 126.133 393.02 109.126 362.334 92.0876C386.308 78.7909 410.313 65.4942 434.349 52.1665ZM361.622 92.4896C369.479 96.8497 377.337 101.179 385.194 105.539C408.055 118.186 430.884 130.865 453.744 143.543C448.145 146.635 442.546 149.758 436.947 152.851C411.829 166.766 386.741 180.681 361.622 194.596C330.904 177.589 300.187 160.55 269.5 143.543C296.877 128.391 324.223 113.239 351.599 98.0557C354.909 96.2004 358.281 94.345 361.622 92.4896ZM241.721 56.0628C250.754 51.0533 259.755 46.0747 268.788 41.0653C299.506 58.0727 330.224 75.0802 360.942 92.1186C335.08 106.467 309.188 120.784 283.327 135.132C278.471 137.822 273.645 140.513 268.788 143.172C263.962 140.482 259.106 137.822 254.28 135.132C228.419 120.784 202.527 106.467 176.666 92.1186C198.351 80.0897 220.036 68.0917 241.721 56.0628ZM125.748 166.704C111.797 158.973 97.8452 151.243 83.8939 143.512C102.331 133.308 120.798 123.072 139.235 112.868C151.485 106.065 163.766 99.2926 176.016 92.4896C183.935 96.8807 191.824 101.241 199.743 105.632C222.541 118.279 245.34 130.896 268.139 143.543C237.421 160.55 206.734 177.558 176.016 194.596C159.25 185.288 142.483 176.012 125.748 166.704ZM112.044 262.008C102.671 256.813 93.267 251.618 83.8939 246.392C98.0927 238.537 112.292 230.652 126.49 222.798C143.009 213.645 159.497 204.491 176.016 195.338C202.96 210.305 229.935 225.241 256.94 240.207C260.683 242.279 264.396 244.351 268.139 246.392C239.029 262.533 209.889 278.675 180.78 294.786C179.202 295.651 177.594 296.548 176.016 297.414C154.672 285.632 133.358 273.82 112.044 262.008ZM144.649 382.915C124.387 371.69 104.125 360.465 83.832 349.24C98.2164 341.262 112.601 333.284 126.985 325.306C143.319 316.246 159.621 307.216 175.954 298.187C190.432 306.227 204.909 314.236 219.386 322.276C235.627 331.274 251.836 340.273 268.077 349.24C253.785 357.157 239.524 365.073 225.233 372.958C208.807 382.049 192.38 391.171 175.954 400.263C165.529 394.48 155.105 388.698 144.649 382.915ZM145.824 486.413C125.191 474.972 104.527 463.53 83.8939 452.089C104.218 440.802 124.572 429.546 144.896 418.26C155.259 412.508 165.622 406.787 175.985 401.036C196.526 412.415 217.066 423.795 237.606 435.174C247.784 440.802 257.93 446.43 268.108 452.058C266.778 452.8 265.478 453.512 264.148 454.254C234.76 470.55 205.373 486.815 175.985 503.111C165.932 497.545 155.878 491.979 145.824 486.413ZM152.228 592.787C129.46 580.171 106.662 567.554 83.8939 554.938C108.177 541.486 132.461 528.035 156.713 514.584C163.148 511.028 169.551 507.472 175.985 503.915C188.483 510.842 201.011 517.8 213.509 524.726C231.698 534.807 249.887 544.888 268.108 554.969C260.776 559.051 253.445 563.101 246.082 567.183C222.727 580.14 199.372 593.065 175.985 606.022C168.066 601.569 160.147 597.178 152.228 592.787ZM268.788 657.415C238.101 640.377 207.384 623.37 176.697 606.362C191.886 597.951 207.043 589.54 222.232 581.129C237.761 572.533 253.259 563.936 268.788 555.34C284.379 563.998 300.001 572.626 315.592 581.284C330.688 589.664 345.815 598.013 360.911 606.393C330.193 623.37 299.506 640.377 268.788 657.415ZM269.469 554.938C287.906 544.733 306.312 534.529 324.748 524.293C337.029 517.49 349.31 510.687 361.591 503.885C378.11 513.038 394.629 522.191 411.148 531.344C425.347 539.198 439.515 547.053 453.714 554.907C424.666 570.987 395.619 587.097 366.572 603.208C364.901 604.136 363.231 605.063 361.591 605.96C330.873 588.953 300.187 571.945 269.469 554.938ZM539.68 610.135C511.994 625.472 484.339 640.81 456.652 656.148C455.91 656.55 455.137 656.983 454.394 657.385C432.462 645.232 410.498 633.079 388.566 620.927C379.811 616.072 371.026 611.217 362.272 606.362C371.119 601.476 379.966 596.56 388.782 591.674C410.653 579.552 432.524 567.431 454.394 555.34C469.892 563.905 485.359 572.502 500.857 581.067C516.077 589.509 531.297 597.92 546.516 606.362C544.227 607.599 541.969 608.867 539.68 610.135ZM541.474 602.806C515.397 588.365 489.35 573.924 463.272 559.483C460.55 557.968 457.797 556.453 455.075 554.938C469.521 546.929 483.967 538.951 498.414 530.942C514.685 521.943 530.926 512.914 547.197 503.915C574.141 518.851 601.054 533.756 627.997 548.691C631.771 550.794 635.545 552.866 639.319 554.969C608.602 571.976 577.915 588.984 547.197 605.991C545.31 604.909 543.392 603.857 541.474 602.806ZM640.031 657.415C609.313 640.408 578.626 623.37 547.909 606.362C578.626 589.355 609.313 572.347 640.031 555.34C670.749 572.347 701.436 589.355 732.153 606.362C701.436 623.37 670.718 640.377 640.031 657.415ZM732.834 605.96C702.116 588.953 671.429 571.945 640.711 554.938C644.485 552.835 648.259 550.763 652.033 548.66C678.977 533.725 705.89 518.82 732.834 503.885C749.105 512.883 765.346 521.912 781.617 530.911C796.064 538.92 810.51 546.929 824.956 554.907C822.234 556.422 819.481 557.937 816.759 559.453C790.681 573.893 764.634 588.334 738.557 602.775C736.639 603.857 734.752 604.909 732.834 605.96ZM891.465 620.927C869.533 633.079 847.569 645.232 825.637 657.385C824.894 656.983 824.121 656.55 823.379 656.148C795.692 640.81 768.037 625.472 740.351 610.135C738.062 608.867 735.773 607.599 733.514 606.331C748.734 597.889 763.954 589.478 779.173 581.037C794.672 572.471 810.139 563.874 825.637 555.309C847.507 567.431 869.378 579.521 891.249 591.643C900.096 596.529 908.943 601.445 917.759 606.331C909.005 611.217 900.25 616.072 891.465 620.927ZM918.44 605.991C916.769 605.063 915.099 604.136 913.459 603.239C884.412 587.159 855.365 571.048 826.317 554.938C840.516 547.083 854.684 539.229 868.883 531.375C885.402 522.222 901.921 513.069 918.44 503.915C930.721 510.718 943.002 517.521 955.282 524.324C973.719 534.529 992.125 544.733 1010.56 554.969C979.875 571.945 949.158 588.953 918.44 605.991ZM1011.27 657.415C980.556 640.408 949.838 623.401 919.12 606.362C934.216 597.982 949.343 589.633 964.439 581.253C980.03 572.595 995.652 563.967 1011.24 555.309C1026.77 563.905 1042.27 572.502 1057.8 581.098C1072.99 589.509 1088.15 597.92 1103.33 606.331C1072.65 623.37 1041.96 640.377 1011.27 657.415ZM1123.32 514.553C1147.6 528.004 1171.85 541.456 1196.14 554.907C1173.37 567.523 1150.57 580.14 1127.8 592.756C1119.88 597.147 1111.93 601.538 1104.01 605.929C1080.66 593.004 1057.3 580.047 1033.92 567.09C1026.59 563.009 1019.25 558.958 1011.89 554.876C1030.08 544.795 1048.27 534.714 1066.49 524.634C1078.99 517.707 1091.52 510.78 1104.01 503.823C1110.48 507.441 1116.91 510.997 1123.32 514.553ZM1135.13 418.26C1155.46 429.546 1175.81 440.802 1196.14 452.089C1175.5 463.53 1154.84 474.972 1134.21 486.413C1124.15 491.979 1114.1 497.576 1104.05 503.142C1074.66 486.846 1045.27 470.581 1015.88 454.285C1014.55 453.542 1013.25 452.831 1011.92 452.089C1022.1 446.461 1032.25 440.833 1042.42 435.205C1062.96 423.826 1083.51 412.446 1104.05 401.067C1114.41 406.787 1124.77 412.508 1135.13 418.26ZM1153.05 325.306C1167.43 333.284 1181.81 341.262 1196.2 349.24C1175.94 360.465 1155.67 371.69 1135.38 382.915C1124.93 388.698 1114.5 394.48 1104.05 400.263C1087.62 391.171 1071.19 382.049 1054.77 372.958C1040.48 365.042 1026.21 357.126 1011.92 349.24C1028.16 340.242 1044.37 331.274 1060.61 322.276C1075.09 314.267 1089.57 306.227 1104.05 298.187C1120.38 307.216 1136.71 316.277 1153.05 325.306ZM1153.57 222.798C1167.77 230.652 1181.97 238.537 1196.17 246.392C1186.79 251.587 1177.39 256.813 1168.02 262.008C1146.7 273.82 1125.39 285.632 1104.08 297.445C1102.5 296.579 1100.89 295.682 1099.31 294.817C1070.2 278.675 1041.06 262.564 1011.95 246.423C1015.7 244.351 1019.41 242.279 1023.15 240.238C1050.13 225.302 1077.1 210.336 1104.08 195.369C1120.56 204.491 1137.05 213.645 1153.57 222.798ZM1140.83 112.868C1159.26 123.072 1177.73 133.308 1196.17 143.512C1182.22 151.243 1168.27 158.973 1154.31 166.704C1137.55 175.981 1120.81 185.288 1104.05 194.565C1073.33 177.558 1042.64 160.55 1011.92 143.512C1034.72 130.865 1057.52 118.248 1080.32 105.601C1088.24 101.21 1096.13 96.8497 1104.05 92.4587C1116.3 99.2926 1128.58 106.065 1140.83 112.868Z" fill="url(#paint0_linear)" fill-opacity="0.33" style="mix-blend-mode:hard-light"/>
<defs>
<linearGradient id="paint0_linear" x1="1245.28" y1="676" x2="47.0337" y2="-12.4088" gradientUnits="userSpaceOnUse">
<stop stop-color="#949494"/>
<stop offset="1" stop-color="#D2D2D2" stop-opacity="0"/>
</linearGradient>
</defs>
</svg>
