<svg width="261" height="56" viewBox="0 0 261 56" fill="none" xmlns="http://www.w3.org/2000/svg">
<path d="M40.2002 22.4C39.8002 21.4 39.1002 20.7 38.3002 20.2C37.4002 19.7 36.4002 19.4 35.2002 19.4C34.2002 19.4 33.3002 19.6 32.5002 20.1C31.6002 20.5 30.8002 21.2 30.1002 22.1C29.6002 21.2 28.9002 20.5 28.1002 20.1C27.3002 19.7 26.4002 19.4 25.3002 19.4C23.6002 19.4 22.2002 20 20.9002 21.2L20.7002 21.4L20.6002 21.5L20.0002 22.1V19.4C20.0002 19.1 19.8002 18.9 19.5002 18.9H16.3002C16.0002 18.9 15.8002 19.1 15.8002 19.4V26.3L13.9002 28.1C13.8002 28.2 13.7002 28.3 13.7002 28.5V30.6C13.7002 30.7 13.8002 30.7 13.9002 30.7L15.8002 29V36.2C15.8002 36.5 16.0002 36.7 16.3002 36.7H19.9002C20.2002 36.7 20.4002 36.5 20.4002 36.2V28.5C20.4002 26.9 20.5002 26.2 20.8002 25.5C21.0002 24.8 21.4002 24.3 22.0002 23.9C22.5002 23.5 23.2002 23.3 23.9002 23.3C24.5002 23.3 24.9002 23.4 25.3002 23.6C25.6002 23.8 25.9002 24.2 26.0002 24.7C26.2002 25.2 26.2002 25.7 26.2002 27.4V36.1C26.2002 36.4 26.4002 36.6 26.7002 36.6H30.0002C30.3002 36.6 30.5002 36.4 30.5002 36.1V28.5C30.5002 26.9 30.6002 26.3 30.9002 25.5C31.1002 24.8 31.5002 24.2 32.1002 23.8C32.6002 23.4 33.2002 23.2 33.9002 23.2C34.8002 23.2 35.4002 23.5 35.8002 24.2C36.1002 24.7 36.3002 25.2 36.3002 26.9V36C36.3002 36.3 36.5002 36.5 36.8002 36.5H40.2002C40.5002 36.5 40.7002 36.3 40.7002 36V25.9C40.6002 24.3 40.5002 23.1 40.2002 22.4Z" fill="black"/>
<path d="M40.8004 49.4C40.6004 49.2 40.6004 48.8 40.8004 48.6L41.5004 47.9L39.6004 45.9C36.1004 48.2 32.0004 49.6 27.5004 49.6C15.4004 49.6 5.70039 39.8 5.70039 27.8C5.70039 15.8 15.4004 5.9 27.5004 5.9C39.6004 5.9 49.3004 15.7 49.3004 27.7C49.3004 32.7 47.6004 37.3 44.7004 41L46.5004 42.9L47.1004 42.3C47.3004 42.1 47.7004 42.1 47.9004 42.3L54.3004 48.8C54.3004 48.7 54.3004 48.7 54.3004 48.6C55.2004 34.6 55.2004 20.6 54.3004 6.6C54.1004 3.6 51.5004 1 48.5004 0.8C34.5004 -0.1 20.5004 -0.1 6.50039 0.8C3.50039 1 0.900391 3.6 0.700391 6.6C-0.199609 20.6 -0.199609 34.6 0.700391 48.6C0.900391 51.6 3.50039 54.2 6.50039 54.4C19.7004 55.2 32.9004 55.3 46.0004 54.5L40.8004 49.4Z" fill="black"/>
<path d="M118.3 22.5C116.6 21.5 114.6 21 112.2 21C110.3 21 108.5 21.4 106.9 22.3C105.3 23.2 103.7 24.5 102.3 26.2C101.3 24.5 100.1 23.2 98.5002 22.3C96.9002 21.4 95.1002 21 93.1002 21C89.9002 21 87.0002 22.2 84.5002 24.5L84.1002 25C84.0002 25 84.0002 25.1 83.9002 25.1L82.9002 26.1V20.8C82.9002 20.2 82.5002 19.8 81.9002 19.8H75.7002C75.1002 19.8 74.7002 20.2 74.7002 20.8V34.2L71.0002 37.8C70.8002 38 70.7002 38.2 70.7002 38.5V42.6C70.7002 42.8 70.9002 42.9 71.0002 42.7L74.6002 39.4V53.3C74.6002 53.9 75.0002 54.3 75.6002 54.3H82.5002C83.1002 54.3 83.5002 53.9 83.5002 53.3V38.6C83.5002 35.5 83.7002 34.2 84.2002 32.9C84.7002 31.5 85.4002 30.5 86.5002 29.8C87.6002 29.1 88.8002 28.7 90.1002 28.7C91.2002 28.7 92.1002 28.9 92.7002 29.4C93.3002 29.9 93.8002 30.5 94.1002 31.5C94.4002 32.5 94.6002 33.5 94.6002 36.7V53.6C94.6002 54.2 95.0002 54.6 95.6002 54.6H102.2C102.8 54.6 103.2 54.2 103.2 53.6V38.8C103.2 35.7 103.4 34.5 103.9 33C104.4 31.6 105.1 30.5 106.2 29.8C107.3 29.1 108.4 28.7 109.6 28.7C111.3 28.7 112.5 29.3 113.3 30.5C113.9 31.4 114.2 32.5 114.2 35.8V53.5C114.2 54.1 114.6 54.5 115.2 54.5H121.8C122.4 54.5 122.8 54.1 122.8 53.5V33.6C122.8 30.5 122.5 28.2 121.9 26.8C121.2 24.9 120 23.5 118.3 22.5Z" fill="black"/>
<path d="M143.1 21.8H136.2C135.6 21.8 135.2 22.2 135.2 22.8V53.5C135.2 54.1 135.7 54.5 136.2 54.5H143.1C143.7 54.5 144.1 54.1 144.1 53.5V22.8C144.2 22.3 143.7 21.8 143.1 21.8Z" fill="black"/>
<path d="M140.5 8.70001H138.9C136.7 8.70001 134.9 10.6 134.9 13C134.9 15.4 136.7 17.3 138.9 17.3H140.5C142.7 17.3 144.5 15.4 144.5 13C144.5 10.7 142.7 8.70001 140.5 8.70001Z" fill="black"/>
<path d="M175.4 33.9C175.3 33.8 175.3 33.6 175.4 33.5L185.2 23.4C185.8 22.8 185.4 21.7 184.4 21.7H176.2C175.9 21.7 175.6 21.8 175.4 22L165.7 32.6C165.5 32.8 165.2 32.7 165.2 32.4V11.4C165.2 10.8 164.7 10.4 164.2 10.4H157.3C156.7 10.4 156.3 10.8 156.3 11.4V53.5C156.3 54.1 156.8 54.5 157.3 54.5H164.2C164.8 54.5 165.2 54.1 165.2 53.5V44.2C165.2 44.1 165.2 44 165.3 44L169.1 40.2C169.2 40.1 169.5 40.1 169.6 40.3L177.6 54.1C177.8 54.4 178.1 54.6 178.5 54.6H185.8C186.6 54.6 187.1 53.8 186.7 53.1L175.4 33.9Z" fill="black"/>
<path d="M213.701 33.9C213.601 33.8 213.601 33.6 213.701 33.5L223.501 23.4C224.101 22.8 223.701 21.7 222.701 21.7H214.501C214.201 21.7 213.901 21.8 213.701 22L204.001 32.6C203.801 32.8 203.501 32.7 203.501 32.4V11.4C203.501 10.8 203.001 10.4 202.501 10.4H195.601C195.001 10.4 194.601 10.8 194.601 11.4V53.5C194.601 54.1 195.101 54.5 195.601 54.5H202.501C203.101 54.5 203.501 54.1 203.501 53.5V44.2C203.501 44.1 203.501 44 203.601 44L207.401 40.2C207.501 40.1 207.801 40.1 207.901 40.3L215.901 54.1C216.101 54.4 216.401 54.6 216.801 54.6H224.101C224.901 54.6 225.401 53.8 225.001 53.1L213.701 33.9Z" fill="black"/>
<path d="M238.5 40.6H259.5C260.1 40.6 260.5 40.1 260.5 39.6C260.5 33.5 259.1 28.9 256.3 25.9C253.4 22.7 249.5 21.1 244.4 21.1C239.9 21.1 236.3 22.6 233.3 25.7C230.4 28.8 228.9 33 228.9 38.4C228.9 42.9 230 46.7 232.2 49.7C235 53.4 239.3 55.3 245.2 55.3C248.9 55.3 252 54.5 254.4 52.8C256.5 51.4 258.2 49.4 259.3 46.8C259.6 46.2 259.2 45.5 258.5 45.4L251.8 44.3C251.3 44.2 250.8 44.5 250.7 44.9C250.2 46.2 249.6 47.1 248.8 47.7C247.8 48.4 246.7 48.8 245.3 48.8C243.3 48.8 241.5 48.1 240.2 46.7C238.9 45.3 238.2 43.4 238.1 41C238.2 40.8 238.3 40.6 238.5 40.6ZM240.2 29.8C241.5 28.4 243.1 27.7 245 27.7C246.8 27.7 248.4 28.4 249.6 29.7C250.8 30.9 251.5 32.7 251.6 35.1C251.6 35.3 251.5 35.4 251.3 35.4H238.6C238.4 35.4 238.3 35.3 238.3 35.1C238.4 32.8 239 31.1 240.2 29.8Z" fill="black"/>
</svg>
