<svg>
<path d="M44.18,25.91a4.68,4.68,0,0,0-1.92-2.21A6.16,6.16,0,0,0,39.12,23a5.93,5.93,0,0,0-2.75.66,7.93,7.93,0,0,0-2.39,2,5.2,5.2,0,0,0-1.95-2A5.72,5.72,0,0,0,29.22,23a6.28,6.28,0,0,0-4.42,1.81h0l-.21.2-.07.08-.54.53V22.81a.51.51,0,0,0-.52-.51H20.24a.51.51,0,0,0-.51.51v6.93l-1.88,1.85a.51.51,0,0,0-.15.37v2.13a.1.1,0,0,0,.17.08l1.86-1.7v7.19a.51.51,0,0,0,.51.51H23.8a.51.51,0,0,0,.52-.51V32a8.43,8.43,0,0,1,.35-3,3.05,3.05,0,0,1,1.19-1.6,3.23,3.23,0,0,1,1.85-.56,2.38,2.38,0,0,1,1.36.35,2.09,2.09,0,0,1,.74,1.07A8.48,8.48,0,0,1,30,30.94v8.72a.51.51,0,0,0,.52.51H34a.51.51,0,0,0,.52-.51V32.08a8.11,8.11,0,0,1,.37-3,3.11,3.11,0,0,1,1.18-1.67,3,3,0,0,1,1.77-.58,2.1,2.1,0,0,1,1.9,1c.31.48.46,1.05.46,2.72v9.11a.51.51,0,0,0,.51.51h3.43a.51.51,0,0,0,.52-.51V29.4A9.78,9.78,0,0,0,44.18,25.91Z"/>
<path d="M44.8,52.86a.54.54,0,0,1,0-.77l.72-.72-1.92-2a22,22,0,1,1,5.15-4.83l1.83,1.86.57-.56a.54.54,0,0,1,.77,0l6.38,6.52c0-.06,0-.11,0-.16a330.83,330.83,0,0,0,0-42A6.47,6.47,0,0,0,52.5,4.4a330.67,330.67,0,0,0-42,0,6.47,6.47,0,0,0-5.83,5.83,330.83,330.83,0,0,0,0,42,6.47,6.47,0,0,0,5.83,5.83A332.24,332.24,0,0,0,50,58.21Z"/>
<path d="M122.34,26.05a11.79,11.79,0,0,0-6.09-1.47,11.4,11.4,0,0,0-5.32,1.3,15.06,15.06,0,0,0-4.65,3.9,9.94,9.94,0,0,0-3.78-3.9,11,11,0,0,0-5.45-1.3,12.25,12.25,0,0,0-8.57,3.51v0l-.4.4-.16.15-1,1V24.32a1,1,0,0,0-1-1H79.65a1,1,0,0,0-1,1V37.76L75,41.34a1,1,0,0,0-.3.72v4.13a.2.2,0,0,0,.33.15l3.61-3.28V57a1,1,0,0,0,1,1h6.9a1,1,0,0,0,1-1V42.12a16,16,0,0,1,.69-5.74,5.91,5.91,0,0,1,2.29-3.11,6.37,6.37,0,0,1,3.6-1.07,4.53,4.53,0,0,1,2.63.67,4,4,0,0,1,1.43,2.07c.31.92.46,2,.46,5.15V57a1,1,0,0,0,1,1h6.65a1,1,0,0,0,1-1V42.3a16.26,16.26,0,0,1,.7-5.75,6.09,6.09,0,0,1,2.31-3.24,5.88,5.88,0,0,1,3.41-1.11,4.1,4.1,0,0,1,3.7,1.84c.59,1,.89,2,.89,5.28V57a1,1,0,0,0,1,1H126a1,1,0,0,0,1-1V37.11a18.5,18.5,0,0,0-.89-6.77A8.91,8.91,0,0,0,122.34,26.05Z"/>
<path d="M147.12,25.32h-6.91a1,1,0,0,0-1,1V57a1,1,0,0,0,1,1h6.91a1,1,0,0,0,1-1V26.32A1,1,0,0,0,147.12,25.32Z"/>
<path d="M144.49,12.25h-1.65a4.16,4.16,0,0,0-4,4.32,4.16,4.16,0,0,0,4,4.32h1.65a4.17,4.17,0,0,0,4-4.32A4.17,4.17,0,0,0,144.49,12.25Z"/>
<path d="M179.41,37.45a.29.29,0,0,1,0-.35L189.27,27a1,1,0,0,0-.76-1.69h-8.2a1.06,1.06,0,0,0-.78.34l-9.67,10.57a.32.32,0,0,1-.55-.2V14.9a1,1,0,0,0-1-1h-6.91a1,1,0,0,0-1,1V57a1,1,0,0,0,1,1h6.91a1,1,0,0,0,1-1V47.65a.27.27,0,0,1,.09-.2l3.81-3.84a.33.33,0,0,1,.5.06l8,13.81a1,1,0,0,0,.9.51h7.29a1,1,0,0,0,.9-1.5Z"/>
<path d="M217.75,37.45a.29.29,0,0,1,0-.35L227.61,27a1,1,0,0,0-.76-1.69h-8.2a1.06,1.06,0,0,0-.78.34L208.2,36.23a.32.32,0,0,1-.55-.2V14.9a1,1,0,0,0-1-1H199.7a1,1,0,0,0-1,1V57a1,1,0,0,0,1,1h6.91a1,1,0,0,0,1-1V47.65a.27.27,0,0,1,.09-.2l3.81-3.84a.33.33,0,0,1,.5.06l8,13.81a1,1,0,0,0,.9.51h7.29a1,1,0,0,0,.9-1.5Z"/>
<path d="M242.49,44.15h20.95a1,1,0,0,0,1-1q0-9.18-4.16-13.75-4.33-4.81-11.85-4.82a14.64,14.64,0,0,0-11.06,4.6Q233,33.78,233,41.9a18.28,18.28,0,0,0,3.33,11.26q4.22,5.56,13,5.57a16.22,16.22,0,0,0,9.23-2.48,13.72,13.72,0,0,0,4.92-6,1,1,0,0,0-.77-1.4L256,47.74a1,1,0,0,0-1.13.62,6.17,6.17,0,0,1-1.9,2.8,5.55,5.55,0,0,1-3.52,1.11,6.81,6.81,0,0,1-5.13-2.14,8.37,8.37,0,0,1-2.14-5.66A.31.31,0,0,1,242.49,44.15Zm1.7-10.89A6.3,6.3,0,0,1,249,31.2a6.19,6.19,0,0,1,4.62,1.95,7.94,7.94,0,0,1,2,5.38.32.32,0,0,1-.32.33H242.64a.33.33,0,0,1-.32-.31A7.7,7.7,0,0,1,244.19,33.26Z"/>
</svg>