<svg width="132" height="150" viewBox="0 0 132 150" fill="none" xmlns="http://www.w3.org/2000/svg">
<g clip-path="url(#clip0)">
<path d="M116.658 61.3321L35.8016 14.6521C35.6655 14.5561 35.5082 14.4946 35.3431 14.4726C35.178 14.4507 35.0101 14.469 34.8536 14.5261L34.7726 14.5741L33.8906 15.0841L34.3976 15.8011V70.1821C34.4242 70.6736 34.5663 71.152 34.8123 71.5783C35.0583 72.0047 35.4014 72.3671 35.8136 72.6361L116.559 119.262L116.673 119.985L117.654 119.418C117.799 119.317 117.915 119.178 117.989 119.016C118.063 118.855 118.092 118.677 118.074 118.5V63.7861C118.047 63.2945 117.905 62.8162 117.659 62.3898C117.413 61.9634 117.07 61.601 116.658 61.3321Z" fill="#D6D8E5"/>
<path d="M117.09 64.3561V119.067C117.09 119.967 116.46 120.336 115.674 119.883L34.8183 73.2001C34.4061 72.9311 34.063 72.5687 33.817 72.1424C33.571 71.716 33.4289 71.2376 33.4023 70.7461V16.0381C33.4023 15.1381 34.0353 14.7661 34.8183 15.2191L115.674 61.9021C116.087 62.1705 116.431 62.5328 116.677 62.9593C116.923 63.3858 117.064 63.8644 117.09 64.3561Z" fill="#FAFBFC"/>
<path d="M86.2378 53.427L36.5908 24.762V21.9L86.2378 50.565V53.427Z" fill="#E9EAF2"/>
<path d="M83.6638 55.5002L36.5908 28.3202V26.8892L83.6638 54.0692V55.5002Z" fill="#E9EAF2"/>
<path d="M78.1858 54.9001L36.5908 30.8821V29.451L78.1858 53.469V54.9001Z" fill="#E9EAF2"/>
<path d="M75.5428 55.9351L36.5908 33.4471V32.0161L75.5428 54.5041V55.9351Z" fill="#E9EAF2"/>
<path d="M113.763 90.6091L95.52 80.0761V77.2141L113.763 87.7441V90.6091Z" fill="#E9EAF2"/>
<path d="M112.818 93.6211L95.52 83.6341V82.2031L112.818 92.1901V93.6211Z" fill="#E9EAF2"/>
<path d="M110.805 95.022L95.52 86.196V84.765L110.805 93.591V95.022Z" fill="#E9EAF2"/>
<path d="M109.833 97.023L95.52 88.761V87.33L109.833 95.592V97.023Z" fill="#E9EAF2"/>
<path d="M86.2378 68.943L36.5908 40.278V37.416L86.2378 66.081V68.943Z" fill="#E9EAF2"/>
<path d="M83.6638 71.0161L36.5908 43.8392V42.4052L83.6638 69.5851V71.0161Z" fill="#E9EAF2"/>
<path d="M78.1858 70.4161L36.5908 46.4011V44.9701L78.1858 68.9851V70.4161Z" fill="#E9EAF2"/>
<path d="M75.5428 71.4541L36.5908 48.9631V47.5321L75.5428 70.0201V71.4541Z" fill="#E9EAF2"/>
<path d="M86.2378 84.4621L36.5908 55.7971V52.9321L86.2378 81.6001V84.4621Z" fill="#E9EAF2"/>
<path d="M83.6638 86.5349L36.5908 59.355V57.924L83.6638 85.1009V86.5349Z" fill="#E9EAF2"/>
<path d="M78.1858 85.9351L36.5908 61.9171V60.4861L78.1858 84.5011V85.9351Z" fill="#E9EAF2"/>
<path d="M75.5428 86.9701L36.5908 64.4821V63.0481L75.5428 85.5391V86.9701Z" fill="#E9EAF2"/>
<path d="M86.2378 99.978L36.5908 71.3131V68.451L86.2378 97.116V99.978Z" fill="#E9EAF2"/>
<path d="M83.6668 100.62V101.406L36.5908 74.2261V73.4401L83.6668 100.62Z" fill="#E9EAF2"/>
<path d="M113.196 84.5072L96.0958 74.6312C95.9236 74.5071 95.7827 74.3447 95.6843 74.1567C95.5859 73.9687 95.5326 73.7603 95.5288 73.5482V56.6792C95.5288 56.2622 95.7838 56.0792 96.0958 56.2502L113.196 66.1262C113.368 66.2502 113.509 66.4126 113.607 66.6006C113.706 66.7886 113.759 66.997 113.763 67.2092V84.0782C113.763 84.4952 113.508 84.6872 113.196 84.5072Z" fill="#E9EAF2"/>
<path d="M116.658 46.8511L35.8024 0.168084C35.6726 0.0775129 35.5218 0.0214554 35.3644 0.00518607C35.207 -0.0110833 35.048 0.0129705 34.9024 0.0750842H34.8844L33.9844 0.579084L34.3804 1.22108V10.0921C34.3804 11.1331 35.0164 12.3451 35.7994 12.7921L116.484 59.3821L116.526 60.1381L117.549 59.5741L117.573 59.5591L117.603 59.5441C117.903 59.3671 118.074 58.9711 118.074 58.4131V49.5601C118.074 48.5161 117.438 47.3041 116.658 46.8511Z" fill="#D6D8E5"/>
<path d="M115.674 60.0271L34.8183 13.3441C34.0353 12.8911 33.4023 11.6791 33.4023 10.6441V1.80013C33.4023 0.75913 34.0353 0.27913 34.8183 0.72913L115.674 47.4001C116.457 47.8531 117.093 49.0651 117.093 50.1001V58.9531C117.093 60.0001 116.457 60.4771 115.674 60.0271Z" fill="#FAFBFC"/>
<path d="M113.196 54.627L37.1581 10.728C36.9871 10.6036 36.8475 10.4408 36.7506 10.2527C36.6537 10.0647 36.6022 9.85658 36.6001 9.64505V6.46504C36.6001 6.04804 36.8521 5.86505 37.1671 6.03605L113.196 49.938C113.369 50.0617 113.51 50.2241 113.608 50.4122C113.707 50.6003 113.76 50.8088 113.763 51.021V54.198C113.763 54.618 113.508 54.81 113.196 54.627Z" fill="#E9EAF2"/>
<path d="M113.337 54.711L108.42 51.87V47.181L113.337 50.019C113.509 50.1427 113.651 50.3051 113.749 50.4932C113.848 50.6813 113.901 50.8898 113.904 51.102V54.282C113.904 54.699 113.649 54.9 113.337 54.711Z" fill="#1A89D9"/>
<path d="M39.141 9.45906C38.9723 9.31709 38.8239 9.15254 38.7 8.97006C38.6178 8.84062 38.5722 8.69133 38.568 8.53806C38.568 8.37806 38.622 8.27806 38.73 8.23806C38.8037 8.22043 38.8804 8.21937 38.9546 8.23493C39.0288 8.25049 39.0986 8.2823 39.159 8.32806C39.3968 8.46645 39.5847 8.67645 39.696 8.92806C39.7462 9.03938 39.7728 9.15993 39.774 9.28206L39.543 9.14706C39.5427 9.0251 39.5084 8.90564 39.444 8.80206C39.3729 8.69058 39.2749 8.59877 39.159 8.53506C39.1219 8.50636 39.0794 8.48546 39.0341 8.4736C38.9887 8.46174 38.9414 8.45918 38.895 8.46606C38.832 8.48706 38.799 8.55006 38.799 8.65206C38.8023 8.74609 38.8336 8.837 38.889 8.91306C38.9741 9.03663 39.075 9.14858 39.189 9.24606C39.3171 9.35456 39.4364 9.47292 39.546 9.60006C39.6204 9.69122 39.682 9.79216 39.729 9.90006C39.7672 9.99543 39.7866 10.0973 39.786 10.2001C39.786 10.3621 39.732 10.4611 39.621 10.5001C39.4655 10.5232 39.3072 10.4844 39.18 10.3921C39.0554 10.3178 38.9422 10.2258 38.844 10.1191C38.7462 10.0131 38.6652 9.89266 38.604 9.76206C38.551 9.64824 38.5224 9.52459 38.52 9.39906L38.751 9.53406C38.753 9.66122 38.7939 9.78474 38.868 9.88806C38.9445 10.0091 39.047 10.1116 39.168 10.1881C39.2485 10.2468 39.3479 10.2735 39.447 10.2631C39.513 10.2421 39.543 10.1821 39.543 10.0831C39.5423 9.98304 39.5108 9.88566 39.453 9.80406C39.3624 9.67765 39.2577 9.56191 39.141 9.45906Z" fill="#B0B3C1"/>
<path d="M40.5842 11.217C40.4034 11.1095 40.2552 10.9551 40.1552 10.77C40.0472 10.5776 39.9904 10.3607 39.9902 10.14V10.095C39.984 9.97156 40.0098 9.84857 40.0652 9.73803C40.0848 9.6983 40.1134 9.66374 40.1489 9.63716C40.1843 9.61057 40.2255 9.59272 40.2692 9.58503C40.3739 9.56866 40.481 9.59222 40.5692 9.65103C40.7382 9.74853 40.8748 9.89354 40.9621 10.068C41.0589 10.2648 41.1072 10.4818 41.1031 10.701V10.8L40.2002 10.299C40.2036 10.4468 40.2416 10.5917 40.3112 10.722C40.3717 10.846 40.4664 10.9501 40.5842 11.022C40.6424 11.062 40.7115 11.083 40.7822 11.082C40.8363 11.0772 40.8871 11.0539 40.9262 11.016L41.0611 11.217C40.9652 11.34 40.8002 11.343 40.5842 11.217ZM40.5572 9.86103C40.5254 9.83658 40.4873 9.82186 40.4473 9.81866C40.4074 9.81547 40.3674 9.82393 40.3322 9.84303C40.2961 9.87417 40.2675 9.91294 40.2483 9.95652C40.2291 10.0001 40.2198 10.0474 40.2212 10.095L40.8692 10.47V10.449C40.8661 10.3254 40.8343 10.2042 40.7762 10.095C40.727 9.99769 40.651 9.91648 40.5572 9.86103Z" fill="#B0B3C1"/>
<path d="M42.1468 12.0901C42.1286 12.0337 42.1175 11.9752 42.1138 11.9161C42.056 11.9467 41.9907 11.9605 41.9254 11.9557C41.8601 11.9509 41.7975 11.9278 41.7448 11.8891C41.6223 11.8144 41.5194 11.7116 41.4448 11.5891C41.3664 11.4751 41.3236 11.3404 41.3218 11.2021C41.3218 11.0461 41.3728 10.9561 41.4748 10.9291C41.6287 10.9139 41.7827 10.9567 41.9068 11.0491L42.1228 11.1721V11.0551C42.1226 10.9664 42.0988 10.8795 42.0538 10.8031C42.0047 10.7201 41.9342 10.6517 41.8498 10.6051C41.7912 10.5644 41.7191 10.5483 41.6488 10.5601C41.6237 10.5677 41.6021 10.5839 41.5879 10.6058C41.5736 10.6278 41.5675 10.6541 41.5708 10.6801L41.3458 10.5511C41.3444 10.5184 41.3499 10.4858 41.3618 10.4554C41.3736 10.4249 41.3917 10.3972 41.4148 10.3741C41.4405 10.3519 41.4707 10.3354 41.5032 10.3255C41.5358 10.3157 41.57 10.3128 41.6038 10.3171C41.6954 10.3276 41.7835 10.3583 41.8618 10.4071C42.0051 10.4853 42.1259 10.5989 42.2128 10.7371C42.2955 10.8663 42.3412 11.0157 42.3448 11.1691V11.8591C42.3424 11.9787 42.3576 12.0979 42.3898 12.2131V12.2341L42.1468 12.0901ZM41.7778 11.7001C41.837 11.7371 41.9061 11.7549 41.9758 11.7511C42.0037 11.7502 42.0308 11.7419 42.0545 11.7272C42.0782 11.7124 42.0976 11.6917 42.1108 11.6671V11.3671L41.9368 11.2651C41.6668 11.1091 41.5318 11.1241 41.5318 11.3071C41.5314 11.3883 41.5554 11.4677 41.6008 11.5351C41.6456 11.6036 41.7063 11.6602 41.7778 11.7001Z" fill="#B0B3C1"/>
<path d="M43.3052 11.496C43.2709 11.4687 43.2349 11.4436 43.1972 11.421C43.0532 11.337 42.9532 11.352 42.8972 11.466V12.528L42.6782 12.399V10.899L42.8912 11.022V11.196C42.9632 11.106 43.0652 11.097 43.1912 11.175C43.227 11.1947 43.2595 11.2201 43.2872 11.25L43.3052 11.496Z" fill="#B0B3C1"/>
<path d="M44.0067 12.984C44.0364 13.005 44.0704 13.019 44.1062 13.0253C44.142 13.0315 44.1787 13.0297 44.2137 13.02C44.2437 13.0083 44.2693 12.9876 44.287 12.9607C44.3047 12.9339 44.3137 12.9022 44.3127 12.87L44.5197 12.99C44.5204 13.064 44.4937 13.1356 44.4447 13.191C44.4201 13.2161 44.3907 13.2359 44.3582 13.2493C44.3257 13.2627 44.2909 13.2694 44.2557 13.269C44.1675 13.2667 44.0816 13.2408 44.0067 13.194C43.8265 13.0888 43.6806 12.9335 43.5867 12.747C43.4808 12.5476 43.4262 12.3249 43.4277 12.099V12.054C43.4214 11.9319 43.4462 11.8101 43.4997 11.7C43.5176 11.6608 43.5452 11.6267 43.5798 11.601C43.6144 11.5753 43.655 11.5588 43.6977 11.553C43.804 11.546 43.9095 11.5745 43.9977 11.634C44.1474 11.7212 44.2724 11.8451 44.3607 11.994C44.4527 12.138 44.5054 12.3035 44.5137 12.474L44.3067 12.354C44.2982 12.248 44.2653 12.1454 44.2107 12.054C44.1581 11.966 44.085 11.8919 43.9977 11.838C43.8857 11.776 43.7987 11.776 43.7367 11.838C43.6621 11.9389 43.6288 12.0645 43.6437 12.189V12.237C43.6411 12.393 43.6728 12.5477 43.7367 12.69C43.7941 12.8137 43.8884 12.9164 44.0067 12.984Z" fill="#B0B3C1"/>
<path d="M44.9998 12.42C45.0537 12.3751 45.1216 12.3505 45.1918 12.3505C45.2619 12.3505 45.3299 12.3751 45.3838 12.42C45.517 12.4997 45.6254 12.6148 45.6969 12.7526C45.7684 12.8903 45.8002 13.0452 45.7888 13.2V14.19L45.5668 14.061V13.071C45.5697 12.9751 45.548 12.8801 45.5038 12.795C45.4541 12.7132 45.3838 12.6459 45.2998 12.6C45.2438 12.5639 45.1768 12.549 45.1108 12.558C45.0831 12.5644 45.0571 12.5769 45.0348 12.5945C45.0125 12.6121 44.9944 12.6345 44.9818 12.66V13.725L44.7598 13.596V11.484L44.9818 11.61L44.9998 12.42Z" fill="#B0B3C1"/>
<path d="M46.1247 14.256C46.1228 14.2388 46.125 14.2213 46.1313 14.2051C46.1376 14.1889 46.1476 14.1745 46.1607 14.163C46.1817 14.148 46.2177 14.163 46.2627 14.163C46.3048 14.1891 46.3399 14.2252 46.3647 14.268C46.3881 14.3081 46.4005 14.3536 46.4007 14.4C46.4027 14.416 46.4005 14.4322 46.3941 14.4469C46.3878 14.4617 46.3776 14.4745 46.3647 14.484C46.3407 14.499 46.3077 14.484 46.2627 14.484C46.2196 14.4606 46.1842 14.4251 46.1607 14.382C46.1378 14.3439 46.1254 14.3005 46.1247 14.256Z" fill="#B0B3C1"/>
<path d="M46.7704 14.628C46.7682 14.6112 46.7703 14.5941 46.7766 14.5783C46.7829 14.5626 46.7932 14.5487 46.8064 14.538C46.8274 14.52 46.8634 14.538 46.9084 14.538C46.9495 14.5627 46.9836 14.5974 47.0078 14.6388C47.0319 14.6803 47.0452 14.7271 47.0464 14.775C47.0484 14.791 47.0462 14.8072 47.0398 14.8219C47.0335 14.8367 47.0233 14.8495 47.0104 14.859C46.9894 14.859 46.9534 14.859 46.9084 14.859C46.8653 14.8356 46.8299 14.8001 46.8064 14.757C46.783 14.7181 46.7705 14.6735 46.7704 14.628Z" fill="#B0B3C1"/>
<path d="M47.4149 15.0001C47.4127 14.9833 47.4148 14.9662 47.4211 14.9504C47.4274 14.9346 47.4377 14.9208 47.4509 14.9101C47.4719 14.8921 47.5079 14.9101 47.5529 14.9101C47.5966 14.9328 47.6322 14.9684 47.6549 15.0121C47.6779 15.0523 47.6903 15.0978 47.6909 15.1441C47.6929 15.1605 47.6906 15.1771 47.6843 15.1923C47.678 15.2076 47.6679 15.2209 47.6549 15.2311C47.6339 15.2311 47.5979 15.2311 47.5529 15.2131C47.5098 15.1896 47.4744 15.1542 47.4509 15.1111C47.4304 15.0774 47.4181 15.0394 47.4149 15.0001Z" fill="#B0B3C1"/>
<path d="M112.257 52.7281L111.777 51.9031C111.854 51.8242 111.913 51.7299 111.95 51.6264C111.987 51.5229 112.002 51.4127 111.993 51.3031C111.974 50.954 111.873 50.6143 111.699 50.3115C111.524 50.0087 111.281 49.7513 110.988 49.5601C110.43 49.2391 109.98 49.5001 109.98 50.1421C109.998 50.4951 110.1 50.8389 110.277 51.1446C110.454 51.4504 110.702 51.7094 111 51.9001C111.171 52.015 111.38 52.0581 111.582 52.0201L112.065 52.8571C112.122 52.9531 112.212 53.0071 112.269 52.9741C112.326 52.9411 112.311 52.8271 112.257 52.7281ZM111.546 51.6361C111.528 51.6301 111.51 51.6301 111.492 51.6361C111.478 51.6456 111.468 51.6593 111.462 51.6751C111.384 51.6958 111.303 51.6998 111.223 51.6869C111.143 51.674 111.067 51.6444 111 51.6001C110.78 51.4569 110.597 51.2638 110.465 51.0366C110.334 50.8093 110.258 50.5542 110.244 50.2921C110.244 49.8091 110.583 49.6141 111 49.8571C111.22 50.0004 111.402 50.1935 111.533 50.4208C111.664 50.6481 111.739 50.9031 111.753 51.1651C111.76 51.2545 111.744 51.3442 111.708 51.4263C111.672 51.5084 111.616 51.5804 111.546 51.6361Z" fill="white"/>
<path d="M101.529 65.8922C96.669 57.7022 88.488 53.5922 83.256 56.6852L78.708 59.2982L80.451 62.1992C80.7315 61.7526 81.0638 61.3407 81.441 60.9722C85.863 59.5382 91.941 62.9612 95.691 69.2642C99.441 75.5672 99.519 82.5512 96.144 85.7462C95.7002 85.8859 95.2425 85.9775 94.779 86.0192L96.48 88.8452L100.851 86.3402C106.083 83.2352 106.386 74.0792 101.529 65.8922Z" fill="#D6D8E5"/>
<path d="M97.1549 68.4001C92.2949 60.2101 84.1139 56.1001 78.8819 59.1931C73.6499 62.2861 73.3469 71.4541 78.2069 79.6441C83.0669 87.8341 91.2479 91.9441 96.4799 88.8481C101.712 85.7521 102.015 76.5841 97.1549 68.4001ZM96.1439 85.7491C91.7189 87.1831 85.6439 83.7601 81.8939 77.4541C78.1439 71.1481 78.0659 64.1701 81.4409 60.9751C85.8629 59.5411 91.9409 62.9641 95.6909 69.2671C99.4409 75.5701 99.5189 82.5511 96.1439 85.7461V85.7491Z" fill="#B1B4C4"/>
<path d="M81.9001 77.4511C78.1591 71.1511 78.0721 64.1671 81.4471 60.9721C83.3761 60.3451 85.6231 60.6451 87.8521 61.7041C85.1161 60.4021 82.3591 60.2311 80.1901 61.5181C75.7351 64.1611 75.4531 71.9191 79.5601 78.8401C83.6671 85.7611 90.6121 89.2321 95.0671 86.5891C95.4589 86.35 95.8222 86.0672 96.1501 85.7461C91.7191 87.1801 85.6351 83.7571 81.9001 77.4511Z" fill="#A1A5B5"/>
<path opacity="0.1" d="M95.6997 69.2641C91.9587 62.9641 85.8717 59.5381 81.4497 60.9721C78.0747 64.1671 78.1497 71.1481 81.9027 77.4511C85.6557 83.7541 91.7277 87.1801 96.1527 85.7461C99.5187 82.5511 99.4317 75.5701 95.6997 69.2641Z" fill="#3E7EFF"/>
<path d="M101.787 79.4131L111.594 85.0681V87.5941L101.787 81.9391V79.4131Z" fill="#B1B4C4"/>
<path d="M103.974 78.15L113.781 83.805L111.594 85.068L101.787 79.413L103.974 78.15Z" fill="#D6D8E5"/>
<path d="M109.515 83.64C110.442 82.074 112.005 81.288 113.004 81.882L130.818 92.238L127.425 97.878L109.644 87.543C108.645 86.949 108.6 85.2 109.515 83.64Z" fill="#091793"/>
<path d="M130.914 96.1201C129.984 97.6831 128.424 98.4721 127.425 97.8781C126.426 97.2841 126.366 95.5381 127.296 93.9781C128.226 92.4181 129.786 91.6261 130.785 92.2201C131.784 92.8141 131.841 94.5571 130.914 96.1201Z" fill="#0C2169"/>
<path opacity="0.1" d="M130.914 96.1201C129.984 97.6831 128.424 98.4721 127.425 97.8781C126.426 97.2841 126.366 95.5381 127.296 93.9781C128.226 92.4181 129.786 91.6261 130.785 92.2201C131.784 92.8141 131.841 94.5571 130.914 96.1201Z" fill="#44B0FF"/>
<path opacity="0.3" d="M110.166 128.316L37.8899 85.2001C37.5419 85.0021 37.5899 84.6511 37.9859 84.4201C38.191 84.3062 38.42 84.2419 38.6544 84.2325C38.8889 84.2231 39.1223 84.2689 39.3359 84.3661L111.6 127.482C111.948 127.683 111.9 128.031 111.504 128.262C111.3 128.374 111.073 128.437 110.841 128.447C110.609 128.456 110.378 128.411 110.166 128.316Z" fill="#D6D8E5"/>
<path opacity="0.4" d="M11.25 150L0 143.565L16.839 133.926L28.089 140.361L11.25 150Z" fill="#D6D8E5"/>
<path d="M11.484 137.025L2.16602 131.643L11.484 126.264L20.802 131.643L11.484 137.025Z" fill="#D6D8E5"/>
<path d="M11.484 147.783L2.16602 142.404V131.643L11.484 137.025V147.783Z" fill="#B1B6C4"/>
<path d="M20.8024 142.404L11.4844 147.783V137.025L20.8024 131.643V142.404Z" fill="#C4C7D6"/>
<path d="M24.0002 139.017C24.8084 139.238 25.6713 139.13 26.4002 138.717C26.9792 138.735 30.1172 137.391 30.5432 138.519C30.9182 139.509 29.5592 140.424 28.8332 140.598C27.2462 140.982 26.0732 141.774 25.4372 141.906C24.9632 142.008 24.3482 142.074 23.9702 141.699C23.5232 141.261 23.5622 139.608 24.0002 139.017Z" fill="#38226D"/>
<path d="M25.443 141.642C26.079 141.507 27.243 140.718 28.839 140.334C29.439 140.187 30.495 139.521 30.6 138.726C30.741 139.626 29.514 140.445 28.839 140.607C27.252 140.991 26.079 141.783 25.443 141.915C24.969 142.017 24.354 142.083 23.976 141.708C23.8774 141.601 23.8064 141.471 23.769 141.33C24.0045 141.509 24.2785 141.63 24.5691 141.684C24.8597 141.739 25.159 141.724 25.443 141.642Z" fill="#CD0D5E"/>
<path d="M18.3483 136.005C19.1567 136.224 20.0188 136.116 20.7483 135.705C21.3273 135.723 24.4623 134.379 24.8913 135.507C25.2633 136.497 23.9043 137.409 23.1783 137.586C21.6003 137.979 20.4213 138.771 19.8003 138.9C19.3263 139.002 18.7113 139.065 18.3333 138.693C17.8653 138.249 17.9043 136.593 18.3483 136.005Z" fill="#38226D"/>
<path d="M19.8 138.63C20.436 138.495 21.6 137.706 23.193 137.322C23.793 137.175 24.852 136.509 24.957 135.714C25.098 136.614 23.871 137.43 23.193 137.595C21.6 137.979 20.421 138.771 19.8 138.9C19.326 139.002 18.711 139.065 18.333 138.693C18.2357 138.585 18.1648 138.455 18.126 138.315C18.3612 138.494 18.635 138.616 18.9257 138.671C19.2163 138.725 19.5157 138.711 19.8 138.63Z" fill="#CD0D5E"/>
<path d="M9.53714 132.099C11.9851 133.173 14.2921 133.344 16.1791 132.33L18.1291 131.205C18.2461 133.722 18.3571 136.14 18.3571 136.14C18.3571 136.14 19.8571 137.271 21.0151 136.263C21.0151 136.263 21.2581 132.729 21.5041 129.255L23.5501 128.076C23.5027 128.262 23.4766 128.452 23.4721 128.643C23.4871 129.303 23.9461 139.116 23.9461 139.116C23.9461 139.116 25.4461 140.016 26.6161 139.002C26.6161 139.002 27.3991 127.632 27.5791 125.817C27.7831 123.774 25.5151 122.766 24.0781 123.291C23.7451 123.411 22.9231 123.717 21.8851 124.104C21.9301 123.537 21.9661 123.093 21.9931 122.841C22.1941 120.798 19.9261 119.793 18.4921 120.315C17.1841 120.792 8.35514 124.104 8.35514 124.104C8.40732 124.952 8.50748 125.796 8.65514 126.633L5.16614 126.333C4.96814 129.618 7.09214 131.022 9.53714 132.099ZM15.6271 126.447L17.9611 125.1C17.9226 125.265 17.8976 125.432 17.8861 125.601L15.6271 126.447Z" fill="#CD0D5E"/>
<path d="M3.26416 116.4C3.26416 116.4 3.56416 120.738 4.12216 121.362C4.68016 121.986 6.61516 122.4 6.61516 122.4L8.10016 124.842C8.10016 124.842 6.74716 117.084 6.45316 116.898C6.15916 116.712 3.26416 116.4 3.26416 116.4Z" fill="#FFCEA9"/>
<path d="M6.11716 111.57C5.75592 111.402 5.34555 111.374 4.96469 111.49C4.58383 111.607 4.25925 111.859 4.05316 112.2C3.50716 113.1 2.94016 116.202 2.88916 116.733C2.88916 116.733 3.65416 117.789 4.80316 117.612L6.11716 111.57Z" fill="#EDEDED"/>
<path d="M6.63909 111.624C7.38909 111.66 7.94709 111.852 8.04009 111.624C8.12018 111.237 8.17728 110.845 8.21109 110.451C8.12409 110.232 8.04909 109.998 8.04909 109.998C7.10709 109.419 6.81009 108.402 6.68709 107.217C6.47709 105.192 7.56909 103.419 9.59709 103.206C11.4991 103.008 12.8971 104.346 13.2751 106.185C13.4761 107.085 13.8751 108.807 13.3351 110.298C13.0351 111.132 12.6421 111.798 12.2521 111.924C11.8745 111.912 11.4979 111.879 11.1241 111.825C11.1241 111.825 11.0221 112.389 10.9531 112.749C10.8841 113.109 10.9111 113.301 11.6281 113.745C12.3451 114.189 10.5421 115.098 9.36309 115.008C8.18409 114.918 6.85509 114.207 6.49209 113.445C6.08709 112.602 6.12309 111.6 6.63909 111.624Z" fill="#FFCEA9"/>
<path d="M25.6354 124.896C25.6369 125.003 25.6099 125.108 25.5572 125.201C25.5044 125.294 25.4279 125.371 25.3354 125.424L19.6174 128.724C19.5262 128.777 19.4228 128.805 19.3174 128.805C19.2121 128.805 19.1087 128.777 19.0174 128.724L10.9924 124.098C10.9 124.045 10.8234 123.968 10.7707 123.875C10.718 123.782 10.691 123.677 10.6924 123.57V123.525L25.6354 124.896Z" fill="#E5E5E5"/>
<path d="M25.3325 125.424L19.6145 128.724C19.5233 128.777 19.4198 128.805 19.3145 128.805V124.905H25.6355C25.635 125.011 25.6068 125.114 25.5536 125.205C25.5004 125.296 25.4241 125.372 25.3325 125.424Z" fill="#E5E5E5"/>
<path d="M19.5242 128.424C19.4587 128.461 19.3849 128.48 19.3097 128.48C19.2346 128.48 19.1607 128.461 19.0952 128.424L10.7672 123.624C10.6622 123.561 10.6622 123.462 10.7672 123.402L16.9022 119.85L25.6352 124.896L19.5242 128.424Z" fill="#F4F4F4"/>
<path d="M14.1904 124.896L14.2324 124.92L16.8994 126.459L18.3664 125.613L18.4054 125.589L15.6964 124.026L14.1904 124.896Z" fill="#BFBFBF"/>
<path d="M14.2324 124.92L16.8994 126.459L18.3664 125.613L15.6964 124.074L14.2324 124.92Z" fill="#E5E5E5"/>
<path d="M23.37 125.145L23.757 125.367C23.7761 125.377 23.7972 125.382 23.8185 125.382C23.8399 125.382 23.8609 125.377 23.88 125.367L24.246 125.154C24.282 125.133 24.285 125.103 24.246 125.085L23.862 124.863C23.8429 124.854 23.8219 124.849 23.8005 124.849C23.7792 124.849 23.7581 124.854 23.739 124.863L23.37 125.076C23.343 125.1 23.34 125.127 23.37 125.145Z" fill="#3A2C6D"/>
<path d="M22.8274 124.83L23.2114 125.052C23.2305 125.062 23.2515 125.066 23.2729 125.066C23.2942 125.066 23.3153 125.062 23.3344 125.052L23.7004 124.839C23.7394 124.818 23.7424 124.788 23.7004 124.77L23.3164 124.548C23.2973 124.539 23.2762 124.534 23.2549 124.534C23.2335 124.534 23.2125 124.539 23.1934 124.548L22.8274 124.758C22.8004 124.779 22.8004 124.8 22.8274 124.83Z" fill="#3A2C6D"/>
<path d="M22.2812 124.515L22.6682 124.737C22.6867 124.747 22.7073 124.751 22.7282 124.751C22.749 124.751 22.7696 124.747 22.7882 124.737L23.1572 124.527C23.1932 124.506 23.1962 124.473 23.1572 124.455L22.7702 124.233C22.7516 124.224 22.731 124.219 22.7102 124.219C22.6893 124.219 22.6687 124.224 22.6502 124.233L22.2812 124.443C22.2542 124.464 22.2512 124.5 22.2812 124.515Z" fill="#3A2C6D"/>
<path d="M21.738 124.2L22.122 124.422C22.1411 124.432 22.1622 124.437 22.1835 124.437C22.2049 124.437 22.2259 124.432 22.245 124.422L22.611 124.212C22.647 124.191 22.653 124.158 22.611 124.14L22.236 123.9C22.2169 123.891 22.1959 123.886 22.1745 123.886C22.1532 123.886 22.1321 123.891 22.113 123.9L21.747 124.11C21.708 124.149 21.705 124.182 21.738 124.2Z" fill="#3A2C6D"/>
<path d="M21.1921 123.9L21.5761 124.122C21.5952 124.132 21.6162 124.137 21.6376 124.137C21.6589 124.137 21.68 124.132 21.6991 124.122L22.0681 123.909C22.1041 123.888 22.1071 123.855 22.0681 123.837L21.6901 123.6C21.671 123.591 21.6499 123.586 21.6286 123.586C21.6072 123.586 21.5862 123.591 21.5671 123.6L21.2011 123.813C21.1651 123.837 21.1591 123.867 21.1921 123.9Z" fill="#3A2C6D"/>
<path d="M20.6464 123.57L21.0334 123.792C21.052 123.802 21.0725 123.807 21.0934 123.807C21.1142 123.807 21.1348 123.802 21.1534 123.792L21.5224 123.579C21.5584 123.558 21.5614 123.525 21.5224 123.507L21.1384 123.285C21.1193 123.276 21.0982 123.271 21.0769 123.271C21.0555 123.271 21.0345 123.276 21.0154 123.285L20.6464 123.498C20.6194 123.522 20.6164 123.552 20.6464 123.57Z" fill="#3A2C6D"/>
<path d="M20.1004 123.255L20.4844 123.48C20.5035 123.49 20.5245 123.495 20.5459 123.495C20.5672 123.495 20.5883 123.49 20.6074 123.48L20.9734 123.267C21.0094 123.246 21.0154 123.216 20.9734 123.198L20.5894 122.973C20.5703 122.964 20.5492 122.959 20.5279 122.959C20.5065 122.959 20.4855 122.964 20.4664 122.973L20.1004 123.186C20.0764 123.207 20.0704 123.237 20.1004 123.255Z" fill="#3A2C6D"/>
<path d="M19.557 122.943L19.941 123.165C19.9601 123.175 19.9812 123.18 20.0025 123.18C20.0239 123.18 20.0449 123.175 20.064 123.165L20.433 122.952C20.469 122.931 20.472 122.901 20.433 122.883L20.046 122.661C20.0269 122.652 20.0059 122.647 19.9845 122.647C19.9632 122.647 19.9421 122.652 19.923 122.661L19.557 122.874C19.53 122.892 19.527 122.925 19.557 122.943Z" fill="#3A2C6D"/>
<path d="M19.0115 122.628L19.3985 122.85C19.4176 122.86 19.4387 122.865 19.46 122.865C19.4813 122.865 19.5024 122.86 19.5215 122.85L19.8875 122.637C19.9235 122.616 19.9265 122.586 19.8875 122.568L19.5005 122.34C19.4814 122.331 19.4603 122.326 19.439 122.326C19.4177 122.326 19.3966 122.331 19.3775 122.34L19.0085 122.553C18.9845 122.577 18.9815 122.61 19.0115 122.628Z" fill="#3A2C6D"/>
<path d="M18.4684 122.313L18.8524 122.535C18.8715 122.545 18.8925 122.55 18.9139 122.55C18.9352 122.55 18.9562 122.545 18.9754 122.535L19.3414 122.325C19.3774 122.304 19.3834 122.271 19.3414 122.253L18.9574 122.031C18.9382 122.022 18.9172 122.017 18.8959 122.017C18.8745 122.017 18.8535 122.022 18.8344 122.031L18.4684 122.241C18.4414 122.262 18.4354 122.295 18.4684 122.313Z" fill="#3A2C6D"/>
<path d="M17.9223 121.998L18.3063 122.22C18.3254 122.23 18.3464 122.235 18.3678 122.235C18.3891 122.235 18.4102 122.23 18.4293 122.22L18.7983 122.01C18.8343 121.989 18.8373 121.956 18.7983 121.938L18.4113 121.716C18.3927 121.707 18.3721 121.702 18.3513 121.702C18.3304 121.702 18.3098 121.707 18.2913 121.716L17.9223 121.926C17.8953 121.947 17.8923 121.98 17.9223 121.998Z" fill="#3A2C6D"/>
<path d="M17.379 121.683L17.763 121.905C17.7823 121.914 17.8032 121.918 17.8245 121.918C17.8457 121.918 17.8667 121.914 17.886 121.905L18.252 121.692C18.288 121.671 18.294 121.638 18.252 121.62L17.868 121.398C17.8489 121.388 17.8278 121.384 17.8065 121.384C17.7851 121.384 17.7641 121.388 17.745 121.398L17.376 121.611C17.349 121.635 17.346 121.665 17.379 121.683Z" fill="#3A2C6D"/>
<path d="M16.833 121.368L17.217 121.59C17.2361 121.6 17.2571 121.605 17.2785 121.605C17.2998 121.605 17.3209 121.6 17.34 121.59L17.709 121.377C17.745 121.356 17.748 121.323 17.709 121.305L17.325 121.083C17.3059 121.074 17.2848 121.069 17.2635 121.069C17.2421 121.069 17.2211 121.074 17.202 121.083L16.836 121.296C16.8 121.32 16.8 121.35 16.833 121.368Z" fill="#3A2C6D"/>
<path d="M16.0265 120.9L16.6745 121.272C16.6928 121.282 16.7135 121.288 16.7345 121.288C16.7555 121.288 16.7761 121.282 16.7945 121.272L17.1635 121.059C17.1995 121.038 17.2025 121.008 17.1635 120.99L16.5155 120.615C16.4964 120.606 16.4753 120.601 16.454 120.601C16.4326 120.601 16.4116 120.606 16.3925 120.615L16.0265 120.825C15.9995 120.852 15.9935 120.9 16.0265 120.9Z" fill="#3A2C6D"/>
<path d="M22.0355 124.983L22.4196 125.205C22.4387 125.215 22.4597 125.22 22.4811 125.22C22.5024 125.22 22.5234 125.215 22.5426 125.205L22.9116 124.992C22.9476 124.971 22.9506 124.941 22.9116 124.923L22.5246 124.701C22.5054 124.692 22.4844 124.687 22.4631 124.687C22.4417 124.687 22.4207 124.692 22.4016 124.701L22.0355 124.914C22.0085 124.932 22.0055 124.965 22.0355 124.983Z" fill="#3A2C6D"/>
<path d="M21.4892 124.668L21.8732 124.89C21.8923 124.9 21.9133 124.905 21.9347 124.905C21.956 124.905 21.9771 124.9 21.9962 124.89L22.3652 124.677C22.4012 124.656 22.4042 124.626 22.3652 124.608L21.9782 124.386C21.9591 124.377 21.938 124.372 21.9167 124.372C21.8953 124.372 21.8743 124.377 21.8552 124.386L21.4892 124.599C21.4622 124.617 21.4592 124.65 21.4892 124.668Z" fill="#3A2C6D"/>
<path d="M20.9433 124.353L21.3273 124.575C21.3464 124.585 21.3674 124.59 21.3888 124.59C21.4101 124.59 21.4312 124.585 21.4503 124.575L21.8193 124.362C21.8553 124.341 21.8583 124.311 21.8193 124.293L21.4323 124.071C21.4132 124.062 21.3921 124.057 21.3708 124.057C21.3494 124.057 21.3284 124.062 21.3093 124.071L20.9433 124.284C20.9163 124.302 20.9133 124.335 20.9433 124.353Z" fill="#3A2C6D"/>
<path d="M20.4001 124.038L20.7841 124.26C20.8032 124.27 20.8243 124.275 20.8456 124.275C20.8669 124.275 20.888 124.27 20.9071 124.26L21.2761 124.047C21.3121 124.026 21.3151 123.996 21.2761 123.978L20.8891 123.756C20.8705 123.747 20.85 123.742 20.8291 123.742C20.8082 123.742 20.7877 123.747 20.7691 123.756L20.4001 123.969C20.3701 123.987 20.3671 124.02 20.4001 124.038Z" fill="#3A2C6D"/>
<path d="M19.857 123.723L20.241 123.945C20.2599 123.955 20.281 123.961 20.3025 123.961C20.324 123.961 20.3451 123.955 20.364 123.945L20.73 123.732C20.766 123.711 20.772 123.681 20.73 123.663L20.346 123.438C20.3269 123.429 20.3059 123.424 20.2845 123.424C20.2632 123.424 20.2421 123.429 20.223 123.438L19.857 123.651C19.83 123.675 19.824 123.705 19.857 123.723Z" fill="#3A2C6D"/>
<path d="M19.3111 123.408L19.6951 123.63C19.7142 123.64 19.7353 123.645 19.7566 123.645C19.778 123.645 19.799 123.64 19.8181 123.63L20.1841 123.417C20.2201 123.396 20.2261 123.366 20.1841 123.345L19.8001 123.12C19.781 123.111 19.76 123.106 19.7386 123.106C19.7173 123.106 19.6962 123.111 19.6771 123.12L19.3111 123.333C19.2841 123.36 19.2781 123.39 19.3111 123.408Z" fill="#3A2C6D"/>
<path d="M18.7652 123.093L19.1492 123.315C19.1683 123.325 19.1894 123.33 19.2107 123.33C19.2321 123.33 19.2531 123.325 19.2722 123.315L19.6382 123.102C19.6742 123.081 19.6802 123.048 19.6382 123.03L19.2542 122.808C19.2351 122.799 19.2141 122.794 19.1927 122.794C19.1714 122.794 19.1503 122.799 19.1312 122.808L18.7652 123.021C18.7382 123.045 18.7322 123.075 18.7652 123.093Z" fill="#3A2C6D"/>
<path d="M18.2192 122.778L18.6002 123C18.6193 123.01 18.6403 123.015 18.6617 123.015C18.683 123.015 18.7041 123.01 18.7232 123L19.0892 122.787C19.1282 122.766 19.1312 122.733 19.0892 122.715L18.7052 122.493C18.6861 122.484 18.665 122.479 18.6437 122.479C18.6223 122.479 18.6013 122.484 18.5822 122.493L18.2162 122.706C18.1922 122.73 18.1862 122.76 18.2192 122.778Z" fill="#3A2C6D"/>
<path d="M17.6731 122.463L18.0571 122.685C18.0762 122.695 18.0973 122.7 18.1186 122.7C18.14 122.7 18.161 122.695 18.1801 122.685L18.5491 122.472C18.5851 122.451 18.5881 122.418 18.5491 122.4L18.1651 122.178C18.146 122.169 18.125 122.164 18.1036 122.164C18.0823 122.164 18.0612 122.169 18.0421 122.178L17.6761 122.391C17.6461 122.415 17.6401 122.445 17.6731 122.463Z" fill="#3A2C6D"/>
<path d="M17.1272 122.148L17.5112 122.37C17.5303 122.38 17.5513 122.385 17.5727 122.385C17.594 122.385 17.6151 122.38 17.6342 122.37L18.0032 122.157C18.0392 122.136 18.0422 122.103 18.0032 122.085L17.6162 121.863C17.5971 121.854 17.576 121.849 17.5547 121.849C17.5333 121.849 17.5123 121.854 17.4932 121.863L17.1272 122.076C17.1002 122.1 17.1002 122.13 17.1272 122.148Z" fill="#3A2C6D"/>
<path d="M16.581 121.833L16.965 122.055C16.9841 122.065 17.0051 122.07 17.0265 122.07C17.0478 122.07 17.0689 122.065 17.088 122.055L17.457 121.845C17.493 121.824 17.496 121.791 17.457 121.773L17.07 121.551C17.0509 121.542 17.0298 121.537 17.0085 121.537C16.9871 121.537 16.9661 121.542 16.947 121.551L16.581 121.764C16.554 121.8 16.551 121.815 16.581 121.833Z" fill="#3A2C6D"/>
<path d="M16.0355 121.518L16.4195 121.74C16.4387 121.75 16.4597 121.755 16.4811 121.755C16.5024 121.755 16.5234 121.75 16.5425 121.74L16.9115 121.53C16.9475 121.509 16.9505 121.476 16.9115 121.458L16.5246 121.236C16.5054 121.227 16.4844 121.222 16.463 121.222C16.4417 121.222 16.4207 121.227 16.4015 121.236L16.0355 121.446C16.0085 121.467 16.0055 121.5 16.0355 121.518Z" fill="#3A2C6D"/>
<path d="M22.5811 125.298L23.2292 125.67C23.2483 125.68 23.2693 125.685 23.2907 125.685C23.312 125.685 23.333 125.68 23.3522 125.67L23.7182 125.457C23.7542 125.436 23.7572 125.403 23.7182 125.385L23.0702 125.013C23.0509 125.004 23.0299 125 23.0087 125C22.9874 125 22.9664 125.004 22.9472 125.013L22.5811 125.226C22.5541 125.247 22.5481 125.28 22.5811 125.298Z" fill="#3A2C6D"/>
<path d="M15.9904 120.918L16.3744 121.14C16.4074 121.158 16.4074 121.188 16.3744 121.206L15.9874 121.431C15.9697 121.44 15.9502 121.445 15.9304 121.445C15.9106 121.445 15.8911 121.44 15.8734 121.431L15.8434 121.413C15.8268 121.404 15.8083 121.399 15.7894 121.399C15.7706 121.399 15.752 121.404 15.7354 121.413L15.3274 121.65C15.3097 121.659 15.2902 121.664 15.2704 121.664C15.2506 121.664 15.2311 121.659 15.2134 121.65L14.9674 121.509C14.961 121.506 14.9555 121.502 14.9517 121.496C14.9478 121.49 14.9458 121.483 14.9458 121.476C14.9458 121.469 14.9478 121.462 14.9517 121.456C14.9555 121.45 14.961 121.446 14.9674 121.443L15.3514 121.221L15.4324 121.176L15.4894 121.143L15.5464 121.11L15.8764 120.918C15.8941 120.909 15.9136 120.904 15.9334 120.904C15.9532 120.904 15.9727 120.909 15.9904 120.918Z" fill="#3A2C6D"/>
<path d="M21.258 126.363L21.642 126.585C21.6611 126.595 21.6822 126.6 21.7035 126.6C21.7249 126.6 21.7459 126.595 21.765 126.585L22.131 126.372C22.167 126.351 22.173 126.321 22.131 126.303L21.747 126.081C21.7279 126.072 21.7069 126.067 21.6855 126.067C21.6642 126.067 21.6431 126.072 21.624 126.081L21.258 126.291C21.228 126.3 21.225 126.345 21.258 126.363Z" fill="#3A2C6D"/>
<path d="M20.7004 126.048L21.0874 126.27C21.1065 126.28 21.1275 126.284 21.1489 126.284C21.1702 126.284 21.1913 126.28 21.2104 126.27L21.5764 126.057C21.6124 126.036 21.6154 126.003 21.5764 125.985L21.1924 125.763C21.1733 125.753 21.1522 125.749 21.1309 125.749C21.1095 125.749 21.0885 125.753 21.0694 125.763L20.7004 125.976C20.7004 126 20.6824 126.03 20.7004 126.048Z" fill="#3A2C6D"/>
<path d="M20.1693 125.736L20.5563 125.958C20.5749 125.968 20.5955 125.972 20.6163 125.972C20.6372 125.972 20.6578 125.968 20.6763 125.958L21.0453 125.745C21.0813 125.724 21.0843 125.694 21.0453 125.676L20.6613 125.454C20.6422 125.445 20.6212 125.44 20.5998 125.44C20.5785 125.44 20.5574 125.445 20.5383 125.454L20.1693 125.667C20.1423 125.7 20.1393 125.718 20.1693 125.736Z" fill="#3A2C6D"/>
<path d="M15.543 123.063L15.927 123.285C15.9461 123.295 15.9672 123.299 15.9885 123.299C16.0099 123.299 16.0309 123.295 16.05 123.285L16.419 123.072C16.455 123.051 16.458 123.018 16.419 123L16.035 122.778C16.0159 122.769 15.9949 122.764 15.9735 122.764C15.9522 122.764 15.9311 122.769 15.912 122.778L15.546 122.991C15.516 123.015 15.513 123.045 15.543 123.063Z" fill="#3A2C6D"/>
<path d="M15.0001 122.751L15.3841 122.973C15.4032 122.983 15.4243 122.988 15.4456 122.988C15.4669 122.988 15.488 122.983 15.5071 122.973L15.8731 122.76C15.9121 122.739 15.9151 122.709 15.8731 122.691L15.4891 122.469C15.47 122.46 15.4489 122.455 15.4276 122.455C15.4063 122.455 15.3852 122.46 15.3661 122.469L15.0001 122.682C14.9731 122.7 14.9671 122.733 15.0001 122.751Z" fill="#3A2C6D"/>
<path d="M14.4571 122.436L14.8411 122.658C14.8602 122.668 14.8813 122.673 14.9026 122.673C14.924 122.673 14.945 122.668 14.9641 122.658L15.3301 122.448C15.3661 122.427 15.3721 122.394 15.3301 122.376L14.9461 122.154C14.927 122.145 14.906 122.14 14.8846 122.14C14.8633 122.14 14.8422 122.145 14.8231 122.154L14.4571 122.364C14.4301 122.4 14.4241 122.418 14.4571 122.436Z" fill="#3A2C6D"/>
<path d="M13.9141 122.121L14.2981 122.346C14.3172 122.356 14.3383 122.361 14.3596 122.361C14.381 122.361 14.402 122.356 14.4211 122.346L14.7871 122.133C14.8231 122.112 14.8291 122.082 14.7871 122.064L14.4001 121.833C14.381 121.824 14.36 121.819 14.3386 121.819C14.3173 121.819 14.2962 121.824 14.2771 121.833L13.9111 122.046C13.8841 122.073 13.8811 122.1 13.9141 122.121Z" fill="#3A2C6D"/>
<path d="M19.5004 125.34L20.0254 125.64C20.044 125.65 20.0645 125.655 20.0854 125.655C20.1063 125.655 20.1268 125.65 20.1454 125.64L20.5144 125.43C20.5504 125.409 20.5534 125.376 20.5144 125.358L19.9894 125.058C19.9703 125.049 19.9493 125.044 19.9279 125.044C19.9066 125.044 19.8855 125.049 19.8664 125.058L19.5004 125.271C19.4584 125.292 19.4554 125.322 19.5004 125.34Z" fill="#3A2C6D"/>
<path d="M16.0863 123.378L16.6113 123.678C16.6304 123.688 16.6515 123.693 16.6728 123.693C16.6942 123.693 16.7152 123.688 16.7343 123.678L17.1003 123.465C17.1363 123.444 17.1423 123.414 17.1003 123.396L16.5753 123.096C16.5562 123.087 16.5352 123.082 16.5138 123.082C16.4925 123.082 16.4714 123.087 16.4523 123.096L16.0863 123.309C16.0593 123.327 16.0563 123.36 16.0863 123.378Z" fill="#3A2C6D"/>
<path d="M16.7701 123.771L19.3291 125.25C19.3482 125.26 19.3693 125.265 19.3906 125.265C19.412 125.265 19.433 125.26 19.4521 125.25L19.8181 125.037C19.8541 125.016 19.8571 124.986 19.8181 124.968L17.2591 123.489C17.24 123.48 17.219 123.475 17.1976 123.475C17.1763 123.475 17.1552 123.48 17.1361 123.489L16.7701 123.702C16.7431 123.723 16.7371 123.753 16.7701 123.771Z" fill="#3A2C6D"/>
<path d="M21.3599 125.202L21.7439 125.424C21.763 125.434 21.7841 125.439 21.8054 125.439C21.8268 125.439 21.8478 125.434 21.8669 125.424L22.2329 125.214C22.2689 125.193 22.2749 125.16 22.2329 125.142L21.8489 124.92C21.8298 124.911 21.8088 124.906 21.7874 124.906C21.7661 124.906 21.745 124.911 21.7259 124.92L21.3569 125.13C21.3299 125.151 21.3269 125.184 21.3599 125.202Z" fill="#3A2C6D"/>
<path d="M20.8142 124.887L21.1982 125.109C21.2173 125.119 21.2384 125.124 21.2597 125.124C21.2811 125.124 21.3021 125.119 21.3212 125.109L21.6902 124.899C21.7262 124.878 21.7292 124.845 21.6902 124.827L21.3002 124.599C21.2811 124.59 21.2601 124.585 21.2387 124.585C21.2174 124.585 21.1963 124.59 21.1772 124.599L20.8112 124.812C20.7872 124.836 20.7842 124.869 20.8142 124.887Z" fill="#3A2C6D"/>
<path d="M20.2712 124.572L20.6552 124.794C20.6743 124.804 20.6953 124.809 20.7167 124.809C20.738 124.809 20.7591 124.804 20.7782 124.794L21.1442 124.581C21.1802 124.56 21.1862 124.527 21.1442 124.509L20.7602 124.287C20.7411 124.278 20.72 124.273 20.6987 124.273C20.6773 124.273 20.6563 124.278 20.6372 124.287L20.2802 124.5C20.2442 124.524 20.2382 124.554 20.2712 124.572Z" fill="#3A2C6D"/>
<path d="M19.725 124.26L20.112 124.482C20.1306 124.492 20.1511 124.496 20.172 124.496C20.1929 124.496 20.2134 124.492 20.232 124.482L20.601 124.269C20.637 124.248 20.64 124.218 20.601 124.2L20.214 123.978C20.1954 123.969 20.1749 123.964 20.154 123.964C20.1331 123.964 20.1126 123.969 20.094 123.978L19.725 124.191C19.698 124.2 19.695 124.242 19.725 124.26Z" fill="#3A2C6D"/>
<path d="M19.1822 123.945L19.5662 124.167C19.5853 124.177 19.6064 124.181 19.6277 124.181C19.6491 124.181 19.6701 124.177 19.6892 124.167L20.0552 123.957C20.0942 123.936 20.0972 123.903 20.0552 123.885L19.6712 123.663C19.6521 123.654 19.6311 123.649 19.6097 123.649C19.5884 123.649 19.5673 123.654 19.5482 123.663L19.1822 123.873C19.1552 123.9 19.1492 123.927 19.1822 123.945Z" fill="#3A2C6D"/>
<path d="M18.6364 123.63L19.0234 123.852C19.0425 123.862 19.0635 123.867 19.0849 123.867C19.1062 123.867 19.1273 123.862 19.1464 123.852L19.5124 123.642C19.5484 123.621 19.5514 123.588 19.5124 123.57L19.1284 123.348C19.1093 123.339 19.0882 123.334 19.0669 123.334C19.0455 123.334 19.0245 123.339 19.0054 123.348L18.6364 123.561C18.6004 123.579 18.6004 123.6 18.6364 123.63Z" fill="#3A2C6D"/>
<path d="M18.0934 123.315L18.4774 123.537C18.4965 123.547 18.5176 123.552 18.5389 123.552C18.5603 123.552 18.5813 123.547 18.6004 123.537L18.9694 123.324C19.0054 123.303 19.0084 123.273 18.9694 123.252L18.6004 123.027C18.5813 123.018 18.5603 123.013 18.5389 123.013C18.5176 123.013 18.4965 123.018 18.4774 123.027L18.1114 123.24C18.0664 123.267 18.0634 123.3 18.0934 123.315Z" fill="#3A2C6D"/>
<path d="M17.55 123L17.934 123.222C17.9531 123.232 17.9742 123.237 17.9955 123.237C18.0169 123.237 18.0379 123.232 18.057 123.222L18.423 123.009C18.459 122.988 18.465 122.958 18.423 122.94L18.039 122.718C18.0199 122.709 17.9989 122.704 17.9775 122.704C17.9562 122.704 17.9351 122.709 17.916 122.718L17.55 122.931C17.52 122.952 17.517 123 17.55 123Z" fill="#3A2C6D"/>
<path d="M17.0043 122.7L17.3883 122.922C17.4074 122.932 17.4285 122.937 17.4498 122.937C17.4712 122.937 17.4922 122.932 17.5113 122.922L17.8803 122.712C17.9163 122.691 17.9193 122.658 17.8803 122.64L17.5023 122.4C17.4838 122.391 17.4632 122.386 17.4423 122.386C17.4215 122.386 17.4009 122.391 17.3823 122.4L17.0133 122.61C16.9773 122.637 16.9743 122.67 17.0043 122.7Z" fill="#3A2C6D"/>
<path d="M16.4611 122.373L16.8451 122.595C16.8642 122.605 16.8853 122.61 16.9066 122.61C16.928 122.61 16.949 122.605 16.9681 122.595L17.3341 122.385C17.3701 122.364 17.3761 122.331 17.3341 122.313L16.9591 122.1C16.94 122.091 16.919 122.086 16.8976 122.086C16.8763 122.086 16.8552 122.091 16.8361 122.1L16.4701 122.313C16.4341 122.325 16.4281 122.355 16.4611 122.373Z" fill="#3A2C6D"/>
<path d="M15.9155 122.058L16.3025 122.28C16.3211 122.289 16.3417 122.294 16.3625 122.294C16.3834 122.294 16.404 122.289 16.4225 122.28L16.7915 122.067C16.8275 122.046 16.8305 122.016 16.7915 121.995L16.4075 121.773C16.3884 121.763 16.3674 121.759 16.346 121.759C16.3247 121.759 16.3037 121.763 16.2845 121.773L15.9155 121.986C15.9005 122.01 15.9005 122.04 15.9155 122.058Z" fill="#3A2C6D"/>
<path d="M15.3722 121.746L15.7562 121.968C15.7753 121.978 15.7963 121.983 15.8177 121.983C15.839 121.983 15.8601 121.978 15.8792 121.968L16.2452 121.755C16.2842 121.734 16.2872 121.704 16.2452 121.686L15.8612 121.464C15.8421 121.455 15.821 121.45 15.7997 121.45C15.7783 121.45 15.7573 121.455 15.7382 121.464L15.3722 121.677C15.3452 121.695 15.3392 121.728 15.3722 121.746Z" fill="#3A2C6D"/>
<path d="M21.9005 125.517L22.6955 125.976C22.7146 125.986 22.7356 125.99 22.757 125.99C22.7783 125.99 22.7994 125.986 22.8185 125.976L23.1875 125.763C23.2235 125.742 23.2265 125.712 23.1875 125.694L22.3895 125.235C22.3704 125.226 22.3493 125.221 22.328 125.221C22.3066 125.221 22.2856 125.226 22.2665 125.235L21.9005 125.448C21.8765 125.466 21.8735 125.499 21.9005 125.517Z" fill="#3A2C6D"/>
<path d="M21.1023 125.661L21.4863 125.886C21.5054 125.896 21.5264 125.901 21.5478 125.901C21.5691 125.901 21.5902 125.896 21.6093 125.886L21.9753 125.673C22.0113 125.652 22.0173 125.622 21.9753 125.604L21.6003 125.376C21.5814 125.366 21.5603 125.361 21.5388 125.361C21.5173 125.361 21.4962 125.366 21.4773 125.376L21.1113 125.589C21.0723 125.613 21.0693 125.643 21.1023 125.661Z" fill="#3A2C6D"/>
<path d="M20.5561 125.349L20.9401 125.571C20.9592 125.581 20.9802 125.586 21.0016 125.586C21.0229 125.586 21.044 125.581 21.0631 125.571L21.4321 125.358C21.4681 125.337 21.4711 125.307 21.4321 125.289L21.0451 125.067C21.0265 125.058 21.0059 125.053 20.9851 125.053C20.9642 125.053 20.9436 125.058 20.9251 125.067L20.5561 125.28C20.5291 125.298 20.5261 125.331 20.5561 125.349Z" fill="#3A2C6D"/>
<path d="M20.0133 125.034L20.3973 125.256C20.4164 125.266 20.4374 125.271 20.4588 125.271C20.4801 125.271 20.5012 125.266 20.5203 125.256L20.8863 125.046C20.9223 125.025 20.9283 124.992 20.8863 124.974L20.5023 124.752C20.4832 124.743 20.4621 124.738 20.4408 124.738C20.4194 124.738 20.3984 124.743 20.3793 124.752L20.0133 124.962C19.9863 124.983 19.9803 125.016 20.0133 125.034Z" fill="#3A2C6D"/>
<path d="M19.4672 124.719L19.8542 124.941C19.8733 124.951 19.8943 124.956 19.9157 124.956C19.937 124.956 19.9581 124.951 19.9772 124.941L20.3432 124.728C20.3792 124.707 20.3822 124.674 20.3432 124.656L19.9592 124.434C19.9401 124.425 19.919 124.42 19.8977 124.42C19.8763 124.42 19.8553 124.425 19.8362 124.434L19.4672 124.647C19.4402 124.671 19.4372 124.701 19.4672 124.719Z" fill="#3A2C6D"/>
<path d="M18.9244 124.407L19.3084 124.629C19.3275 124.639 19.3485 124.644 19.3699 124.644C19.3912 124.644 19.4123 124.639 19.4314 124.629L19.8004 124.41C19.8364 124.389 19.8394 124.359 19.8004 124.341L19.4164 124.119C19.3973 124.11 19.3762 124.105 19.3549 124.105C19.3335 124.105 19.3125 124.11 19.2934 124.119L18.9274 124.332C18.9004 124.356 18.9004 124.389 18.9244 124.407Z" fill="#3A2C6D"/>
<path d="M18.3815 124.092L18.7655 124.314C18.7847 124.324 18.8057 124.329 18.827 124.329C18.8484 124.329 18.8694 124.324 18.8885 124.314L19.2545 124.104C19.2905 124.083 19.2965 124.05 19.2545 124.032L18.8705 123.81C18.8514 123.801 18.8304 123.796 18.809 123.796C18.7877 123.796 18.7667 123.801 18.7475 123.81L18.3815 124.02C18.3515 124.041 18.3485 124.074 18.3815 124.092Z" fill="#3A2C6D"/>
<path d="M17.8354 123.777L18.2194 123.999C18.2385 124.009 18.2595 124.013 18.2809 124.013C18.3022 124.013 18.3232 124.009 18.3424 123.999L18.7114 123.789C18.7474 123.768 18.7504 123.735 18.7114 123.717L18.3244 123.495C18.3058 123.486 18.2852 123.481 18.2644 123.481C18.2435 123.481 18.2229 123.486 18.2044 123.495L17.8354 123.708C17.8084 123.726 17.8054 123.759 17.8354 123.777Z" fill="#3A2C6D"/>
<path d="M17.2921 123.462L17.6761 123.684C17.6952 123.694 17.7162 123.699 17.7376 123.699C17.7589 123.699 17.78 123.694 17.7991 123.684L18.1651 123.471C18.2011 123.45 18.2071 123.42 18.1651 123.399L17.7811 123.177C17.762 123.168 17.7409 123.163 17.7196 123.163C17.6982 123.163 17.6772 123.168 17.6581 123.177L17.2921 123.39C17.2651 123.414 17.2591 123.444 17.2921 123.462Z" fill="#3A2C6D"/>
<path d="M16.7465 123.15L17.1335 123.372C17.1526 123.382 17.1736 123.387 17.195 123.387C17.2163 123.387 17.2374 123.382 17.2565 123.372L17.6225 123.159C17.6585 123.138 17.6615 123.108 17.6225 123.09L17.2385 122.868C17.2194 122.859 17.1983 122.854 17.177 122.854C17.1556 122.854 17.1346 122.859 17.1155 122.868L16.7465 123.081C16.7195 123.099 16.7165 123.132 16.7465 123.15Z" fill="#3A2C6D"/>
<path d="M16.2003 122.835L16.5843 123.057C16.6034 123.067 16.6244 123.072 16.6458 123.072C16.6671 123.072 16.6882 123.067 16.7073 123.057L17.0763 122.847C17.1123 122.826 17.1153 122.793 17.0763 122.775L16.6893 122.553C16.6702 122.544 16.6491 122.539 16.6278 122.539C16.6064 122.539 16.5854 122.544 16.5663 122.553L16.2003 122.763C16.1763 122.784 16.1733 122.817 16.2003 122.835Z" fill="#3A2C6D"/>
<path d="M15.6604 122.52L16.0444 122.742C16.0635 122.752 16.0845 122.757 16.1059 122.757C16.1272 122.757 16.1482 122.752 16.1674 122.742L16.5334 122.529C16.5694 122.508 16.5754 122.475 16.5334 122.457L16.1494 122.235C16.1303 122.226 16.1092 122.221 16.0879 122.221C16.0665 122.221 16.0455 122.226 16.0264 122.235L15.6604 122.448C15.6304 122.472 15.6274 122.502 15.6604 122.52Z" fill="#3A2C6D"/>
<path d="M14.4422 121.818L15.5012 122.418C15.5198 122.428 15.5403 122.432 15.5612 122.432C15.582 122.432 15.6026 122.428 15.6212 122.418L15.9902 122.205C16.0262 122.184 16.0292 122.154 15.9902 122.136L14.9312 121.536C14.9121 121.527 14.891 121.522 14.8697 121.522C14.8483 121.522 14.8273 121.527 14.8082 121.536L14.4422 121.746C14.4152 121.767 14.4002 121.8 14.4422 121.818Z" fill="#3A2C6D"/>
<path d="M21.6451 125.976L22.1701 126.276C22.1894 126.285 22.2104 126.289 22.2316 126.289C22.2528 126.289 22.2738 126.285 22.2931 126.276L22.6591 126.063C22.6951 126.042 22.7011 126.009 22.6591 125.991L22.1341 125.691C22.115 125.681 22.0939 125.677 22.0726 125.677C22.0512 125.677 22.0302 125.681 22.0111 125.691L21.6451 125.904C21.6181 125.928 21.6001 125.958 21.6451 125.976Z" fill="#3A2C6D"/>
<path d="M25.6353 124.896L16.9023 119.85V112.983L16.9683 112.827L17.0403 112.791C17.1316 112.738 17.235 112.711 17.3403 112.711C17.4457 112.711 17.5491 112.738 17.6403 112.791L25.6323 117.408C25.7239 117.461 25.7999 117.537 25.8526 117.629C25.9052 117.72 25.9328 117.824 25.9323 117.93V124.374C25.8813 124.707 25.8213 124.8 25.6353 124.896Z" fill="#E5E5E5"/>
<path d="M24.8343 118.239L16.9023 113.211V112.983L16.9683 112.827L17.0403 112.791C17.1316 112.738 17.235 112.711 17.3403 112.711C17.4457 112.711 17.5491 112.738 17.6403 112.791L25.6323 117.408C25.7293 117.465 25.8091 117.547 25.8633 117.645L24.8343 118.239Z" fill="#E5E5E5"/>
<path d="M17.1004 112.827L25.5004 117.669C25.5447 117.695 25.5816 117.733 25.6073 117.777C25.6331 117.822 25.6469 117.872 25.6474 117.924V124.896L16.9024 119.85V112.95C16.9018 112.926 16.9073 112.903 16.9185 112.882C16.9297 112.862 16.9461 112.844 16.9661 112.832C16.9861 112.819 17.0091 112.812 17.0326 112.811C17.0562 112.811 17.0795 112.816 17.1004 112.827Z" fill="#DCEEFF"/>
<path d="M17.1004 112.827L25.5004 117.669C25.5447 117.695 25.5816 117.733 25.6073 117.777C25.6331 117.822 25.6469 117.872 25.6474 117.924V124.896L16.9024 119.85V112.95C16.9018 112.926 16.9073 112.903 16.9185 112.882C16.9297 112.862 16.9461 112.844 16.9661 112.832C16.9861 112.819 17.0091 112.812 17.0326 112.811C17.0562 112.811 17.0795 112.816 17.1004 112.827Z" fill="#F4F4F4"/>
<path d="M25.6353 124.893V124.647L16.9023 119.601V119.85L25.6353 124.893Z" fill="#DBDBDB"/>
<path d="M17.1274 119.484V113.187L17.2354 113.25V119.433L17.1274 119.484Z" fill="#1E3779"/>
<path d="M17.2354 113.25V119.433L25.3564 124.11V117.939L17.2354 113.25Z" fill="#3A2C6D"/>
<path d="M17.1274 119.484L25.3564 124.233V124.11L17.2354 119.433L17.1274 119.484Z" fill="#031F60"/>
<path d="M7.72213 111.735C7.51513 112.251 8.04313 112.887 9.45013 113.328C10.8571 113.769 10.9861 113.202 10.9861 113.202C11.924 113.622 12.8383 114.093 13.7251 114.612C14.5681 115.212 14.9431 116.913 15.0571 119.799C15.1891 123.141 15.2011 128.097 15.0901 128.952C15.0901 128.952 13.5091 130.524 11.4901 130.359C9.47113 130.194 6.06613 128.4 5.24113 127.023C5.26213 124.095 5.60713 123.618 5.13313 121.923C4.04713 118.062 3.47413 116.478 4.00213 113.913C4.43713 111.798 5.04613 111.534 5.88313 111.555C6.49889 111.582 7.11275 111.643 7.72213 111.735Z" fill="#F4F4F4"/>
<path d="M18.3811 123.381C16.7251 123.798 16.3351 122.754 16.1161 121.881C15.6001 119.79 15.3001 117.9 14.9101 116.7C14.4481 115.296 13.9621 115.071 13.2781 114.798C12.4771 114.477 11.7781 115.155 12.0571 116.94C12.3721 119.055 12.7861 120.54 13.5751 123.039C13.7821 123.693 14.2441 124.854 14.9371 125.415C15.7951 126.105 17.0821 126.075 19.0351 125.592C19.8661 125.385 20.7781 124.887 22.3351 124.152C22.7581 123.957 23.0881 123.825 23.8981 123.447C24.7115 123.081 25.4246 122.524 25.9771 121.824C26.4031 121.209 26.4601 120.924 26.3731 120.78C26.2861 120.636 26.0731 120.642 25.8451 120.9C25.515 121.338 25.1085 121.713 24.6451 122.007C24.6451 122.007 25.1671 121.464 25.4521 121.107C25.7137 120.8 25.9317 120.459 26.1001 120.093C26.2501 119.736 25.9411 119.247 25.7071 119.493C25.4731 119.739 25.3591 120.012 24.9301 120.525C24.7045 120.799 24.4466 121.045 24.1621 121.257C24.4286 120.898 24.6654 120.518 24.8701 120.12C25.054 119.808 25.1436 119.45 25.1281 119.088C25.1281 118.902 24.8521 118.68 24.6031 119.034C24.3541 119.388 24.2341 119.853 23.7031 120.396C23.3251 120.789 23.0041 121.014 22.9921 120.906C22.9801 120.798 23.2231 120.579 23.3581 120.123C23.4931 119.667 23.3581 119.181 23.1031 119.127C22.8481 119.073 22.8991 119.088 22.6981 119.517C22.4971 119.946 22.2001 120.27 21.9511 120.9C21.8249 121.342 21.5909 121.745 21.2701 122.073C20.8621 122.505 19.9591 123 18.3811 123.381Z" fill="#FFCEA9"/>
<path d="M12.6659 114.519C13.7729 114.354 14.5559 114.852 15.0449 116.532C15.5339 118.212 15.8759 119.589 15.8759 119.589C15.4369 120.222 14.7726 120.663 14.0189 120.822C12.6959 121.14 12.2189 120.507 12.2189 120.507C12.2189 120.507 11.8499 118.749 11.6189 117.552C11.3879 116.355 11.2949 114.72 12.6659 114.519Z" fill="#EDEDED"/>
<path d="M13.2003 105.924C13.2003 105.924 14.9493 103.263 11.1573 102.723C8.42131 102.33 6.65731 104.088 6.46231 105.996C6.26731 107.817 7.38931 109.71 8.19931 110.46C8.59531 110.601 9.44431 110.682 10.5633 110.175C10.6087 109.676 10.6258 109.176 10.6143 108.675C10.6143 108.675 9.30031 105.876 13.2003 105.924Z" fill="#3A2C6D"/>
<path d="M20.802 139.593V131.601L14.457 135.306L16.902 140.361L20.802 139.593Z" fill="#C4C7D6"/>
<path d="M16.644 132.063L19.08 130.65L20.802 131.643L18.276 133.077L16.644 132.063Z" fill="#D6D8E5"/>
</g>
<defs>
<clipPath id="clip0">
<rect width="131.571" height="150" fill="white"/>
</clipPath>
</defs>
</svg>
