<svg width="467" height="485" viewBox="0 0 467 485" fill="none" xmlns="http://www.w3.org/2000/svg">
<g clip-path="url(#clip0)">
<path opacity="0.4" d="M288 383.5L229.79 349.89C225.59 347.47 226.12 343.23 230.97 340.44L268.68 318.66L342.12 361L304.41 382.78C299.57 385.62 292.24 385.92 288 383.5Z" fill="#D6D8E5"/>
<path d="M292.29 381L234.08 347.39C229.88 344.97 230.41 340.73 235.26 337.94L273 316.16L346.4 358.54L308.69 380.32C303.82 383.12 296.49 383.42 292.29 381Z" fill="#B1B4C4"/>
<path d="M346.38 358.55V356.32L342.99 358.28L346.38 358.55Z" fill="#B1B4C4"/>
<path d="M231.25 343.38V341.13L234.73 342.57L231.25 343.38Z" fill="#B1B4C4"/>
<path d="M292.29 378.77L234.08 345.17C229.88 342.74 230.41 338.51 235.26 335.71L273 313.94L346.4 356.32L308.69 378.09C303.82 380.89 296.49 381.2 292.29 378.77Z" fill="#D6D8E5"/>
<path d="M273.17 314.04L264.08 283.9L338.29 326.46L346.38 356.32L273.17 314.04Z" fill="#9EA1AF"/>
<path d="M344.22 357.56L346.37 356.32L343.18 353.77L344.22 357.56Z" fill="#9EA1AF"/>
<path d="M270.82 315.17L261.74 285.03L335.95 327.6L344.22 357.56L270.82 315.17Z" fill="#B1B4C4"/>
<path d="M459.2 408.36L172 242.52C168 240.2 164.7 233.95 164.7 228.58V6.39004C164.7 1.02004 167.97 -1.44996 172 0.880041L459.2 166.72C463.2 169.04 466.5 175.28 466.5 180.65V402.85C466.5 408.22 463.23 410.69 459.2 408.36Z" fill="#C4C7D6"/>
<path d="M460.68 410.65L463.86 408.82L462.49 399.38L460.68 410.65Z" fill="#C4C7D6"/>
<path d="M164.15 2.23994L167.28 0.439941L171.78 2.99994C171.78 2.99994 166.99 3.72994 166.87 3.70994C166.75 3.68994 164.15 2.23994 164.15 2.23994Z" fill="#B1B4C4"/>
<path d="M456.57 409.88L169.32 244C165.32 241.68 162.03 235.44 162.03 230.06V7.91006C162.03 2.54006 165.3 0.070061 169.32 2.40006L456.57 168.24C460.57 170.56 463.86 176.8 463.86 182.18V404.37C463.86 409.74 460.6 412.21 456.57 409.88Z" fill="#E4E7F2"/>
<path d="M456.06 410.358L168.82 244.518C164.82 242.188 161.52 235.948 161.52 230.578V8.3876C161.52 3.0176 164.79 0.5476 168.82 2.8776L456.06 168.718C460.06 171.038 463.36 177.278 463.36 182.648V404.848C463.36 410.188 460.09 412.688 456.06 410.358Z" fill="#D6D8E5"/>
<path d="M459.41 396.66L165.17 226.78L165.32 9.09011C165.32 6.86011 166.89 5.96011 168.82 7.09011L456.06 172.91C457.078 173.575 457.925 174.47 458.533 175.523C459.141 176.575 459.493 177.756 459.56 178.97L459.41 396.66Z" fill="white"/>
<path d="M252.962 121.519L182.038 80.6135C180.809 79.7308 179.804 78.5741 179.104 77.2356C178.403 75.8971 178.025 74.4139 178 72.904V32.5246C178 29.5574 179.806 28.2062 182.038 29.4779L252.962 70.4094C254.193 71.2836 255.2 72.4347 255.902 73.7696C256.603 75.1044 256.98 76.5854 257 78.0924V118.472C257 121.386 255.194 122.817 252.962 121.519Z" fill="#CD0D5E"/>
<path d="M346.962 177.519L276.038 136.613C274.809 135.731 273.804 134.574 273.104 133.236C272.403 131.897 272.025 130.414 272 128.904V88.5246C272 85.5574 273.806 84.2062 276.038 85.4779L346.962 126.409C348.193 127.284 349.2 128.435 349.902 129.77C350.603 131.104 350.98 132.585 351 134.092V174.472C351 177.386 349.194 178.817 346.962 177.519Z" fill="#1A89D9"/>
<path d="M440.962 230.519L370.038 189.613C368.809 188.731 367.804 187.574 367.104 186.236C366.403 184.897 366.025 183.414 366 181.904V141.525C366 138.557 367.806 137.206 370.038 138.478L440.962 179.409C442.193 180.284 443.2 181.435 443.902 182.77C444.603 184.104 444.98 185.585 445 187.092V227.472C445 230.386 443.194 231.817 440.962 230.519Z" fill="#75FF44"/>
<path d="M252.962 183.519L182.038 142.613C180.809 141.731 179.804 140.574 179.104 139.236C178.403 137.897 178.025 136.414 178 134.904V94.5246C178 91.5574 179.806 90.2062 182.038 91.4779L252.962 132.409C254.193 133.284 255.2 134.435 255.902 135.77C256.603 137.104 256.98 138.585 257 140.092V180.472C257 183.386 255.194 184.817 252.962 183.519Z" fill="#E9EAF2"/>
<path d="M346.962 239.519L276.038 198.613C274.809 197.731 273.804 196.574 273.104 195.236C272.403 193.897 272.025 192.414 272 190.904V150.525C272 147.557 273.806 146.206 276.038 147.478L346.962 188.409C348.193 189.284 349.2 190.435 349.902 191.77C350.603 193.104 350.98 194.585 351 196.092V236.472C351 239.386 349.194 240.817 346.962 239.519Z" fill="#E9EAF2"/>
<path d="M440.962 292.519L370.038 251.613C368.809 250.731 367.804 249.574 367.104 248.236C366.403 246.897 366.025 245.414 366 243.904V203.525C366 200.557 367.806 199.206 370.038 200.478L440.962 241.409C442.193 242.284 443.2 243.435 443.902 244.77C444.603 246.104 444.98 247.585 445 249.092V289.472C445 292.386 443.194 293.817 440.962 292.519Z" fill="#E9EAF2"/>
<path d="M280 232.36L180 174.63C179.538 174.297 179.159 173.86 178.895 173.355C178.632 172.85 178.489 172.29 178.48 171.72V164.72C178.48 163.6 179.16 163.08 180 163.57L280 221.31C280.463 221.64 280.842 222.075 281.107 222.578C281.371 223.082 281.512 223.641 281.52 224.21V231.21C281.47 232.33 280.79 232.85 280 232.36Z" fill="#E9EAF2"/>
<path d="M254.27 234L180.4 191.39C179.937 191.06 179.558 190.626 179.294 190.122C179.029 189.618 178.888 189.059 178.88 188.49V185C178.88 183.88 179.56 183.36 180.4 183.85L254.27 226.49C254.733 226.823 255.111 227.26 255.375 227.765C255.639 228.27 255.781 228.83 255.79 229.4V232.87C255.79 234 255.11 234.52 254.27 234Z" fill="#E9EAF2"/>
<path d="M254.27 247.2L180.4 204.55C179.937 204.22 179.558 203.786 179.294 203.282C179.029 202.778 178.888 202.219 178.88 201.65V198.18C178.88 197.06 179.56 196.55 180.4 197.03L254.27 239.67C254.733 240.003 255.111 240.44 255.375 240.945C255.639 241.45 255.781 242.01 255.79 242.58V246.05C255.79 247.17 255.11 247.68 254.27 247.2Z" fill="#E9EAF2"/>
<path d="M240.33 252.32L180.4 217.71C179.937 217.38 179.558 216.946 179.294 216.442C179.029 215.938 178.888 215.379 178.88 214.81V211.34C178.88 210.22 179.56 209.71 180.4 210.19L240.33 244.79C240.793 245.123 241.171 245.56 241.435 246.065C241.699 246.57 241.841 247.13 241.85 247.7V251.17C241.85 252.29 241.17 252.8 240.33 252.32Z" fill="#1A89D9"/>
<path d="M400.52 300.975L300.52 243.245C300.058 242.911 299.679 242.475 299.415 241.97C299.152 241.464 299.009 240.905 299 240.335V233.335C299 232.215 299.68 231.695 300.52 232.185L400.52 289.925C400.983 290.255 401.363 290.689 401.627 291.193C401.891 291.697 402.032 292.256 402.04 292.825V299.825C401.99 300.945 401.31 301.465 400.52 300.975Z" fill="#E9EAF2"/>
<path d="M374.79 302.615L300.92 260.005C300.457 259.675 300.078 259.24 299.814 258.736C299.549 258.232 299.408 257.673 299.4 257.105V253.615C299.4 252.495 300.08 251.975 300.92 252.465L374.79 295.105C375.253 295.438 375.631 295.874 375.895 296.38C376.159 296.885 376.301 297.445 376.31 298.015V301.485C376.31 302.615 375.63 303.135 374.79 302.615Z" fill="#E9EAF2"/>
<path d="M374.79 315.814L300.92 273.164C300.457 272.835 300.078 272.4 299.814 271.896C299.549 271.392 299.408 270.833 299.4 270.264V266.794C299.4 265.674 300.08 265.164 300.92 265.644L374.79 308.284C375.253 308.618 375.631 309.054 375.895 309.559C376.159 310.065 376.301 310.625 376.31 311.194V314.664C376.31 315.784 375.63 316.294 374.79 315.814Z" fill="#E9EAF2"/>
<path d="M360.85 320.935L300.92 286.325C300.457 285.995 300.078 285.56 299.814 285.056C299.549 284.552 299.408 283.993 299.4 283.425V279.955C299.4 278.835 300.08 278.325 300.92 278.805L360.85 313.405C361.313 313.738 361.691 314.174 361.955 314.68C362.219 315.185 362.361 315.745 362.37 316.315V319.785C362.37 320.905 361.69 321.415 360.85 320.935Z" fill="#1A89D9"/>
<path opacity="0.4" d="M100.88 484.9C113.351 484.9 123.46 479.062 123.46 471.86C123.46 464.658 113.351 458.82 100.88 458.82C88.4095 458.82 78.3 464.658 78.3 471.86C78.3 479.062 88.4095 484.9 100.88 484.9Z" fill="#D6D8E5"/>
<path d="M85.0503 384.66C85.0503 384.66 85.6903 394.23 86.9403 395.61C88.1903 396.99 92.4403 397.93 92.4403 397.93L95.7203 403.32C95.7203 403.32 92.7203 386.19 92.0803 385.78C91.4403 385.37 85.0503 384.66 85.0503 384.66Z" fill="#FFCEA9"/>
<path d="M91.3402 374C90.5451 373.629 89.6408 373.564 88.8011 373.819C87.9613 374.074 87.2452 374.63 86.7902 375.38C85.5802 377.38 84.3302 384.22 84.2202 385.38C84.2202 385.38 85.9102 387.72 88.4402 387.38L91.3402 374Z" fill="#EDEDED"/>
<path d="M101 469.61C102.782 470.1 104.686 469.87 106.3 468.97C107.57 468.97 114.5 466.04 115.44 468.53C116.27 470.71 113.27 472.73 111.67 473.12C108.17 473.97 105.58 475.71 104.17 476.01C103.17 476.23 101.77 476.37 100.94 475.55C100 474.56 100.06 470.91 101 469.61Z" fill="#38226D"/>
<path d="M104.21 475.4C105.62 475.11 108.21 473.4 111.71 472.51C113.05 472.19 115.36 470.72 115.6 468.97C115.91 470.97 113.2 472.76 111.71 473.12C108.21 473.97 105.62 475.71 104.21 476.01C103.21 476.23 101.81 476.37 100.98 475.55C100.758 475.313 100.6 475.024 100.52 474.71C101.039 475.104 101.643 475.372 102.284 475.491C102.924 475.611 103.584 475.58 104.21 475.4V475.4Z" fill="#9C73FF"/>
<path d="M90.2503 466.24C92.0321 466.735 93.9375 466.505 95.5503 465.6C96.8303 465.6 103.75 462.68 104.7 465.17C105.52 467.35 102.52 469.37 100.92 469.76C97.4203 470.6 94.8303 472.35 93.4303 472.64C92.3803 472.86 91.0203 473.01 90.1903 472.19C89.1903 471.2 89.2803 467.55 90.2503 466.24Z" fill="#38226D"/>
<path d="M93.4302 472C94.8302 471.7 97.4302 470 100.92 469.11C102.26 468.79 104.58 467.32 104.81 465.56C105.12 467.56 102.41 469.35 100.92 469.72C97.4202 470.56 94.8302 472.31 93.4302 472.6C92.3802 472.82 91.0202 472.97 90.1902 472.15C89.9739 471.909 89.8165 471.622 89.7302 471.31C90.2511 471.704 90.8566 471.972 91.4988 472.092C92.141 472.211 92.8022 472.18 93.4302 472Z" fill="#9C73FF"/>
<path d="M89.4903 446.76C89.7881 444.189 90.3238 441.652 91.0903 439.18C91.0903 439.18 90.6103 432.63 90.3703 426.42C90.1003 419.42 87.6603 413.18 89.5803 407.56L111 412.33C111 412.33 110 440.47 109.67 443.87C109.504 446.519 109.17 449.154 108.67 451.76C107.67 457.21 106.6 469.41 106.6 469.41C104.3 470.75 100.93 469.65 100.93 469.65C100.93 469.65 100.93 454.38 101.06 450.45C101.24 445.65 101.39 446.02 101.39 446.02L100.67 434.07L100.2 428.13C100.2 428.13 99.6003 432.49 99.2003 436.38C98.8603 439.78 98.0403 442.85 97.1203 449.18C96.3303 454.66 95.5103 465.85 95.5103 465.85C93.2103 467.18 90.1103 466.26 90.1103 466.26C90.1103 466.26 88.8703 451.52 89.4903 446.76Z" fill="#CD0D5E"/>
<path d="M92.5003 374.14C94.1503 374.22 95.3803 374.65 95.5903 374.14C95.7685 373.285 95.8954 372.42 95.9703 371.55C95.7803 371.07 95.6103 370.55 95.6103 370.55C93.5303 369.28 92.8803 367.03 92.6103 364.41C92.1503 359.94 94.6103 356.03 99.0303 355.56C103.24 355.12 106.33 358.08 107.16 362.13C107.6 364.13 108.49 367.92 107.29 371.21C106.62 373.06 105.76 374.52 104.9 374.8C104.066 374.784 103.234 374.711 102.41 374.58V374.58C102.41 374.58 102.19 375.82 102.04 376.58C101.89 377.34 101.94 377.79 103.53 378.77C105.12 379.75 101.13 381.77 98.5303 381.56C95.9303 381.35 92.9903 379.79 92.1903 378.11C91.2803 376.3 91.3603 374.08 92.5003 374.14Z" fill="#FFCEA9"/>
<path d="M94.8902 374.39C94.4302 375.53 95.6002 376.93 98.7102 377.9C101.82 378.87 102.09 377.62 102.09 377.62C104.146 378.549 106.149 379.591 108.09 380.74C109.95 382.04 110.78 385.82 111.03 392.19C111.32 399.56 111.35 410.5 111.1 412.39C111.1 412.39 107.62 415.87 103.1 415.5C98.5802 415.13 91.1002 411.18 89.3102 408.13C89.3102 401.67 90.1202 400.62 89.0702 396.89C86.6702 388.36 85.4102 384.89 86.5802 379.21C87.5802 374.54 88.8802 373.96 90.7302 374C92.1228 374.055 93.5115 374.186 94.8902 374.39V374.39Z" fill="#F4F4F4"/>
<path d="M107.23 418.07L105 392.39L109.79 389.85L111.66 391.42L111 414.48V415.12V415.94C111 415.94 111.1 417.88 107.44 420.2C107.44 420.2 107.38 419.59 107.33 419.02L107.24 418.02L107.23 418.07Z" fill="#FFCEA9"/>
<path d="M106.66 379.15C109.13 379.15 110.66 380.41 111.31 384.22C111.96 388.03 112.31 391.15 112.31 391.15C111.172 392.413 109.595 393.193 107.9 393.33C104.9 393.66 104.04 392.14 104.04 392.14C104.04 392.14 103.72 388.19 103.56 385.5C103.4 382.81 103.6 379.21 106.66 379.15Z" fill="#EDEDED"/>
<path d="M107 361.56C107 361.56 110.86 355.69 102.49 354.49C96.4903 353.63 92.5703 357.49 92.1203 361.72C91.6903 365.72 94.1703 369.91 95.9603 371.57C97.718 372.017 99.5792 371.792 101.18 370.94C101.278 369.846 101.315 368.748 101.29 367.65C101.29 367.65 98.3603 361.45 107 361.56Z" fill="#3A2C6D"/>
<path d="M78.5501 109L23.2101 76.9999L23.0001 76.8799C21.4401 76.0499 19.3301 76.1999 17.0001 77.5399C12.2301 80.2999 8.36011 86.9999 8.36011 92.5399C8.36011 95.3899 9.41011 97.3599 11.0801 98.2099L67.1701 130.58L78.5501 109Z" fill="#091793"/>
<path d="M79.0241 123.329C82.3985 117.485 82.4006 111.168 79.0286 109.222C75.6566 107.275 70.1876 110.435 66.8131 116.279C63.4387 122.124 63.4366 128.44 66.8086 130.387C70.1806 132.334 75.6496 129.174 79.0241 123.329Z" fill="#0C2169"/>
<path d="M97.6401 143.74L68.8101 127.1V115.42L97.6401 132.07V143.74Z" fill="#D6D8E5"/>
<path d="M97.6401 132.09L68.8101 115.45L75.4501 111.61L104.28 128.26L97.6401 132.09Z" fill="#C4C7D6"/>
<path d="M168.195 208.446C185.547 198.428 185.547 165.941 168.194 135.885C150.842 105.829 122.707 89.5857 105.355 99.6041C88.0025 109.623 88.0028 142.109 105.356 172.165C122.708 202.221 150.842 218.465 168.195 208.446Z" fill="url(#paint0_linear)"/>
<path d="M142.84 212.83C113.09 195.65 88.8401 153.72 88.8401 119.36C88.8401 85 113.05 71.03 142.84 88.21C172.63 105.39 196.84 147.32 196.84 181.67C196.84 216.02 172.6 230 142.84 212.83ZM142.84 107.89C122.48 96.13 105.92 105.69 105.92 129.2C105.92 152.71 122.48 181.4 142.84 193.2C163.2 205 179.76 195.39 179.76 171.89C179.76 148.39 163.2 119.64 142.84 107.89V107.89Z" fill="#0C2169"/>
<path d="M136.78 216.33C107.02 199.15 82.78 157.22 82.78 122.86C82.78 88.5 106.98 74.53 136.78 91.71C166.58 108.89 190.78 150.82 190.78 185.17C190.78 219.52 166.53 233.51 136.78 216.33ZM136.78 111.39C116.42 99.63 99.86 109.19 99.86 132.7C99.86 156.21 116.42 184.9 136.78 196.7C157.14 208.5 173.7 198.89 173.7 175.39C173.7 151.89 157.14 123.14 136.78 111.39V111.39Z" fill="#091793"/>
</g>
<defs>
<linearGradient id="paint0_linear" x1="186.467" y1="182.709" x2="87.0869" y2="125.329" gradientUnits="userSpaceOnUse">
<stop stop-color="white" stop-opacity="0.4"/>
<stop offset="0.89" stop-color="white" stop-opacity="0"/>
</linearGradient>
<clipPath id="clip0">
<rect width="466.5" height="484.89" fill="white"/>
</clipPath>
</defs>
</svg>
