<svg width="15" height="14" viewBox="0 0 15 14" xmlns="http://www.w3.org/2000/svg">
<path d="M14.2596 4.81253C14.2596 7.47039 12.1455 9.625 9.53765 9.625C9.23663 9.625 8.94231 9.59596 8.65692 9.54108L8.01269 10.2797C7.95228 10.349 7.87816 10.4045 7.79521 10.4424C7.71226 10.4804 7.62236 10.5 7.53143 10.5H6.53275V11.5938C6.53275 11.9562 6.24447 12.25 5.88885 12.25H4.81567V13.3438C4.81567 13.7062 4.52738 14 4.17176 14H1.16686C0.811232 14 0.522949 13.7062 0.522949 13.3438V11.2093C0.522949 11.0353 0.590801 10.8683 0.711534 10.7453L5.0526 6.321C4.89905 5.84648 4.81567 5.33944 4.81567 4.8125C4.81567 2.15463 6.92975 2.7344e-05 9.53763 2.61203e-10C12.1532 -2.73435e-05 14.2596 2.14679 14.2596 4.81253ZM9.53765 3.5C9.53765 4.22488 10.1142 4.8125 10.8255 4.8125C11.5367 4.8125 12.1133 4.22488 12.1133 3.5C12.1133 2.77512 11.5367 2.1875 10.8255 2.1875C10.1142 2.1875 9.53765 2.77512 9.53765 3.5Z" />
</svg>
