<svg width="385" height="500" viewBox="0 0 385 500" fill="none" xmlns="http://www.w3.org/2000/svg">
<g clip-path="url(#clip0)">
<path opacity="0.4" d="M228.17 397.27L181.09 370.09C178.9 368.82 179.17 366.61 181.71 365.15L227.55 338.68C230.09 337.22 233.92 337.06 236.11 338.32L283.18 365.5C285.38 366.77 285.1 368.98 282.57 370.44L236.72 396.91C234.19 398.38 230.36 398.53 228.17 397.27Z" fill="#D6D8E5"/>
<path opacity="0.4" d="M207.39 381.01V381.02L88.4699 449.67L19.8799 489.27L21.3999 490.15L89.9899 450.54L208.9 381.89L207.39 381.01Z" fill="#D6D8E5"/>
<path d="M288 362.37L285.68 363.08L239.45 336.38C237.26 335.12 233.45 335.28 230.9 336.74L185.05 363.21L184.94 363.28L182.94 362.67V365.67C182.94 365.78 182.94 365.89 182.94 366.01V366.25C183.023 366.649 183.195 367.024 183.445 367.346C183.694 367.669 184.014 367.93 184.38 368.11L231.46 395.29C233.65 396.55 237.46 396.4 240.02 394.93L286 368.5C286.534 368.261 287.003 367.896 287.365 367.436C287.727 366.976 287.973 366.435 288.08 365.86L288 362.37Z" fill="#D5D6E0"/>
<path d="M231.55 392.14L184.47 365C182.28 363.74 182.56 361.53 185.09 360.07L230.94 333.6C233.47 332.13 237.3 331.97 239.49 333.24L286.57 360.42C288.76 361.69 288.49 363.9 285.95 365.36L240.11 391.83C237.57 393.25 233.74 393.41 231.55 392.14Z" fill="#E9EAF4"/>
<path d="M255.38 360.25V356.25L249.68 357.75L237 350.4C236.487 350.167 235.926 350.058 235.363 350.082C234.8 350.106 234.251 350.263 233.76 350.54L221.43 357.66L215.6 356.12V360.43V361.43C215.595 361.47 215.595 361.51 215.6 361.55V361.65C215.631 361.801 215.697 361.943 215.793 362.065C215.888 362.186 216.01 362.284 216.15 362.35L234 372.74C234.513 372.972 235.073 373.082 235.635 373.059C236.198 373.037 236.747 372.883 237.24 372.61L254.62 362.61C254.821 362.519 254.998 362.381 255.134 362.206C255.27 362.032 255.361 361.827 255.4 361.61V360.29L255.38 360.25Z" fill="#D5D6E0"/>
<path d="M234 367.33L216.13 357C215.3 356.52 215.4 355.68 216.36 355.13L233.74 345.13C234.234 344.852 234.787 344.695 235.354 344.672C235.921 344.649 236.485 344.762 237 345L254.84 355.3C255.67 355.78 255.57 356.62 254.61 357.18L237.23 367.18C236.74 367.454 236.193 367.611 235.633 367.637C235.072 367.663 234.513 367.558 234 367.33Z" fill="#E9EAF4"/>
<path d="M235.48 356.16L129.08 260.92L342.17 256.93L235.48 356.16Z" fill="url(#paint0_linear)"/>
<path d="M233.41 302.64C316.982 302.64 384.73 234.892 384.73 151.32C384.73 67.7483 316.982 0 233.41 0C149.838 0 82.0898 67.7483 82.0898 151.32C82.0898 234.892 149.838 302.64 233.41 302.64Z" fill="#E9EAF4"/>
<path d="M193.61 61.31L194.12 59.52V55.64C193.399 55.7265 192.671 55.7265 191.95 55.64C191.57 55.47 191.83 54.41 191.83 54.41L193.61 52.88L190.04 53.64L188.76 55.64L184.76 58.11L186.55 59.11L187.7 59.87L189.42 60.13V59C189.42 59 191.42 58.49 191.91 59.25L191.66 60.66L193.61 61.31ZM149.39 116.56C148.874 116.328 148.316 116.208 147.75 116.208C147.185 116.208 146.626 116.328 146.11 116.56C146.119 117.258 145.857 117.932 145.38 118.44C144.903 118.949 144.247 119.254 143.55 119.29L146.47 120.92L149.39 119.83L153.21 118.56L156.48 120.92C158.94 117.92 156.48 116.19 156.48 116.19L149.39 116.56ZM211.49 172.19L208.66 171.59L203.74 168.46H199.42L195.69 166.53H194.2C194.2 166.53 194.5 164.44 194.05 164.29C193.6 164.14 190.33 162.2 190.33 162.2L187.79 163.1V161.31L186 160.56H184.51L184.66 159.07C184.66 159.07 186 156.42 185.26 155.96C184.52 155.5 181.83 149.53 181.83 149.53L177.83 147.29H173.51L169.78 143.72L166.06 140.72L163.97 136.55L161.73 135.06C161.73 135.06 159.2 136.7 158.6 136.55C158 136.4 154.28 135.06 154.28 135.06L151.15 134.17L147.24 136V140L145.75 139V137.5L147.09 134.97L147.69 133.18L146.35 132.59L144.56 134.67L140.09 136L139.19 137.94L137.1 139.88L136.51 141.52L133.23 138.84C132.124 139.419 130.978 139.917 129.8 140.33C128.592 139.688 127.444 138.939 126.37 138.09L124.73 134.96L125.63 130.79L126.37 126.46L123.54 124.67H119.66L116.66 123.78L118.06 121.54L119.7 118.26L121.19 115.88C121.19 115.88 121.61 114.79 122.09 114.54C123.99 113.54 122.09 112.6 122.09 112.6C122.09 112.6 118.09 112.3 117.47 112.6C116.85 112.9 115.23 113.79 115.23 113.79V117.22L112.23 118.56L107.61 119.56L104.48 116.42C104.03 115.98 102.99 111.06 102.99 111.06L104.92 109.27L105.82 107.78L105.97 104.2L107.9 102.56L108.65 100.62L110.87 99L113 97.05L114.94 96.46L117.62 97.05C117.77 96.05 122.69 96.46 122.69 96.46L124.63 96.36L124.48 95.27C125.38 94.52 128.36 95.27 128.36 95.27L132.36 94.93C133.24 95.12 133.98 96.93 133.98 96.93L132.19 98.57L133.39 102.14L134.58 103.78L134.13 105.42L137 105L137.14 102.16L137.29 98.73L136.85 94.97L139.53 89.19L150.41 82.19L150.26 79.65L151 76L152.94 76.67L156.37 72.6L160.84 71.12L163.52 69.3L164.86 66.61L169.78 65.12L174.7 62.59L172.44 65L172.14 67.09L174.82 66.49L177.21 65.15L179.29 64.56L181.23 63.96L181.83 62.62H180.49L178.4 61.87C177.06 60.87 175.4 59.64 175.4 59.64C175.369 59.3964 175.392 59.149 175.469 58.9155C175.545 58.6821 175.672 58.4684 175.84 58.29L177.19 57.08C177.19 57.08 177.78 56.36 177.34 56.36C176.9 56.36 173.61 55.64 173.61 55.64L170.03 57.08H168L170.54 54.87H173.37L176.5 54.12H183L186.58 53.37L189.13 52L192.26 51.68L193.16 48.33L191.07 46.54L188.07 44.99L187.47 41.47L185.83 37.89H184.34L184.19 39.83H181.81L181.21 41.02L180.32 41.62L178.83 41.92L177.48 40.57L179.27 38.64L177.19 36.7L174.65 35.36H172L170.06 35.95L167.38 39.08L165.29 40.87L165.89 42.51L165.13 45L165.58 46L163.04 46.9L160.21 47.49L159.02 47.19L158.12 48.39L159.76 51.74L158.12 52.86H155.89L154 50.43L153.55 49.05L154.89 48.31L153.89 46.52L150.76 46.37L146.59 43.78H144.65L144.2 42.19L142.86 41.6L144.8 39.36L147.63 37.72L152.55 35.93L154.34 35.34L158.21 34.44L160.81 33L163.19 30.91H166.32L170.05 29.97H172.44L173.44 27.19H168.67L166.88 28.56H163.75C163.086 27.904 162.262 27.4319 161.36 27.19V26.09L163 24.6L165.13 23C165.875 22.0485 166.478 20.9942 166.92 19.87L171.24 21.36L174.51 21.19L176.76 21.06L179.59 21.21L181.23 21.81C180.78 23 179 22.11 179 22.11L173.63 22.7L171.24 24L171.99 22.36L169.45 22.51L166.45 24.44L168.54 25.49H173.46L176.14 26.49L178.38 25.6L180.76 26.49L183.6 27.39L180.17 28.46L177.17 29.87L174.17 30.52L171.79 31.41L172.79 33.5L179.05 33.35L183 35.78H186.28L186.43 34.44L187.17 33.1L188.67 32.8L187.47 31.16L187.03 29.92H188.81L190.31 31.01C191.5 31.91 194.03 29.92 194.03 29.92L197.76 28.51L193.14 27.14L191.65 25.65C192.09 24.75 186.73 23.41 186.73 23.41L182.55 20.88L181.55 19.83H178L180.83 18.64L187.83 19.38L191.41 18.64L199.61 16.55L205.12 15.21L209.12 13.72L204.49 13C204.49 13 201.21 13.9 200.76 13.9C200.31 13.9 196.44 14.2 195.99 14.2H185.55L182.28 14.94L185.28 15.69L183.49 16.69H180.36L178.57 17.29L180.95 15.5L178.42 14.9L175.29 15.65L171.41 17.88L173.2 18.48L175.74 17.48L177.82 17.92L175.59 18.52L174.69 19.71L176.18 20.16L172.18 20.46L165.18 19.27L162.35 22.69L156.68 26.69L158.17 27.88L157.17 28.51L155.83 29.22L151.95 28.51L146.59 29.92L136.75 32.35L103.86 64L90.7401 81.1L83.1401 126.72L96.5501 122.25L98.6401 124.48L102.22 125.08L104.61 126.57L107.14 125.57L109.23 127.66L113.85 130.19L118.32 130.79L119.66 135.26C119.66 135.26 122.79 138.09 122.66 138.69C122.53 139.29 123.66 141.97 124.3 141.97C125.792 142.503 127.24 143.152 128.63 143.91L131.16 144.2L132.16 141.97H134.4V144.2L135.3 145.4L135.59 148.82L136.49 151.36L135 153L132.61 156L129.61 160.15L129.91 164.15L129.16 166.83L131.4 167.58L129.46 170.26C129.856 171.384 130.19 172.529 130.46 173.69C130.923 174.969 131.471 176.215 132.1 177.42L134.19 179.21L135.09 182.21L140.16 192.64L143.73 195.64L148.95 198.32C148.95 198.32 152.23 201.9 152.38 202.32C152.53 202.74 154.17 209.32 154.17 209.32L154.1 213L155.1 216.87L155.4 221.2L155.85 227.2L157.34 231.97L158.68 238.23L157.04 240.32L158.04 243.41L159.24 247.92L161.32 250.16L161.18 253.74L161.62 257.31L170.87 267.15L172.65 269.09V264.47L175.65 262.74V260L172.65 258.66V256.57L174.12 255.23L175.6 252.84V250.9C176.83 250.46 175.6 249.11 175.6 249.11H173.55L173.4 247.18H175.34L176.14 248.37L177.72 247.18L176.53 244.79C176.83 244.05 178.92 244.79 178.92 244.79L182.49 242.7L183.98 240.92V238.53L182.28 237L180.78 234.61H182.57C182.57 234.61 185.26 235.96 186.15 234.61C187.04 233.26 188.39 231.48 188.39 231.48L190.03 227.61C190.03 227.61 193.16 221.94 193.46 221.49C193.76 221.04 193.46 215.49 193.46 215.49L198.38 211.49H201.66L204.34 207.01L206.43 204.07V199.07L207.17 194.3L206 189.64L210.17 184.12L213.3 181.12L212.11 175.61L211.49 172.19ZM244.71 55.05L245.71 55.64L247.07 54.46H249L250.78 53.86L251.58 52.76L251.2 51.24L251.96 50.43C252.05 49.2 250.1 48.31 250.1 48.31H249L247.64 49.88H246.2L245.69 51.66L245.9 53L244.71 53.74V55.05ZM253.71 43.78L252.19 44.46V46.75L252.36 47.34C252.472 47.8119 252.529 48.295 252.53 48.78L253.63 49.54L254.73 50.22L255.24 51.22C255.24 51.22 255.07 52.22 254.48 52.22L253.12 52.65L253.63 53.58C253.63 53.58 252.63 54.09 252.53 54.51L253.46 55.19L252.61 56.04H250.75V57.04H254.65L256.26 56.04L258.63 56.46C258.63 56.46 260.58 56.04 261 56.04L260.66 55.61L261.26 54.85L262.19 53.75L261 53.27L259.65 52.85L259.82 51.41L258.54 50.41L256.6 49.35L256.43 47.4L256.6 45.71H254.6L254.18 44.86L255.36 43.76L253.71 43.78ZM264.81 51.07V50.43H266.17L266.93 49.88V47.76L267.93 47.25L267.59 45.56L266 45L263.63 45.76V47L262.19 47.17L261.85 48.31L262.85 48.78L261.24 49.71L260.81 50.43L262.17 51.66L264.81 51.07ZM350.21 102.44L355.81 105.44L358.7 104.32L360.62 107.04L365.75 108.17L367.99 109.29L374.24 92.79L372.45 84L344.45 38.18L336.09 32H326L321.51 32.64L320.39 34.89L318 34L316.87 32H314.62L315.62 33L316.43 34.61H312.9V36.6L310.38 36.23L308.85 36L307.99 36.43L308.79 36.92L309.9 37.17L308.9 37.54L307.56 37L305.89 36.44L305.39 35.33L304.16 34.33L302.74 34.14L301.74 32.97L303.92 33.16L305.84 34.02L307.44 34.21C307.44 34.21 308.44 33.96 308.55 34.14C309.315 34.3841 310.102 34.5515 310.9 34.64L312.2 33.64L310 32L306.1 30.85C306.1 30.85 299.55 29.95 299.24 29.97C298.3 29.7336 297.372 29.4499 296.46 29.12L294.18 28.56H289.18L281.58 29.97L277.38 32.64L272.38 37.15C272.38 37.15 268.06 37.77 267.81 37.83C267.101 38.4207 266.433 39.0589 265.81 39.74L266.81 41.91L266.56 42.91L267.24 43.46L267.74 44.46L268.42 45.46L270.95 45.09L273.67 43.55L275.77 44.66L277.38 47.44L277.68 49.11L279.6 49.48L280.9 48.37L282.26 48.06L283 45.83L283.12 44.1L284.98 43.55V42.41L284.3 41.92L283.43 41.36L283.12 39.36L285.95 37.57C285.95 37.57 287.45 36.21 287.45 35.97C287.45 35.73 288.19 34.91 288.19 34.91C288.19 34.91 289.37 34.98 289.74 35.04C290.11 35.1 292.08 35.78 292.08 35.78L292.83 36.34L290.54 37.45L289.19 38.81L288.19 39.49L289.12 41.65L291.53 42.89L293.69 42.45L297.12 42.28C297.12 42.28 301.05 43.07 301.23 43.2C301.41 43.33 300.1 43.75 300.1 43.75L298.57 44.18L297.71 44.74L296.25 44C295.662 43.5878 294.968 43.352 294.25 43.32C293.645 43.4376 293.074 43.6906 292.58 44.06L293.51 45.48L294.8 46.35C294.8 46.35 294.25 47.95 293.88 47.89C293.51 47.83 292.88 46.72 292.88 46.72L291.45 46.16L290.53 46.72L290.65 48.08L290.25 50L288.71 51L287.59 51.87L286.11 51L284.2 51.56L280.86 51.37L280.12 52.05L278.94 51.56C278.94 51.56 276.04 51.68 275.85 51.74C275.187 51.5169 274.547 51.2289 273.94 50.88L273.2 49.21L274.12 48.1L273.69 47.6L273.32 46.68L273.94 45.93L273.01 45.69L271.47 47.23L271.4 48.72C271.4 48.72 272.21 50.14 272.27 50.32C272.316 50.7517 272.336 51.1858 272.33 51.62L270.79 52.24L269.12 52.73L269.43 53.35L271.16 53.66L270.6 54.66L269.6 54.72L269.11 55.96L268.8 56.64L267.44 56.27L267.5 55.4L267.56 54.29L267.01 53.73L266.2 54.6L265.34 55.71L263.34 56.08L262.41 56.82L261.79 58.18L260.31 58.86L259.14 59.6L257.34 58.68L257.1 59.11L257.47 60.03L257.04 60.53L254.69 60.34L253.39 60.16L253.2 61.89L255.49 62.26L256.6 63.26C256.6 63.26 257.47 64.31 257.65 64.31C257.83 64.31 259.08 64.62 259.08 64.62L258.58 67.34L257.47 69.87L252.83 69.81L247.77 69.69L246.16 70.3L245.66 71.72L246.1 73.21L245.2 76L244.83 77.49C244.832 77.998 244.889 78.5043 245 79C245.13 79.18 245.87 80.48 245.87 80.48L245.31 82.58L246.98 83.08L249.76 83.26L251.24 84.07L252.36 84.25L254.21 83.45L256.99 83.08L259.59 80.91L259.16 78.26L260.76 76.26L264.16 74.1L265.64 73.6L265.46 71.38L267.46 70.2L269.46 70.88L270.82 70.14L275 68.86L279.14 72.7L284.82 76.59C284.82 76.59 286 78.94 286.06 79.12C285.834 79.6889 285.542 80.2293 285.19 80.73H282L280.8 81C280.8 81 281.17 81.92 281.41 81.92C281.65 81.92 284.2 83.1 284.2 83.1L285 83.72L285.43 83.59L285.37 82.42L285.62 81.31L286.48 81.43C286.831 81.0487 287.142 80.6333 287.41 80.19C287.67 79.6424 287.957 79.1084 288.27 78.59L287.59 77.29L287.97 76.42L288.97 76.55L289.09 77.84H289.46L289.34 76.24L288.34 75.62L287 74.73L286.07 73.38L284.46 72.94L282.61 71.64L282.18 70.16L280.45 69.3L280 67.94L280.5 66.52L281.61 66.33L281.67 67.69L282.78 68.06L283.53 67.63L284.64 69.63L286.92 70.92L288.72 71.92L289.83 72.05L291.68 74.05L292.12 76.64L295.58 80.23L296.07 82.76L298.54 84.49L299.22 83.93L298.85 82.33L300.21 81.59L299.78 80.47L298.41 80L297.85 78.89L298.1 77.09L297.3 76.17L298.04 76.29L298.59 76.97L299.46 75.8L300.94 75.86L302.43 76.48L303.54 78L304.65 79.73C304.65 79.73 303.91 80.16 303.85 80.35C303.997 80.8283 304.205 81.2855 304.47 81.71L305.89 83L307 84.56L309.22 84.5L309.47 85.5L311.08 85.68L312.62 85.31L313.06 84.31L313.74 85.24L315.53 85.86L317.07 85.74L318.37 84.31L319.54 84.81L320.41 85.36L320.1 86.6L320.87 89.14L319.75 91.71V95.07H313L310.44 96.07L306.29 94L303.57 94.32L298.92 92.64H295.24L294.12 93.64L294.76 95.4L293.32 96.84L289.63 94.6L286.75 94.92L285.63 93L281.3 91.72L278.3 90.27L276 89.14L278.72 85.94L277.92 83.22L276 82.09L264.62 83.38L260.14 85.14L257.25 85.3L254.25 86.42L250.57 85.62L248.16 88.5L245.28 90.42L242.68 95.87L243.36 98.27L240 101.48L236.64 102.76L235.04 105.76C235.04 105.76 231.51 113.61 231.19 114.25C230.87 114.89 231.19 118.9 231.19 118.9L232.63 123.54L229.27 131.39L230.55 135.24L232.31 138.76L236.96 145.33L236.82 148.63L246.4 155.92L252.82 153.34L259 155.3L266.68 151.14C266.68 151.14 269.25 151.14 270.05 152.58C270.85 154.02 271.33 155.3 274.21 155.3C277.09 155.3 278.54 158.51 278.54 158.51L277.26 162.19L277.9 164.11L276.62 167.11L279.62 173.35L281.86 178.16L283.95 182.81L284.43 188.73L283.95 192.1L280.26 198.51L281.38 208.44L282.66 210.68L282.18 212.28L284.43 214.69L285.87 220.29L284.59 225.58L286.51 229.58C286.51 229.58 288.27 233.91 288.43 234.39C288.59 234.87 289.71 236.47 289.55 237.27C289.39 238.07 288.91 240.16 288.91 240.16L289.55 243.36H297.72L301.57 242.08L311.02 232.47C311.884 231.449 312.685 230.377 313.42 229.26C313.58 228.78 314.86 222.86 314.86 222.86L321.59 220.13V214.9L320.15 210.73L323.67 207.37L333.13 201.92L333.93 197.75V190.55L332.16 185.1L332.64 181.74L331 180.29L334.05 175.81L335.17 169.88L339.65 167.16L340.65 164.43L348.82 155.96L351.39 147.9L353.79 143.45V138.64L351.55 137.84L348.98 139.92L345.46 140.24L341.78 141.24L338.73 139.31L339.05 136.91L335.21 132.59L331.36 130.34L329.6 124.58L325.84 121L325.52 116.52L322.79 112.52L319.43 105L315.9 101.48L315.58 98.59L317.03 99.24L318.63 100.52L319.27 102.92C320.55 102.92 321.03 100.52 321.03 100.52L322.15 102.92L323.27 105.92L326.8 111.21L328.72 111.53L330.96 116.18L330.8 118.26L337.21 124.83L338.33 130.91L339.45 133.64L341.54 135.72L351.15 133.16L352.91 131.55L357.07 130.27V128.35L361.88 125.15L363.88 121.43L365.04 119.54L366.65 117.3L364 113.65L360.3 110.52L359.12 107.52L357.76 107.84L356.76 110.72L353.08 111.72L351.16 110.44L350.52 107.72L349.24 108.04L347.31 104.51L345.55 103.51L343.31 99.83L344.91 98.06L350.21 102.44ZM275.21 78.86L275.55 77.33V75.13C275.204 74.8217 274.777 74.6173 274.32 74.54C273.992 74.5404 273.675 74.6614 273.43 74.88V77.33C273.516 77.8363 273.516 78.3536 273.43 78.86H275.21ZM275.21 72.25C275.229 72.0929 275.21 71.9336 275.156 71.7852C275.101 71.6367 275.012 71.5034 274.896 71.396C274.78 71.2886 274.64 71.2104 274.488 71.1676C274.335 71.1248 274.175 71.1188 274.02 71.15L273.43 72.84L274.02 74.11H275.21V72.25ZM231.51 28.51H237.51L240.78 23.8H248.31L249.52 20.8L254.15 18.35C256.34 16.44 254.15 12.98 254.15 12.98L244.71 11.8L235.33 13L221.69 10.46L213.28 14.28C213.28 14.28 207.23 17.55 206.41 17.28C204.776 17.142 203.134 17.142 201.5 17.28C201.5 17.28 204.5 20 205.86 20.28C206.854 20.4328 207.866 20.4328 208.86 20.28C208.86 20.28 208.86 22.94 209.41 23.55C211.32 25.74 207.41 27.37 207.41 27.37V29.95C207.41 29.95 207.84 34.82 208.65 34.6C209.46 34.38 210.79 37.19 210.79 37.19L213.3 39.92H217.89L223.62 33.1L229.26 30.65L231.51 28.51ZM349.36 191.65L348.62 189.65L347.77 190.49L347.03 192.19L345.34 193.19L344.6 195.42L343.54 198.06L339.41 199.33L337.61 202.4L337.19 207.48L335.71 210L334.02 211.8L334.65 214.8L335.82 216.18L334.65 217.76L335.82 218.76H339.73L341.95 215.48C341.95 215.48 343.75 211.67 343.75 211.35C343.75 211.03 344.6 207.54 344.6 207.54L347.66 203.54V198H349.78L349.15 194.08L349.36 191.65ZM135.75 110.5L131.11 108.92C131.11 108.92 129.82 109.1 128.31 109.46C127.199 109.683 126.114 110.018 125.07 110.46L131.65 112.7H134.31L138.75 116.52H141.75C141.75 116.52 144.2 115.43 143.38 113.52L139.57 112.15L135.75 110.5Z" fill="#1A89D9"/>
<path opacity="0.05" d="M248.12 269C224.548 268.984 201.305 263.465 180.242 252.881C159.179 242.298 140.878 226.942 126.796 208.038C112.715 189.134 103.242 167.203 99.1311 143.992C95.0207 120.781 96.3866 96.9302 103.12 74.34C92.2201 92.7855 85.361 113.335 82.9963 134.63C80.6317 155.924 82.8155 177.478 89.4032 197.866C95.991 218.253 106.833 237.009 121.211 252.894C135.589 268.778 153.176 281.429 172.808 290.009C192.441 298.588 213.671 302.902 235.096 302.663C256.52 302.425 277.649 297.64 297.086 288.626C316.522 279.611 333.824 266.573 347.845 250.372C361.866 234.172 372.288 215.179 378.42 194.65C365.045 217.306 345.991 236.082 323.139 249.121C300.288 262.16 274.43 269.012 248.12 269Z" fill="black"/>
<path opacity="0.4" d="M27.18 500L0 484.45L40.68 461.16L67.86 476.71L27.18 500Z" fill="#D6D8E5"/>
<path d="M27.75 468.65L5.23999 455.65L27.75 442.66L50.26 455.65L27.75 468.65Z" fill="#E9EAF4"/>
<path d="M27.75 494.64L5.23999 481.64V455.65L27.75 468.65V494.64Z" fill="#C5C7D3"/>
<path d="M50.26 481.64L27.75 494.64V468.65L50.26 455.65V481.64Z" fill="#D5D6E0"/>
<path d="M57.9998 473.47C59.9503 474.004 62.0325 473.753 63.7998 472.77C65.1898 472.77 72.7998 469.56 73.7998 472.29C74.6998 474.67 71.4198 476.88 69.6598 477.29C65.8298 478.22 62.9998 480.13 61.4598 480.45C60.3098 480.69 58.8298 480.85 57.9198 479.95C56.8298 478.89 56.9298 474.89 57.9998 473.47Z" fill="#38226D"/>
<path d="M61.4702 479.81C63.0102 479.48 65.8402 477.58 69.6702 476.65C71.1402 476.29 73.6702 474.65 73.9302 472.77C74.2702 474.96 71.3102 476.91 69.6702 477.31C65.8402 478.24 63.0102 480.15 61.4702 480.47C60.3202 480.71 58.8402 480.87 57.9302 479.97C57.6929 479.707 57.5215 479.392 57.4302 479.05C57.9974 479.483 58.6583 479.778 59.3599 479.91C60.0615 480.042 60.7842 480.008 61.4702 479.81Z" fill="#CD0D5E"/>
<path d="M44.33 466.19C46.28 466.73 48.3643 466.478 50.13 465.49C51.52 465.49 59.13 462.28 60.13 465.01C61.04 467.4 57.75 469.61 56 470.01C52.17 470.94 49.34 472.85 47.8 473.17C46.65 473.41 45.17 473.57 44.26 472.67C43.16 471.61 43.26 467.61 44.33 466.19Z" fill="#38226D"/>
<path d="M47.8 472.53C49.34 472.21 52.17 470.3 56 469.37C57.47 469.01 60 467.37 60.26 465.49C60.6 467.69 57.64 469.63 56 470.03C52.17 470.96 49.34 472.87 47.8 473.19C46.65 473.43 45.17 473.59 44.26 472.69C44.0214 472.431 43.8467 472.119 43.75 471.78C44.3211 472.21 44.984 472.501 45.6868 472.631C46.3895 472.761 47.1129 472.727 47.8 472.53Z" fill="#CD0D5E"/>
<path d="M23 456.75C28.91 459.35 34.49 459.75 39.05 457.31L43.76 454.59C44.04 460.67 44.31 466.51 44.31 466.51C44.31 466.51 47.92 469.25 50.73 466.81C50.73 466.81 51.32 458.27 51.92 449.88L56.89 447C56.7785 447.448 56.7181 447.908 56.71 448.37C56.71 449.97 57.85 473.67 57.85 473.67C57.85 473.67 61.49 475.84 64.3 473.4C64.3 473.4 66.19 445.93 66.63 441.54C67.12 436.61 61.63 434.18 58.17 435.44L52.87 437.44C52.98 436.06 53.07 434.99 53.13 434.39C53.62 429.45 48.13 427.02 44.68 428.28C41.52 429.43 20.19 437.43 20.19 437.43C20.3249 439.482 20.5753 441.526 20.94 443.55L12.52 442.84C12 450.76 17.13 454.15 23 456.75ZM37.76 443.1L43.4 439.84C43.3033 440.237 43.2398 440.642 43.21 441.05L37.76 443.1Z" fill="#CD0D5E"/>
<path d="M7.88989 418.79C7.88989 418.79 8.57989 429.28 9.95989 430.79C11.3399 432.3 15.9599 433.33 15.9599 433.33L19.5399 439.23C19.5399 439.23 16.2699 420.49 15.5399 420.04C14.8099 419.59 7.88989 418.79 7.88989 418.79Z" fill="#FFCEA9"/>
<path d="M14.78 407.15C13.9063 406.746 12.9145 406.676 11.9929 406.954C11.0712 407.233 10.2838 407.84 9.78 408.66C8.47 410.84 7.1 418.33 7 419.61C7 419.61 8.85 422.17 11.62 421.74L14.78 407.15Z" fill="#EDEDED"/>
<path d="M16 407.28C17.81 407.37 19.16 407.84 19.38 407.28C19.5789 406.346 19.7192 405.401 19.8 404.45C19.59 403.93 19.41 403.36 19.41 403.36C17.13 401.96 16.41 399.5 16.12 396.64C15.61 391.75 18.25 387.46 23.12 386.95C27.72 386.47 31.12 389.7 32.01 394.14C32.5 396.34 33.47 400.48 32.16 404.08C31.43 406.08 30.48 407.7 29.54 408.01C28.6292 407.986 27.7208 407.906 26.82 407.77C26.82 407.77 26.58 409.13 26.41 410.01C26.24 410.89 26.31 411.34 28.04 412.41C29.77 413.48 25.42 415.68 22.57 415.46C19.72 415.24 16.51 413.53 15.63 411.68C14.71 409.65 14.79 407.22 16 407.28Z" fill="#FFCEA9"/>
<path d="M61.9303 439.35C61.9303 439.607 61.8629 439.86 61.7348 440.082C61.6067 440.305 61.4224 440.491 61.2003 440.62L47.3903 448.62C47.1665 448.748 46.9132 448.815 46.6553 448.815C46.3975 448.815 46.1441 448.748 45.9203 448.62L26.5603 437.42C26.3357 437.293 26.1488 437.108 26.0188 436.885C25.8888 436.662 25.8203 436.408 25.8203 436.15V436L61.9303 439.35Z" fill="#E5E5E5"/>
<path d="M61.2004 440.62L47.3904 448.62C47.1646 448.747 46.9094 448.813 46.6504 448.81V439.37H61.9304C61.9269 439.624 61.8578 439.872 61.7299 440.091C61.602 440.31 61.4196 440.492 61.2004 440.62Z" fill="#E5E5E5"/>
<path d="M47.1702 447.87C47.0182 447.958 46.8457 448.004 46.6702 448.004C46.4946 448.004 46.3222 447.958 46.1702 447.87L26.0002 436.25C25.7402 436.11 25.7402 435.87 26.0002 435.72L40.8102 427.16L61.9102 439.35L47.1702 447.87Z" fill="#F4F4F4"/>
<path d="M34.2803 439.35L34.3803 439.4L40.8303 443.13L44.3703 441.08L44.4703 441.03L37.9203 437.25L34.2803 439.35Z" fill="#BFBFBF"/>
<path d="M34.3804 439.4L40.8304 443.13L44.3704 441.08L37.9204 437.36L34.3804 439.4Z" fill="#E5E5E5"/>
<path d="M56.4604 440L57.3904 440.54C57.4372 440.562 57.4885 440.574 57.5404 440.574C57.5923 440.574 57.6435 440.562 57.6904 440.54L58.5804 440.03C58.6704 440.03 58.6704 439.9 58.5804 439.86L57.6504 439.32C57.6042 439.296 57.5527 439.283 57.5004 439.283C57.4481 439.283 57.3966 439.296 57.3504 439.32L56.4704 439.83C56.4004 439.83 56.3904 439.9 56.4604 440Z" fill="#3A2C6D"/>
<path d="M55.1501 439.19L56.0801 439.73C56.1252 439.752 56.1748 439.764 56.2251 439.764C56.2753 439.764 56.3249 439.752 56.3701 439.73L57.2601 439.22C57.3501 439.17 57.3601 439.09 57.2601 439.05L56.3301 438.51C56.2857 438.486 56.2358 438.473 56.1851 438.473C56.1343 438.473 56.0845 438.486 56.0401 438.51L55.1501 439.02C55.0801 439.07 55.0701 439.14 55.1501 439.19Z" fill="#3A2C6D"/>
<path d="M53.8303 438.43L54.7603 438.97C54.8071 438.992 54.8584 439.004 54.9103 439.004C54.9622 439.004 55.0134 438.992 55.0603 438.97L55.9403 438.46C56.0303 438.41 56.0403 438.33 55.9403 438.29L55.0103 437.75C54.9641 437.726 54.9126 437.713 54.8603 437.713C54.808 437.713 54.7565 437.726 54.7103 437.75L53.8203 438.26C53.7703 438.31 53.7603 438.38 53.8303 438.43Z" fill="#3A2C6D"/>
<path d="M52.5202 437.67L53.4502 438.21C53.4953 438.232 53.5449 438.244 53.5952 438.244C53.6454 438.244 53.695 438.232 53.7402 438.21L54.6302 437.7C54.7202 437.65 54.7302 437.57 54.6302 437.53L53.7002 436.99C53.654 436.966 53.6025 436.953 53.5502 436.953C53.4979 436.953 53.4464 436.966 53.4002 436.99L52.5202 437.5C52.4502 437.55 52.4402 437.62 52.5202 437.67Z" fill="#3A2C6D"/>
<path d="M51.2004 436.91L52.1304 437.45C52.1755 437.472 52.2251 437.484 52.2754 437.484C52.3256 437.484 52.3752 437.472 52.4204 437.45L53.3104 436.94C53.4004 436.89 53.4104 436.81 53.3104 436.77L52.3804 436.23C52.336 436.205 52.2861 436.193 52.2354 436.193C52.1846 436.193 52.1348 436.205 52.0904 436.23L51.2004 436.74C51.1304 436.79 51.1204 436.86 51.2004 436.91Z" fill="#3A2C6D"/>
<path d="M49.8804 436.15L50.8104 436.69C50.8572 436.712 50.9085 436.724 50.9604 436.724C51.0122 436.724 51.0635 436.712 51.1104 436.69L52.0004 436.18C52.0804 436.13 52.0904 436.05 52.0004 436.01L51.0704 435.47C51.0242 435.446 50.9727 435.433 50.9204 435.433C50.8681 435.433 50.8166 435.446 50.7704 435.47L49.8804 435.98C49.8204 436 49.8104 436.1 49.8804 436.15Z" fill="#3A2C6D"/>
<path d="M48.57 435.39L49.5 435.93C49.5451 435.952 49.5947 435.964 49.645 435.964C49.6952 435.964 49.7448 435.952 49.79 435.93L50.68 435.42C50.77 435.42 50.78 435.29 50.68 435.25L49.75 434.71C49.7038 434.686 49.6523 434.673 49.6 434.673C49.5477 434.673 49.4962 434.686 49.45 434.71L48.57 435.22C48.5 435.27 48.49 435.34 48.57 435.39Z" fill="#3A2C6D"/>
<path d="M47.2502 434.63L48.1802 435.17C48.227 435.192 48.2783 435.204 48.3302 435.204C48.382 435.204 48.4333 435.192 48.4802 435.17L49.3602 434.66C49.4502 434.61 49.4602 434.53 49.3602 434.49L48.4302 433.95C48.3858 433.926 48.3359 433.913 48.2852 433.913C48.2344 433.913 48.1846 433.926 48.1402 433.95L47.2502 434.46C47.1802 434.51 47.1702 434.58 47.2502 434.63Z" fill="#3A2C6D"/>
<path d="M45.9302 433.87L46.8602 434.41C46.907 434.432 46.9583 434.444 47.0102 434.444C47.0621 434.444 47.1133 434.432 47.1602 434.41L48.0502 433.9C48.1302 433.85 48.1402 433.77 48.0502 433.73L47.1202 433.19C47.074 433.166 47.0225 433.153 46.9702 433.153C46.9179 433.153 46.8664 433.166 46.8202 433.19L45.9302 433.7C45.8702 433.75 45.8602 433.82 45.9302 433.87Z" fill="#3A2C6D"/>
<path d="M44.6203 433.11L45.5503 433.65C45.5954 433.672 45.645 433.684 45.6953 433.684C45.7455 433.684 45.7951 433.672 45.8403 433.65L46.7303 433.14C46.8203 433.09 46.8303 433.01 46.7303 432.97L45.8003 432.43C45.7551 432.408 45.7055 432.396 45.6553 432.396C45.605 432.396 45.5554 432.408 45.5103 432.43L44.6203 432.95C44.5503 433 44.5403 433.06 44.6203 433.11Z" fill="#3A2C6D"/>
<path d="M43.3 432.35L44.23 432.89C44.2768 432.912 44.3281 432.924 44.38 432.924C44.4319 432.924 44.4831 432.912 44.53 432.89L45.41 432.38C45.5 432.33 45.51 432.25 45.41 432.21L44.48 431.67C44.4348 431.648 44.3852 431.636 44.335 431.636C44.2847 431.636 44.2351 431.648 44.19 431.67L43.3 432.19C43.23 432.23 43.22 432.3 43.3 432.35Z" fill="#3A2C6D"/>
<path d="M42.0002 431.59L42.9302 432.13C42.9771 432.152 43.0283 432.164 43.0802 432.164C43.1321 432.164 43.1833 432.152 43.2302 432.13L44.1202 431.62C44.2002 431.57 44.2102 431.49 44.1202 431.45L43.1902 430.91C43.1433 430.888 43.0921 430.876 43.0402 430.876C42.9883 430.876 42.9371 430.888 42.8902 430.91L42.0102 431.43C41.9202 431.47 41.9102 431.54 42.0002 431.59Z" fill="#3A2C6D"/>
<path d="M40.6701 430.83L41.6001 431.36C41.6445 431.384 41.6944 431.397 41.7451 431.397C41.7958 431.397 41.8457 431.384 41.8901 431.36L42.7801 430.85C42.8701 430.85 42.8801 430.72 42.7801 430.68L41.8501 430.14C41.8049 430.118 41.7553 430.106 41.7051 430.106C41.6548 430.106 41.6052 430.118 41.5601 430.14L40.6701 430.66C40.6001 430.71 40.5901 430.78 40.6701 430.83Z" fill="#3A2C6D"/>
<path d="M38.7201 429.7L40.2801 430.6C40.3263 430.625 40.3778 430.637 40.4301 430.637C40.4824 430.637 40.5339 430.625 40.5801 430.6L41.4601 430.09C41.5501 430.04 41.5601 429.96 41.4601 429.92L39.8901 429.02C39.8457 428.996 39.7958 428.983 39.7451 428.983C39.6944 428.983 39.6445 428.996 39.6001 429.02L38.7101 429.53C38.6501 429.58 38.6401 429.66 38.7201 429.7Z" fill="#3A2C6D"/>
<path d="M53.2404 439.56L54.1704 440.09C54.2148 440.115 54.2647 440.127 54.3154 440.127C54.3661 440.127 54.416 440.115 54.4604 440.09L55.3504 439.58C55.4404 439.53 55.4504 439.45 55.3504 439.41L54.4204 438.87C54.3735 438.848 54.3223 438.836 54.2704 438.836C54.2185 438.836 54.1673 438.848 54.1204 438.87L53.2404 439.39C53.1704 439.44 53.1604 439.51 53.2404 439.56Z" fill="#3A2C6D"/>
<path d="M51.9201 438.8L52.8501 439.33C52.8945 439.355 52.9444 439.367 52.9951 439.367C53.0458 439.367 53.0957 439.355 53.1401 439.33L54.0301 438.82C54.1201 438.77 54.1301 438.69 54.0301 438.65L53.1001 438.11C53.0549 438.088 53.0053 438.076 52.9551 438.076C52.9048 438.076 52.8552 438.088 52.8101 438.11L51.9201 438.63C51.8501 438.68 51.8401 438.75 51.9201 438.8Z" fill="#3A2C6D"/>
<path d="M50.6003 438L51.5303 438.53C51.5747 438.555 51.6245 438.567 51.6753 438.567C51.726 438.567 51.7759 438.555 51.8203 438.53L52.7103 438.02C52.8003 437.97 52.8103 437.89 52.7103 437.85L51.7803 437.31C51.7351 437.288 51.6855 437.276 51.6353 437.276C51.585 437.276 51.5354 437.288 51.4903 437.31L50.6003 437.82C50.5303 437.91 50.5203 438 50.6003 438Z" fill="#3A2C6D"/>
<path d="M49.2799 437.27L50.2099 437.81C50.2568 437.832 50.3081 437.844 50.3599 437.844C50.4118 437.844 50.4631 437.832 50.5099 437.81L51.3899 437.3C51.4799 437.25 51.4899 437.17 51.3899 437.13L50.4599 436.59C50.4155 436.566 50.3657 436.553 50.3149 436.553C50.2642 436.553 50.2143 436.566 50.1699 436.59L49.2799 437.1C49.2099 437.15 49.1999 437.23 49.2799 437.27Z" fill="#3A2C6D"/>
<path d="M48.0002 436.52L48.9302 437.06C48.9771 437.082 49.0284 437.094 49.0802 437.094C49.1321 437.094 49.1834 437.082 49.2302 437.06L50.1102 436.55C50.2002 436.55 50.2102 436.42 50.1102 436.38L49.1802 435.84C49.134 435.816 49.0825 435.803 49.0302 435.803C48.9779 435.803 48.9264 435.816 48.8802 435.84L47.9902 436.35C47.9102 436.4 47.9002 436.47 48.0002 436.52Z" fill="#3A2C6D"/>
<path d="M46.6504 435.76L47.5804 436.29C47.6266 436.315 47.6781 436.327 47.7304 436.327C47.7827 436.327 47.8342 436.315 47.8804 436.29L48.7704 435.78C48.8504 435.78 48.8604 435.65 48.7704 435.61L47.8404 435.07C47.7935 435.048 47.7423 435.036 47.6904 435.036C47.6385 435.036 47.5873 435.048 47.5404 435.07L46.6504 435.59C46.5904 435.64 46.5804 435.71 46.6504 435.76Z" fill="#3A2C6D"/>
<path d="M45.33 435L46.26 435.53C46.3062 435.555 46.3577 435.567 46.41 435.567C46.4623 435.567 46.5138 435.555 46.56 435.53L47.45 435.02C47.54 434.97 47.54 434.89 47.45 434.85L46.52 434.31C46.4731 434.288 46.4219 434.276 46.37 434.276C46.3181 434.276 46.2669 434.288 46.22 434.31L45.34 434.82C45.27 434.88 45.26 435 45.33 435Z" fill="#3A2C6D"/>
<path d="M44.0003 434.23L44.9303 434.77C44.9747 434.795 45.0246 434.807 45.0753 434.807C45.126 434.807 45.1759 434.795 45.2203 434.77L46.1103 434.26C46.2003 434.21 46.2103 434.13 46.1103 434.09L45.1803 433.55C45.1334 433.528 45.0822 433.516 45.0303 433.516C44.9784 433.516 44.9272 433.528 44.8803 433.55L44.0003 434.06C44.0003 434.11 43.9403 434.19 44.0003 434.23Z" fill="#3A2C6D"/>
<path d="M42.7004 433.47L43.6304 434.01C43.6755 434.032 43.7251 434.044 43.7754 434.044C43.8256 434.044 43.8752 434.032 43.9204 434.01L44.8104 433.5C44.9004 433.44 44.9104 433.37 44.8104 433.32L43.8804 432.79C43.836 432.766 43.7861 432.753 43.7354 432.753C43.6846 432.753 43.6348 432.766 43.5904 432.79L42.7004 433.3C42.6304 433.35 42.6204 433.43 42.7004 433.47Z" fill="#3A2C6D"/>
<path d="M41.38 432.71L42.31 433.25C42.3552 433.272 42.4048 433.284 42.455 433.284C42.5053 433.284 42.5549 433.272 42.6 433.25L43.49 432.73C43.58 432.68 43.59 432.61 43.49 432.56L42.56 432.03C42.5156 432.006 42.4658 431.993 42.415 431.993C42.3643 431.993 42.3144 432.006 42.27 432.03L41.38 432.54C41.31 432.59 41.3 432.67 41.38 432.71Z" fill="#3A2C6D"/>
<path d="M40.0601 432L40.9901 432.54C41.037 432.562 41.0882 432.574 41.1401 432.574C41.192 432.574 41.2433 432.562 41.2901 432.54L42.1701 432.02C42.2601 432.02 42.2701 431.9 42.1701 431.85L41.2401 431.31C41.195 431.288 41.1454 431.276 41.0951 431.276C41.0449 431.276 40.9953 431.288 40.9501 431.31L40.0601 431.82C40.0001 431.83 40.0001 431.91 40.0601 432Z" fill="#3A2C6D"/>
<path d="M38.7401 431.19L39.6701 431.73C39.717 431.752 39.7682 431.764 39.8201 431.764C39.872 431.764 39.9232 431.752 39.9701 431.73L40.8501 431.22C40.9401 431.17 40.9501 431.09 40.8501 431.05L39.9201 430.51C39.8732 430.488 39.822 430.476 39.7701 430.476C39.7182 430.476 39.667 430.488 39.6201 430.51L38.7301 431.02C38.6701 431.07 38.6601 431.15 38.7401 431.19Z" fill="#3A2C6D"/>
<path d="M54.5502 440.32L56.1202 441.22C56.1646 441.245 56.2145 441.257 56.2652 441.257C56.3159 441.257 56.3658 441.245 56.4102 441.22L57.3002 440.71C57.3902 440.66 57.4002 440.58 57.3002 440.54L55.7402 439.63C55.6933 439.608 55.6421 439.596 55.5902 439.596C55.5383 439.596 55.4871 439.608 55.4402 439.63L54.5602 440.14C54.4902 440.2 54.4802 440.28 54.5502 440.32Z" fill="#3A2C6D"/>
<path d="M38.6303 429.74L39.5603 430.28C39.6403 430.28 39.6403 430.39 39.5603 430.43L38.6203 430.98C38.578 431 38.532 431.01 38.4853 431.01C38.4387 431.01 38.3926 431 38.3503 430.98L38.2703 430.93C38.2315 430.911 38.1887 430.901 38.1453 430.901C38.1019 430.901 38.0592 430.911 38.0203 430.93L37.0203 431.51C36.9763 431.53 36.9286 431.54 36.8803 431.54C36.8321 431.54 36.7843 431.53 36.7403 431.51L36.1503 431.17C36.0703 431.12 36.0703 431.05 36.1503 431.01L37.0803 430.47L37.2703 430.36L37.4103 430.28L37.5503 430.2L38.3503 429.74C38.3932 429.716 38.4414 429.704 38.4903 429.704C38.5393 429.704 38.5875 429.716 38.6303 429.74Z" fill="#3A2C6D"/>
<path d="M51.36 442.89L52.29 443.43C52.3352 443.452 52.3848 443.464 52.435 443.464C52.4853 443.464 52.5349 443.452 52.58 443.43L53.47 442.91C53.56 442.91 53.57 442.79 53.47 442.74L52.54 442.21C52.4938 442.186 52.4423 442.173 52.39 442.173C52.3377 442.173 52.2862 442.186 52.24 442.21L51.36 442.72C51.29 442.77 51.28 442.85 51.36 442.89Z" fill="#3A2C6D"/>
<path d="M50 442.13L50.93 442.67C50.9762 442.695 51.0277 442.707 51.08 442.707C51.1323 442.707 51.1838 442.695 51.23 442.67L52.12 442.16C52.2 442.16 52.21 442.03 52.12 441.99L51.19 441.45C51.1431 441.428 51.0919 441.416 51.04 441.416C50.9881 441.416 50.9369 441.428 50.89 441.45L50 441.96C50 442 50 442.09 50 442.13Z" fill="#3A2C6D"/>
<path d="M48.7301 441.38L49.6601 441.91C49.7063 441.935 49.7578 441.947 49.8101 441.947C49.8624 441.947 49.9139 441.935 49.9601 441.91L50.8401 441.4C50.9301 441.35 50.9401 441.27 50.8401 441.23L49.9101 440.69C49.865 440.668 49.8154 440.656 49.7651 440.656C49.7149 440.656 49.6653 440.668 49.6201 440.69L48.7301 441.21C48.6601 441.26 48.6501 441.33 48.7301 441.38Z" fill="#3A2C6D"/>
<path d="M37.5504 434.92L38.4804 435.46C38.5273 435.482 38.5785 435.494 38.6304 435.494C38.6823 435.494 38.7335 435.482 38.7804 435.46L39.6604 434.94C39.7504 434.89 39.7604 434.82 39.6604 434.77L38.7304 434.24C38.6842 434.216 38.6327 434.203 38.5804 434.203C38.5281 434.203 38.4766 434.216 38.4304 434.24L37.5404 434.75C37.4804 434.8 37.4804 434.88 37.5504 434.92Z" fill="#3A2C6D"/>
<path d="M36.2404 434.16L37.1704 434.7C37.2148 434.725 37.2647 434.737 37.3154 434.737C37.3661 434.737 37.416 434.725 37.4604 434.7L38.3504 434.19C38.4404 434.14 38.4504 434.06 38.3504 434.02L37.4204 433.48C37.3752 433.458 37.3257 433.446 37.2754 433.446C37.2251 433.446 37.1755 433.458 37.1304 433.48L36.2404 433.99C36.1704 434 36.1604 434.12 36.2404 434.16Z" fill="#3A2C6D"/>
<path d="M34.9303 433.41L35.8603 433.94C35.9047 433.965 35.9546 433.977 36.0053 433.977C36.0561 433.977 36.1059 433.965 36.1503 433.94L37.0403 433.43C37.1303 433.38 37.1403 433.3 37.0403 433.26L36.1103 432.72C36.0635 432.698 36.0122 432.686 35.9603 432.686C35.9084 432.686 35.8572 432.698 35.8103 432.72L34.9303 433.24C34.8603 433.29 34.8503 433.36 34.9303 433.41Z" fill="#3A2C6D"/>
<path d="M33.6103 432.65L34.5403 433.19C34.5872 433.212 34.6385 433.224 34.6903 433.224C34.7422 433.224 34.7935 433.212 34.8403 433.19L35.7303 432.68C35.8103 432.63 35.8203 432.55 35.7303 432.51L34.8003 431.97C34.7541 431.946 34.7026 431.933 34.6503 431.933C34.598 431.933 34.5465 431.946 34.5003 431.97L33.6103 432.48C33.5503 432.53 33.5403 432.6 33.6103 432.65Z" fill="#3A2C6D"/>
<path d="M47.08 440.42L48.35 441.16C48.3952 441.182 48.4448 441.194 48.495 441.194C48.5453 441.194 48.5949 441.182 48.64 441.16L49.53 440.65C49.62 440.6 49.63 440.52 49.53 440.48L48.26 439.75C48.2156 439.726 48.1657 439.713 48.115 439.713C48.0643 439.713 48.0144 439.726 47.97 439.75L47.08 440.26C47 440.3 47 440.38 47.08 440.42Z" fill="#3A2C6D"/>
<path d="M38.8604 435.68L40.1304 436.41C40.1766 436.435 40.2281 436.447 40.2804 436.447C40.3327 436.447 40.3842 436.435 40.4304 436.41L41.3204 435.9C41.4004 435.85 41.4104 435.77 41.3204 435.73L40.0704 435C40.0235 434.978 39.9723 434.966 39.9204 434.966C39.8685 434.966 39.8173 434.978 39.7704 435L38.8904 435.51C38.8004 435.56 38.7904 435.64 38.8604 435.68Z" fill="#3A2C6D"/>
<path d="M40.5102 436.63L46.7002 440.2C46.7446 440.225 46.7945 440.237 46.8452 440.237C46.8959 440.237 46.9458 440.225 46.9902 440.2L47.8802 439.69C47.9702 439.64 47.9802 439.56 47.8802 439.52L41.7002 435.95C41.654 435.926 41.6025 435.913 41.5502 435.913C41.4979 435.913 41.4464 435.926 41.4002 435.95L40.5202 436.46C40.4502 436.51 40.4402 436.59 40.5102 436.63Z" fill="#3A2C6D"/>
<path d="M51.6001 440.09L52.5301 440.62C52.5763 440.645 52.6278 440.657 52.6801 440.657C52.7324 440.657 52.7839 440.645 52.8301 440.62L53.7201 440.11C53.8001 440.06 53.8101 439.98 53.7201 439.94L52.7901 439.4C52.7432 439.378 52.692 439.366 52.6401 439.366C52.5882 439.366 52.537 439.378 52.4901 439.4L51.6001 439.92C51.5401 440 51.5301 440 51.6001 440.09Z" fill="#3A2C6D"/>
<path d="M50.2902 439.33L51.2202 439.87C51.2653 439.892 51.3149 439.904 51.3652 439.904C51.4155 439.904 51.465 439.892 51.5102 439.87L52.4002 439.36C52.4902 439.36 52.5002 439.23 52.4002 439.19L51.4702 438.65C51.4258 438.626 51.3759 438.613 51.3252 438.613C51.2745 438.613 51.2246 438.626 51.1802 438.65L50.2902 439.16C50.2202 439.21 50.2102 439.28 50.2902 439.33Z" fill="#3A2C6D"/>
<path d="M49 438.57L49.93 439.11C49.9769 439.132 50.0281 439.144 50.08 439.144C50.1319 439.144 50.1831 439.132 50.23 439.11L51.12 438.6C51.2 438.55 51.21 438.47 51.12 438.43L50.19 437.89C50.1431 437.868 50.0919 437.856 50.04 437.856C49.9881 437.856 49.9369 437.868 49.89 437.89L49 438.4C48.91 438.45 48.9 438.53 49 438.57Z" fill="#3A2C6D"/>
<path d="M47.6603 437.81L48.5903 438.35C48.6347 438.375 48.6846 438.387 48.7353 438.387C48.786 438.387 48.8359 438.375 48.8803 438.35L49.7703 437.84C49.8603 437.79 49.8703 437.72 49.7703 437.67L48.8403 437.13C48.7952 437.108 48.7456 437.096 48.6953 437.096C48.6451 437.096 48.5955 437.108 48.5503 437.13L47.6603 437.64C47.5903 437.69 47.5803 437.77 47.6603 437.81Z" fill="#3A2C6D"/>
<path d="M46.3403 437.05L47.2703 437.59C47.3172 437.612 47.3684 437.624 47.4203 437.624C47.4722 437.624 47.5234 437.612 47.5703 437.59L48.4603 437.07C48.5403 437.02 48.5503 436.95 48.4603 436.9L47.5303 436.37C47.4841 436.346 47.4326 436.333 47.3803 436.333C47.328 436.333 47.2765 436.346 47.2303 436.37L46.3403 436.88C46.2803 436.93 46.2703 437 46.3403 437.05Z" fill="#3A2C6D"/>
<path d="M45 436.29L45.93 436.83C45.9751 436.852 46.0247 436.864 46.075 436.864C46.1253 436.864 46.1749 436.852 46.22 436.83L47.11 436.31C47.2 436.26 47.21 436.19 47.11 436.14L46.18 435.61C46.1356 435.585 46.0857 435.573 46.035 435.573C45.9843 435.573 45.9344 435.585 45.89 435.61L45 436.12C45 436.17 45 436.25 45 436.29Z" fill="#3A2C6D"/>
<path d="M43.71 435.53L44.64 436.07C44.6868 436.092 44.7381 436.104 44.79 436.104C44.8418 436.104 44.8931 436.092 44.94 436.07L45.83 435.55C45.91 435.5 45.92 435.43 45.83 435.38L44.9 434.85C44.8538 434.826 44.8023 434.813 44.75 434.813C44.6977 434.813 44.6462 434.826 44.6 434.85L43.71 435.36C43.65 435.41 43.64 435.49 43.71 435.53Z" fill="#3A2C6D"/>
<path d="M42.4001 434.77L43.3301 435.31C43.3752 435.332 43.4248 435.344 43.4751 435.344C43.5253 435.344 43.5749 435.332 43.6201 435.31L44.5101 434.8C44.6001 434.75 44.6101 434.67 44.5101 434.62L43.5801 434.09C43.5357 434.066 43.4858 434.053 43.4351 434.053C43.3843 434.053 43.3345 434.066 43.2901 434.09L42.4001 434.6C42.3301 434.65 42.3201 434.73 42.4001 434.77Z" fill="#3A2C6D"/>
<path d="M41.08 434L42.01 434.54C42.0569 434.562 42.1081 434.574 42.16 434.574C42.2119 434.574 42.2631 434.562 42.31 434.54L43.2 434.03C43.28 434.03 43.29 433.9 43.2 433.86L42.27 433.32C42.2238 433.296 42.1723 433.283 42.12 433.283C42.0677 433.283 42.0162 433.296 41.97 433.32L41.08 433.83C41 433.89 41 434 41.08 434Z" fill="#3A2C6D"/>
<path d="M39.7702 433.26L40.7002 433.79C40.7446 433.815 40.7945 433.827 40.8452 433.827C40.8959 433.827 40.9458 433.815 40.9902 433.79L41.8802 433.28C41.9702 433.28 41.9802 433.15 41.8802 433.11L40.9502 432.57C40.905 432.548 40.8554 432.536 40.8052 432.536C40.7549 432.536 40.7053 432.548 40.6602 432.57L39.7702 433.08C39.7002 433.13 39.6902 433.21 39.7702 433.26Z" fill="#3A2C6D"/>
<path d="M38.4502 432.5L39.3802 433.03C39.4264 433.055 39.4779 433.067 39.5302 433.067C39.5825 433.067 39.634 433.055 39.6802 433.03L40.5702 432.52C40.6502 432.47 40.6602 432.39 40.5702 432.35L39.6402 431.81C39.5933 431.788 39.5421 431.776 39.4902 431.776C39.4383 431.776 39.3871 431.788 39.3402 431.81L38.4502 432.32C38.3902 432.38 38.3802 432.45 38.4502 432.5Z" fill="#3A2C6D"/>
<path d="M37.1403 431.74L38.0703 432.27C38.1147 432.295 38.1646 432.307 38.2153 432.307C38.266 432.307 38.3159 432.295 38.3603 432.27L39.2503 431.76C39.3403 431.71 39.3503 431.63 39.2503 431.59L38.3203 431.05C38.2752 431.028 38.2256 431.016 38.1753 431.016C38.125 431.016 38.0754 431.028 38.0303 431.05L37.1403 431.57C37.0703 431.62 37.0603 431.69 37.1403 431.74Z" fill="#3A2C6D"/>
<path d="M52.9201 440.85L54.8401 442C54.8863 442.025 54.9378 442.037 54.9901 442.037C55.0424 442.037 55.0939 442.025 55.1401 442L56.0201 441.49C56.1101 441.44 56.1201 441.37 56.0201 441.32L54.1001 440.21C54.0549 440.188 54.0053 440.176 53.9551 440.176C53.9048 440.176 53.8552 440.188 53.8101 440.21L52.9201 440.73C52.8501 440.73 52.8401 440.8 52.9201 440.85Z" fill="#3A2C6D"/>
<path d="M51 441.2L51.93 441.74C51.9752 441.762 52.0248 441.774 52.075 441.774C52.1253 441.774 52.1749 441.762 52.22 441.74L53.11 441.22C53.2 441.22 53.21 441.1 53.11 441.05L52.18 440.52C52.1356 440.496 52.0857 440.483 52.035 440.483C51.9843 440.483 51.9344 440.496 51.89 440.52L51 441C50.91 441.08 50.9 441.16 51 441.2Z" fill="#3A2C6D"/>
<path d="M49.6601 440.44L50.5901 440.98C50.637 441.002 50.6882 441.014 50.7401 441.014C50.792 441.014 50.8432 441.002 50.8901 440.98L51.7801 440.46C51.8601 440.41 51.8701 440.34 51.7801 440.29L50.8501 439.76C50.8039 439.735 50.7524 439.723 50.7001 439.723C50.6478 439.723 50.5963 439.735 50.5501 439.76L49.6701 440.27C49.6001 440.32 49.5901 440.4 49.6601 440.44Z" fill="#3A2C6D"/>
<path d="M48.3503 439.68L49.2803 440.22C49.3254 440.242 49.375 440.254 49.4253 440.254C49.4755 440.254 49.5251 440.242 49.5703 440.22L50.4603 439.71C50.5503 439.65 50.5603 439.58 50.4603 439.53L49.5303 439C49.4859 438.976 49.436 438.963 49.3853 438.963C49.3345 438.963 49.2847 438.976 49.2403 439L48.3503 439.51C48.2803 439.56 48.2703 439.64 48.3503 439.68Z" fill="#3A2C6D"/>
<path d="M47 438.92L47.93 439.46C47.9769 439.482 48.0281 439.494 48.08 439.494C48.1319 439.494 48.1831 439.482 48.23 439.46L49.12 438.95C49.21 438.9 49.21 438.82 49.12 438.78L48.19 438.24C48.1438 438.216 48.0923 438.203 48.04 438.203C47.9877 438.203 47.9362 438.216 47.89 438.24L47.01 438.75C47 438.8 47 438.88 47 438.92Z" fill="#3A2C6D"/>
<path d="M45.7204 438.16L46.6504 438.7C46.6966 438.725 46.7481 438.737 46.8004 438.737C46.8527 438.737 46.9042 438.725 46.9504 438.7L47.8304 438.19C47.9204 438.14 47.9304 438.06 47.8304 438.02L46.9004 437.48C46.8552 437.458 46.8056 437.446 46.7554 437.446C46.7051 437.446 46.6555 437.458 46.6104 437.48L45.7204 437.99C45.6504 438 45.6404 438.12 45.7204 438.16Z" fill="#3A2C6D"/>
<path d="M44.4003 437.41L45.3303 437.94C45.3765 437.965 45.428 437.977 45.4803 437.977C45.5326 437.977 45.5841 437.965 45.6303 437.94L46.5203 437.43C46.6103 437.38 46.6203 437.3 46.5203 437.26L45.5903 436.72C45.5434 436.698 45.4922 436.686 45.4403 436.686C45.3884 436.686 45.3372 436.698 45.2903 436.72L44.4103 437.24C44.3403 437.29 44.3303 437.36 44.4003 437.41Z" fill="#3A2C6D"/>
<path d="M43.09 436.65L44.02 437.18C44.0662 437.205 44.1177 437.217 44.17 437.217C44.2223 437.217 44.2738 437.205 44.32 437.18L45.2 436.67C45.29 436.62 45.3 436.54 45.2 436.5L44.27 435.96C44.2248 435.938 44.1752 435.926 44.125 435.926C44.0747 435.926 44.0251 435.938 43.98 435.96L43.09 436.48C43 436.53 43 436.6 43.09 436.65Z" fill="#3A2C6D"/>
<path d="M41.7799 435.89L42.7099 436.42C42.7543 436.445 42.8042 436.457 42.8549 436.457C42.9057 436.457 42.9555 436.445 42.9999 436.42L43.8899 435.91C43.9799 435.91 43.9899 435.78 43.8899 435.74L42.9599 435.2C42.9131 435.178 42.8618 435.166 42.8099 435.166C42.7581 435.166 42.7068 435.178 42.6599 435.2L41.7799 435.72C41.7099 435.77 41.6999 435.84 41.7799 435.89Z" fill="#3A2C6D"/>
<path d="M40.4603 435.13L41.3903 435.67C41.4372 435.692 41.4884 435.704 41.5403 435.704C41.5922 435.704 41.6435 435.692 41.6903 435.67L42.5703 435.16C42.6603 435.11 42.6703 435.03 42.5703 434.99L41.6403 434.45C41.5941 434.426 41.5426 434.413 41.4903 434.413C41.438 434.413 41.3865 434.426 41.3403 434.45L40.4503 434.96C40.3903 435 40.3803 435.08 40.4603 435.13Z" fill="#3A2C6D"/>
<path d="M39.1501 434.37L40.0801 434.91C40.1252 434.932 40.1748 434.944 40.2251 434.944C40.2753 434.944 40.3249 434.932 40.3701 434.91L41.2601 434.4C41.3501 434.35 41.3601 434.27 41.2601 434.23L40.3301 433.69C40.2832 433.668 40.2319 433.656 40.1801 433.656C40.1282 433.656 40.0769 433.668 40.0301 433.69L39.1501 434.2C39.0801 434.25 39.0701 434.33 39.1501 434.37Z" fill="#3A2C6D"/>
<path d="M37.8302 433.61L38.7602 434.15C38.8071 434.172 38.8583 434.184 38.9102 434.184C38.9621 434.184 39.0133 434.172 39.0602 434.15L39.9402 433.63C40.0302 433.58 40.0402 433.51 39.9402 433.46L39.0102 432.93C38.964 432.906 38.9125 432.893 38.8602 432.893C38.8079 432.893 38.7564 432.906 38.7102 432.93L37.8202 433.44C37.7602 433.49 37.7602 433.57 37.8302 433.61Z" fill="#3A2C6D"/>
<path d="M34.8903 431.91L37.4503 433.39C37.4954 433.412 37.545 433.424 37.5953 433.424C37.6456 433.424 37.6952 433.412 37.7403 433.39L38.6303 432.87C38.7203 432.82 38.7303 432.75 38.6303 432.7L36.0703 431.23C36.0259 431.205 35.976 431.193 35.9253 431.193C35.8746 431.193 35.8247 431.205 35.7803 431.23L34.8903 431.74C34.8203 431.79 34.8103 431.87 34.8903 431.91Z" fill="#3A2C6D"/>
<path d="M52.2902 442L53.5602 442.73C53.6064 442.755 53.6579 442.767 53.7102 442.767C53.7625 442.767 53.814 442.755 53.8602 442.73L54.7402 442.22C54.8302 442.17 54.8402 442.09 54.7402 442.05L53.4702 441.31C53.4234 441.288 53.3721 441.276 53.3202 441.276C53.2683 441.276 53.2171 441.288 53.1702 441.31L52.2802 441.82C52.2302 441.84 52.2202 441.92 52.2902 442Z" fill="#3A2C6D"/>
<path d="M61.9301 439.35L40.8301 427.16V410.57L40.9901 410.19L41.1701 410.11C41.3905 409.983 41.6405 409.916 41.8951 409.916C42.1496 409.916 42.3996 409.983 42.6201 410.11L61.9301 421.26C62.1514 421.388 62.3353 421.571 62.4634 421.793C62.5915 422.014 62.6593 422.264 62.6601 422.52V438.09C62.5301 438.89 62.3801 439.09 61.9301 439.35Z" fill="#E5E5E5"/>
<path d="M60.0001 423.26L40.8301 411.12V410.57L40.9901 410.19L41.1701 410.11C41.3905 409.983 41.6405 409.916 41.8951 409.916C42.1496 409.916 42.3996 409.983 42.6201 410.11L61.9301 421.26C62.1661 421.394 62.36 421.592 62.4901 421.83L60.0001 423.26Z" fill="#E5E5E5"/>
<path d="M41.3201 410.19L61.5801 421.89C61.6864 421.953 61.7745 422.042 61.8359 422.149C61.8973 422.256 61.9297 422.377 61.9301 422.5V439.35L40.8301 427.16V410.47C40.8315 410.413 40.8476 410.358 40.8767 410.309C40.9058 410.261 40.947 410.22 40.9962 410.192C41.0455 410.164 41.1012 410.149 41.1579 410.149C41.2146 410.148 41.2705 410.162 41.3201 410.19Z" fill="#DCEEFF"/>
<path d="M41.3201 410.19L61.5801 421.89C61.6864 421.953 61.7745 422.042 61.8359 422.149C61.8973 422.256 61.9297 422.377 61.9301 422.5V439.35L40.8301 427.16V410.47C40.8315 410.413 40.8476 410.358 40.8767 410.309C40.9058 410.261 40.947 410.22 40.9962 410.192C41.0455 410.164 41.1012 410.149 41.1579 410.149C41.2146 410.148 41.2705 410.162 41.3201 410.19Z" fill="#F4F4F4"/>
<path d="M61.9301 439.35V438.74L40.8301 426.56V427.16L61.9301 439.35Z" fill="#DBDBDB"/>
<path d="M41.3799 426.28V411.06L41.6299 411.21V426.15L41.3799 426.28Z" fill="#1E3779"/>
<path d="M41.6299 411.21V426.15L61.2599 437.45V422.54L41.6299 411.21Z" fill="#3A2C6D"/>
<path d="M41.3799 426.28L61.2599 437.75V437.45L41.6299 426.15L41.3799 426.28Z" fill="#031F60"/>
<path d="M18.6599 407.55C18.1599 408.8 19.4299 410.33 22.8299 411.4C26.2299 412.47 26.5399 411.1 26.5399 411.1C28.8069 412.112 31.0168 413.247 33.1599 414.5C35.1599 415.93 36.0999 420.06 36.3799 427.04C36.6999 435.11 36.7199 447.04 36.4599 449.15C36.4599 449.15 32.6399 452.95 27.7599 452.55C22.8799 452.15 14.6599 447.83 12.6599 444.49C12.7199 437.41 13.5399 436.26 12.3999 432.18C9.77991 422.85 8.39991 419.03 9.66991 412.83C10.7199 407.72 12.1899 407.08 14.2099 407.13C15.6996 407.191 17.185 407.331 18.6599 407.55Z" fill="#F4F4F4"/>
<path d="M44.4102 435.69C40.4102 436.69 39.4602 434.17 38.9302 432.08C37.6602 427.01 36.9302 422.44 36.0202 419.56C34.9002 416.17 33.7302 415.63 32.0802 414.97C30.1502 414.19 28.4802 415.83 29.1302 420.14C29.9172 425.152 31.1453 430.084 32.8002 434.88C33.3002 436.46 34.4202 439.26 36.0902 440.62C38.1602 442.29 41.2702 442.22 45.9802 441.04C47.9802 440.54 50.2002 439.34 53.9802 437.57C54.9802 437.09 55.7902 436.78 57.7502 435.86C59.7082 434.975 61.4235 433.63 62.7502 431.94C63.7502 430.46 63.9102 429.76 63.7502 429.42C63.5902 429.08 63.0202 429.09 62.4702 429.71C61.685 430.772 60.7082 431.677 59.5902 432.38C59.5902 432.38 60.8602 431.07 61.5402 430.22C62.1591 429.471 62.6706 428.64 63.0602 427.75C63.4202 426.88 62.6702 425.7 62.0602 426.32C61.4502 426.94 61.2202 427.57 60.1802 428.81C59.6361 429.472 59.0151 430.066 58.3302 430.58C58.9728 429.71 59.5446 428.791 60.0402 427.83C60.4804 427.076 60.6955 426.212 60.6602 425.34C60.6602 424.89 59.9902 424.34 59.3902 425.21C58.8081 426.389 58.0863 427.494 57.2402 428.5C56.3202 429.45 55.5502 429.99 55.5202 429.73C55.4902 429.47 56.0802 428.95 56.4002 427.84C56.7202 426.73 56.4002 425.56 55.7902 425.44C55.1802 425.32 55.3002 425.34 54.7902 426.38C54.1232 427.444 53.5253 428.549 53.0002 429.69C52.686 430.755 52.1201 431.729 51.3502 432.53C50.4002 433.57 48.2202 434.73 44.4102 435.69Z" fill="#FFCEA9"/>
<path d="M30.5999 414.28C33.2699 413.88 35.1599 415.09 36.3499 419.14C37.5399 423.19 38.3499 426.53 38.3499 426.53C37.291 428.066 35.6846 429.14 33.8599 429.53C30.6599 430.31 29.5099 428.78 29.5099 428.78C29.5099 428.78 28.6199 424.53 28.0699 421.64C27.5199 418.75 27.2899 414.77 30.5999 414.28Z" fill="#EDEDED"/>
<path d="M31.92 393.52C31.92 393.52 36.15 387.09 26.98 385.78C20.37 384.83 16.13 389.08 15.64 393.69C15.17 398.09 17.88 402.69 19.84 404.47C21.763 404.956 23.798 404.71 25.55 403.78C25.6551 402.583 25.6952 401.381 25.67 400.18C25.67 400.18 22.45 393.4 31.92 393.52Z" fill="#3A2C6D"/>
<path d="M50.2602 474.86V455.55L34.9302 464.5L40.8302 476.71L50.2602 474.86Z" fill="#D5D6E0"/>
<path d="M40.21 456.66L46.09 453.25L50.26 455.65L44.16 459.11L40.21 456.66Z" fill="#E9EAF4"/>
<path d="M235.62 358.52C237.879 358.52 239.71 357.463 239.71 356.16C239.71 354.857 237.879 353.8 235.62 353.8C233.361 353.8 231.53 354.857 231.53 356.16C231.53 357.463 233.361 358.52 235.62 358.52Z" fill="#D5D6E0"/>
</g>
<defs>
<linearGradient id="paint0_linear" x1="235.62" y1="356.16" x2="235.62" y2="256.93" gradientUnits="userSpaceOnUse">
<stop stop-color="#E9EAF4"/>
<stop offset="0.63" stop-color="#E9EAF4" stop-opacity="0"/>
</linearGradient>
<clipPath id="clip0">
<rect width="384.72" height="500" fill="white"/>
</clipPath>
</defs>
</svg>
