<svg width="439" height="452" viewBox="0 0 439 452" fill="none" xmlns="http://www.w3.org/2000/svg">
<path d="M388.86 156.228L119.34 0.628118C118.886 0.308343 118.362 0.103126 117.812 0.0299887C117.261 -0.0431483 116.701 0.0179663 116.18 0.208116V0.208116L115.91 0.36812L112.97 2.06812L114.66 4.45812V185.728C114.749 187.367 115.222 188.961 116.042 190.382C116.862 191.804 118.006 193.011 119.38 193.908L388.53 349.328L388.91 351.738L392.18 349.848C392.666 349.51 393.052 349.047 393.298 348.509C393.544 347.971 393.641 347.377 393.58 346.788V164.408C393.491 162.77 393.018 161.175 392.198 159.754C391.378 158.333 390.234 157.125 388.86 156.228V156.228Z" fill="#D6D8E5"/>
<path d="M390.3 166.308V348.678C390.3 351.678 388.2 352.908 385.58 351.398L116.06 195.788C114.686 194.891 113.542 193.684 112.722 192.262C111.902 190.841 111.429 189.247 111.34 187.608V5.24804C111.34 2.24804 113.45 1.00804 116.06 2.51804L385.58 158.128C386.956 159.023 388.101 160.23 388.921 161.652C389.741 163.074 390.214 164.669 390.3 166.308V166.308Z" fill="#FAFBFC"/>
<path d="M287.46 129.878L121.97 34.3281V24.7881L287.46 120.338V129.878Z" fill="#E9EAF2"/>
<path d="M278.88 136.788L121.97 46.1882V41.4182L278.88 132.018V136.788Z" fill="#E9EAF2"/>
<path d="M260.62 134.788L121.97 54.728V49.958L260.62 130.018V134.788Z" fill="#E9EAF2"/>
<path d="M251.81 138.238L121.97 63.2781V58.5081L251.81 133.468V138.238Z" fill="#E9EAF2"/>
<path d="M379.21 253.818L318.4 218.708V209.168L379.21 244.268V253.818Z" fill="#E9EAF2"/>
<path d="M376.06 263.858L318.4 230.568V225.798L376.06 259.088V263.858Z" fill="#E9EAF2"/>
<path d="M369.35 268.528L318.4 239.108V234.338L369.35 263.758V268.528Z" fill="#E9EAF2"/>
<path d="M366.11 275.198L318.4 247.658V242.888L366.11 270.428V275.198Z" fill="#E9EAF2"/>
<path d="M287.46 181.598L121.97 86.048V76.5081L287.46 172.058V181.598Z" fill="#E9EAF2"/>
<path d="M278.88 188.508L121.97 97.9182V93.1382L278.88 183.738V188.508Z" fill="#E9EAF2"/>
<path d="M260.62 186.508L121.97 106.458V101.688L260.62 181.738V186.508Z" fill="#E9EAF2"/>
<path d="M251.81 189.968L121.97 114.998V110.228L251.81 185.188V189.968Z" fill="#E9EAF2"/>
<path d="M287.46 233.328L121.97 137.778V128.228L287.46 223.788V233.328Z" fill="#E9EAF2"/>
<path d="M278.88 240.238L121.97 149.638V144.868L278.88 235.458V240.238Z" fill="#E9EAF2"/>
<path d="M260.62 238.238L121.97 158.178V153.408L260.62 233.458V238.238Z" fill="#E9EAF2"/>
<path d="M251.81 241.688L121.97 166.728V161.948L251.81 236.918V241.688Z" fill="#E9EAF2"/>
<path d="M287.46 285.048L121.97 189.498V179.958L287.46 275.508V285.048Z" fill="#E9EAF2"/>
<path d="M278.89 287.188V289.808L121.97 199.208V196.588L278.89 287.188Z" fill="#E9EAF2"/>
<path d="M377.32 233.478L320.32 200.558C319.746 200.145 319.276 199.603 318.948 198.977C318.62 198.35 318.443 197.655 318.43 196.948V140.718C318.43 139.328 319.28 138.718 320.32 139.288L377.32 172.208C377.894 172.622 378.364 173.163 378.692 173.79C379.02 174.416 379.197 175.111 379.21 175.818V232.048C379.21 233.438 378.36 234.078 377.32 233.478Z" fill="#E9EAF2"/>
<path d="M338.43 171.428C322.23 144.128 294.96 130.428 277.52 140.738L262.36 149.448L268.17 159.118C269.105 157.629 270.213 156.257 271.47 155.028C286.21 150.248 306.47 161.658 318.97 182.668C331.47 203.678 331.73 226.958 320.48 237.608C319 238.074 317.475 238.379 315.93 238.518L321.6 247.938L336.17 239.588C353.61 229.238 354.62 198.718 338.43 171.428Z" fill="#D6D8E5"/>
<path d="M323.85 179.788C307.65 152.488 280.38 138.788 262.94 149.098C245.5 159.408 244.49 189.968 260.69 217.268C276.89 244.568 304.16 258.268 321.6 247.948C339.04 237.628 340.05 207.068 323.85 179.788ZM320.48 237.618C305.73 242.398 285.48 230.988 272.98 209.968C260.48 188.948 260.22 165.688 271.47 155.038C286.21 150.258 306.47 161.668 318.97 182.678C331.47 203.688 331.73 226.958 320.48 237.608V237.618Z" fill="#B1B4C4"/>
<path d="M273 209.958C260.53 188.958 260.24 165.678 271.49 155.028C277.92 152.938 285.41 153.938 292.84 157.468C283.72 153.128 274.53 152.558 267.3 156.848C252.45 165.658 251.51 191.518 265.2 214.588C278.89 237.658 302.04 249.228 316.89 240.418C318.196 239.621 319.407 238.678 320.5 237.608C305.73 242.388 285.45 230.978 273 209.958Z" fill="#A1A5B5"/>
<path opacity="0.1" d="M319 182.668C306.53 161.668 286.24 150.248 271.5 155.028C260.25 165.678 260.5 188.948 273.01 209.958C285.52 230.968 305.76 242.388 320.51 237.608C331.73 226.958 331.44 203.688 319 182.668Z" fill="#3E7EFF"/>
<path d="M339.29 216.498L371.98 235.348V243.768L339.29 224.918V216.498Z" fill="#B1B4C4"/>
<path d="M346.58 212.288L379.27 231.138L371.98 235.348L339.29 216.498L346.58 212.288Z" fill="#D6D8E5"/>
<path d="M365.05 230.588C368.14 225.368 373.35 222.748 376.68 224.728L436.06 259.248L424.75 278.048L365.48 243.598C362.15 241.618 362 235.788 365.05 230.588Z" fill="#091793"/>
<path d="M436.38 272.188C433.28 277.398 428.08 280.028 424.75 278.048C421.42 276.068 421.22 270.248 424.32 265.048C427.42 259.848 432.62 257.208 435.95 259.188C439.28 261.168 439.47 266.978 436.38 272.188Z" fill="#0C2169"/>
<path opacity="0.1" d="M436.38 272.188C433.28 277.398 428.08 280.028 424.75 278.048C421.42 276.068 421.22 270.248 424.32 265.048C427.42 259.848 432.62 257.208 435.95 259.188C439.28 261.168 439.47 266.978 436.38 272.188Z" fill="#44B0FF"/>
<path opacity="0.3" d="M367.22 379.508L126.3 235.788C125.14 235.128 125.3 233.958 126.62 233.188C127.304 232.808 128.067 232.594 128.849 232.563C129.63 232.532 130.408 232.684 131.12 233.008L372 376.728C373.16 377.398 373 378.558 371.68 379.328C371.001 379.702 370.245 379.912 369.471 379.943C368.697 379.975 367.926 379.826 367.22 379.508Z" fill="#D6D8E5"/>
<path opacity="0.4" d="M37.5 451.788L0 430.338L56.13 398.208L93.63 419.658L37.5 451.788Z" fill="#D6D8E5"/>
<path d="M38.28 408.538L7.21997 390.598L38.28 372.668L69.34 390.598L38.28 408.538Z" fill="#D6D8E5"/>
<path d="M38.28 444.398L7.21997 426.468V390.598L38.28 408.538V444.398Z" fill="#B1B6C4"/>
<path d="M69.34 426.468L38.28 444.398V408.538L69.34 390.598V426.468Z" fill="#C4C7D6"/>
<path d="M80 415.178C82.694 415.915 85.5702 415.555 88 414.178C89.93 414.238 100.39 409.758 101.81 413.518C103.06 416.818 98.53 419.868 96.11 420.448C90.82 421.728 86.91 424.368 84.79 424.808C83.21 425.148 81.16 425.368 79.9 424.118C78.41 422.658 78.54 417.148 80 415.178Z" fill="#38226D"/>
<path d="M84.81 423.928C86.93 423.478 90.81 420.848 96.13 419.568C98.13 419.078 101.65 416.858 102 414.208C102.47 417.208 98.38 419.938 96.13 420.478C90.84 421.758 86.93 424.398 84.81 424.838C83.23 425.178 81.18 425.398 79.92 424.148C79.5913 423.79 79.3545 423.358 79.23 422.888C80.0149 423.484 80.9281 423.888 81.8969 424.068C82.8656 424.249 83.8631 424.201 84.81 423.928V423.928Z" fill="#CD0D5E"/>
<path d="M61.1599 405.138C63.8544 405.868 66.728 405.509 69.1599 404.138C71.0899 404.198 81.5399 399.718 82.9699 403.478C84.2099 406.778 79.6799 409.818 77.2599 410.408C71.9999 411.718 68.0699 414.358 65.9999 414.788C64.4199 415.128 62.3699 415.338 61.1099 414.098C59.5499 412.618 59.6799 407.098 61.1599 405.138Z" fill="#38226D"/>
<path d="M65.9999 413.888C68.1199 413.438 71.9999 410.808 77.3099 409.528C79.3099 409.038 82.8399 406.818 83.1899 404.168C83.6599 407.168 79.5699 409.888 77.3099 410.438C71.9999 411.718 68.0699 414.358 65.9999 414.788C64.4199 415.128 62.3699 415.338 61.1099 414.098C60.7856 413.737 60.5495 413.306 60.4199 412.838C61.204 413.436 62.1168 413.842 63.0856 414.024C64.0544 414.206 65.0523 414.16 65.9999 413.888V413.888Z" fill="#CD0D5E"/>
<path d="M31.79 392.118C39.95 395.698 47.64 396.268 53.93 392.888L60.43 389.138C60.82 397.528 61.19 405.588 61.19 405.588C61.19 405.588 66.19 409.358 70.05 405.998C70.05 405.998 70.86 394.218 71.68 382.638L78.5 378.708C78.3419 379.326 78.2547 379.96 78.24 380.598C78.29 382.798 79.82 415.508 79.82 415.508C79.82 415.508 84.82 418.508 88.72 415.128C88.72 415.128 91.33 377.228 91.93 371.178C92.61 364.368 85.05 361.008 80.26 362.758C79.15 363.158 76.41 364.178 72.95 365.468C73.1 363.578 73.22 362.098 73.31 361.258C73.98 354.448 66.42 351.098 61.64 352.838C57.28 354.428 27.85 365.468 27.85 365.468C28.0239 368.295 28.3578 371.109 28.85 373.898L17.22 372.898C16.56 383.848 23.64 388.528 31.79 392.118ZM52.09 373.278L59.87 368.788C59.7417 369.337 59.658 369.896 59.62 370.458L52.09 373.278Z" fill="#CD0D5E"/>
<path d="M10.8799 339.788C10.8799 339.788 11.8799 354.248 13.7399 356.328C15.5999 358.408 22.0499 359.788 22.0499 359.788L26.9999 367.928C26.9999 367.928 22.4899 342.068 21.5099 341.448C20.5299 340.828 10.8799 339.788 10.8799 339.788Z" fill="#FFCEA9"/>
<path d="M20.3899 323.688C19.1857 323.13 17.8179 323.035 16.5483 323.423C15.2788 323.81 14.1969 324.652 13.5099 325.788C11.6899 328.788 9.79988 339.128 9.62988 340.898C9.62988 340.898 12.1799 344.418 16.0099 343.828L20.3899 323.688Z" fill="#EDEDED"/>
<path d="M22.1298 323.868C24.6298 323.988 26.4898 324.628 26.7998 323.868C27.0668 322.577 27.2571 321.272 27.3698 319.958C27.0798 319.228 26.8298 318.448 26.8298 318.448C23.6898 316.518 22.6998 313.128 22.2898 309.178C21.5898 302.428 25.2298 296.518 31.9898 295.808C38.3298 295.148 42.9898 299.608 44.2498 305.738C44.9198 308.738 46.2498 314.478 44.4498 319.448C43.4498 322.228 42.1398 324.448 40.8398 324.868C39.5812 324.829 38.3259 324.719 37.0798 324.538V324.538C37.0798 324.538 36.7398 326.418 36.5098 327.618C36.2798 328.818 36.3698 329.458 38.7598 330.938C41.1498 332.418 35.1398 335.448 31.2098 335.148C27.2798 334.848 22.8498 332.478 21.6398 329.938C20.2898 327.128 20.4098 323.788 22.1298 323.868Z" fill="#FFCEA9"/>
<path d="M85.4498 368.108C85.4548 368.464 85.3647 368.815 85.189 369.124C85.0132 369.433 84.758 369.69 84.4498 369.868L65.3898 380.868C65.0858 381.044 64.7409 381.136 64.3898 381.136C64.0388 381.136 63.6939 381.044 63.3898 380.868L36.6398 365.448C36.3317 365.27 36.0765 365.013 35.9007 364.704C35.725 364.395 35.6349 364.044 35.6398 363.688V363.538L85.4498 368.108Z" fill="#E5E5E5"/>
<path d="M84.4399 369.868L65.3799 380.868C65.076 381.044 64.7311 381.138 64.3799 381.138V368.138H85.4499C85.4485 368.49 85.3544 368.835 85.1771 369.139C84.9998 369.442 84.7455 369.694 84.4399 369.868V369.868Z" fill="#E5E5E5"/>
<path d="M65.0799 379.868C64.8616 379.991 64.6154 380.055 64.3649 380.055C64.1145 380.055 63.8683 379.991 63.6499 379.868L35.8899 363.868C35.5399 363.658 35.5399 363.328 35.8899 363.128L56.3399 351.288L85.4499 368.108L65.0799 379.868Z" fill="#F4F4F4"/>
<path d="M47.3 368.108L47.44 368.188L56.3301 373.318L61.2201 370.498L61.35 370.418L52.32 365.208L47.3 368.108Z" fill="#BFBFBF"/>
<path d="M47.4399 368.188L56.3299 373.318L61.2199 370.498L52.3199 365.368L47.4399 368.188Z" fill="#E5E5E5"/>
<path d="M77.8999 368.938L79.1899 369.678C79.2536 369.71 79.3238 369.726 79.3949 369.726C79.466 369.726 79.5362 369.71 79.5999 369.678L80.8199 368.968C80.9399 368.898 80.9499 368.798 80.8199 368.738L79.5399 367.998C79.4762 367.966 79.4061 367.95 79.3349 367.95C79.2638 367.95 79.1936 367.966 79.1299 367.998L77.8999 368.708C77.8099 368.788 77.7999 368.878 77.8999 368.938Z" fill="#3A2C6D"/>
<path d="M76.09 367.888L77.37 368.628C77.4337 368.66 77.5038 368.676 77.575 368.676C77.6461 368.676 77.7163 368.66 77.78 368.628L79 367.918C79.13 367.848 79.14 367.748 79 367.688L77.72 366.948C77.6563 366.916 77.5861 366.9 77.515 366.9C77.4438 366.9 77.3736 366.916 77.31 366.948L76.09 367.648C76 367.718 76 367.788 76.09 367.888Z" fill="#3A2C6D"/>
<path d="M74.27 366.838L75.56 367.578C75.622 367.61 75.6905 367.626 75.76 367.626C75.8296 367.626 75.8981 367.61 75.96 367.578L77.19 366.878C77.31 366.808 77.32 366.698 77.19 366.638L75.9 365.898C75.8381 365.867 75.7696 365.85 75.7 365.85C75.6305 365.85 75.562 365.867 75.5 365.898L74.27 366.598C74.18 366.668 74.17 366.788 74.27 366.838Z" fill="#3A2C6D"/>
<path d="M72.4599 365.788L73.7399 366.528C73.8036 366.56 73.8738 366.576 73.9449 366.576C74.016 366.576 74.0862 366.56 74.1499 366.528L75.3699 365.828C75.4899 365.758 75.5099 365.648 75.3699 365.588L74.1199 364.788C74.0562 364.756 73.986 364.74 73.9149 364.74C73.8438 364.74 73.7736 364.756 73.7099 364.788L72.4899 365.488C72.3599 365.618 72.3499 365.728 72.4599 365.788Z" fill="#3A2C6D"/>
<path d="M70.6399 364.788L71.9199 365.528C71.9836 365.56 72.0538 365.576 72.1249 365.576C72.196 365.576 72.2662 365.56 72.3299 365.528L73.5599 364.818C73.6799 364.748 73.6899 364.638 73.5599 364.578L72.2999 363.788C72.2362 363.756 72.166 363.74 72.0949 363.74C72.0238 363.74 71.9536 363.756 71.8899 363.788L70.6699 364.498C70.5499 364.578 70.5299 364.678 70.6399 364.788Z" fill="#3A2C6D"/>
<path d="M68.8198 363.688L70.1098 364.428C70.1718 364.46 70.2403 364.476 70.3098 364.476C70.3794 364.476 70.4479 364.46 70.5098 364.428L71.7398 363.718C71.8598 363.648 71.8698 363.538 71.7398 363.478L70.4598 362.738C70.3961 362.706 70.326 362.69 70.2548 362.69C70.1837 362.69 70.1135 362.706 70.0498 362.738L68.8198 363.448C68.7298 363.528 68.7198 363.628 68.8198 363.688Z" fill="#3A2C6D"/>
<path d="M66.9998 362.638L68.2798 363.388C68.3435 363.42 68.4137 363.436 68.4848 363.436C68.556 363.436 68.6262 363.42 68.6898 363.388L69.9098 362.678C70.0298 362.608 70.0498 362.508 69.9098 362.448L68.6298 361.698C68.5661 361.666 68.496 361.65 68.4248 361.65C68.3537 361.65 68.2835 361.666 68.2198 361.698L66.9998 362.408C66.9198 362.478 66.8998 362.578 66.9998 362.638Z" fill="#3A2C6D"/>
<path d="M65.19 361.598L66.47 362.338C66.5336 362.37 66.6038 362.386 66.675 362.386C66.7461 362.386 66.8163 362.37 66.8799 362.338L68.1099 361.628C68.2299 361.558 68.2399 361.458 68.1099 361.398L66.8199 360.658C66.7563 360.626 66.6861 360.61 66.6149 360.61C66.5438 360.61 66.4736 360.626 66.41 360.658L65.19 361.368C65.1 361.428 65.09 361.538 65.19 361.598Z" fill="#3A2C6D"/>
<path d="M63.3699 360.548L64.6599 361.288C64.7236 361.32 64.7937 361.336 64.8649 361.336C64.936 361.336 65.0062 361.32 65.0699 361.288L66.2899 360.578C66.4099 360.508 66.4199 360.408 66.2899 360.348L64.9999 359.588C64.9362 359.556 64.866 359.54 64.7949 359.54C64.7237 359.54 64.6535 359.556 64.5899 359.588L63.3599 360.298C63.2799 360.378 63.2699 360.488 63.3699 360.548Z" fill="#3A2C6D"/>
<path d="M61.56 359.498L62.84 360.238C62.9037 360.27 62.9739 360.286 63.045 360.286C63.1162 360.286 63.1864 360.27 63.25 360.238L64.47 359.538C64.59 359.468 64.61 359.358 64.47 359.298L63.19 358.558C63.1264 358.526 63.0562 358.51 62.985 358.51C62.9139 358.51 62.8437 358.526 62.78 358.558L61.56 359.258C61.47 359.328 61.45 359.438 61.56 359.498Z" fill="#3A2C6D"/>
<path d="M59.74 358.448L61.02 359.188C61.0837 359.22 61.1539 359.236 61.225 359.236C61.2961 359.236 61.3663 359.22 61.43 359.188L62.66 358.488C62.78 358.418 62.79 358.308 62.66 358.248L61.37 357.508C61.3081 357.476 61.2395 357.46 61.17 357.46C61.1005 357.46 61.0319 357.476 60.97 357.508L59.74 358.208C59.65 358.278 59.64 358.388 59.74 358.448Z" fill="#3A2C6D"/>
<path d="M57.9299 357.398L59.2099 358.138C59.2741 358.168 59.3441 358.183 59.4149 358.183C59.4856 358.183 59.5556 358.168 59.6199 358.138L60.8399 357.428C60.9599 357.358 60.9799 357.248 60.8399 357.188L59.5599 356.448C59.4962 356.416 59.426 356.4 59.3549 356.4C59.2837 356.4 59.2135 356.416 59.1499 356.448L57.9199 357.158C57.8299 357.238 57.8199 357.338 57.9299 357.398Z" fill="#3A2C6D"/>
<path d="M56.1099 356.348L57.3899 357.088C57.4535 357.12 57.5237 357.136 57.5949 357.136C57.666 357.136 57.7362 357.12 57.7999 357.088L59.0299 356.378C59.1499 356.308 59.1599 356.198 59.0299 356.138L57.7499 355.398C57.6862 355.366 57.616 355.35 57.5449 355.35C57.4737 355.35 57.4035 355.366 57.3399 355.398L56.1199 356.108C55.9999 356.188 55.9999 356.288 56.1099 356.348Z" fill="#3A2C6D"/>
<path d="M53.4199 354.788L55.5799 356.028C55.641 356.062 55.7099 356.08 55.7799 356.08C55.8499 356.08 55.9188 356.062 55.9799 356.028L57.2099 355.318C57.3299 355.248 57.3399 355.148 57.2099 355.088L55.0499 353.838C54.9862 353.806 54.9161 353.79 54.8449 353.79C54.7738 353.79 54.7036 353.806 54.6399 353.838L53.4199 354.538C53.3299 354.628 53.3099 354.788 53.4199 354.788Z" fill="#3A2C6D"/>
<path d="M73.45 368.398L74.73 369.138C74.7937 369.17 74.8638 369.186 74.935 369.186C75.0061 369.186 75.0763 369.17 75.14 369.138L76.37 368.428C76.49 368.358 76.5 368.258 76.37 368.198L75.08 367.458C75.0163 367.426 74.9461 367.41 74.875 367.41C74.8038 367.41 74.7336 367.426 74.67 367.458L73.45 368.168C73.36 368.228 73.35 368.338 73.45 368.398Z" fill="#3A2C6D"/>
<path d="M71.6299 367.348L72.9099 368.088C72.9736 368.12 73.0438 368.136 73.1149 368.136C73.186 368.136 73.2562 368.12 73.3199 368.088L74.5499 367.378C74.6699 367.308 74.6799 367.208 74.5499 367.148L73.2599 366.408C73.1962 366.376 73.126 366.36 73.0549 366.36C72.9838 366.36 72.9136 366.376 72.8499 366.408L71.6299 367.118C71.5399 367.178 71.5299 367.288 71.6299 367.348Z" fill="#3A2C6D"/>
<path d="M69.8098 366.298L71.0898 367.038C71.1535 367.07 71.2237 367.086 71.2948 367.086C71.366 367.086 71.4361 367.07 71.4998 367.038L72.7298 366.328C72.8498 366.258 72.8598 366.158 72.7298 366.098L71.4398 365.358C71.3761 365.326 71.306 365.31 71.2348 365.31C71.1637 365.31 71.0935 365.326 71.0298 365.358L69.8098 366.068C69.7198 366.128 69.7098 366.238 69.8098 366.298Z" fill="#3A2C6D"/>
<path d="M67.9999 365.248L69.2799 365.988C69.3436 366.02 69.4138 366.036 69.4849 366.036C69.5561 366.036 69.6263 366.02 69.6899 365.988L70.9199 365.278C71.0399 365.208 71.0499 365.108 70.9199 365.048L69.6299 364.308C69.568 364.276 69.4995 364.26 69.4299 364.26C69.3604 364.26 69.2919 364.276 69.2299 364.308L67.9999 365.018C67.8999 365.078 67.8899 365.188 67.9999 365.248Z" fill="#3A2C6D"/>
<path d="M66.1899 364.198L67.4699 364.938C67.5329 364.972 67.6033 364.99 67.6749 364.99C67.7465 364.99 67.817 364.972 67.8799 364.938L69.0999 364.228C69.2199 364.158 69.2399 364.058 69.0999 363.998L67.8199 363.248C67.7562 363.216 67.6861 363.2 67.6149 363.2C67.5438 363.2 67.4736 363.216 67.4099 363.248L66.1899 363.958C66.0999 364.038 66.0799 364.138 66.1899 364.198Z" fill="#3A2C6D"/>
<path d="M64.3699 363.148L65.6499 363.888C65.7135 363.92 65.7837 363.936 65.8549 363.936C65.926 363.936 65.9962 363.92 66.0599 363.888L67.2799 363.178C67.3999 363.108 67.4199 363.008 67.2799 362.938L65.9999 362.188C65.9362 362.156 65.866 362.14 65.7949 362.14C65.7237 362.14 65.6535 362.156 65.5899 362.188L64.3699 362.898C64.2799 362.988 64.2599 363.088 64.3699 363.148Z" fill="#3A2C6D"/>
<path d="M62.55 362.098L63.83 362.838C63.8937 362.87 63.9639 362.886 64.035 362.886C64.1062 362.886 64.1764 362.87 64.24 362.838L65.46 362.128C65.58 362.058 65.6 361.948 65.46 361.888L64.18 361.148C64.1164 361.116 64.0462 361.1 63.975 361.1C63.9039 361.1 63.8337 361.116 63.77 361.148L62.55 361.858C62.46 361.938 62.44 362.038 62.55 362.098Z" fill="#3A2C6D"/>
<path d="M60.7299 361.048L61.9999 361.788C62.0635 361.82 62.1337 361.836 62.2049 361.836C62.276 361.836 62.3462 361.82 62.4099 361.788L63.6299 361.078C63.7599 361.008 63.7699 360.898 63.6299 360.838L62.3499 360.098C62.2862 360.066 62.216 360.05 62.1449 360.05C62.0737 360.05 62.0035 360.066 61.9399 360.098L60.7199 360.808C60.6399 360.888 60.6199 360.988 60.7299 361.048Z" fill="#3A2C6D"/>
<path d="M58.9098 359.998L60.1898 360.738C60.2535 360.77 60.3237 360.786 60.3948 360.786C60.466 360.786 60.5362 360.77 60.5998 360.738L61.8298 360.028C61.9498 359.958 61.9598 359.848 61.8298 359.788L60.5498 359.048C60.4862 359.017 60.416 359 60.3448 359C60.2737 359 60.2035 359.017 60.1398 359.048L58.9198 359.758C58.8198 359.838 58.7998 359.938 58.9098 359.998Z" fill="#3A2C6D"/>
<path d="M57.09 358.948L58.37 359.688C58.4336 359.72 58.5038 359.736 58.575 359.736C58.6461 359.736 58.7163 359.72 58.78 359.688L60.01 358.978C60.13 358.908 60.14 358.798 60.01 358.738L58.72 357.998C58.6563 357.966 58.5861 357.95 58.515 357.95C58.4438 357.95 58.3736 357.966 58.31 357.998L57.09 358.708C57 358.788 57 358.888 57.09 358.948Z" fill="#3A2C6D"/>
<path d="M55.27 357.898L56.55 358.638C56.6137 358.67 56.6839 358.686 56.755 358.686C56.8262 358.686 56.8963 358.67 56.96 358.638L58.19 357.938C58.31 357.868 58.32 357.758 58.19 357.698L56.9 356.958C56.8363 356.926 56.7662 356.91 56.695 356.91C56.6239 356.91 56.5537 356.926 56.49 356.958L55.27 357.668C55.18 357.788 55.17 357.838 55.27 357.898Z" fill="#3A2C6D"/>
<path d="M53.45 356.848L54.73 357.588C54.7936 357.62 54.8638 357.636 54.935 357.636C55.0061 357.636 55.0763 357.62 55.14 357.588L56.37 356.888C56.49 356.818 56.5 356.708 56.37 356.648L55.08 355.908C55.0163 355.876 54.9461 355.86 54.875 355.86C54.8038 355.86 54.7336 355.876 54.67 355.908L53.45 356.608C53.36 356.678 53.35 356.788 53.45 356.848Z" fill="#3A2C6D"/>
<path d="M75.27 369.448L77.43 370.688C77.4937 370.72 77.5639 370.736 77.635 370.736C77.7062 370.736 77.7763 370.72 77.84 370.688L79.06 369.978C79.18 369.908 79.19 369.798 79.06 369.738L76.9 368.498C76.8357 368.468 76.7658 368.453 76.695 368.453C76.6242 368.453 76.5543 368.468 76.49 368.498L75.27 369.208C75.18 369.278 75.16 369.388 75.27 369.448Z" fill="#3A2C6D"/>
<path d="M53.2999 354.848L54.5799 355.588C54.6899 355.648 54.6899 355.748 54.5799 355.808L53.2899 356.558C53.231 356.588 53.1659 356.604 53.0999 356.604C53.0339 356.604 52.9688 356.588 52.9099 356.558L52.8099 356.498C52.7546 356.468 52.6927 356.453 52.6299 356.453C52.5671 356.453 52.5052 356.468 52.4499 356.498L51.0899 357.288C51.031 357.318 50.9659 357.334 50.8999 357.334C50.8339 357.334 50.7688 357.318 50.7099 357.288L49.8899 356.818C49.8685 356.809 49.8503 356.793 49.8375 356.774C49.8247 356.754 49.8179 356.732 49.8179 356.708C49.8179 356.685 49.8247 356.662 49.8375 356.642C49.8503 356.623 49.8685 356.608 49.8899 356.598L51.1699 355.858L51.4399 355.708L51.6299 355.598L51.8199 355.488L52.9199 354.848C52.9788 354.818 53.0439 354.803 53.1099 354.803C53.1759 354.803 53.241 354.818 53.2999 354.848V354.848Z" fill="#3A2C6D"/>
<path d="M70.86 372.998L72.14 373.738C72.2037 373.77 72.2739 373.786 72.345 373.786C72.4162 373.786 72.4864 373.77 72.55 373.738L73.77 373.028C73.89 372.958 73.91 372.858 73.77 372.798L72.49 372.058C72.4264 372.026 72.3562 372.01 72.285 372.01C72.2139 372.01 72.1437 372.026 72.08 372.058L70.86 372.758C70.76 372.788 70.75 372.938 70.86 372.998Z" fill="#3A2C6D"/>
<path d="M69.0001 371.948L70.2901 372.688C70.3537 372.72 70.4239 372.736 70.4951 372.736C70.5662 372.736 70.6364 372.72 70.7001 372.688L71.9201 371.978C72.0401 371.908 72.0501 371.798 71.9201 371.738L70.6401 370.998C70.5764 370.966 70.5062 370.95 70.4351 370.95C70.3639 370.95 70.2937 370.966 70.2301 370.998L69.0001 371.708C69.0001 371.788 68.9401 371.888 69.0001 371.948Z" fill="#3A2C6D"/>
<path d="M67.23 370.908L68.52 371.648C68.5819 371.68 68.6505 371.696 68.72 371.696C68.7895 371.696 68.8581 371.68 68.92 371.648L70.15 370.938C70.27 370.868 70.28 370.768 70.15 370.708L68.87 369.968C68.8063 369.936 68.7361 369.92 68.665 369.92C68.5938 369.92 68.5237 369.936 68.46 369.968L67.23 370.678C67.14 370.788 67.13 370.848 67.23 370.908Z" fill="#3A2C6D"/>
<path d="M51.8099 361.998L53.0899 362.738C53.1536 362.77 53.2238 362.786 53.2949 362.786C53.3661 362.786 53.4362 362.77 53.4999 362.738L54.7299 362.028C54.8499 361.958 54.8599 361.848 54.7299 361.788L53.4499 361.048C53.3862 361.017 53.3161 361 53.2449 361C53.1738 361 53.1036 361.017 53.0399 361.048L51.8199 361.758C51.7199 361.838 51.7099 361.938 51.8099 361.998Z" fill="#3A2C6D"/>
<path d="M50 360.958L51.28 361.698C51.3437 361.73 51.4139 361.746 51.485 361.746C51.5561 361.746 51.6263 361.73 51.69 361.698L52.91 360.988C53.04 360.918 53.05 360.818 52.91 360.758L51.63 360.018C51.5663 359.986 51.4961 359.97 51.425 359.97C51.3538 359.97 51.2837 359.986 51.22 360.018L50 360.728C49.91 360.788 49.89 360.898 50 360.958Z" fill="#3A2C6D"/>
<path d="M48.1899 359.908L49.4699 360.648C49.5336 360.68 49.6038 360.696 49.6749 360.696C49.7461 360.696 49.8162 360.68 49.8799 360.648L51.0999 359.948C51.2199 359.878 51.2399 359.768 51.0999 359.708L49.8199 358.968C49.7562 358.936 49.6861 358.92 49.6149 358.92C49.5438 358.92 49.4736 358.936 49.4099 358.968L48.1899 359.668C48.0999 359.788 48.0799 359.848 48.1899 359.908Z" fill="#3A2C6D"/>
<path d="M46.38 358.858L47.66 359.608C47.7237 359.64 47.7939 359.656 47.8651 359.656C47.9362 359.656 48.0064 359.64 48.07 359.608L49.29 358.898C49.41 358.828 49.43 358.728 49.29 358.668L48 357.898C47.9364 357.866 47.8662 357.85 47.795 357.85C47.7239 357.85 47.6537 357.866 47.59 357.898L46.37 358.608C46.28 358.698 46.27 358.788 46.38 358.858Z" fill="#3A2C6D"/>
<path d="M64.9999 369.588L66.7499 370.588C66.8118 370.62 66.8804 370.636 66.9499 370.636C67.0194 370.636 67.088 370.62 67.1499 370.588L68.3799 369.888C68.4999 369.818 68.5099 369.708 68.3799 369.648L66.6299 368.648C66.5662 368.616 66.496 368.6 66.4249 368.6C66.3538 368.6 66.2836 368.616 66.2199 368.648L64.9999 369.358C64.8599 369.428 64.8499 369.528 64.9999 369.588Z" fill="#3A2C6D"/>
<path d="M53.6199 363.048L55.3699 364.048C55.4336 364.08 55.5037 364.096 55.5749 364.096C55.646 364.096 55.7162 364.08 55.7799 364.048L56.9999 363.338C57.1199 363.268 57.1399 363.168 56.9999 363.108L55.2499 362.108C55.1862 362.076 55.116 362.06 55.0449 362.06C54.9737 362.06 54.9036 362.076 54.8399 362.108L53.6199 362.818C53.5299 362.878 53.5199 362.988 53.6199 363.048Z" fill="#3A2C6D"/>
<path d="M55.8999 364.358L64.4299 369.288C64.4936 369.32 64.5638 369.336 64.6349 369.336C64.706 369.336 64.7762 369.32 64.8399 369.288L66.0599 368.578C66.1799 368.508 66.1899 368.408 66.0599 368.348L57.5299 363.418C57.4662 363.386 57.396 363.37 57.3249 363.37C57.2538 363.37 57.1836 363.386 57.1199 363.418L55.8999 364.128C55.8099 364.198 55.7899 364.298 55.8999 364.358Z" fill="#3A2C6D"/>
<path d="M71.1999 369.128L72.4799 369.868C72.5436 369.9 72.6137 369.916 72.6849 369.916C72.756 369.916 72.8262 369.9 72.8899 369.868L74.1099 369.168C74.2299 369.098 74.2499 368.988 74.1099 368.928L72.8299 368.188C72.7662 368.156 72.696 368.14 72.6249 368.14C72.5537 368.14 72.4836 368.156 72.4199 368.188L71.1899 368.888C71.0999 368.958 71.0899 369.068 71.1999 369.128Z" fill="#3A2C6D"/>
<path d="M69.3799 368.078L70.6599 368.818C70.7236 368.85 70.7937 368.866 70.8649 368.866C70.936 368.866 71.0062 368.85 71.0699 368.818L72.2999 368.118C72.4199 368.048 72.4299 367.938 72.2999 367.878L70.9999 367.118C70.9362 367.086 70.866 367.07 70.7949 367.07C70.7237 367.07 70.6536 367.086 70.5899 367.118L69.3699 367.828C69.2899 367.908 69.2799 368.018 69.3799 368.078Z" fill="#3A2C6D"/>
<path d="M67.5698 367.028L68.8498 367.768C68.9135 367.8 68.9837 367.816 69.0548 367.816C69.126 367.816 69.1961 367.8 69.2598 367.768L70.4798 367.058C70.5998 366.988 70.6198 366.878 70.4798 366.818L69.1998 366.078C69.1361 366.046 69.066 366.03 68.9948 366.03C68.9237 366.03 68.8535 366.046 68.7898 366.078L67.5998 366.788C67.4798 366.868 67.4598 366.968 67.5698 367.028Z" fill="#3A2C6D"/>
<path d="M65.75 365.988L67.04 366.728C67.1019 366.76 67.1705 366.776 67.24 366.776C67.3095 366.776 67.3781 366.76 67.44 366.728L68.67 366.018C68.79 365.948 68.8 365.848 68.67 365.788L67.38 365.048C67.3181 365.016 67.2495 365 67.18 365C67.1105 365 67.0419 365.016 66.98 365.048L65.75 365.758C65.66 365.788 65.65 365.928 65.75 365.988Z" fill="#3A2C6D"/>
<path d="M63.9399 364.938L65.2199 365.678C65.2836 365.71 65.3538 365.726 65.4249 365.726C65.4961 365.726 65.5662 365.71 65.6299 365.678L66.8499 364.978C66.9799 364.908 66.9899 364.798 66.8499 364.738L65.5699 363.998C65.5062 363.966 65.4361 363.95 65.3649 363.95C65.2938 363.95 65.2236 363.966 65.1599 363.998L63.9399 364.698C63.8499 364.788 63.8299 364.878 63.9399 364.938Z" fill="#3A2C6D"/>
<path d="M62.12 363.888L63.41 364.628C63.4737 364.66 63.5439 364.676 63.615 364.676C63.6862 364.676 63.7563 364.66 63.82 364.628L65.04 363.928C65.16 363.858 65.17 363.748 65.04 363.688L63.76 362.948C63.6963 362.916 63.6262 362.9 63.555 362.9C63.4839 362.9 63.4137 362.916 63.35 362.948L62.12 363.658C62 363.718 62 363.788 62.12 363.888Z" fill="#3A2C6D"/>
<path d="M60.31 362.838L61.59 363.578C61.6537 363.61 61.7238 363.626 61.795 363.626C61.8661 363.626 61.9363 363.61 62 363.578L63.23 362.868C63.35 362.798 63.36 362.698 63.23 362.628L62 361.878C61.9363 361.846 61.8661 361.83 61.795 361.83C61.7238 361.83 61.6537 361.846 61.59 361.878L60.37 362.588C60.22 362.678 60.21 362.788 60.31 362.838Z" fill="#3A2C6D"/>
<path d="M58.4999 361.788L59.7799 362.528C59.8436 362.56 59.9138 362.576 59.9849 362.576C60.0561 362.576 60.1262 362.56 60.1899 362.528L61.4099 361.818C61.5299 361.748 61.5499 361.648 61.4099 361.588L60.1299 360.848C60.0663 360.816 59.9961 360.8 59.9249 360.8C59.8538 360.8 59.7836 360.816 59.7199 360.848L58.4999 361.558C58.3999 361.628 58.3899 361.788 58.4999 361.788Z" fill="#3A2C6D"/>
<path d="M56.68 360.788L57.96 361.528C58.0237 361.56 58.0939 361.576 58.165 361.576C58.2361 361.576 58.3063 361.56 58.37 361.528L59.6 360.828C59.72 360.758 59.73 360.648 59.6 360.588L58.34 359.788C58.2781 359.756 58.2095 359.74 58.14 359.74C58.0705 359.74 58.0019 359.756 57.94 359.788L56.71 360.488C56.59 360.578 56.58 360.688 56.68 360.788Z" fill="#3A2C6D"/>
<path d="M54.8699 359.698L56.1499 360.438C56.2136 360.47 56.2837 360.486 56.3549 360.486C56.426 360.486 56.4962 360.47 56.5599 360.438L57.7799 359.738C57.8999 359.668 57.9199 359.558 57.7799 359.498L56.5299 358.788C56.4662 358.756 56.396 358.74 56.3249 358.74C56.2537 358.74 56.1836 358.756 56.1199 358.788L54.8999 359.498C54.7799 359.538 54.7599 359.638 54.8699 359.698Z" fill="#3A2C6D"/>
<path d="M53.05 358.648L54.34 359.388C54.4019 359.42 54.4704 359.436 54.54 359.436C54.6095 359.436 54.678 359.42 54.74 359.388L55.97 358.678C56.09 358.608 56.1 358.508 55.97 358.438L54.69 357.698C54.6263 357.666 54.5561 357.65 54.485 357.65C54.4138 357.65 54.3436 357.666 54.28 357.698L53.05 358.408C53 358.488 53 358.588 53.05 358.648Z" fill="#3A2C6D"/>
<path d="M51.24 357.608L52.52 358.348C52.5837 358.38 52.6538 358.396 52.725 358.396C52.7961 358.396 52.8663 358.38 52.93 358.348L54.15 357.638C54.28 357.568 54.29 357.468 54.15 357.408L52.87 356.668C52.8063 356.636 52.7361 356.62 52.665 356.62C52.5938 356.62 52.5237 356.636 52.46 356.668L51.24 357.378C51.15 357.438 51.13 357.548 51.24 357.608Z" fill="#3A2C6D"/>
<path d="M72.9998 370.178L75.6498 371.708C75.7135 371.74 75.7837 371.756 75.8548 371.756C75.926 371.756 75.9962 371.74 76.0598 371.708L77.2898 370.998C77.4098 370.928 77.4198 370.828 77.2898 370.768L74.6298 369.238C74.5662 369.206 74.496 369.19 74.4248 369.19C74.3537 369.19 74.2835 369.206 74.2198 369.238L72.9998 369.948C72.9198 370.008 72.9098 370.118 72.9998 370.178Z" fill="#3A2C6D"/>
<path d="M70.34 370.658L71.62 371.408C71.6837 371.44 71.7539 371.456 71.825 371.456C71.8962 371.456 71.9663 371.44 72.03 371.408L73.25 370.698C73.37 370.628 73.39 370.528 73.25 370.468L72 369.708C71.9371 369.674 71.8666 369.656 71.795 369.656C71.7234 369.656 71.653 369.674 71.59 369.708L70.37 370.418C70.24 370.498 70.23 370.598 70.34 370.658Z" fill="#3A2C6D"/>
<path d="M68.52 369.618L69.8 370.358C69.8637 370.39 69.9339 370.406 70.005 370.406C70.0762 370.406 70.1463 370.39 70.21 370.358L71.44 369.648C71.56 369.578 71.57 369.478 71.44 369.418L70.15 368.678C70.0881 368.646 70.0196 368.63 69.95 368.63C69.8805 368.63 69.812 368.646 69.75 368.678L68.52 369.388C68.43 369.448 68.42 369.558 68.52 369.618Z" fill="#3A2C6D"/>
<path d="M66.71 368.568L67.99 369.308C68.0536 369.34 68.1238 369.356 68.195 369.356C68.2661 369.356 68.3363 369.34 68.4 369.308L69.62 368.608C69.74 368.538 69.76 368.428 69.62 368.368L68.3399 367.628C68.2763 367.596 68.2061 367.58 68.135 367.58C68.0638 367.58 67.9936 367.596 67.93 367.628L66.71 368.328C66.62 368.398 66.6 368.508 66.71 368.568Z" fill="#3A2C6D"/>
<path d="M64.8899 367.518L66.1799 368.258C66.2436 368.29 66.3138 368.306 66.3849 368.306C66.456 368.306 66.5262 368.29 66.5899 368.258L67.8099 367.548C67.9299 367.478 67.9399 367.368 67.8099 367.308L66.5299 366.568C66.4662 366.536 66.396 366.52 66.3249 366.52C66.2538 366.52 66.1836 366.536 66.1199 366.568L64.8899 367.278C64.7999 367.358 64.7899 367.458 64.8899 367.518Z" fill="#3A2C6D"/>
<path d="M63.08 366.478L64.36 367.218C64.4237 367.25 64.4939 367.266 64.565 367.266C64.6362 367.266 64.7064 367.25 64.77 367.218L66 366.488C66.12 366.418 66.13 366.318 66 366.258L64.72 365.518C64.6564 365.486 64.5862 365.47 64.515 365.47C64.4439 365.47 64.3737 365.486 64.31 365.518L63.09 366.228C63 366.308 63 366.418 63.08 366.478Z" fill="#3A2C6D"/>
<path d="M61.27 365.428L62.55 366.168C62.6136 366.2 62.6838 366.216 62.755 366.216C62.8261 366.216 62.8963 366.2 62.96 366.168L64.18 365.468C64.3 365.398 64.32 365.288 64.18 365.228L62.9 364.488C62.8363 364.456 62.7661 364.44 62.695 364.44C62.6238 364.44 62.5536 364.456 62.49 364.488L61.27 365.188C61.17 365.258 61.16 365.368 61.27 365.428Z" fill="#3A2C6D"/>
<path d="M59.45 364.378L60.73 365.118C60.7936 365.15 60.8638 365.166 60.935 365.166C61.0061 365.166 61.0763 365.15 61.14 365.118L62.37 364.418C62.49 364.348 62.5 364.238 62.37 364.178L61.08 363.438C61.018 363.407 60.9495 363.39 60.88 363.39C60.8104 363.39 60.7419 363.407 60.68 363.438L59.45 364.148C59.36 364.208 59.35 364.318 59.45 364.378Z" fill="#3A2C6D"/>
<path d="M57.6399 363.328L58.9199 364.068C58.9836 364.1 59.0537 364.116 59.1249 364.116C59.196 364.116 59.2662 364.1 59.3299 364.068L60.5499 363.358C60.6699 363.288 60.6899 363.188 60.5499 363.118L59.2699 362.378C59.2062 362.346 59.136 362.33 59.0649 362.33C58.9937 362.33 58.9236 362.346 58.8599 362.378L57.6399 363.088C57.5499 363.168 57.5299 363.268 57.6399 363.328Z" fill="#3A2C6D"/>
<path d="M55.8198 362.288L57.1098 363.028C57.1735 363.06 57.2437 363.076 57.3148 363.076C57.386 363.076 57.4561 363.06 57.5198 363.028L58.7398 362.318C58.8598 362.248 58.8698 362.148 58.7398 362.088L57.4598 361.348C57.3961 361.316 57.326 361.3 57.2548 361.3C57.1837 361.3 57.1135 361.316 57.0498 361.348L55.8198 362.058C55.7298 362.118 55.7198 362.228 55.8198 362.288Z" fill="#3A2C6D"/>
<path d="M53.9998 361.238L55.2798 361.978C55.3435 362.01 55.4137 362.026 55.4848 362.026C55.556 362.026 55.6262 362.01 55.6898 361.978L56.9198 361.278C57.0398 361.208 57.0498 361.098 56.9198 361.038L55.6298 360.298C55.5662 360.267 55.496 360.25 55.4248 360.25C55.3537 360.25 55.2835 360.267 55.2198 360.298L53.9998 360.998C53.9198 361.068 53.9098 361.178 53.9998 361.238Z" fill="#3A2C6D"/>
<path d="M52.1999 360.188L53.4799 360.928C53.5436 360.96 53.6137 360.976 53.6849 360.976C53.756 360.976 53.8262 360.96 53.8899 360.928L55.1099 360.218C55.2299 360.148 55.2499 360.038 55.1099 359.978L53.8299 359.238C53.7662 359.206 53.696 359.19 53.6249 359.19C53.5537 359.19 53.4836 359.206 53.4199 359.238L52.1999 359.948C52.0999 360.028 52.0899 360.128 52.1999 360.188Z" fill="#3A2C6D"/>
<path d="M48.14 357.848L51.67 359.848C51.7319 359.88 51.8005 359.896 51.87 359.896C51.9395 359.896 52.008 359.88 52.07 359.848L53.3 359.138C53.42 359.068 53.43 358.968 53.3 358.908L49.77 356.908C49.7063 356.876 49.6361 356.86 49.565 356.86C49.4938 356.86 49.4237 356.876 49.36 356.908L48.14 357.608C48.05 357.678 48 357.788 48.14 357.848Z" fill="#3A2C6D"/>
<path d="M72.15 371.708L73.9 372.708C73.9642 372.738 74.0342 372.753 74.105 372.753C74.1757 372.753 74.2457 372.738 74.31 372.708L75.53 371.998C75.65 371.928 75.67 371.818 75.53 371.758L73.78 370.758C73.7163 370.726 73.6461 370.71 73.575 370.71C73.5038 370.71 73.4336 370.726 73.37 370.758L72.15 371.468C72.06 371.548 72 371.648 72.15 371.708Z" fill="#3A2C6D"/>
<path d="M85.4501 368.108L56.3401 351.288V328.398L56.5601 327.878L56.8001 327.758C57.1041 327.583 57.449 327.49 57.8001 327.49C58.1512 327.49 58.496 327.583 58.8001 327.758L85.4401 343.148C85.7453 343.324 85.9985 343.578 86.1741 343.884C86.3497 344.189 86.4415 344.536 86.4401 344.888V366.368C86.2701 367.478 86.0701 367.788 85.4501 368.108Z" fill="#E5E5E5"/>
<path d="M82.7801 345.918L56.3401 329.158V328.398L56.5601 327.878L56.8001 327.758C57.1041 327.583 57.449 327.49 57.8001 327.49C58.1512 327.49 58.496 327.583 58.8001 327.758L85.4401 343.148C85.7632 343.337 86.0292 343.61 86.2101 343.938L82.7801 345.918Z" fill="#E5E5E5"/>
<path d="M57 327.878L85 344.018C85.1478 344.106 85.2706 344.23 85.3564 344.379C85.4422 344.528 85.4882 344.696 85.49 344.868V368.108L56.34 351.288V328.288C56.3379 328.21 56.3564 328.132 56.3936 328.063C56.4309 327.994 56.4856 327.935 56.5524 327.894C56.6191 327.852 56.6956 327.829 56.7741 327.826C56.8526 327.824 56.9305 327.842 57 327.878V327.878Z" fill="#DCEEFF"/>
<path d="M57 327.878L85 344.018C85.1478 344.106 85.2706 344.23 85.3564 344.379C85.4422 344.528 85.4882 344.696 85.49 344.868V368.108L56.34 351.288V328.288C56.3379 328.21 56.3564 328.132 56.3936 328.063C56.4309 327.994 56.4856 327.935 56.5524 327.894C56.6191 327.852 56.6956 327.829 56.7741 327.826C56.8526 327.824 56.9305 327.842 57 327.878V327.878Z" fill="#F4F4F4"/>
<path d="M85.4501 368.098V367.278L56.3401 350.458V351.288L85.4501 368.098Z" fill="#DBDBDB"/>
<path d="M57.0901 350.068V329.078L57.4501 329.288V349.898L57.0901 350.068Z" fill="#1E3779"/>
<path d="M57.45 329.288V349.898L84.5199 365.488V344.918L57.45 329.288Z" fill="#3A2C6D"/>
<path d="M57.0901 350.068L84.5201 365.898V365.488L57.4501 349.898L57.0901 350.068Z" fill="#031F60"/>
<path d="M25.7398 324.238C25.0498 325.958 26.8098 328.078 31.4998 329.548C36.1898 331.018 36.6198 329.128 36.6198 329.128C39.746 330.528 42.7938 332.097 45.7498 333.828C48.5598 335.828 49.8098 341.498 50.1898 351.118C50.6298 362.258 50.6698 378.778 50.2998 381.628C50.2998 381.628 45.0298 386.868 38.2998 386.318C31.5698 385.768 20.2198 379.788 17.4698 375.198C17.5398 365.438 18.6898 363.848 17.1098 358.198C13.4898 345.328 11.5798 340.048 13.3398 331.498C14.7898 324.448 16.8198 323.568 19.6098 323.638C21.6623 323.729 23.7085 323.93 25.7398 324.238V324.238Z" fill="#F4F4F4"/>
<path d="M61.2698 363.058C55.7498 364.448 54.4498 360.968 53.7198 358.058C51.9998 351.088 50.9998 344.788 49.6998 340.788C48.1598 336.108 46.5398 335.358 44.2598 334.448C41.5898 333.378 39.2598 335.638 40.1898 341.588C41.2398 348.638 42.6198 353.588 45.2498 361.918C45.9398 364.098 47.4798 367.968 49.7898 369.838C52.6498 372.138 56.9398 372.038 63.4498 370.428C66.2198 369.738 69.2598 368.078 74.4498 365.628C75.8598 364.978 76.9598 364.538 79.6598 363.278C82.371 362.058 84.7481 360.202 86.5898 357.868C88.0098 355.818 88.1998 354.868 87.9098 354.388C87.6198 353.908 86.9098 353.928 86.1498 354.788C85.0493 356.249 83.6943 357.499 82.1498 358.478C82.1498 358.478 83.8898 356.668 84.8398 355.478C85.7116 354.456 86.4384 353.319 86.9998 352.098C87.4998 350.908 86.4698 349.278 85.6898 350.098C84.9098 350.918 84.5298 351.828 83.0998 353.538C82.3477 354.451 81.4881 355.271 80.5398 355.978C81.4281 354.781 82.2174 353.513 82.8998 352.188C83.5126 351.148 83.8113 349.954 83.7598 348.748C83.7598 348.128 82.8398 347.388 82.0098 348.568C81.1798 349.748 80.7798 351.298 79.0098 353.108C77.7498 354.418 76.6798 355.168 76.6398 354.808C76.5998 354.448 77.4098 353.718 77.8598 352.198C78.3098 350.678 77.8598 349.058 77.0098 348.878C76.1598 348.698 76.3298 348.748 75.6598 350.178C74.9898 351.608 73.9998 352.688 73.1698 354.788C72.749 356.259 71.9689 357.603 70.8998 358.698C69.5398 360.138 66.5298 361.788 61.2698 363.058Z" fill="#FFCEA9"/>
<path d="M42.2199 333.518C45.9099 332.968 48.5199 334.628 50.1499 340.228C51.7799 345.828 52.9199 350.418 52.9199 350.418C51.4566 352.528 49.2421 353.998 46.7299 354.528C42.3199 355.588 40.7299 353.478 40.7299 353.478C40.7299 353.478 39.4999 347.618 38.7299 343.628C37.9599 339.638 37.6499 334.188 42.2199 333.518Z" fill="#EDEDED"/>
<path d="M43.9999 304.868C43.9999 304.868 49.8299 295.998 37.1899 294.198C28.0699 292.888 22.1899 298.748 21.5399 305.108C20.8899 311.178 24.6299 317.488 27.3299 319.988C28.6499 320.458 31.4799 320.728 35.2099 319.038C35.3613 317.376 35.4181 315.707 35.3799 314.038C35.3799 314.038 30.9999 304.708 43.9999 304.868Z" fill="#3A2C6D"/>
<path d="M69.3399 417.098V390.458L48.1899 402.808L56.3399 419.658L69.3399 417.098Z" fill="#C4C7D6"/>
<path d="M55.48 391.998L63.6 387.288L69.34 390.598L60.92 395.378L55.48 391.998Z" fill="#D6D8E5"/>
</svg>
