<svg width="19" height="18" viewBox="0 0 19 18" fill="none" xmlns="http://www.w3.org/2000/svg">
<path d="M9.24824 6.67612V9.07026C10.1658 9.27769 10.9814 9.6187 11.8357 9.85425V7.45659C10.9217 7.25268 10.099 6.91167 9.24824 6.67612ZM17.0986 2.3519C15.8928 2.91089 14.4092 3.47339 12.9854 3.47339C11.1045 3.47339 9.54707 2.24995 7.17754 2.24995C6.29863 2.24995 5.51465 2.40464 4.78691 2.67183C4.88535 2.41518 4.93105 2.13745 4.91348 1.84214C4.8502 0.8437 4.03105 0.0421379 3.0291 -4.96238e-05C1.9041 -0.0457527 0.979492 0.854247 0.979492 1.9687C0.979492 2.63667 1.31348 3.22729 1.82324 3.58237V17.1562C1.82324 17.6238 2.19941 18 2.66699 18H3.22949C3.69707 18 4.07324 17.6238 4.07324 17.1562V13.8375C5.06816 13.4121 6.30918 13.0605 8.09512 13.0605C9.97949 13.0605 11.5334 14.2839 13.9029 14.2839C15.5975 14.2839 16.951 13.7109 18.2096 12.846C18.5154 12.6351 18.6947 12.2906 18.6947 11.9179V3.37143C18.6982 2.55229 17.8439 2.00737 17.0986 2.3519ZM6.66074 11.4433C5.75371 11.5382 4.90293 11.7316 4.07324 12.0269V9.54839C4.99434 9.22144 5.74316 9.02104 6.66074 8.93667V11.4433ZM17.0107 6.71479C16.1811 7.05933 15.383 7.40034 14.4232 7.55503V10.0546C15.2951 9.93511 16.2303 9.63979 17.0107 9.14058V11.6191C16.1283 12.1851 15.3057 12.4875 14.4232 12.5718V10.0546C13.474 10.1847 12.7393 10.1074 11.8357 9.85776V12.2273C10.9955 11.9671 10.1729 11.6402 9.24824 11.4785V9.07026C8.55566 8.91558 7.81387 8.8312 6.66074 8.93667V6.47573C5.87324 6.58472 5.09277 6.83433 4.07324 7.2105V4.73198C5.24043 4.30308 5.83457 4.03589 6.66074 3.95854V6.47573C7.60996 6.34565 8.3623 6.43003 9.24824 6.67612V4.30659C10.0814 4.56675 10.9076 4.8937 11.8357 5.05542V7.46011C12.6689 7.64643 13.5092 7.70268 14.4232 7.55503V5.02729C15.3725 4.85854 16.2619 4.54917 17.0107 4.23628V6.71479Z" fill="white"/>
</svg>
