<svg width="394" height="452" viewBox="0 0 394 452" fill="none" xmlns="http://www.w3.org/2000/svg">
<path d="M388.86 156.44L119.34 0.840032C118.886 0.520257 118.362 0.31504 117.812 0.241903C117.261 0.168766 116.701 0.22988 116.18 0.42003V0.42003L115.91 0.580034L112.97 2.28003L114.66 4.67003V185.94C114.749 187.579 115.222 189.173 116.042 190.594C116.862 192.015 118.006 193.223 119.38 194.12L388.53 349.54L388.91 351.95L392.18 350.06C392.666 349.722 393.052 349.259 393.298 348.721C393.544 348.183 393.641 347.589 393.58 347V164.62C393.491 162.982 393.018 161.387 392.198 159.966C391.378 158.545 390.234 157.337 388.86 156.44V156.44Z" fill="#D6D8E5"/>
<path d="M390.3 166.52V348.89C390.3 351.89 388.2 353.12 385.58 351.61L116.06 196C114.686 195.103 113.542 193.895 112.722 192.474C111.902 191.053 111.429 189.458 111.34 187.82V5.45996C111.34 2.45996 113.45 1.21996 116.06 2.72996L385.58 158.34C386.956 159.235 388.101 160.442 388.921 161.864C389.741 163.286 390.214 164.881 390.3 166.52V166.52Z" fill="#FAFBFC"/>
<path d="M238.393 146.569L129.607 83.6012C128.512 82.8104 127.615 81.7746 126.989 80.576C126.363 79.3773 126.024 78.0489 126 76.6961V29.1417C126 26.483 127.622 25.3162 129.607 26.4065L238.393 89.3745C239.488 90.1652 240.385 91.2011 241.011 92.3997C241.637 93.5984 241.976 94.9268 242 96.2795V143.834C242 146.493 240.378 147.717 238.393 146.569Z" fill="#E9EAF2"/>
<path d="M364.393 220.569L255.607 157.601C254.512 156.81 253.615 155.775 252.989 154.576C252.363 153.377 252.024 152.049 252 150.696V103.142C252 100.483 253.622 99.3162 255.607 100.406L364.393 163.374C365.488 164.165 366.385 165.201 367.011 166.4C367.637 167.598 367.976 168.927 368 170.28V217.834C368 220.493 366.378 221.717 364.393 220.569Z" fill="#E9EAF2"/>
<path opacity="0.4" d="M37.5 452L0 430.55L56.13 398.42L93.63 419.87L37.5 452Z" fill="#D6D8E5"/>
<path d="M38.28 408.75L7.21997 390.81L38.28 372.88L69.34 390.81L38.28 408.75Z" fill="#D6D8E5"/>
<path d="M38.28 444.61L7.21997 426.68V390.81L38.28 408.75V444.61Z" fill="#B1B6C4"/>
<path d="M69.34 426.68L38.28 444.61V408.75L69.34 390.81V426.68Z" fill="#C4C7D6"/>
<path d="M80 415.39C82.694 416.127 85.5702 415.767 88 414.39C89.93 414.45 100.39 409.97 101.81 413.73C103.06 417.03 98.53 420.08 96.11 420.66C90.82 421.94 86.91 424.58 84.79 425.02C83.21 425.36 81.16 425.58 79.9 424.33C78.41 422.87 78.54 417.36 80 415.39Z" fill="#38226D"/>
<path d="M84.81 424.14C86.93 423.69 90.81 421.06 96.13 419.78C98.13 419.29 101.65 417.07 102 414.42C102.47 417.42 98.38 420.15 96.13 420.69C90.84 421.97 86.93 424.61 84.81 425.05C83.23 425.39 81.18 425.61 79.92 424.36C79.5913 424.002 79.3545 423.57 79.23 423.1C80.0149 423.696 80.9281 424.1 81.8969 424.28C82.8656 424.461 83.8631 424.413 84.81 424.14V424.14Z" fill="#CD0D5E"/>
<path d="M61.1599 405.35C63.8544 406.08 66.728 405.721 69.1599 404.35C71.0899 404.41 81.5399 399.93 82.9699 403.69C84.2099 406.99 79.6799 410.03 77.2599 410.62C71.9999 411.93 68.0699 414.57 65.9999 415C64.4199 415.34 62.3699 415.55 61.1099 414.31C59.5499 412.83 59.6799 407.31 61.1599 405.35Z" fill="#38226D"/>
<path d="M65.9999 414.1C68.1199 413.65 71.9999 411.02 77.3099 409.74C79.3099 409.25 82.8399 407.03 83.1899 404.38C83.6599 407.38 79.5699 410.1 77.3099 410.65C71.9999 411.93 68.0699 414.57 65.9999 415C64.4199 415.34 62.3699 415.55 61.1099 414.31C60.7856 413.949 60.5495 413.518 60.4199 413.05C61.204 413.648 62.1168 414.054 63.0856 414.236C64.0544 414.418 65.0523 414.372 65.9999 414.1V414.1Z" fill="#CD0D5E"/>
<path d="M31.79 392.33C39.95 395.91 47.64 396.48 53.93 393.1L60.43 389.35C60.82 397.74 61.19 405.8 61.19 405.8C61.19 405.8 66.19 409.57 70.05 406.21C70.05 406.21 70.86 394.43 71.68 382.85L78.5 378.92C78.3419 379.538 78.2547 380.172 78.24 380.81C78.29 383.01 79.82 415.72 79.82 415.72C79.82 415.72 84.82 418.72 88.72 415.34C88.72 415.34 91.33 377.44 91.93 371.39C92.61 364.58 85.05 361.22 80.26 362.97C79.15 363.37 76.41 364.39 72.95 365.68C73.1 363.79 73.22 362.31 73.31 361.47C73.98 354.66 66.42 351.31 61.64 353.05C57.28 354.64 27.85 365.68 27.85 365.68C28.0239 368.507 28.3578 371.321 28.85 374.11L17.22 373.11C16.56 384.06 23.64 388.74 31.79 392.33ZM52.09 373.49L59.87 369C59.7417 369.549 59.658 370.108 59.62 370.67L52.09 373.49Z" fill="#CD0D5E"/>
<path d="M10.8799 340C10.8799 340 11.8799 354.46 13.7399 356.54C15.5999 358.62 22.0499 360 22.0499 360L26.9999 368.14C26.9999 368.14 22.4899 342.28 21.5099 341.66C20.5299 341.04 10.8799 340 10.8799 340Z" fill="#FFCEA9"/>
<path d="M20.3899 323.9C19.1857 323.342 17.8179 323.247 16.5483 323.634C15.2788 324.022 14.1969 324.864 13.5099 326C11.6899 329 9.79988 339.34 9.62988 341.11C9.62988 341.11 12.1799 344.63 16.0099 344.04L20.3899 323.9Z" fill="#EDEDED"/>
<path d="M22.1298 324.08C24.6298 324.2 26.4898 324.84 26.7998 324.08C27.0668 322.789 27.2571 321.484 27.3698 320.17C27.0798 319.44 26.8298 318.66 26.8298 318.66C23.6898 316.73 22.6998 313.34 22.2898 309.39C21.5898 302.64 25.2298 296.73 31.9898 296.02C38.3298 295.36 42.9898 299.82 44.2498 305.95C44.9198 308.95 46.2498 314.69 44.4498 319.66C43.4498 322.44 42.1398 324.66 40.8398 325.08C39.5812 325.041 38.3259 324.931 37.0798 324.75V324.75C37.0798 324.75 36.7398 326.63 36.5098 327.83C36.2798 329.03 36.3698 329.67 38.7598 331.15C41.1498 332.63 35.1398 335.66 31.2098 335.36C27.2798 335.06 22.8498 332.69 21.6398 330.15C20.2898 327.34 20.4098 324 22.1298 324.08Z" fill="#FFCEA9"/>
<path d="M85.4498 368.32C85.4548 368.676 85.3647 369.026 85.189 369.336C85.0132 369.645 84.758 369.902 84.4498 370.08L65.3898 381.08C65.0858 381.256 64.7409 381.348 64.3898 381.348C64.0388 381.348 63.6939 381.256 63.3898 381.08L36.6398 365.66C36.3317 365.482 36.0765 365.225 35.9007 364.916C35.725 364.606 35.6349 364.256 35.6398 363.9V363.75L85.4498 368.32Z" fill="#E5E5E5"/>
<path d="M84.4399 370.08L65.3799 381.08C65.076 381.256 64.7311 381.349 64.3799 381.35V368.35H85.4499C85.4485 368.702 85.3544 369.047 85.1771 369.351C84.9998 369.654 84.7455 369.906 84.4399 370.08V370.08Z" fill="#E5E5E5"/>
<path d="M65.0799 380.08C64.8616 380.203 64.6154 380.267 64.3649 380.267C64.1145 380.267 63.8683 380.203 63.6499 380.08L35.8899 364.08C35.5399 363.87 35.5399 363.54 35.8899 363.34L56.3399 351.5L85.4499 368.32L65.0799 380.08Z" fill="#F4F4F4"/>
<path d="M47.3 368.32L47.44 368.4L56.3301 373.53L61.2201 370.71L61.35 370.63L52.32 365.42L47.3 368.32Z" fill="#BFBFBF"/>
<path d="M47.4399 368.4L56.3299 373.53L61.2199 370.71L52.3199 365.58L47.4399 368.4Z" fill="#E5E5E5"/>
<path d="M77.8999 369.15L79.1899 369.89C79.2536 369.922 79.3238 369.938 79.3949 369.938C79.466 369.938 79.5362 369.922 79.5999 369.89L80.8199 369.18C80.9399 369.11 80.9499 369.01 80.8199 368.95L79.5399 368.21C79.4762 368.178 79.4061 368.162 79.3349 368.162C79.2638 368.162 79.1936 368.178 79.1299 368.21L77.8999 368.92C77.8099 369 77.7999 369.09 77.8999 369.15Z" fill="#3A2C6D"/>
<path d="M76.09 368.1L77.37 368.84C77.4337 368.872 77.5038 368.888 77.575 368.888C77.6461 368.888 77.7163 368.872 77.78 368.84L79 368.13C79.13 368.06 79.14 367.96 79 367.9L77.72 367.16C77.6563 367.128 77.5861 367.112 77.515 367.112C77.4438 367.112 77.3736 367.128 77.31 367.16L76.09 367.86C76 367.93 76 368 76.09 368.1Z" fill="#3A2C6D"/>
<path d="M74.27 367.05L75.56 367.79C75.622 367.822 75.6905 367.838 75.76 367.838C75.8296 367.838 75.8981 367.822 75.96 367.79L77.19 367.09C77.31 367.02 77.32 366.91 77.19 366.85L75.9 366.11C75.8381 366.078 75.7696 366.062 75.7 366.062C75.6305 366.062 75.562 366.078 75.5 366.11L74.27 366.81C74.18 366.88 74.17 367 74.27 367.05Z" fill="#3A2C6D"/>
<path d="M72.4599 366L73.7399 366.74C73.8036 366.772 73.8738 366.788 73.9449 366.788C74.016 366.788 74.0862 366.772 74.1499 366.74L75.3699 366.04C75.4899 365.97 75.5099 365.86 75.3699 365.8L74.1199 365C74.0562 364.968 73.986 364.952 73.9149 364.952C73.8438 364.952 73.7736 364.968 73.7099 365L72.4899 365.7C72.3599 365.83 72.3499 365.94 72.4599 366Z" fill="#3A2C6D"/>
<path d="M70.6399 365L71.9199 365.74C71.9836 365.772 72.0538 365.788 72.1249 365.788C72.196 365.788 72.2662 365.772 72.3299 365.74L73.5599 365.03C73.6799 364.96 73.6899 364.85 73.5599 364.79L72.2999 364C72.2362 363.968 72.166 363.952 72.0949 363.952C72.0238 363.952 71.9536 363.968 71.8899 364L70.6699 364.71C70.5499 364.79 70.5299 364.89 70.6399 365Z" fill="#3A2C6D"/>
<path d="M68.8198 363.9L70.1098 364.64C70.1718 364.672 70.2403 364.688 70.3098 364.688C70.3794 364.688 70.4479 364.672 70.5098 364.64L71.7398 363.93C71.8598 363.86 71.8698 363.75 71.7398 363.69L70.4598 362.95C70.3961 362.918 70.326 362.902 70.2548 362.902C70.1837 362.902 70.1135 362.918 70.0498 362.95L68.8198 363.66C68.7298 363.74 68.7198 363.84 68.8198 363.9Z" fill="#3A2C6D"/>
<path d="M66.9998 362.85L68.2798 363.6C68.3435 363.632 68.4137 363.648 68.4848 363.648C68.556 363.648 68.6262 363.632 68.6898 363.6L69.9098 362.89C70.0298 362.82 70.0498 362.72 69.9098 362.66L68.6298 361.91C68.5661 361.878 68.496 361.862 68.4248 361.862C68.3537 361.862 68.2835 361.878 68.2198 361.91L66.9998 362.62C66.9198 362.69 66.8998 362.79 66.9998 362.85Z" fill="#3A2C6D"/>
<path d="M65.19 361.81L66.47 362.55C66.5336 362.582 66.6038 362.598 66.675 362.598C66.7461 362.598 66.8163 362.582 66.8799 362.55L68.1099 361.84C68.2299 361.77 68.2399 361.67 68.1099 361.61L66.8199 360.87C66.7563 360.838 66.6861 360.822 66.6149 360.822C66.5438 360.822 66.4736 360.838 66.41 360.87L65.19 361.58C65.1 361.64 65.09 361.75 65.19 361.81Z" fill="#3A2C6D"/>
<path d="M63.3699 360.76L64.6599 361.5C64.7236 361.532 64.7937 361.548 64.8649 361.548C64.936 361.548 65.0062 361.532 65.0699 361.5L66.2899 360.79C66.4099 360.72 66.4199 360.62 66.2899 360.56L64.9999 359.8C64.9362 359.768 64.866 359.752 64.7949 359.752C64.7237 359.752 64.6535 359.768 64.5899 359.8L63.3599 360.51C63.2799 360.59 63.2699 360.7 63.3699 360.76Z" fill="#3A2C6D"/>
<path d="M61.56 359.71L62.84 360.45C62.9037 360.482 62.9739 360.498 63.045 360.498C63.1162 360.498 63.1864 360.482 63.25 360.45L64.47 359.75C64.59 359.68 64.61 359.57 64.47 359.51L63.19 358.77C63.1264 358.738 63.0562 358.722 62.985 358.722C62.9139 358.722 62.8437 358.738 62.78 358.77L61.56 359.47C61.47 359.54 61.45 359.65 61.56 359.71Z" fill="#3A2C6D"/>
<path d="M59.74 358.66L61.02 359.4C61.0837 359.432 61.1539 359.448 61.225 359.448C61.2961 359.448 61.3663 359.432 61.43 359.4L62.66 358.7C62.78 358.63 62.79 358.52 62.66 358.46L61.37 357.72C61.3081 357.688 61.2395 357.672 61.17 357.672C61.1005 357.672 61.0319 357.688 60.97 357.72L59.74 358.42C59.65 358.49 59.64 358.6 59.74 358.66Z" fill="#3A2C6D"/>
<path d="M57.9299 357.61L59.2099 358.35C59.2741 358.38 59.3441 358.395 59.4149 358.395C59.4856 358.395 59.5556 358.38 59.6199 358.35L60.8399 357.64C60.9599 357.57 60.9799 357.46 60.8399 357.4L59.5599 356.66C59.4962 356.628 59.426 356.612 59.3549 356.612C59.2837 356.612 59.2135 356.628 59.1499 356.66L57.9199 357.37C57.8299 357.45 57.8199 357.55 57.9299 357.61Z" fill="#3A2C6D"/>
<path d="M56.1099 356.56L57.3899 357.3C57.4535 357.332 57.5237 357.348 57.5949 357.348C57.666 357.348 57.7362 357.332 57.7999 357.3L59.0299 356.59C59.1499 356.52 59.1599 356.41 59.0299 356.35L57.7499 355.61C57.6862 355.578 57.616 355.562 57.5449 355.562C57.4737 355.562 57.4035 355.578 57.3399 355.61L56.1199 356.32C55.9999 356.4 55.9999 356.5 56.1099 356.56Z" fill="#3A2C6D"/>
<path d="M53.4199 355L55.5799 356.24C55.641 356.274 55.7099 356.292 55.7799 356.292C55.8499 356.292 55.9188 356.274 55.9799 356.24L57.2099 355.53C57.3299 355.46 57.3399 355.36 57.2099 355.3L55.0499 354.05C54.9862 354.018 54.9161 354.002 54.8449 354.002C54.7738 354.002 54.7036 354.018 54.6399 354.05L53.4199 354.75C53.3299 354.84 53.3099 355 53.4199 355Z" fill="#3A2C6D"/>
<path d="M73.45 368.61L74.73 369.35C74.7937 369.382 74.8638 369.398 74.935 369.398C75.0061 369.398 75.0763 369.382 75.14 369.35L76.37 368.64C76.49 368.57 76.5 368.47 76.37 368.41L75.08 367.67C75.0163 367.638 74.9461 367.622 74.875 367.622C74.8038 367.622 74.7336 367.638 74.67 367.67L73.45 368.38C73.36 368.44 73.35 368.55 73.45 368.61Z" fill="#3A2C6D"/>
<path d="M71.6299 367.56L72.9099 368.3C72.9736 368.332 73.0438 368.348 73.1149 368.348C73.186 368.348 73.2562 368.332 73.3199 368.3L74.5499 367.59C74.6699 367.52 74.6799 367.42 74.5499 367.36L73.2599 366.62C73.1962 366.588 73.126 366.572 73.0549 366.572C72.9838 366.572 72.9136 366.588 72.8499 366.62L71.6299 367.33C71.5399 367.39 71.5299 367.5 71.6299 367.56Z" fill="#3A2C6D"/>
<path d="M69.8098 366.51L71.0898 367.25C71.1535 367.282 71.2237 367.298 71.2948 367.298C71.366 367.298 71.4361 367.282 71.4998 367.25L72.7298 366.54C72.8498 366.47 72.8598 366.37 72.7298 366.31L71.4398 365.57C71.3761 365.538 71.306 365.522 71.2348 365.522C71.1637 365.522 71.0935 365.538 71.0298 365.57L69.8098 366.28C69.7198 366.34 69.7098 366.45 69.8098 366.51Z" fill="#3A2C6D"/>
<path d="M67.9999 365.46L69.2799 366.2C69.3436 366.232 69.4138 366.248 69.4849 366.248C69.5561 366.248 69.6263 366.232 69.6899 366.2L70.9199 365.49C71.0399 365.42 71.0499 365.32 70.9199 365.26L69.6299 364.52C69.568 364.488 69.4995 364.472 69.4299 364.472C69.3604 364.472 69.2919 364.488 69.2299 364.52L67.9999 365.23C67.8999 365.29 67.8899 365.4 67.9999 365.46Z" fill="#3A2C6D"/>
<path d="M66.1899 364.41L67.4699 365.15C67.5329 365.184 67.6033 365.202 67.6749 365.202C67.7465 365.202 67.817 365.184 67.8799 365.15L69.0999 364.44C69.2199 364.37 69.2399 364.27 69.0999 364.21L67.8199 363.46C67.7562 363.428 67.6861 363.412 67.6149 363.412C67.5438 363.412 67.4736 363.428 67.4099 363.46L66.1899 364.17C66.0999 364.25 66.0799 364.35 66.1899 364.41Z" fill="#3A2C6D"/>
<path d="M64.3699 363.36L65.6499 364.1C65.7135 364.132 65.7837 364.148 65.8549 364.148C65.926 364.148 65.9962 364.132 66.0599 364.1L67.2799 363.39C67.3999 363.32 67.4199 363.22 67.2799 363.15L65.9999 362.4C65.9362 362.368 65.866 362.352 65.7949 362.352C65.7237 362.352 65.6535 362.368 65.5899 362.4L64.3699 363.11C64.2799 363.2 64.2599 363.3 64.3699 363.36Z" fill="#3A2C6D"/>
<path d="M62.55 362.31L63.83 363.05C63.8937 363.082 63.9639 363.098 64.035 363.098C64.1062 363.098 64.1764 363.082 64.24 363.05L65.46 362.34C65.58 362.27 65.6 362.16 65.46 362.1L64.18 361.36C64.1164 361.328 64.0462 361.312 63.975 361.312C63.9039 361.312 63.8337 361.328 63.77 361.36L62.55 362.07C62.46 362.15 62.44 362.25 62.55 362.31Z" fill="#3A2C6D"/>
<path d="M60.7299 361.26L61.9999 362C62.0635 362.032 62.1337 362.048 62.2049 362.048C62.276 362.048 62.3462 362.032 62.4099 362L63.6299 361.29C63.7599 361.22 63.7699 361.11 63.6299 361.05L62.3499 360.31C62.2862 360.278 62.216 360.262 62.1449 360.262C62.0737 360.262 62.0035 360.278 61.9399 360.31L60.7199 361.02C60.6399 361.1 60.6199 361.2 60.7299 361.26Z" fill="#3A2C6D"/>
<path d="M58.9098 360.21L60.1898 360.95C60.2535 360.982 60.3237 360.998 60.3948 360.998C60.466 360.998 60.5362 360.982 60.5998 360.95L61.8298 360.24C61.9498 360.17 61.9598 360.06 61.8298 360L60.5498 359.26C60.4862 359.228 60.416 359.212 60.3448 359.212C60.2737 359.212 60.2035 359.228 60.1398 359.26L58.9198 359.97C58.8198 360.05 58.7998 360.15 58.9098 360.21Z" fill="#3A2C6D"/>
<path d="M57.09 359.16L58.37 359.9C58.4336 359.932 58.5038 359.948 58.575 359.948C58.6461 359.948 58.7163 359.932 58.78 359.9L60.01 359.19C60.13 359.12 60.14 359.01 60.01 358.95L58.72 358.21C58.6563 358.178 58.5861 358.162 58.515 358.162C58.4438 358.162 58.3736 358.178 58.31 358.21L57.09 358.92C57 359 57 359.1 57.09 359.16Z" fill="#3A2C6D"/>
<path d="M55.27 358.11L56.55 358.85C56.6137 358.882 56.6839 358.898 56.755 358.898C56.8262 358.898 56.8963 358.882 56.96 358.85L58.19 358.15C58.31 358.08 58.32 357.97 58.19 357.91L56.9 357.17C56.8363 357.138 56.7662 357.122 56.695 357.122C56.6239 357.122 56.5537 357.138 56.49 357.17L55.27 357.88C55.18 358 55.17 358.05 55.27 358.11Z" fill="#3A2C6D"/>
<path d="M53.45 357.06L54.73 357.8C54.7936 357.832 54.8638 357.848 54.935 357.848C55.0061 357.848 55.0763 357.832 55.14 357.8L56.37 357.1C56.49 357.03 56.5 356.92 56.37 356.86L55.08 356.12C55.0163 356.088 54.9461 356.072 54.875 356.072C54.8038 356.072 54.7336 356.088 54.67 356.12L53.45 356.82C53.36 356.89 53.35 357 53.45 357.06Z" fill="#3A2C6D"/>
<path d="M75.27 369.66L77.43 370.9C77.4937 370.932 77.5639 370.948 77.635 370.948C77.7062 370.948 77.7763 370.932 77.84 370.9L79.06 370.19C79.18 370.12 79.19 370.01 79.06 369.95L76.9 368.71C76.8357 368.68 76.7658 368.665 76.695 368.665C76.6242 368.665 76.5543 368.68 76.49 368.71L75.27 369.42C75.18 369.49 75.16 369.6 75.27 369.66Z" fill="#3A2C6D"/>
<path d="M53.2999 355.06L54.5799 355.8C54.6899 355.86 54.6899 355.96 54.5799 356.02L53.2899 356.77C53.231 356.8 53.1659 356.816 53.0999 356.816C53.0339 356.816 52.9688 356.8 52.9099 356.77L52.8099 356.71C52.7546 356.68 52.6927 356.665 52.6299 356.665C52.5671 356.665 52.5052 356.68 52.4499 356.71L51.0899 357.5C51.031 357.53 50.9659 357.546 50.8999 357.546C50.8339 357.546 50.7688 357.53 50.7099 357.5L49.8899 357.03C49.8685 357.021 49.8503 357.005 49.8375 356.986C49.8247 356.966 49.8179 356.943 49.8179 356.92C49.8179 356.897 49.8247 356.874 49.8375 356.854C49.8503 356.835 49.8685 356.819 49.8899 356.81L51.1699 356.07L51.4399 355.92L51.6299 355.81L51.8199 355.7L52.9199 355.06C52.9788 355.03 53.0439 355.015 53.1099 355.015C53.1759 355.015 53.241 355.03 53.2999 355.06V355.06Z" fill="#3A2C6D"/>
<path d="M70.86 373.21L72.14 373.95C72.2037 373.982 72.2739 373.998 72.345 373.998C72.4162 373.998 72.4864 373.982 72.55 373.95L73.77 373.24C73.89 373.17 73.91 373.07 73.77 373.01L72.49 372.27C72.4264 372.238 72.3562 372.222 72.285 372.222C72.2139 372.222 72.1437 372.238 72.08 372.27L70.86 372.97C70.76 373 70.75 373.15 70.86 373.21Z" fill="#3A2C6D"/>
<path d="M69.0001 372.16L70.2901 372.9C70.3537 372.932 70.4239 372.948 70.4951 372.948C70.5662 372.948 70.6364 372.932 70.7001 372.9L71.9201 372.19C72.0401 372.12 72.0501 372.01 71.9201 371.95L70.6401 371.21C70.5764 371.178 70.5062 371.162 70.4351 371.162C70.3639 371.162 70.2937 371.178 70.2301 371.21L69.0001 371.92C69.0001 372 68.9401 372.1 69.0001 372.16Z" fill="#3A2C6D"/>
<path d="M67.23 371.12L68.52 371.86C68.5819 371.892 68.6505 371.908 68.72 371.908C68.7895 371.908 68.8581 371.892 68.92 371.86L70.15 371.15C70.27 371.08 70.28 370.98 70.15 370.92L68.87 370.18C68.8063 370.148 68.7361 370.132 68.665 370.132C68.5938 370.132 68.5237 370.148 68.46 370.18L67.23 370.89C67.14 371 67.13 371.06 67.23 371.12Z" fill="#3A2C6D"/>
<path d="M51.8099 362.21L53.0899 362.95C53.1536 362.982 53.2238 362.998 53.2949 362.998C53.3661 362.998 53.4362 362.982 53.4999 362.95L54.7299 362.24C54.8499 362.17 54.8599 362.06 54.7299 362L53.4499 361.26C53.3862 361.228 53.3161 361.212 53.2449 361.212C53.1738 361.212 53.1036 361.228 53.0399 361.26L51.8199 361.97C51.7199 362.05 51.7099 362.15 51.8099 362.21Z" fill="#3A2C6D"/>
<path d="M50 361.17L51.28 361.91C51.3437 361.942 51.4139 361.958 51.485 361.958C51.5561 361.958 51.6263 361.942 51.69 361.91L52.91 361.2C53.04 361.13 53.05 361.03 52.91 360.97L51.63 360.23C51.5663 360.198 51.4961 360.182 51.425 360.182C51.3538 360.182 51.2837 360.198 51.22 360.23L50 360.94C49.91 361 49.89 361.11 50 361.17Z" fill="#3A2C6D"/>
<path d="M48.1899 360.12L49.4699 360.86C49.5336 360.892 49.6038 360.908 49.6749 360.908C49.7461 360.908 49.8162 360.892 49.8799 360.86L51.0999 360.16C51.2199 360.09 51.2399 359.98 51.0999 359.92L49.8199 359.18C49.7562 359.148 49.6861 359.132 49.6149 359.132C49.5438 359.132 49.4736 359.148 49.4099 359.18L48.1899 359.88C48.0999 360 48.0799 360.06 48.1899 360.12Z" fill="#3A2C6D"/>
<path d="M46.38 359.07L47.66 359.82C47.7237 359.852 47.7939 359.868 47.8651 359.868C47.9362 359.868 48.0064 359.852 48.07 359.82L49.29 359.11C49.41 359.04 49.43 358.94 49.29 358.88L48 358.11C47.9364 358.078 47.8662 358.062 47.795 358.062C47.7239 358.062 47.6537 358.078 47.59 358.11L46.37 358.82C46.28 358.91 46.27 359 46.38 359.07Z" fill="#3A2C6D"/>
<path d="M64.9999 369.8L66.7499 370.8C66.8118 370.832 66.8804 370.848 66.9499 370.848C67.0194 370.848 67.088 370.832 67.1499 370.8L68.3799 370.1C68.4999 370.03 68.5099 369.92 68.3799 369.86L66.6299 368.86C66.5662 368.828 66.496 368.812 66.4249 368.812C66.3538 368.812 66.2836 368.828 66.2199 368.86L64.9999 369.57C64.8599 369.64 64.8499 369.74 64.9999 369.8Z" fill="#3A2C6D"/>
<path d="M53.6199 363.26L55.3699 364.26C55.4336 364.292 55.5037 364.308 55.5749 364.308C55.646 364.308 55.7162 364.292 55.7799 364.26L56.9999 363.55C57.1199 363.48 57.1399 363.38 56.9999 363.32L55.2499 362.32C55.1862 362.288 55.116 362.272 55.0449 362.272C54.9737 362.272 54.9036 362.288 54.8399 362.32L53.6199 363.03C53.5299 363.09 53.5199 363.2 53.6199 363.26Z" fill="#3A2C6D"/>
<path d="M55.8999 364.57L64.4299 369.5C64.4936 369.532 64.5638 369.548 64.6349 369.548C64.706 369.548 64.7762 369.532 64.8399 369.5L66.0599 368.79C66.1799 368.72 66.1899 368.62 66.0599 368.56L57.5299 363.63C57.4662 363.598 57.396 363.582 57.3249 363.582C57.2538 363.582 57.1836 363.598 57.1199 363.63L55.8999 364.34C55.8099 364.41 55.7899 364.51 55.8999 364.57Z" fill="#3A2C6D"/>
<path d="M71.1999 369.34L72.4799 370.08C72.5436 370.112 72.6137 370.128 72.6849 370.128C72.756 370.128 72.8262 370.112 72.8899 370.08L74.1099 369.38C74.2299 369.31 74.2499 369.2 74.1099 369.14L72.8299 368.4C72.7662 368.368 72.696 368.352 72.6249 368.352C72.5537 368.352 72.4836 368.368 72.4199 368.4L71.1899 369.1C71.0999 369.17 71.0899 369.28 71.1999 369.34Z" fill="#3A2C6D"/>
<path d="M69.3799 368.29L70.6599 369.03C70.7236 369.062 70.7937 369.078 70.8649 369.078C70.936 369.078 71.0062 369.062 71.0699 369.03L72.2999 368.33C72.4199 368.26 72.4299 368.15 72.2999 368.09L70.9999 367.33C70.9362 367.298 70.866 367.282 70.7949 367.282C70.7237 367.282 70.6536 367.298 70.5899 367.33L69.3699 368.04C69.2899 368.12 69.2799 368.23 69.3799 368.29Z" fill="#3A2C6D"/>
<path d="M67.5698 367.24L68.8498 367.98C68.9135 368.012 68.9837 368.028 69.0548 368.028C69.126 368.028 69.1961 368.012 69.2598 367.98L70.4798 367.27C70.5998 367.2 70.6198 367.09 70.4798 367.03L69.1998 366.29C69.1361 366.258 69.066 366.242 68.9948 366.242C68.9237 366.242 68.8535 366.258 68.7898 366.29L67.5998 367C67.4798 367.08 67.4598 367.18 67.5698 367.24Z" fill="#3A2C6D"/>
<path d="M65.75 366.2L67.04 366.94C67.1019 366.972 67.1705 366.988 67.24 366.988C67.3095 366.988 67.3781 366.972 67.44 366.94L68.67 366.23C68.79 366.16 68.8 366.06 68.67 366L67.38 365.26C67.3181 365.228 67.2495 365.212 67.18 365.212C67.1105 365.212 67.0419 365.228 66.98 365.26L65.75 365.97C65.66 366 65.65 366.14 65.75 366.2Z" fill="#3A2C6D"/>
<path d="M63.9399 365.15L65.2199 365.89C65.2836 365.922 65.3538 365.938 65.4249 365.938C65.4961 365.938 65.5662 365.922 65.6299 365.89L66.8499 365.19C66.9799 365.12 66.9899 365.01 66.8499 364.95L65.5699 364.21C65.5062 364.178 65.4361 364.162 65.3649 364.162C65.2938 364.162 65.2236 364.178 65.1599 364.21L63.9399 364.91C63.8499 365 63.8299 365.09 63.9399 365.15Z" fill="#3A2C6D"/>
<path d="M62.12 364.1L63.41 364.84C63.4737 364.872 63.5439 364.888 63.615 364.888C63.6862 364.888 63.7563 364.872 63.82 364.84L65.04 364.14C65.16 364.07 65.17 363.96 65.04 363.9L63.76 363.16C63.6963 363.128 63.6262 363.112 63.555 363.112C63.4839 363.112 63.4137 363.128 63.35 363.16L62.12 363.87C62 363.93 62 364 62.12 364.1Z" fill="#3A2C6D"/>
<path d="M60.31 363.05L61.59 363.79C61.6537 363.822 61.7238 363.838 61.795 363.838C61.8661 363.838 61.9363 363.822 62 363.79L63.23 363.08C63.35 363.01 63.36 362.91 63.23 362.84L62 362.09C61.9363 362.058 61.8661 362.042 61.795 362.042C61.7238 362.042 61.6537 362.058 61.59 362.09L60.37 362.8C60.22 362.89 60.21 363 60.31 363.05Z" fill="#3A2C6D"/>
<path d="M58.4999 362L59.7799 362.74C59.8436 362.772 59.9138 362.788 59.9849 362.788C60.0561 362.788 60.1262 362.772 60.1899 362.74L61.4099 362.03C61.5299 361.96 61.5499 361.86 61.4099 361.8L60.1299 361.06C60.0663 361.028 59.9961 361.012 59.9249 361.012C59.8538 361.012 59.7836 361.028 59.7199 361.06L58.4999 361.77C58.3999 361.84 58.3899 362 58.4999 362Z" fill="#3A2C6D"/>
<path d="M56.68 361L57.96 361.74C58.0237 361.772 58.0939 361.788 58.165 361.788C58.2361 361.788 58.3063 361.772 58.37 361.74L59.6 361.04C59.72 360.97 59.73 360.86 59.6 360.8L58.34 360C58.2781 359.968 58.2095 359.952 58.14 359.952C58.0705 359.952 58.0019 359.968 57.94 360L56.71 360.7C56.59 360.79 56.58 360.9 56.68 361Z" fill="#3A2C6D"/>
<path d="M54.8699 359.91L56.1499 360.65C56.2136 360.682 56.2837 360.698 56.3549 360.698C56.426 360.698 56.4962 360.682 56.5599 360.65L57.7799 359.95C57.8999 359.88 57.9199 359.77 57.7799 359.71L56.5299 359C56.4662 358.968 56.396 358.952 56.3249 358.952C56.2537 358.952 56.1836 358.968 56.1199 359L54.8999 359.71C54.7799 359.75 54.7599 359.85 54.8699 359.91Z" fill="#3A2C6D"/>
<path d="M53.05 358.86L54.34 359.6C54.4019 359.632 54.4704 359.648 54.54 359.648C54.6095 359.648 54.678 359.632 54.74 359.6L55.97 358.89C56.09 358.82 56.1 358.72 55.97 358.65L54.69 357.91C54.6263 357.878 54.5561 357.862 54.485 357.862C54.4138 357.862 54.3436 357.878 54.28 357.91L53.05 358.62C53 358.7 53 358.8 53.05 358.86Z" fill="#3A2C6D"/>
<path d="M51.24 357.82L52.52 358.56C52.5837 358.592 52.6538 358.608 52.725 358.608C52.7961 358.608 52.8663 358.592 52.93 358.56L54.15 357.85C54.28 357.78 54.29 357.68 54.15 357.62L52.87 356.88C52.8063 356.848 52.7361 356.832 52.665 356.832C52.5938 356.832 52.5237 356.848 52.46 356.88L51.24 357.59C51.15 357.65 51.13 357.76 51.24 357.82Z" fill="#3A2C6D"/>
<path d="M72.9998 370.39L75.6498 371.92C75.7135 371.952 75.7837 371.968 75.8548 371.968C75.926 371.968 75.9962 371.952 76.0598 371.92L77.2898 371.21C77.4098 371.14 77.4198 371.04 77.2898 370.98L74.6298 369.45C74.5662 369.418 74.496 369.402 74.4248 369.402C74.3537 369.402 74.2835 369.418 74.2198 369.45L72.9998 370.16C72.9198 370.22 72.9098 370.33 72.9998 370.39Z" fill="#3A2C6D"/>
<path d="M70.34 370.87L71.62 371.62C71.6837 371.652 71.7539 371.668 71.825 371.668C71.8962 371.668 71.9663 371.652 72.03 371.62L73.25 370.91C73.37 370.84 73.39 370.74 73.25 370.68L72 369.92C71.9371 369.886 71.8666 369.868 71.795 369.868C71.7234 369.868 71.653 369.886 71.59 369.92L70.37 370.63C70.24 370.71 70.23 370.81 70.34 370.87Z" fill="#3A2C6D"/>
<path d="M68.52 369.83L69.8 370.57C69.8637 370.602 69.9339 370.618 70.005 370.618C70.0762 370.618 70.1463 370.602 70.21 370.57L71.44 369.86C71.56 369.79 71.57 369.69 71.44 369.63L70.15 368.89C70.0881 368.858 70.0196 368.842 69.95 368.842C69.8805 368.842 69.812 368.858 69.75 368.89L68.52 369.6C68.43 369.66 68.42 369.77 68.52 369.83Z" fill="#3A2C6D"/>
<path d="M66.71 368.78L67.99 369.52C68.0536 369.552 68.1238 369.568 68.195 369.568C68.2661 369.568 68.3363 369.552 68.4 369.52L69.62 368.82C69.74 368.75 69.76 368.64 69.62 368.58L68.3399 367.84C68.2763 367.808 68.2061 367.792 68.135 367.792C68.0638 367.792 67.9936 367.808 67.93 367.84L66.71 368.54C66.62 368.61 66.6 368.72 66.71 368.78Z" fill="#3A2C6D"/>
<path d="M64.8899 367.73L66.1799 368.47C66.2436 368.502 66.3138 368.518 66.3849 368.518C66.456 368.518 66.5262 368.502 66.5899 368.47L67.8099 367.76C67.9299 367.69 67.9399 367.58 67.8099 367.52L66.5299 366.78C66.4662 366.748 66.396 366.732 66.3249 366.732C66.2538 366.732 66.1836 366.748 66.1199 366.78L64.8899 367.49C64.7999 367.57 64.7899 367.67 64.8899 367.73Z" fill="#3A2C6D"/>
<path d="M63.08 366.69L64.36 367.43C64.4237 367.462 64.4939 367.478 64.565 367.478C64.6362 367.478 64.7064 367.462 64.77 367.43L66 366.7C66.12 366.63 66.13 366.53 66 366.47L64.72 365.73C64.6564 365.698 64.5862 365.682 64.515 365.682C64.4439 365.682 64.3737 365.698 64.31 365.73L63.09 366.44C63 366.52 63 366.63 63.08 366.69Z" fill="#3A2C6D"/>
<path d="M61.27 365.64L62.55 366.38C62.6136 366.412 62.6838 366.428 62.755 366.428C62.8261 366.428 62.8963 366.412 62.96 366.38L64.18 365.68C64.3 365.61 64.32 365.5 64.18 365.44L62.9 364.7C62.8363 364.668 62.7661 364.652 62.695 364.652C62.6238 364.652 62.5536 364.668 62.49 364.7L61.27 365.4C61.17 365.47 61.16 365.58 61.27 365.64Z" fill="#3A2C6D"/>
<path d="M59.45 364.59L60.73 365.33C60.7936 365.362 60.8638 365.378 60.935 365.378C61.0061 365.378 61.0763 365.362 61.14 365.33L62.37 364.63C62.49 364.56 62.5 364.45 62.37 364.39L61.08 363.65C61.018 363.619 60.9495 363.602 60.88 363.602C60.8104 363.602 60.7419 363.619 60.68 363.65L59.45 364.36C59.36 364.42 59.35 364.53 59.45 364.59Z" fill="#3A2C6D"/>
<path d="M57.6399 363.54L58.9199 364.28C58.9836 364.312 59.0537 364.328 59.1249 364.328C59.196 364.328 59.2662 364.312 59.3299 364.28L60.5499 363.57C60.6699 363.5 60.6899 363.4 60.5499 363.33L59.2699 362.59C59.2062 362.558 59.136 362.542 59.0649 362.542C58.9937 362.542 58.9236 362.558 58.8599 362.59L57.6399 363.3C57.5499 363.38 57.5299 363.48 57.6399 363.54Z" fill="#3A2C6D"/>
<path d="M55.8198 362.5L57.1098 363.24C57.1735 363.272 57.2437 363.288 57.3148 363.288C57.386 363.288 57.4561 363.272 57.5198 363.24L58.7398 362.53C58.8598 362.46 58.8698 362.36 58.7398 362.3L57.4598 361.56C57.3961 361.528 57.326 361.512 57.2548 361.512C57.1837 361.512 57.1135 361.528 57.0498 361.56L55.8198 362.27C55.7298 362.33 55.7198 362.44 55.8198 362.5Z" fill="#3A2C6D"/>
<path d="M53.9998 361.45L55.2798 362.19C55.3435 362.222 55.4137 362.238 55.4848 362.238C55.556 362.238 55.6262 362.222 55.6898 362.19L56.9198 361.49C57.0398 361.42 57.0498 361.31 56.9198 361.25L55.6298 360.51C55.5662 360.478 55.496 360.462 55.4248 360.462C55.3537 360.462 55.2835 360.478 55.2198 360.51L53.9998 361.21C53.9198 361.28 53.9098 361.39 53.9998 361.45Z" fill="#3A2C6D"/>
<path d="M52.1999 360.4L53.4799 361.14C53.5436 361.172 53.6137 361.188 53.6849 361.188C53.756 361.188 53.8262 361.172 53.8899 361.14L55.1099 360.43C55.2299 360.36 55.2499 360.25 55.1099 360.19L53.8299 359.45C53.7662 359.418 53.696 359.402 53.6249 359.402C53.5537 359.402 53.4836 359.418 53.4199 359.45L52.1999 360.16C52.0999 360.24 52.0899 360.34 52.1999 360.4Z" fill="#3A2C6D"/>
<path d="M48.14 358.06L51.67 360.06C51.7319 360.092 51.8005 360.108 51.87 360.108C51.9395 360.108 52.008 360.092 52.07 360.06L53.3 359.35C53.42 359.28 53.43 359.18 53.3 359.12L49.77 357.12C49.7063 357.088 49.6361 357.072 49.565 357.072C49.4938 357.072 49.4237 357.088 49.36 357.12L48.14 357.82C48.05 357.89 48 358 48.14 358.06Z" fill="#3A2C6D"/>
<path d="M72.15 371.92L73.9 372.92C73.9642 372.95 74.0342 372.965 74.105 372.965C74.1757 372.965 74.2457 372.95 74.31 372.92L75.53 372.21C75.65 372.14 75.67 372.03 75.53 371.97L73.78 370.97C73.7163 370.938 73.6461 370.922 73.575 370.922C73.5038 370.922 73.4336 370.938 73.37 370.97L72.15 371.68C72.06 371.76 72 371.86 72.15 371.92Z" fill="#3A2C6D"/>
<path d="M85.4501 368.32L56.3401 351.5V328.61L56.5601 328.09L56.8001 327.97C57.1041 327.795 57.449 327.702 57.8001 327.702C58.1512 327.702 58.496 327.795 58.8001 327.97L85.4401 343.36C85.7453 343.536 85.9985 343.79 86.1741 344.096C86.3497 344.401 86.4415 344.748 86.4401 345.1V366.58C86.2701 367.69 86.0701 368 85.4501 368.32Z" fill="#E5E5E5"/>
<path d="M82.7801 346.13L56.3401 329.37V328.61L56.5601 328.09L56.8001 327.97C57.1041 327.795 57.449 327.702 57.8001 327.702C58.1512 327.702 58.496 327.795 58.8001 327.97L85.4401 343.36C85.7632 343.549 86.0292 343.822 86.2101 344.15L82.7801 346.13Z" fill="#E5E5E5"/>
<path d="M57 328.09L85 344.23C85.1478 344.318 85.2706 344.442 85.3564 344.591C85.4422 344.74 85.4882 344.908 85.49 345.08V368.32L56.34 351.5V328.5C56.3379 328.422 56.3564 328.344 56.3936 328.275C56.4309 328.206 56.4856 328.147 56.5524 328.106C56.6191 328.064 56.6956 328.041 56.7741 328.038C56.8526 328.036 56.9305 328.053 57 328.09V328.09Z" fill="#DCEEFF"/>
<path d="M57 328.09L85 344.23C85.1478 344.318 85.2706 344.442 85.3564 344.591C85.4422 344.74 85.4882 344.908 85.49 345.08V368.32L56.34 351.5V328.5C56.3379 328.422 56.3564 328.344 56.3936 328.275C56.4309 328.206 56.4856 328.147 56.5524 328.106C56.6191 328.064 56.6956 328.041 56.7741 328.038C56.8526 328.036 56.9305 328.053 57 328.09V328.09Z" fill="#F4F4F4"/>
<path d="M85.4501 368.31V367.49L56.3401 350.67V351.5L85.4501 368.31Z" fill="#DBDBDB"/>
<path d="M57.0901 350.28V329.29L57.4501 329.5V350.11L57.0901 350.28Z" fill="#1E3779"/>
<path d="M57.45 329.5V350.11L84.5199 365.7V345.13L57.45 329.5Z" fill="#3A2C6D"/>
<path d="M57.0901 350.28L84.5201 366.11V365.7L57.4501 350.11L57.0901 350.28Z" fill="#031F60"/>
<path d="M25.7398 324.45C25.0498 326.17 26.8098 328.29 31.4998 329.76C36.1898 331.23 36.6198 329.34 36.6198 329.34C39.746 330.74 42.7938 332.309 45.7498 334.04C48.5598 336.04 49.8098 341.71 50.1898 351.33C50.6298 362.47 50.6698 378.99 50.2998 381.84C50.2998 381.84 45.0298 387.08 38.2998 386.53C31.5698 385.98 20.2198 380 17.4698 375.41C17.5398 365.65 18.6898 364.06 17.1098 358.41C13.4898 345.54 11.5798 340.26 13.3398 331.71C14.7898 324.66 16.8198 323.78 19.6098 323.85C21.6623 323.941 23.7085 324.142 25.7398 324.45V324.45Z" fill="#F4F4F4"/>
<path d="M61.2698 363.27C55.7498 364.66 54.4498 361.18 53.7198 358.27C51.9998 351.3 50.9998 345 49.6998 341C48.1598 336.32 46.5398 335.57 44.2598 334.66C41.5898 333.59 39.2598 335.85 40.1898 341.8C41.2398 348.85 42.6198 353.8 45.2498 362.13C45.9398 364.31 47.4798 368.18 49.7898 370.05C52.6498 372.35 56.9398 372.25 63.4498 370.64C66.2198 369.95 69.2598 368.29 74.4498 365.84C75.8598 365.19 76.9598 364.75 79.6598 363.49C82.371 362.27 84.7481 360.414 86.5898 358.08C88.0098 356.03 88.1998 355.08 87.9098 354.6C87.6198 354.12 86.9098 354.14 86.1498 355C85.0493 356.461 83.6943 357.711 82.1498 358.69C82.1498 358.69 83.8898 356.88 84.8398 355.69C85.7116 354.668 86.4384 353.53 86.9998 352.31C87.4998 351.12 86.4698 349.49 85.6898 350.31C84.9098 351.13 84.5298 352.04 83.0998 353.75C82.3477 354.663 81.4881 355.482 80.5398 356.19C81.4281 354.993 82.2174 353.725 82.8998 352.4C83.5126 351.36 83.8113 350.166 83.7598 348.96C83.7598 348.34 82.8398 347.6 82.0098 348.78C81.1798 349.96 80.7798 351.51 79.0098 353.32C77.7498 354.63 76.6798 355.38 76.6398 355.02C76.5998 354.66 77.4098 353.93 77.8598 352.41C78.3098 350.89 77.8598 349.27 77.0098 349.09C76.1598 348.91 76.3298 348.96 75.6598 350.39C74.9898 351.82 73.9998 352.9 73.1698 355C72.749 356.471 71.9689 357.815 70.8998 358.91C69.5398 360.35 66.5298 362 61.2698 363.27Z" fill="#FFCEA9"/>
<path d="M42.2199 333.73C45.9099 333.18 48.5199 334.84 50.1499 340.44C51.7799 346.04 52.9199 350.63 52.9199 350.63C51.4566 352.74 49.2421 354.21 46.7299 354.74C42.3199 355.8 40.7299 353.69 40.7299 353.69C40.7299 353.69 39.4999 347.83 38.7299 343.84C37.9599 339.85 37.6499 334.4 42.2199 333.73Z" fill="#EDEDED"/>
<path d="M43.9999 305.08C43.9999 305.08 49.8299 296.21 37.1899 294.41C28.0699 293.1 22.1899 298.96 21.5399 305.32C20.8899 311.39 24.6299 317.7 27.3299 320.2C28.6499 320.67 31.4799 320.94 35.2099 319.25C35.3613 317.588 35.4181 315.919 35.3799 314.25C35.3799 314.25 30.9999 304.92 43.9999 305.08Z" fill="#3A2C6D"/>
<path d="M69.3399 417.31V390.67L48.1899 403.02L56.3399 419.87L69.3399 417.31Z" fill="#C4C7D6"/>
<path d="M55.48 392.21L63.6 387.5L69.34 390.81L60.92 395.59L55.48 392.21Z" fill="#D6D8E5"/>
<path d="M227.52 178.975L127.52 121.245C127.058 120.911 126.679 120.475 126.415 119.97C126.152 119.464 126.009 118.905 126 118.335V111.335C126 110.215 126.68 109.695 127.52 110.185L227.52 167.925C227.983 168.255 228.363 168.689 228.627 169.193C228.891 169.697 229.032 170.256 229.04 170.825V177.825C228.99 178.945 228.31 179.465 227.52 178.975Z" fill="#E9EAF2"/>
<path d="M201.79 180.615L127.92 138.005C127.457 137.675 127.078 137.24 126.814 136.736C126.549 136.232 126.408 135.673 126.4 135.105V131.615C126.4 130.495 127.08 129.975 127.92 130.465L201.79 173.105C202.253 173.438 202.631 173.874 202.895 174.38C203.159 174.885 203.301 175.445 203.31 176.015V179.485C203.31 180.615 202.63 181.135 201.79 180.615Z" fill="#E9EAF2"/>
<path d="M201.79 193.814L127.92 151.164C127.457 150.835 127.078 150.4 126.814 149.896C126.549 149.392 126.408 148.833 126.4 148.264V144.794C126.4 143.674 127.08 143.164 127.92 143.644L201.79 186.284C202.253 186.618 202.631 187.054 202.895 187.559C203.159 188.065 203.301 188.625 203.31 189.194V192.664C203.31 193.784 202.63 194.294 201.79 193.814Z" fill="#E9EAF2"/>
<path d="M187.85 198.935L127.92 164.325C127.457 163.995 127.078 163.56 126.814 163.056C126.549 162.552 126.408 161.993 126.4 161.425V157.955C126.4 156.835 127.08 156.325 127.92 156.805L187.85 191.405C188.313 191.738 188.691 192.174 188.955 192.68C189.219 193.185 189.361 193.745 189.37 194.315V197.785C189.37 198.905 188.69 199.415 187.85 198.935Z" fill="#1A89D9"/>
<path d="M350.52 257.975L250.52 200.245C250.058 199.911 249.679 199.475 249.415 198.97C249.152 198.464 249.009 197.905 249 197.335V190.335C249 189.215 249.68 188.695 250.52 189.185L350.52 246.925C350.983 247.255 351.363 247.689 351.627 248.193C351.891 248.697 352.032 249.256 352.04 249.825V256.825C351.99 257.945 351.31 258.465 350.52 257.975Z" fill="#E9EAF2"/>
<path d="M324.79 259.615L250.92 217.005C250.457 216.675 250.078 216.24 249.814 215.736C249.549 215.232 249.408 214.673 249.4 214.105V210.615C249.4 209.495 250.08 208.975 250.92 209.465L324.79 252.105C325.253 252.438 325.631 252.874 325.895 253.38C326.159 253.885 326.301 254.445 326.31 255.015V258.485C326.31 259.615 325.63 260.135 324.79 259.615Z" fill="#E9EAF2"/>
<path d="M324.79 272.814L250.92 230.164C250.457 229.835 250.078 229.4 249.814 228.896C249.549 228.392 249.408 227.833 249.4 227.264V223.794C249.4 222.674 250.08 222.164 250.92 222.644L324.79 265.284C325.253 265.618 325.631 266.054 325.895 266.559C326.159 267.065 326.301 267.625 326.31 268.194V271.664C326.31 272.784 325.63 273.294 324.79 272.814Z" fill="#E9EAF2"/>
<path d="M310.85 277.935L250.92 243.325C250.457 242.995 250.078 242.56 249.814 242.056C249.549 241.552 249.408 240.993 249.4 240.425V236.955C249.4 235.835 250.08 235.325 250.92 235.805L310.85 270.405C311.313 270.738 311.691 271.174 311.955 271.68C312.219 272.185 312.361 272.745 312.37 273.315V276.785C312.37 277.905 311.69 278.415 310.85 277.935Z" fill="#1A89D9"/>
<path d="M149.776 73.1355L148.047 72.1201L147.631 68.3708L142 60L144.042 61.2367L148.424 67.8891L151.701 65.8192L153.664 66.9908L149.347 69.3992L149.776 73.1355Z" fill="#1A89D9"/>
<path d="M160.4 78.9678C159.737 78.9287 158.866 78.6033 157.799 77.9784C157.045 77.5358 156.382 77.0671 155.81 76.5724C155.238 76.0777 154.744 75.57 154.327 75.0362C153.911 74.5025 153.586 73.9818 153.352 73.435C153.118 72.9012 152.949 72.3805 152.871 71.8598C152.806 71.3651 152.871 70.9615 153.04 70.6751C153.209 70.4017 153.469 70.2195 153.833 70.1413C154.184 70.0632 154.626 70.1023 155.147 70.2585C155.667 70.4147 156.252 70.6751 156.889 71.0526C157.721 71.5473 158.437 72.0811 159.022 72.6409C159.607 73.2007 160.088 73.7735 160.465 74.3333C160.842 74.9061 161.128 75.4398 161.31 75.9605C161.492 76.4813 161.596 76.9239 161.622 77.3014L154.561 73.1616C154.587 73.448 154.666 73.7474 154.809 74.0729C154.952 74.3983 155.147 74.7238 155.42 75.0753C155.68 75.4138 156.018 75.7653 156.408 76.1037C156.798 76.4422 157.253 76.7677 157.76 77.0671C158.424 77.4576 158.944 77.6659 159.347 77.692C159.737 77.731 159.984 77.5618 160.062 77.2103L161.596 78.1086C161.453 78.7204 161.063 79.0068 160.4 78.9678ZM159.529 74.5285C159.36 74.2161 159.152 73.9167 158.892 73.6042C158.632 73.3048 158.333 73.0054 158.007 72.719C157.669 72.4326 157.318 72.1722 156.928 71.9509C156.512 71.7166 156.161 71.5473 155.849 71.4562C155.537 71.3651 155.277 71.339 155.069 71.3651C154.861 71.4041 154.692 71.4953 154.587 71.6385C154.483 71.7817 154.431 71.9769 154.444 72.2243L159.867 75.4008C159.802 75.1274 159.685 74.841 159.529 74.5285Z" fill="#1A89D9"/>
<path d="M164.626 80.4518C164.795 80.6991 165.003 80.9465 165.25 81.1808C165.498 81.4151 165.784 81.6364 166.083 81.8577C166.382 82.0791 166.694 82.2743 167.019 82.4566C167.266 82.5998 167.513 82.73 167.786 82.8602C168.046 82.9903 168.293 83.0815 168.514 83.1466C168.735 83.2116 168.905 83.2116 169.035 83.1726C169.165 83.1205 169.217 83.0034 169.191 82.7951C169.152 82.5217 168.983 82.2223 168.657 81.8968C168.332 81.5713 167.942 81.2459 167.461 80.8814C166.993 80.5299 166.486 80.1654 165.94 79.7748C165.394 79.3973 164.886 79.0067 164.405 78.6032C163.937 78.2126 163.521 77.796 163.196 77.3925C162.858 76.9759 162.663 76.5593 162.611 76.1427C162.572 75.8172 162.637 75.5959 162.819 75.4788C163.001 75.3616 163.248 75.3356 163.573 75.3876C163.885 75.4397 164.249 75.5439 164.665 75.7261C165.081 75.8953 165.485 76.1036 165.901 76.351C166.434 76.6634 166.941 76.9759 167.396 77.3013C167.851 77.6268 168.267 77.9653 168.644 78.3298C169.009 78.6813 169.321 79.0588 169.555 79.4494C169.802 79.8399 169.958 80.2305 170.049 80.647L168.488 79.7488C168.436 79.5275 168.332 79.3061 168.189 79.0848C168.033 78.8635 167.851 78.6552 167.63 78.4469C167.409 78.2386 167.175 78.0434 166.915 77.8611C166.655 77.6789 166.408 77.5096 166.148 77.3664C165.914 77.2362 165.68 77.1061 165.446 76.9889C165.211 76.8717 165.003 76.7936 164.808 76.7415C164.626 76.6895 164.47 76.6895 164.366 76.7155C164.262 76.7546 164.21 76.8457 164.236 77.0149C164.262 77.1972 164.379 77.4055 164.574 77.6398C164.782 77.8741 165.029 78.1085 165.342 78.3688C165.641 78.6162 165.979 78.8765 166.356 79.1499C166.733 79.4233 167.097 79.6837 167.474 79.9571C167.877 80.2435 168.267 80.5299 168.644 80.8293C169.022 81.1287 169.373 81.4281 169.672 81.7406C169.971 82.04 170.231 82.3524 170.439 82.6649C170.647 82.9773 170.764 83.2898 170.803 83.6022C170.855 83.9927 170.777 84.2661 170.569 84.3833C170.361 84.5135 170.075 84.5395 169.711 84.4744C169.347 84.4093 168.918 84.2791 168.449 84.0578C167.968 83.8495 167.5 83.6022 167.019 83.3288C166.486 83.0294 165.992 82.7039 165.498 82.3524C165.016 82.0009 164.574 81.6364 164.184 81.2459C163.794 80.8553 163.482 80.4648 163.222 80.0482C162.962 79.6316 162.806 79.215 162.728 78.7984L164.288 79.6967C164.353 79.9571 164.457 80.2044 164.626 80.4518Z" fill="#1A89D9"/>
<path d="M176.382 82.5216L176.512 83.4589L174.613 82.3784L175.133 86.4271C175.146 86.5573 175.172 86.6614 175.211 86.7526C175.25 86.8437 175.315 86.9348 175.406 87.026C175.497 87.1171 175.615 87.2082 175.771 87.3124C175.927 87.4165 176.122 87.5337 176.369 87.6769L177.11 88.0804L177.227 89.0308L176.031 88.3538C175.628 88.1195 175.276 87.9112 174.977 87.7029C174.678 87.4946 174.444 87.2993 174.249 87.091C174.054 86.8828 173.911 86.6745 173.794 86.4401C173.69 86.2058 173.612 85.9324 173.573 85.633L173.04 81.4802L171.427 80.5559L171.31 79.6055L172.923 80.5428L172.663 78.5901L174.223 79.4884L174.483 81.4281L176.382 82.5216Z" fill="#1A89D9"/>
<path d="M185.692 93.4311C185.029 93.3921 184.145 93.0796 183.053 92.4678C182.285 92.0381 181.609 91.5825 181.037 91.0878C180.452 90.6061 179.958 90.0984 179.529 89.5777C179.113 89.0569 178.774 88.5362 178.527 88.0025C178.28 87.4687 178.111 86.961 178.033 86.4403C177.968 85.9456 178.02 85.555 178.189 85.2686C178.358 84.9822 178.618 84.8 178.982 84.7349C179.347 84.6568 179.789 84.6958 180.309 84.839C180.829 84.9822 181.427 85.2426 182.077 85.6071C182.923 86.0888 183.651 86.6095 184.236 87.1563C184.834 87.7161 185.315 88.2628 185.705 88.8226C186.095 89.3824 186.382 89.9162 186.577 90.4239C186.759 90.9316 186.876 91.3742 186.902 91.7517L179.75 87.7161C179.776 87.9894 179.854 88.2889 179.997 88.6143C180.14 88.9268 180.348 89.2652 180.621 89.6037C180.894 89.9422 181.232 90.2807 181.622 90.6061C182.025 90.9446 182.48 91.257 183.001 91.5434C183.664 91.921 184.197 92.1163 184.6 92.1553C185.003 92.1813 185.237 92.0251 185.315 91.6736L186.876 92.5459C186.759 93.1707 186.369 93.4571 185.692 93.4311ZM184.769 89.0439C184.6 88.7445 184.379 88.4321 184.119 88.1326C183.859 87.8332 183.56 87.5468 183.222 87.2604C182.884 86.974 182.519 86.7267 182.116 86.5054C181.713 86.271 181.349 86.1148 181.037 86.0237C180.725 85.9325 180.465 85.9065 180.257 85.9456C180.049 85.9846 179.893 86.0758 179.776 86.219C179.672 86.3622 179.62 86.5574 179.633 86.7918L185.12 89.9031C185.055 89.6298 184.938 89.3434 184.769 89.0439Z" fill="#1A89D9"/>
<path d="M189.463 89.9421L189.659 91.296L189.698 91.3221C190.01 91.0096 190.426 90.8925 190.946 90.9576C191.466 91.0227 192.155 91.296 193.014 91.7907L193.17 92.9103C192.532 92.5588 192.012 92.3115 191.583 92.1813C191.154 92.0511 190.816 92.0121 190.582 92.0902C190.335 92.1683 190.179 92.3245 190.101 92.5718C190.023 92.8192 190.01 93.1577 190.062 93.5743L190.452 96.4643L188.878 95.5791L188.007 89.0959L189.463 89.9421Z" fill="#1A89D9"/>
<path d="M201.752 102.713L201.635 101.841L201.596 101.815C201.388 102.023 201.011 102.062 200.465 101.919C199.932 101.776 199.32 101.515 198.644 101.138C197.903 100.721 197.24 100.279 196.655 99.784C196.082 99.2893 195.588 98.7946 195.172 98.2869C194.769 97.7792 194.444 97.2585 194.197 96.7507C193.95 96.243 193.807 95.7483 193.742 95.2927C193.677 94.837 193.703 94.4465 193.833 94.1471C193.95 93.8346 194.184 93.6394 194.496 93.5352C194.821 93.4311 195.237 93.4571 195.77 93.5743C196.291 93.7045 196.928 93.9648 197.656 94.3814C197.903 94.5246 198.176 94.6808 198.462 94.8761C198.748 95.0714 199.047 95.2797 199.346 95.514C199.645 95.7483 199.932 96.0087 200.205 96.2691C200.478 96.5424 200.712 96.8158 200.92 97.1022L200.959 97.1283L200.478 93.8346L202.064 94.7069L203.339 103.572L201.752 102.713ZM195.744 97.2715C195.9 97.623 196.121 97.9745 196.395 98.339C196.668 98.7035 197.006 99.055 197.396 99.3935C197.799 99.7319 198.241 100.044 198.761 100.331C199.294 100.63 199.736 100.799 200.101 100.865C200.452 100.93 200.738 100.917 200.933 100.812C201.141 100.708 201.271 100.552 201.336 100.318C201.401 100.083 201.414 99.8231 201.375 99.5236C201.336 99.2112 201.232 98.8727 201.076 98.5212C200.92 98.1697 200.712 97.8052 200.439 97.4537C200.166 97.1022 199.828 96.7377 199.424 96.3992C199.021 96.0477 198.54 95.7223 197.994 95.4229C197.461 95.1234 197.019 94.9412 196.668 94.8761C196.317 94.811 196.043 94.837 195.848 94.9412C195.653 95.0453 195.536 95.2276 195.471 95.4749C195.419 95.7223 195.406 95.9957 195.445 96.3211C195.484 96.5945 195.588 96.92 195.744 97.2715Z" fill="#1A89D9"/>
<path d="M214.379 109.535C214.119 109.496 213.741 109.339 213.26 109.079C212.844 108.858 212.506 108.597 212.246 108.311C211.986 108.025 211.817 107.712 211.778 107.361C211.388 107.478 210.92 107.452 210.36 107.282C209.801 107.126 209.177 106.853 208.514 106.488C208.072 106.254 207.656 105.994 207.253 105.707C206.849 105.421 206.498 105.134 206.186 104.835C205.874 104.536 205.627 104.223 205.419 103.911C205.224 103.585 205.094 103.273 205.055 102.947C205.003 102.583 205.055 102.336 205.211 102.205C205.367 102.075 205.588 102.023 205.874 102.049C206.16 102.075 206.485 102.153 206.875 102.296C207.253 102.44 207.656 102.596 208.059 102.765C208.488 102.947 208.891 103.13 209.281 103.312C209.671 103.494 210.009 103.65 210.308 103.755C210.595 103.859 210.829 103.911 210.985 103.911C211.141 103.898 211.206 103.794 211.18 103.598C211.141 103.364 211.05 103.143 210.894 102.934C210.738 102.726 210.556 102.518 210.334 102.336C210.113 102.153 209.879 101.971 209.619 101.815C209.359 101.646 209.099 101.502 208.852 101.359C208.176 100.995 207.63 100.773 207.201 100.695C206.771 100.617 206.576 100.812 206.615 101.255L205.029 100.383C205.003 100.005 205.068 99.7318 205.25 99.5886C205.432 99.4324 205.705 99.3804 206.043 99.4194C206.394 99.4585 206.797 99.5626 207.266 99.7579C207.734 99.9401 208.241 100.187 208.787 100.487C209.229 100.721 209.658 100.982 210.1 101.255C210.542 101.528 210.946 101.828 211.31 102.14C211.674 102.453 211.986 102.791 212.233 103.13C212.48 103.481 212.636 103.833 212.688 104.197L213.169 107.478C213.208 107.725 213.247 107.92 213.312 108.064C213.377 108.207 213.533 108.337 213.78 108.48C213.923 108.558 214.08 108.623 214.262 108.688L214.379 109.535ZM211.31 104.848C211.128 104.835 210.868 104.77 210.556 104.64C210.243 104.51 209.905 104.366 209.554 104.197C209.203 104.028 208.852 103.872 208.488 103.715C208.137 103.559 207.812 103.442 207.539 103.364C207.266 103.286 207.045 103.286 206.888 103.338C206.732 103.39 206.667 103.546 206.706 103.82C206.732 103.989 206.81 104.171 206.927 104.34C207.045 104.523 207.201 104.692 207.383 104.861C207.565 105.03 207.76 105.187 207.994 105.343C208.228 105.499 208.462 105.642 208.709 105.772C209.229 106.059 209.671 106.254 210.035 106.358C210.399 106.462 210.686 106.514 210.907 106.501C211.128 106.488 211.271 106.423 211.362 106.319C211.453 106.215 211.479 106.085 211.466 105.929L211.31 104.848Z" fill="#1A89D9"/>
<path d="M219.866 113.284C219.723 113.492 219.58 113.662 219.424 113.779C219.268 113.896 219.099 113.961 218.891 113.987C218.696 114.013 218.462 113.974 218.202 113.896C217.942 113.818 217.63 113.675 217.278 113.492C217.096 113.388 216.901 113.284 216.706 113.167C216.511 113.05 216.329 112.92 216.147 112.789L216.004 111.813C216.147 111.93 216.316 112.047 216.498 112.178C216.68 112.308 216.836 112.399 216.966 112.464C217.291 112.633 217.565 112.737 217.76 112.75C217.968 112.763 218.111 112.711 218.189 112.581L218.696 111.852L213.885 103.429L215.679 104.406L219.307 111.149L219.346 111.175L221.284 107.426L222.974 108.337L219.866 113.284Z" fill="#1A89D9"/>
<g clip-path="url(#clip0)">
<path d="M290.659 148.743L290.733 149.63L288.999 148.573L289.307 152.364C289.319 152.486 289.331 152.583 289.368 152.68C289.405 152.765 289.454 152.85 289.54 152.947C289.626 153.033 289.737 153.13 289.872 153.227C290.02 153.324 290.204 153.446 290.425 153.579L291.089 153.98L291.163 154.855L290.057 154.199C289.688 153.968 289.368 153.762 289.098 153.567C288.827 153.373 288.606 153.178 288.434 152.984C288.262 152.789 288.127 152.583 288.041 152.364C287.942 152.145 287.893 151.89 287.868 151.599L287.561 147.71L286.074 146.799L286 145.911L287.487 146.823L287.328 145L288.766 145.875L288.926 147.698L290.659 148.743Z" fill="#1A89D9"/>
<path d="M292.245 151.392C292.392 151.112 292.626 150.942 292.97 150.869C293.302 150.796 293.732 150.845 294.248 151.003C294.765 151.161 295.367 151.44 296.055 151.854C296.756 152.267 297.383 152.716 297.924 153.19C298.465 153.664 298.932 154.15 299.325 154.649C299.719 155.147 300.026 155.645 300.235 156.131C300.456 156.629 300.579 157.091 300.616 157.541C300.653 157.99 300.604 158.343 300.456 158.622C300.309 158.902 300.063 159.072 299.719 159.145C299.374 159.218 298.944 159.181 298.428 159.036C297.912 158.89 297.297 158.61 296.596 158.185C295.896 157.772 295.281 157.334 294.728 156.86C294.175 156.386 293.707 155.888 293.326 155.39C292.958 154.892 292.663 154.393 292.441 153.895C292.232 153.397 292.109 152.935 292.072 152.486C292.036 152.036 292.097 151.671 292.245 151.392ZM293.892 154.503C294.052 154.88 294.273 155.232 294.543 155.572C294.814 155.912 295.109 156.241 295.453 156.544C295.797 156.848 296.154 157.103 296.535 157.322C296.916 157.541 297.26 157.699 297.592 157.796C297.924 157.893 298.194 157.918 298.44 157.869C298.674 157.82 298.846 157.699 298.969 157.492C299.092 157.286 299.128 157.006 299.092 156.642C299.055 156.277 298.956 155.9 298.797 155.536C298.624 155.171 298.416 154.807 298.145 154.466C297.875 154.126 297.567 153.81 297.223 153.506C296.879 153.203 296.522 152.947 296.141 152.729C295.773 152.498 295.416 152.34 295.096 152.243C294.765 152.145 294.482 152.121 294.261 152.17C294.027 152.218 293.855 152.34 293.732 152.546C293.609 152.753 293.572 153.032 293.609 153.397C293.634 153.762 293.732 154.138 293.892 154.503Z" fill="#1A89D9"/>
<path d="M309.098 165.282L309.024 164.468L308.987 164.443C308.778 164.638 308.422 164.662 307.918 164.516C307.414 164.37 306.848 164.115 306.234 163.763C305.545 163.362 304.943 162.936 304.414 162.475C303.886 162.013 303.443 161.527 303.087 161.053C302.718 160.567 302.435 160.081 302.239 159.595C302.03 159.109 301.907 158.659 301.87 158.221C301.833 157.796 301.882 157.432 302.005 157.152C302.14 156.873 302.349 156.678 302.669 156.593C302.976 156.508 303.382 156.532 303.874 156.654C304.365 156.788 304.943 157.043 305.619 157.432C305.853 157.565 306.099 157.723 306.357 157.906C306.627 158.088 306.898 158.294 307.168 158.525C307.438 158.756 307.697 158.987 307.942 159.242C308.188 159.497 308.397 159.765 308.582 160.032L308.619 160.056L308.299 156.982L309.762 157.833L310.598 166.108L309.098 165.282ZM303.64 160.117C303.775 160.445 303.96 160.786 304.206 161.126C304.451 161.466 304.746 161.794 305.115 162.122C305.472 162.45 305.89 162.742 306.369 163.022C306.861 163.301 307.279 163.483 307.611 163.544C307.942 163.605 308.213 163.593 308.41 163.508C308.606 163.423 308.742 163.265 308.815 163.046C308.889 162.827 308.914 162.584 308.877 162.305C308.852 162.013 308.766 161.697 308.643 161.357C308.508 161.029 308.324 160.688 308.078 160.348C307.832 160.008 307.525 159.68 307.156 159.339C306.787 159.011 306.357 158.695 305.853 158.404C305.361 158.124 304.955 157.942 304.623 157.869C304.292 157.796 304.033 157.82 303.849 157.918C303.665 158.015 303.542 158.173 303.468 158.404C303.406 158.635 303.382 158.89 303.406 159.194C303.431 159.485 303.505 159.789 303.64 160.117Z" fill="#1A89D9"/>
<path d="M320.801 171.82C320.555 171.783 320.211 171.637 319.756 171.382C319.375 171.176 319.055 170.933 318.822 170.665C318.576 170.398 318.441 170.094 318.416 169.778C318.047 169.875 317.592 169.851 317.064 169.693C316.535 169.535 315.957 169.28 315.343 168.928C314.937 168.697 314.544 168.454 314.175 168.186C313.806 167.919 313.474 167.639 313.204 167.36C312.921 167.08 312.7 166.789 312.528 166.485C312.356 166.181 312.245 165.877 312.22 165.574C312.184 165.233 312.245 165.002 312.393 164.881C312.54 164.759 312.749 164.711 313.019 164.735C313.29 164.759 313.597 164.844 313.954 164.978C314.31 165.112 314.679 165.27 315.048 165.44C315.441 165.61 315.822 165.792 316.191 165.962C316.547 166.145 316.867 166.278 317.138 166.388C317.408 166.497 317.617 166.546 317.777 166.534C317.924 166.534 317.998 166.436 317.973 166.254C317.949 166.035 317.875 165.829 317.74 165.634C317.605 165.44 317.433 165.245 317.236 165.075C317.039 164.893 316.818 164.735 316.584 164.577C316.338 164.419 316.105 164.273 315.884 164.152C315.257 163.799 314.753 163.581 314.347 163.508C313.954 163.435 313.757 163.605 313.769 164.018L312.306 163.18C312.294 162.827 312.38 162.572 312.552 162.438C312.737 162.305 312.983 162.256 313.314 162.292C313.646 162.329 314.027 162.438 314.458 162.621C314.888 162.803 315.367 163.034 315.871 163.325C316.277 163.556 316.683 163.799 317.076 164.067C317.482 164.334 317.85 164.614 318.182 164.917C318.514 165.221 318.797 165.525 319.018 165.853C319.24 166.181 319.362 166.509 319.412 166.85L319.731 169.912C319.756 170.143 319.793 170.325 319.842 170.459C319.891 170.592 320.039 170.714 320.272 170.848C320.395 170.92 320.555 170.981 320.715 171.054L320.801 171.82ZM318.084 167.421C317.912 167.409 317.666 167.336 317.371 167.214C317.076 167.093 316.769 166.947 316.437 166.789C316.105 166.631 315.785 166.473 315.453 166.315C315.122 166.157 314.826 166.047 314.568 165.975C314.31 165.902 314.101 165.89 313.954 165.938C313.806 165.987 313.732 166.133 313.757 166.376C313.769 166.534 313.831 166.704 313.941 166.874C314.052 167.044 314.187 167.202 314.347 167.36C314.507 167.518 314.691 167.664 314.913 167.822C315.122 167.968 315.343 168.113 315.576 168.235C316.068 168.502 316.474 168.697 316.818 168.806C317.162 168.915 317.433 168.964 317.642 168.952C317.85 168.94 317.998 168.879 318.084 168.782C318.17 168.684 318.207 168.563 318.195 168.429L318.084 167.421Z" fill="#1A89D9"/>
<path d="M325.816 175.356C325.669 175.551 325.521 175.709 325.374 175.818C325.226 175.927 325.054 175.988 324.857 176C324.661 176.012 324.452 175.988 324.206 175.903C323.96 175.83 323.677 175.696 323.345 175.514C323.173 175.417 322.989 175.32 322.817 175.198C322.645 175.089 322.473 174.967 322.3 174.834L322.214 173.922C322.35 174.032 322.497 174.141 322.669 174.262C322.841 174.384 322.989 174.469 323.1 174.542C323.407 174.712 323.653 174.797 323.849 174.809C324.046 174.821 324.181 174.773 324.267 174.651L324.771 173.983L320.555 166.096L322.227 167.032L325.398 173.339L325.435 173.363L327.427 169.912L329 170.775L325.816 175.356Z" fill="#1A89D9"/>
</g>
<path opacity="0.1" d="M209.667 214.72C197.197 193.72 176.907 182.3 162.167 187.08C150.917 197.73 151.167 221 163.677 242.01C176.187 263.02 196.427 274.44 211.177 269.66C222.397 259.01 222.107 235.74 209.667 214.72Z" fill="#3E7EFF"/>
<path d="M229.259 203.121C213.059 175.821 185.789 162.121 168.349 172.431L153.189 181.141L158.999 190.811C159.935 189.323 161.042 187.95 162.299 186.721C177.039 181.941 197.299 193.351 209.799 214.361C222.299 235.371 222.559 258.651 211.309 269.301C209.83 269.767 208.304 270.072 206.759 270.211L212.429 279.631L226.999 271.281C244.439 260.931 245.449 230.411 229.259 203.121Z" fill="#D6D8E5"/>
<path d="M214.68 211.481C198.48 184.181 171.21 170.481 153.77 180.791C136.33 191.101 135.32 221.661 151.52 248.961C167.72 276.261 194.99 289.961 212.43 279.641C229.87 269.321 230.88 238.761 214.68 211.481ZM211.31 269.311C196.56 274.091 176.31 262.681 163.81 241.661C151.31 220.641 151.05 197.381 162.3 186.731C177.04 181.951 197.3 193.361 209.8 214.371C222.3 235.381 222.56 258.651 211.31 269.301V269.311Z" fill="#B1B4C4"/>
<path d="M163.83 241.651C151.36 220.651 151.07 197.371 162.32 186.721C168.75 184.631 176.24 185.631 183.67 189.161C174.55 184.821 165.36 184.251 158.13 188.541C143.28 197.351 142.34 223.211 156.03 246.281C169.72 269.351 192.87 280.921 207.72 272.111C209.025 271.315 210.236 270.372 211.33 269.301C196.56 274.081 176.28 262.671 163.83 241.651Z" fill="#A1A5B5"/>
<path d="M230.12 248.191L262.81 267.041V275.461L230.12 256.611V248.191Z" fill="#B1B4C4"/>
<path d="M237.41 243.981L270.1 262.831L262.81 267.041L230.12 248.191L237.41 243.981Z" fill="#D6D8E5"/>
<path d="M255.88 262.281C258.97 257.061 264.18 254.441 267.51 256.421L326.89 290.941L315.58 309.741L256.31 275.291C252.98 273.311 252.83 267.481 255.88 262.281Z" fill="#091793"/>
<path opacity="1.3" d="M327.21 303.881C324.11 309.091 318.91 311.721 315.58 309.741C312.25 307.761 312.05 301.941 315.15 296.741C318.25 291.541 323.45 288.901 326.78 290.881C330.11 292.861 330.3 298.671 327.21 303.881Z" fill="#0C2169"/>
<defs>
<clipPath id="clip0">
<rect width="43" height="31" fill="white" transform="translate(286 145)"/>
</clipPath>
</defs>
</svg>
