<svg xmlns="http://www.w3.org/2000/svg" viewBox="0 0 16.52 10.27"><defs><style>.cls-1{fill:#fff;}</style></defs><title>crown</title><g id="レイヤー_2" data-name="レイヤー 2"><g id="レイヤー_1-2" data-name="レイヤー 1"><path class="cls-1" d="M15.86,2.49a.69.69,0,0,0-.47,1.18c-.73.75-2.11,2-2.67,1.8s-.6-1.2-.62-1.89h0a.69.69,0,0,0,0-1.38.67.67,0,0,0-.66.69.69.69,0,0,0,.44.65c-.3.68-.92,1.59-2.06,1.08C9,4.23,8.56,2.56,8.39,1.37A.69.69,0,0,0,8.93.69.68.68,0,0,0,8.26,0,.67.67,0,0,0,7.6.69a.68.68,0,0,0,.54.68C8,2.56,7.57,4.23,6.69,4.62c-1.13.51-1.76-.4-2.06-1.08a.7.7,0,0,0,.45-.65.68.68,0,0,0-.67-.69.67.67,0,0,0-.66.69.67.67,0,0,0,.66.69h0c0,.69-.13,1.67-.62,1.89s-1.94-1-2.67-1.8A.69.69,0,0,0,.66,2.49a.69.69,0,0,0,0,1.38A.54.54,0,0,0,1,3.8c.6,1.33,1.92,4.4,1.79,5.64,0,0-.32.38,0,.64s5.52.18,5.52.18,5.2.07,5.52-.18,0-.64,0-.64C13.65,8.2,15,5.13,15.57,3.8a.57.57,0,0,0,.29.07.67.67,0,0,0,.66-.69A.67.67,0,0,0,15.86,2.49Z"/></g></g></svg>